solid Untitled-59836901
facet normal 1.0 0.0 0.0
  outer loop
    vertex 59.00000000000001 -3.761480784023477 2.1882666842823495
    vertex 59.00000000000001 -3.7614807840234796 5.8117333157176425
    vertex 59.00000000000001 -4.0 3.999999999999999
  endloop
endfacet
facet normal 1.0 0.0 0.0
  outer loop
    vertex 59.00000000000001 -3.7614807840234796 5.8117333157176425
    vertex 59.00000000000001 -3.761480784023477 2.1882666842823495
    vertex 59.00000000000001 -3.0621778264910726 7.499999999999995
  endloop
endfacet
facet normal 1.0 0.0 0.0
  outer loop
    vertex 59.00000000000001 -3.0621778264910726 7.499999999999995
    vertex 59.00000000000001 -3.761480784023477 2.1882666842823495
    vertex 59.00000000000001 -3.06217782649107 0.49999999999999695
  endloop
endfacet
facet normal 1.0 0.0 0.0
  outer loop
    vertex 59.00000000000001 -3.0621778264910726 7.499999999999995
    vertex 59.00000000000001 -3.06217782649107 0.49999999999999695
    vertex 59.00000000000001 -1.949747468305833 8.949747468305832
  endloop
endfacet
facet normal 1.0 0.0 0.0
  outer loop
    vertex 59.00000000000001 -1.949747468305833 8.949747468305832
    vertex 59.00000000000001 -3.06217782649107 0.49999999999999695
    vertex 59.00000000000001 -1.9497474683058307 -0.9497474683058368
  endloop
endfacet
facet normal 1.0 0.0 0.0
  outer loop
    vertex 59.00000000000001 -1.949747468305833 8.949747468305832
    vertex 59.00000000000001 -1.9497474683058307 -0.9497474683058368
    vertex 59.00000000000001 -0.5000000000000012 10.06217782649107
  endloop
endfacet
facet normal 1.0 0.0 0.0
  outer loop
    vertex 59.00000000000001 -0.5000000000000012 10.06217782649107
    vertex 59.00000000000001 -1.9497474683058307 -0.9497474683058368
    vertex 59.00000000000001 -0.49999999999999906 -2.062177826491073
  endloop
endfacet
facet normal 1.0 0.0 0.0
  outer loop
    vertex 59.00000000000001 -0.5000000000000012 10.06217782649107
    vertex 59.00000000000001 -0.49999999999999906 -2.062177826491073
    vertex 59.00000000000001 1.1882666842823513 10.761480784023478
  endloop
endfacet
facet normal 1.0 0.0 0.0
  outer loop
    vertex 59.00000000000001 1.1882666842823513 10.761480784023478
    vertex 59.00000000000001 -0.49999999999999906 -2.062177826491073
    vertex 59.00000000000001 1.188266684282357 -2.7614807840234814
  endloop
endfacet
facet normal 1.0 0.0 0.0
  outer loop
    vertex 59.00000000000001 1.1882666842823513 10.761480784023478
    vertex 59.00000000000001 1.188266684282357 -2.7614807840234814
    vertex 59.00000000000001 3.000000000000002 11.0
  endloop
endfacet
facet normal 1.0 0.0 0.0
  outer loop
    vertex 59.00000000000001 3.000000000000002 11.0
    vertex 59.00000000000001 1.188266684282357 -2.7614807840234814
    vertex 59.00000000000001 3.000000000000001 -3.000000000000002
  endloop
endfacet
facet normal 1.0 0.0 0.0
  outer loop
    vertex 59.00000000000001 3.000000000000002 11.0
    vertex 59.00000000000001 3.000000000000001 -3.000000000000002
    vertex 59.00000000000001 4.811733315717646 -2.76148078402348
  endloop
endfacet
facet normal 1.0 0.0 0.0
  outer loop
    vertex 59.00000000000001 3.000000000000002 11.0
    vertex 59.00000000000001 4.811733315717646 -2.76148078402348
    vertex 59.00000000000001 4.811733315717649 10.761480784023478
  endloop
endfacet
facet normal 1.0 0.0 0.0
  outer loop
    vertex 59.00000000000001 4.811733315717649 10.761480784023478
    vertex 59.00000000000001 4.811733315717646 -2.76148078402348
    vertex 59.00000000000001 6.500000000000002 -2.062177826491072
  endloop
endfacet
facet normal 1.0 0.0 0.0
  outer loop
    vertex 59.00000000000001 4.811733315717649 10.761480784023478
    vertex 59.00000000000001 6.500000000000002 -2.062177826491072
    vertex 59.00000000000001 6.500000000000002 10.06217782649107
  endloop
endfacet
facet normal 1.0 0.0 0.0
  outer loop
    vertex 59.00000000000001 6.500000000000002 10.06217782649107
    vertex 59.00000000000001 6.500000000000002 -2.062177826491072
    vertex 59.00000000000001 7.949747468305834 -0.9497474683058347
  endloop
endfacet
facet normal 1.0 0.0 0.0
  outer loop
    vertex 59.00000000000001 6.500000000000002 10.06217782649107
    vertex 59.00000000000001 7.949747468305834 -0.9497474683058347
    vertex 59.00000000000001 7.949747468305834 8.949747468305832
  endloop
endfacet
facet normal 1.0 0.0 0.0
  outer loop
    vertex 59.00000000000001 7.949747468305834 8.949747468305832
    vertex 59.00000000000001 7.949747468305834 -0.9497474683058347
    vertex 59.00000000000001 9.062177826491071 0.4999999999999984
  endloop
endfacet
facet normal 1.0 0.0 0.0
  outer loop
    vertex 59.00000000000001 7.949747468305834 8.949747468305832
    vertex 59.00000000000001 9.062177826491071 0.4999999999999984
    vertex 59.00000000000001 9.062177826491071 7.499999999999997
  endloop
endfacet
facet normal 1.0 0.0 0.0
  outer loop
    vertex 59.00000000000001 9.062177826491071 7.499999999999997
    vertex 59.00000000000001 9.062177826491071 0.4999999999999984
    vertex 59.00000000000001 9.76148078402348 2.188266684282353
  endloop
endfacet
facet normal 1.0 0.0 0.0
  outer loop
    vertex 59.00000000000001 9.062177826491071 7.499999999999997
    vertex 59.00000000000001 9.76148078402348 2.188266684282353
    vertex 59.00000000000001 9.76148078402348 5.811733315717644
  endloop
endfacet
facet normal 1.0 0.0 0.0
  outer loop
    vertex 59.00000000000001 9.76148078402348 5.811733315717644
    vertex 59.00000000000001 9.76148078402348 2.188266684282353
    vertex 59.00000000000001 10.000000000000002 3.999999999999999
  endloop
endfacet
facet normal 0.0 0.6087614290087208 -0.793353340291235
  outer loop
    vertex 59.00000000000001 7.949747468305834 -0.9497474683058347
    vertex 57.00000000000001 6.500000000000002 -2.062177826491072
    vertex 57.00000000000001 7.949747468305834 -0.9497474683058347
  endloop
endfacet
facet normal 0.0 0.6087614290087208 -0.793353340291235
  outer loop
    vertex 57.00000000000001 6.500000000000002 -2.062177826491072
    vertex 59.00000000000001 7.949747468305834 -0.9497474683058347
    vertex 59.00000000000001 6.500000000000002 -2.062177826491072
  endloop
endfacet
facet normal -0.0 -0.38268343236509 -0.9238795325112867
  outer loop
    vertex 59.00000000000001 1.188266684282357 -2.7614807840234814
    vertex 57.00000000000001 -0.49999999999999906 -2.062177826491073
    vertex 57.00000000000001 1.188266684282357 -2.7614807840234814
  endloop
endfacet
facet normal -0.0 -0.38268343236509 -0.9238795325112867
  outer loop
    vertex 57.00000000000001 -0.49999999999999906 -2.062177826491073
    vertex 59.00000000000001 1.188266684282357 -2.7614807840234814
    vertex 59.00000000000001 -0.49999999999999906 -2.062177826491073
  endloop
endfacet
facet normal 0.0 0.13052619222005166 -0.9914448613738105
  outer loop
    vertex 59.00000000000001 4.811733315717646 -2.76148078402348
    vertex 57.00000000000001 3.000000000000001 -3.000000000000002
    vertex 57.00000000000001 4.811733315717646 -2.76148078402348
  endloop
endfacet
facet normal 0.0 0.13052619222005166 -0.9914448613738105
  outer loop
    vertex 57.00000000000001 3.000000000000001 -3.000000000000002
    vertex 59.00000000000001 4.811733315717646 -2.76148078402348
    vertex 59.00000000000001 3.000000000000001 -3.000000000000002
  endloop
endfacet
facet normal 0.0 0.7933533402912353 -0.6087614290087204
  outer loop
    vertex 57.00000000000001 9.062177826491071 0.4999999999999984
    vertex 59.00000000000001 7.949747468305834 -0.9497474683058347
    vertex 57.00000000000001 7.949747468305834 -0.9497474683058347
  endloop
endfacet
facet normal 0.0 0.7933533402912353 -0.6087614290087204
  outer loop
    vertex 59.00000000000001 7.949747468305834 -0.9497474683058347
    vertex 57.00000000000001 9.062177826491071 0.4999999999999984
    vertex 59.00000000000001 9.062177826491071 0.4999999999999984
  endloop
endfacet
facet normal -0.0 -0.6087614290087203 -0.7933533402912354
  outer loop
    vertex 59.00000000000001 -0.49999999999999906 -2.062177826491073
    vertex 57.00000000000001 -1.9497474683058307 -0.9497474683058368
    vertex 57.00000000000001 -0.49999999999999906 -2.062177826491073
  endloop
endfacet
facet normal -0.0 -0.6087614290087203 -0.7933533402912354
  outer loop
    vertex 57.00000000000001 -1.9497474683058307 -0.9497474683058368
    vertex 59.00000000000001 -0.49999999999999906 -2.062177826491073
    vertex 59.00000000000001 -1.9497474683058307 -0.9497474683058368
  endloop
endfacet
facet normal -0.0 -0.13052619222005113 -0.9914448613738106
  outer loop
    vertex 59.00000000000001 3.000000000000001 -3.000000000000002
    vertex 57.00000000000001 1.188266684282357 -2.7614807840234814
    vertex 57.00000000000001 3.000000000000001 -3.000000000000002
  endloop
endfacet
facet normal -0.0 -0.13052619222005113 -0.9914448613738106
  outer loop
    vertex 57.00000000000001 1.188266684282357 -2.7614807840234814
    vertex 59.00000000000001 3.000000000000001 -3.000000000000002
    vertex 59.00000000000001 1.188266684282357 -2.7614807840234814
  endloop
endfacet
facet normal 0.0 0.3826834323650898 -0.9238795325112868
  outer loop
    vertex 59.00000000000001 6.500000000000002 -2.062177826491072
    vertex 57.00000000000001 4.811733315717646 -2.76148078402348
    vertex 57.00000000000001 6.500000000000002 -2.062177826491072
  endloop
endfacet
facet normal 0.0 0.3826834323650898 -0.9238795325112868
  outer loop
    vertex 57.00000000000001 4.811733315717646 -2.76148078402348
    vertex 59.00000000000001 6.500000000000002 -2.062177826491072
    vertex 59.00000000000001 4.811733315717646 -2.76148078402348
  endloop
endfacet
facet normal -0.0 -0.793353340291235 -0.6087614290087208
  outer loop
    vertex 59.00000000000001 -3.06217782649107 0.49999999999999695
    vertex 57.00000000000001 -1.9497474683058307 -0.9497474683058368
    vertex 59.00000000000001 -1.9497474683058307 -0.9497474683058368
  endloop
endfacet
facet normal -0.0 -0.793353340291235 -0.6087614290087208
  outer loop
    vertex 57.00000000000001 -1.9497474683058307 -0.9497474683058368
    vertex 59.00000000000001 -3.06217782649107 0.49999999999999695
    vertex 57.00000000000001 -3.06217782649107 0.49999999999999695
  endloop
endfacet
facet normal 0.0 0.9238795325112868 -0.3826834323650899
  outer loop
    vertex 57.00000000000001 9.76148078402348 2.188266684282353
    vertex 59.00000000000001 9.062177826491071 0.4999999999999984
    vertex 57.00000000000001 9.062177826491071 0.4999999999999984
  endloop
endfacet
facet normal 0.0 0.9238795325112868 -0.3826834323650899
  outer loop
    vertex 59.00000000000001 9.062177826491071 0.4999999999999984
    vertex 57.00000000000001 9.76148078402348 2.188266684282353
    vertex 59.00000000000001 9.76148078402348 2.188266684282353
  endloop
endfacet
facet normal 0.0 -0.13052619222005132 0.9914448613738105
  outer loop
    vertex 59.00000000000001 1.1882666842823513 10.761480784023478
    vertex 57.00000000000001 3.000000000000002 11.0
    vertex 57.00000000000001 1.1882666842823513 10.761480784023478
  endloop
endfacet
facet normal 0.0 -0.13052619222005132 0.9914448613738105
  outer loop
    vertex 57.00000000000001 3.000000000000002 11.0
    vertex 59.00000000000001 1.1882666842823513 10.761480784023478
    vertex 59.00000000000001 3.000000000000002 11.0
  endloop
endfacet
facet normal 0.0 0.1305261922200517 0.9914448613738105
  outer loop
    vertex 59.00000000000001 3.000000000000002 11.0
    vertex 57.00000000000001 4.811733315717649 10.761480784023478
    vertex 57.00000000000001 3.000000000000002 11.0
  endloop
endfacet
facet normal 0.0 0.1305261922200517 0.9914448613738105
  outer loop
    vertex 57.00000000000001 4.811733315717649 10.761480784023478
    vertex 59.00000000000001 3.000000000000002 11.0
    vertex 59.00000000000001 4.811733315717649 10.761480784023478
  endloop
endfacet
facet normal 0.0 0.923879532511287 0.38268343236508934
  outer loop
    vertex 57.00000000000001 9.062177826491071 7.499999999999997
    vertex 59.00000000000001 9.76148078402348 5.811733315717644
    vertex 57.00000000000001 9.76148078402348 5.811733315717644
  endloop
endfacet
facet normal 0.0 0.923879532511287 0.38268343236508934
  outer loop
    vertex 59.00000000000001 9.76148078402348 5.811733315717644
    vertex 57.00000000000001 9.062177826491071 7.499999999999997
    vertex 59.00000000000001 9.062177826491071 7.499999999999997
  endloop
endfacet
facet normal 0.0 0.38268343236508995 0.9238795325112866
  outer loop
    vertex 59.00000000000001 4.811733315717649 10.761480784023478
    vertex 57.00000000000001 6.500000000000002 10.06217782649107
    vertex 57.00000000000001 4.811733315717649 10.761480784023478
  endloop
endfacet
facet normal 0.0 0.38268343236508995 0.9238795325112866
  outer loop
    vertex 57.00000000000001 6.500000000000002 10.06217782649107
    vertex 59.00000000000001 4.811733315717649 10.761480784023478
    vertex 59.00000000000001 6.500000000000002 10.06217782649107
  endloop
endfacet
facet normal 0.0 0.6087614290087208 0.793353340291235
  outer loop
    vertex 59.00000000000001 6.500000000000002 10.06217782649107
    vertex 57.00000000000001 7.949747468305834 8.949747468305832
    vertex 57.00000000000001 6.500000000000002 10.06217782649107
  endloop
endfacet
facet normal 0.0 0.6087614290087208 0.793353340291235
  outer loop
    vertex 57.00000000000001 7.949747468305834 8.949747468305832
    vertex 59.00000000000001 6.500000000000002 10.06217782649107
    vertex 59.00000000000001 7.949747468305834 8.949747468305832
  endloop
endfacet
facet normal 0.0 -0.6087614290087208 0.793353340291235
  outer loop
    vertex 59.00000000000001 -1.949747468305833 8.949747468305832
    vertex 57.00000000000001 -0.5000000000000012 10.06217782649107
    vertex 57.00000000000001 -1.949747468305833 8.949747468305832
  endloop
endfacet
facet normal 0.0 -0.6087614290087208 0.793353340291235
  outer loop
    vertex 57.00000000000001 -0.5000000000000012 10.06217782649107
    vertex 59.00000000000001 -1.949747468305833 8.949747468305832
    vertex 59.00000000000001 -0.5000000000000012 10.06217782649107
  endloop
endfacet
facet normal 0.0 0.9914448613738105 -0.13052619222005177
  outer loop
    vertex 57.00000000000001 10.000000000000002 3.999999999999999
    vertex 59.00000000000001 9.76148078402348 2.188266684282353
    vertex 57.00000000000001 9.76148078402348 2.188266684282353
  endloop
endfacet
facet normal 0.0 0.9914448613738105 -0.13052619222005177
  outer loop
    vertex 59.00000000000001 9.76148078402348 2.188266684282353
    vertex 57.00000000000001 10.000000000000002 3.999999999999999
    vertex 59.00000000000001 10.000000000000002 3.999999999999999
  endloop
endfacet
facet normal 0.0 0.9914448613738105 0.13052619222005166
  outer loop
    vertex 57.00000000000001 9.76148078402348 5.811733315717644
    vertex 59.00000000000001 10.000000000000002 3.999999999999999
    vertex 57.00000000000001 10.000000000000002 3.999999999999999
  endloop
endfacet
facet normal 0.0 0.9914448613738105 0.13052619222005166
  outer loop
    vertex 59.00000000000001 10.000000000000002 3.999999999999999
    vertex 57.00000000000001 9.76148078402348 5.811733315717644
    vertex 59.00000000000001 9.76148078402348 5.811733315717644
  endloop
endfacet
facet normal 0.0 0.793353340291235 0.608761429008721
  outer loop
    vertex 57.00000000000001 7.949747468305834 8.949747468305832
    vertex 59.00000000000001 9.062177826491071 7.499999999999997
    vertex 57.00000000000001 9.062177826491071 7.499999999999997
  endloop
endfacet
facet normal 0.0 0.793353340291235 0.608761429008721
  outer loop
    vertex 59.00000000000001 9.062177826491071 7.499999999999997
    vertex 57.00000000000001 7.949747468305834 8.949747468305832
    vertex 59.00000000000001 7.949747468305834 8.949747468305832
  endloop
endfacet
facet normal 0.0 -0.38268343236509034 0.9238795325112865
  outer loop
    vertex 59.00000000000001 -0.5000000000000012 10.06217782649107
    vertex 57.00000000000001 1.1882666842823513 10.761480784023478
    vertex 57.00000000000001 -0.5000000000000012 10.06217782649107
  endloop
endfacet
facet normal 0.0 -0.38268343236509034 0.9238795325112865
  outer loop
    vertex 57.00000000000001 1.1882666842823513 10.761480784023478
    vertex 59.00000000000001 -0.5000000000000012 10.06217782649107
    vertex 59.00000000000001 1.1882666842823513 10.761480784023478
  endloop
endfacet
facet normal 0.0 -0.7933533402912353 0.6087614290087204
  outer loop
    vertex 59.00000000000001 -1.949747468305833 8.949747468305832
    vertex 57.00000000000001 -3.0621778264910726 7.499999999999995
    vertex 59.00000000000001 -3.0621778264910726 7.499999999999995
  endloop
endfacet
facet normal 0.0 -0.7933533402912353 0.6087614290087204
  outer loop
    vertex 57.00000000000001 -3.0621778264910726 7.499999999999995
    vertex 59.00000000000001 -1.949747468305833 8.949747468305832
    vertex 57.00000000000001 -1.949747468305833 8.949747468305832
  endloop
endfacet
facet normal 0.0 -0.9914448613738105 0.13052619222005107
  outer loop
    vertex 59.00000000000001 -3.7614807840234796 5.8117333157176425
    vertex 57.00000000000001 -4.0 3.999999999999999
    vertex 59.00000000000001 -4.0 3.999999999999999
  endloop
endfacet
facet normal 0.0 -0.9914448613738105 0.13052619222005107
  outer loop
    vertex 57.00000000000001 -4.0 3.999999999999999
    vertex 59.00000000000001 -3.7614807840234796 5.8117333157176425
    vertex 57.00000000000001 -3.7614807840234796 5.8117333157176425
  endloop
endfacet
facet normal 0.0 -0.9238795325112867 0.3826834323650898
  outer loop
    vertex 59.00000000000001 -3.0621778264910726 7.499999999999995
    vertex 57.00000000000001 -3.7614807840234796 5.8117333157176425
    vertex 59.00000000000001 -3.7614807840234796 5.8117333157176425
  endloop
endfacet
facet normal 0.0 -0.9238795325112867 0.3826834323650898
  outer loop
    vertex 57.00000000000001 -3.7614807840234796 5.8117333157176425
    vertex 59.00000000000001 -3.0621778264910726 7.499999999999995
    vertex 57.00000000000001 -3.0621778264910726 7.499999999999995
  endloop
endfacet
facet normal -0.0 -0.9238795325112867 -0.38268343236508995
  outer loop
    vertex 59.00000000000001 -3.761480784023477 2.1882666842823495
    vertex 57.00000000000001 -3.06217782649107 0.49999999999999695
    vertex 59.00000000000001 -3.06217782649107 0.49999999999999695
  endloop
endfacet
facet normal -0.0 -0.9238795325112867 -0.38268343236508995
  outer loop
    vertex 57.00000000000001 -3.06217782649107 0.49999999999999695
    vertex 59.00000000000001 -3.761480784023477 2.1882666842823495
    vertex 57.00000000000001 -3.761480784023477 2.1882666842823495
  endloop
endfacet
facet normal -0.0 -0.9914448613738103 -0.13052619222005218
  outer loop
    vertex 59.00000000000001 -4.0 3.999999999999999
    vertex 57.00000000000001 -3.761480784023477 2.1882666842823495
    vertex 59.00000000000001 -3.761480784023477 2.1882666842823495
  endloop
endfacet
facet normal -0.0 -0.9914448613738103 -0.13052619222005218
  outer loop
    vertex 57.00000000000001 -3.761480784023477 2.1882666842823495
    vertex 59.00000000000001 -4.0 3.999999999999999
    vertex 57.00000000000001 -4.0 3.999999999999999
  endloop
endfacet
facet normal -1.0 0.0 0.0
  outer loop
    vertex 57.00000000000001 -3.7614807840234796 5.8117333157176425
    vertex 57.00000000000001 -3.761480784023477 2.1882666842823495
    vertex 57.00000000000001 -4.0 3.999999999999999
  endloop
endfacet
facet normal -1.0 0.0 0.0
  outer loop
    vertex 57.00000000000001 -3.761480784023477 2.1882666842823495
    vertex 57.00000000000001 -3.7614807840234796 5.8117333157176425
    vertex 57.00000000000001 -3.0621778264910726 7.499999999999995
  endloop
endfacet
facet normal -1.0 0.0 0.0
  outer loop
    vertex 57.00000000000001 -3.761480784023477 2.1882666842823495
    vertex 57.00000000000001 -3.0621778264910726 7.499999999999995
    vertex 57.00000000000001 -3.06217782649107 0.49999999999999695
  endloop
endfacet
facet normal -1.0 0.0 0.0
  outer loop
    vertex 57.00000000000001 -3.06217782649107 0.49999999999999695
    vertex 57.00000000000001 -3.0621778264910726 7.499999999999995
    vertex 57.00000000000001 -1.949747468305833 8.949747468305832
  endloop
endfacet
facet normal -1.0 0.0 0.0
  outer loop
    vertex 57.00000000000001 -3.06217782649107 0.49999999999999695
    vertex 57.00000000000001 -1.949747468305833 8.949747468305832
    vertex 57.00000000000001 -1.9497474683058307 -0.9497474683058368
  endloop
endfacet
facet normal -1.0 0.0 0.0
  outer loop
    vertex 57.00000000000001 -1.9497474683058307 -0.9497474683058368
    vertex 57.00000000000001 -1.949747468305833 8.949747468305832
    vertex 57.00000000000001 -0.5000000000000012 10.06217782649107
  endloop
endfacet
facet normal -1.0 0.0 0.0
  outer loop
    vertex 57.00000000000001 -1.9497474683058307 -0.9497474683058368
    vertex 57.00000000000001 -0.5000000000000012 10.06217782649107
    vertex 57.00000000000001 -0.49999999999999906 -2.062177826491073
  endloop
endfacet
facet normal -1.0 0.0 0.0
  outer loop
    vertex 57.00000000000001 -0.49999999999999906 -2.062177826491073
    vertex 57.00000000000001 -0.5000000000000012 10.06217782649107
    vertex 57.00000000000001 1.1882666842823513 10.761480784023478
  endloop
endfacet
facet normal -1.0 0.0 0.0
  outer loop
    vertex 57.00000000000001 -0.49999999999999906 -2.062177826491073
    vertex 57.00000000000001 1.1882666842823513 10.761480784023478
    vertex 57.00000000000001 1.188266684282357 -2.7614807840234814
  endloop
endfacet
facet normal -1.0 0.0 0.0
  outer loop
    vertex 57.00000000000001 1.188266684282357 -2.7614807840234814
    vertex 57.00000000000001 1.1882666842823513 10.761480784023478
    vertex 57.00000000000001 3.000000000000002 11.0
  endloop
endfacet
facet normal -1.0 0.0 0.0
  outer loop
    vertex 57.00000000000001 1.188266684282357 -2.7614807840234814
    vertex 57.00000000000001 3.000000000000002 11.0
    vertex 57.00000000000001 3.000000000000001 -3.000000000000002
  endloop
endfacet
facet normal -1.0 0.0 0.0
  outer loop
    vertex 57.00000000000001 3.000000000000001 -3.000000000000002
    vertex 57.00000000000001 3.000000000000002 11.0
    vertex 57.00000000000001 4.811733315717646 -2.76148078402348
  endloop
endfacet
facet normal -1.0 0.0 0.0
  outer loop
    vertex 57.00000000000001 4.811733315717646 -2.76148078402348
    vertex 57.00000000000001 3.000000000000002 11.0
    vertex 57.00000000000001 4.811733315717649 10.761480784023478
  endloop
endfacet
facet normal -1.0 0.0 0.0
  outer loop
    vertex 57.00000000000001 4.811733315717646 -2.76148078402348
    vertex 57.00000000000001 4.811733315717649 10.761480784023478
    vertex 57.00000000000001 6.500000000000002 -2.062177826491072
  endloop
endfacet
facet normal -1.0 0.0 0.0
  outer loop
    vertex 57.00000000000001 6.500000000000002 -2.062177826491072
    vertex 57.00000000000001 4.811733315717649 10.761480784023478
    vertex 57.00000000000001 6.500000000000002 10.06217782649107
  endloop
endfacet
facet normal -1.0 0.0 0.0
  outer loop
    vertex 57.00000000000001 6.500000000000002 -2.062177826491072
    vertex 57.00000000000001 6.500000000000002 10.06217782649107
    vertex 57.00000000000001 7.949747468305834 8.949747468305832
  endloop
endfacet
facet normal -1.0 0.0 0.0
  outer loop
    vertex 57.00000000000001 6.500000000000002 -2.062177826491072
    vertex 57.00000000000001 7.949747468305834 8.949747468305832
    vertex 57.00000000000001 7.949747468305834 -0.9497474683058347
  endloop
endfacet
facet normal -1.0 0.0 0.0
  outer loop
    vertex 57.00000000000001 7.949747468305834 -0.9497474683058347
    vertex 57.00000000000001 7.949747468305834 8.949747468305832
    vertex 57.00000000000001 9.062177826491071 7.499999999999997
  endloop
endfacet
facet normal -1.0 0.0 0.0
  outer loop
    vertex 57.00000000000001 7.949747468305834 -0.9497474683058347
    vertex 57.00000000000001 9.062177826491071 7.499999999999997
    vertex 57.00000000000001 9.062177826491071 0.4999999999999984
  endloop
endfacet
facet normal -1.0 0.0 0.0
  outer loop
    vertex 57.00000000000001 9.062177826491071 0.4999999999999984
    vertex 57.00000000000001 9.062177826491071 7.499999999999997
    vertex 57.00000000000001 9.76148078402348 5.811733315717644
  endloop
endfacet
facet normal -1.0 0.0 0.0
  outer loop
    vertex 57.00000000000001 9.062177826491071 0.4999999999999984
    vertex 57.00000000000001 9.76148078402348 5.811733315717644
    vertex 57.00000000000001 9.76148078402348 2.188266684282353
  endloop
endfacet
facet normal -1.0 0.0 0.0
  outer loop
    vertex 57.00000000000001 9.76148078402348 2.188266684282353
    vertex 57.00000000000001 9.76148078402348 5.811733315717644
    vertex 57.00000000000001 10.000000000000002 3.999999999999999
  endloop
endfacet
endsolid Untitled-59836901
