solid Untitled-59836908
facet normal 0.0 -0.9914448613738105 -0.13052619222005174
  outer loop
    vertex 57.00000000000001 -3.999999999999999 3.999999999999999
    vertex 41.99999999999994 -3.761480784023477 2.188266684282354
    vertex 57.00000000000001 -3.761480784023477 2.188266684282354
  endloop
endfacet
facet normal 0.0 -0.9914448613738105 -0.13052619222005174
  outer loop
    vertex 41.99999999999994 -3.761480784023477 2.188266684282354
    vertex 57.00000000000001 -3.999999999999999 3.999999999999999
    vertex 41.99999999999994 -3.999999999999999 3.999999999999999
  endloop
endfacet
facet normal 0.0 -0.9238795325112868 -0.3826834323650897
  outer loop
    vertex 57.00000000000001 -3.761480784023477 2.188266684282354
    vertex 41.99999999999994 -3.06217782649107 0.4999999999999998
    vertex 57.00000000000001 -3.06217782649107 0.4999999999999998
  endloop
endfacet
facet normal 0.0 -0.9238795325112868 -0.3826834323650897
  outer loop
    vertex 41.99999999999994 -3.06217782649107 0.4999999999999998
    vertex 57.00000000000001 -3.761480784023477 2.188266684282354
    vertex 41.99999999999994 -3.761480784023477 2.188266684282354
  endloop
endfacet
facet normal 0.0 -0.7933533402912353 -0.6087614290087204
  outer loop
    vertex 57.00000000000001 -3.06217782649107 0.4999999999999998
    vertex 41.99999999999994 -1.9497474683058322 -0.9497474683058333
    vertex 57.00000000000001 -1.9497474683058322 -0.9497474683058333
  endloop
endfacet
facet normal 0.0 -0.7933533402912353 -0.6087614290087204
  outer loop
    vertex 41.99999999999994 -1.9497474683058322 -0.9497474683058333
    vertex 57.00000000000001 -3.06217782649107 0.4999999999999998
    vertex 41.99999999999994 -3.06217782649107 0.4999999999999998
  endloop
endfacet
facet normal 0.0 -0.6087614290087207 -0.7933533402912352
  outer loop
    vertex 57.00000000000001 -0.4999999999999998 -2.062177826491071
    vertex 41.99999999999994 -1.9497474683058322 -0.9497474683058333
    vertex 41.99999999999994 -0.4999999999999998 -2.062177826491071
  endloop
endfacet
facet normal 0.0 -0.6087614290087207 -0.7933533402912352
  outer loop
    vertex 41.99999999999994 -1.9497474683058322 -0.9497474683058333
    vertex 57.00000000000001 -0.4999999999999998 -2.062177826491071
    vertex 57.00000000000001 -1.9497474683058322 -0.9497474683058333
  endloop
endfacet
facet normal 0.0 0.9914448613738105 0.13052619222005132
  outer loop
    vertex 41.99999999999994 -1.499999999999998 3.999999999999999
    vertex 57.00000000000001 -1.3466662183008058 2.835314297038657
    vertex 41.99999999999994 -1.3466662183008058 2.835314297038657
  endloop
endfacet
facet normal 0.0 0.9914448613738105 0.13052619222005132
  outer loop
    vertex 57.00000000000001 -1.3466662183008058 2.835314297038657
    vertex 41.99999999999994 -1.499999999999998 3.999999999999999
    vertex 57.00000000000001 -1.499999999999998 3.999999999999999
  endloop
endfacet
facet normal 0.0 0.9914448613738105 -0.13052619222005177
  outer loop
    vertex 41.99999999999994 -1.3466662183008051 5.164685702961342
    vertex 57.00000000000001 -1.499999999999998 3.999999999999999
    vertex 41.99999999999994 -1.499999999999998 3.999999999999999
  endloop
endfacet
facet normal 0.0 0.9914448613738105 -0.13052619222005177
  outer loop
    vertex 57.00000000000001 -1.499999999999998 3.999999999999999
    vertex 41.99999999999994 -1.3466662183008051 5.164685702961342
    vertex 57.00000000000001 -1.3466662183008051 5.164685702961342
  endloop
endfacet
facet normal 0.0 0.9238795325112868 -0.3826834323650893
  outer loop
    vertex 41.99999999999994 -0.8971143170299726 6.249999999999999
    vertex 57.00000000000001 -1.3466662183008051 5.164685702961342
    vertex 41.99999999999994 -1.3466662183008051 5.164685702961342
  endloop
endfacet
facet normal 0.0 0.9238795325112868 -0.3826834323650893
  outer loop
    vertex 57.00000000000001 -1.3466662183008051 5.164685702961342
    vertex 41.99999999999994 -0.8971143170299726 6.249999999999999
    vertex 57.00000000000001 -0.8971143170299726 6.249999999999999
  endloop
endfacet
facet normal 0.0 0.7933533402912348 -0.608761429008721
  outer loop
    vertex 41.99999999999994 -0.1819805153394625 7.181980515339462
    vertex 57.00000000000001 -0.8971143170299726 6.249999999999999
    vertex 41.99999999999994 -0.8971143170299726 6.249999999999999
  endloop
endfacet
facet normal 0.0 0.7933533402912348 -0.608761429008721
  outer loop
    vertex 57.00000000000001 -0.8971143170299726 6.249999999999999
    vertex 41.99999999999994 -0.1819805153394625 7.181980515339462
    vertex 57.00000000000001 -0.1819805153394625 7.181980515339462
  endloop
endfacet
facet normal 0.0 0.6087614290087213 -0.7933533402912347
  outer loop
    vertex 57.00000000000001 0.75 7.897114317029971
    vertex 41.99999999999994 -0.1819805153394625 7.181980515339462
    vertex 41.99999999999994 0.75 7.897114317029971
  endloop
endfacet
facet normal 0.0 0.6087614290087213 -0.7933533402912347
  outer loop
    vertex 41.99999999999994 -0.1819805153394625 7.181980515339462
    vertex 57.00000000000001 0.75 7.897114317029971
    vertex 57.00000000000001 -0.1819805153394625 7.181980515339462
  endloop
endfacet
facet normal 0.0 0.38268343236508956 -0.9238795325112868
  outer loop
    vertex 57.00000000000001 1.8353142970386582 8.346666218300806
    vertex 41.99999999999994 0.75 7.897114317029971
    vertex 41.99999999999994 1.8353142970386582 8.346666218300806
  endloop
endfacet
facet normal 0.0 0.38268343236508956 -0.9238795325112868
  outer loop
    vertex 41.99999999999994 0.75 7.897114317029971
    vertex 57.00000000000001 1.8353142970386582 8.346666218300806
    vertex 57.00000000000001 0.75 7.897114317029971
  endloop
endfacet
facet normal 0.0 0.1305261922200519 -0.9914448613738105
  outer loop
    vertex 57.00000000000001 3.000000000000001 8.499999999999998
    vertex 41.99999999999994 1.8353142970386582 8.346666218300806
    vertex 41.99999999999994 3.000000000000001 8.499999999999998
  endloop
endfacet
facet normal 0.0 0.1305261922200519 -0.9914448613738105
  outer loop
    vertex 41.99999999999994 1.8353142970386582 8.346666218300806
    vertex 57.00000000000001 3.000000000000001 8.499999999999998
    vertex 57.00000000000001 1.8353142970386582 8.346666218300806
  endloop
endfacet
facet normal 0.0 -0.130526192220052 -0.9914448613738105
  outer loop
    vertex 57.00000000000001 4.164685702961342 8.346666218300806
    vertex 41.99999999999994 3.000000000000001 8.499999999999998
    vertex 41.99999999999994 4.164685702961342 8.346666218300806
  endloop
endfacet
facet normal 0.0 -0.130526192220052 -0.9914448613738105
  outer loop
    vertex 41.99999999999994 3.000000000000001 8.499999999999998
    vertex 57.00000000000001 4.164685702961342 8.346666218300806
    vertex 57.00000000000001 3.000000000000001 8.499999999999998
  endloop
endfacet
facet normal 0.0 -0.38268343236508967 -0.9238795325112868
  outer loop
    vertex 57.00000000000001 5.250000000000001 7.897114317029971
    vertex 41.99999999999994 4.164685702961342 8.346666218300806
    vertex 41.99999999999994 5.250000000000001 7.897114317029971
  endloop
endfacet
facet normal 0.0 -0.38268343236508967 -0.9238795325112868
  outer loop
    vertex 41.99999999999994 4.164685702961342 8.346666218300806
    vertex 57.00000000000001 5.250000000000001 7.897114317029971
    vertex 57.00000000000001 4.164685702961342 8.346666218300806
  endloop
endfacet
facet normal 0.0 -0.608761429008721 -0.7933533402912349
  outer loop
    vertex 57.00000000000001 6.181980515339463 7.181980515339462
    vertex 41.99999999999994 5.250000000000001 7.897114317029971
    vertex 41.99999999999994 6.181980515339463 7.181980515339462
  endloop
endfacet
facet normal 0.0 -0.608761429008721 -0.7933533402912349
  outer loop
    vertex 41.99999999999994 5.250000000000001 7.897114317029971
    vertex 57.00000000000001 6.181980515339463 7.181980515339462
    vertex 57.00000000000001 5.250000000000001 7.897114317029971
  endloop
endfacet
facet normal 0.0 -0.7933533402912345 -0.6087614290087217
  outer loop
    vertex 57.00000000000001 6.181980515339463 7.181980515339462
    vertex 41.99999999999994 6.897114317029974 6.249999999999999
    vertex 57.00000000000001 6.897114317029974 6.249999999999999
  endloop
endfacet
facet normal 0.0 -0.7933533402912345 -0.6087614290087217
  outer loop
    vertex 41.99999999999994 6.897114317029974 6.249999999999999
    vertex 57.00000000000001 6.181980515339463 7.181980515339462
    vertex 41.99999999999994 6.181980515339463 7.181980515339462
  endloop
endfacet
facet normal 0.0 -0.9238795325112871 -0.38268343236508934
  outer loop
    vertex 57.00000000000001 6.897114317029974 6.249999999999999
    vertex 41.99999999999994 7.346666218300808 5.16468570296134
    vertex 57.00000000000001 7.346666218300808 5.16468570296134
  endloop
endfacet
facet normal 0.0 -0.9238795325112871 -0.38268343236508934
  outer loop
    vertex 41.99999999999994 7.346666218300808 5.16468570296134
    vertex 57.00000000000001 6.897114317029974 6.249999999999999
    vertex 41.99999999999994 6.897114317029974 6.249999999999999
  endloop
endfacet
facet normal 0.0 -0.9914448613738105 -0.13052619222005177
  outer loop
    vertex 57.00000000000001 7.346666218300808 5.16468570296134
    vertex 41.99999999999994 7.5 3.999999999999998
    vertex 57.00000000000001 7.5 3.999999999999998
  endloop
endfacet
facet normal 0.0 -0.9914448613738105 -0.13052619222005177
  outer loop
    vertex 41.99999999999994 7.5 3.999999999999998
    vertex 57.00000000000001 7.346666218300808 5.16468570296134
    vertex 41.99999999999994 7.346666218300808 5.16468570296134
  endloop
endfacet
facet normal 0.0 -0.9914448613738105 0.13052619222005182
  outer loop
    vertex 57.00000000000001 7.5 3.999999999999998
    vertex 41.99999999999994 7.346666218300808 2.8353142970386545
    vertex 57.00000000000001 7.346666218300808 2.8353142970386545
  endloop
endfacet
facet normal 0.0 -0.9914448613738105 0.13052619222005182
  outer loop
    vertex 41.99999999999994 7.346666218300808 2.8353142970386545
    vertex 57.00000000000001 7.5 3.999999999999998
    vertex 41.99999999999994 7.5 3.999999999999998
  endloop
endfacet
facet normal 0.0 -0.9238795325112865 0.38268343236509034
  outer loop
    vertex 57.00000000000001 7.346666218300808 2.8353142970386545
    vertex 41.99999999999994 6.897114317029974 1.7499999999999982
    vertex 57.00000000000001 6.897114317029974 1.7499999999999982
  endloop
endfacet
facet normal 0.0 -0.9238795325112865 0.38268343236509034
  outer loop
    vertex 41.99999999999994 6.897114317029974 1.7499999999999982
    vertex 57.00000000000001 7.346666218300808 2.8353142970386545
    vertex 41.99999999999994 7.346666218300808 2.8353142970386545
  endloop
endfacet
facet normal 0.0 -0.7933533402912347 0.6087614290087213
  outer loop
    vertex 57.00000000000001 6.897114317029974 1.7499999999999982
    vertex 41.99999999999994 6.181980515339463 0.818019484660535
    vertex 57.00000000000001 6.181980515339463 0.818019484660535
  endloop
endfacet
facet normal 0.0 -0.7933533402912347 0.6087614290087213
  outer loop
    vertex 41.99999999999994 6.181980515339463 0.818019484660535
    vertex 57.00000000000001 6.897114317029974 1.7499999999999982
    vertex 41.99999999999994 6.897114317029974 1.7499999999999982
  endloop
endfacet
facet normal 0.0 -0.6087614290087205 0.7933533402912353
  outer loop
    vertex 57.00000000000001 5.249999999999999 0.10288568297002557
    vertex 41.99999999999994 6.181980515339463 0.818019484660535
    vertex 41.99999999999994 5.249999999999999 0.10288568297002557
  endloop
endfacet
facet normal 0.0 -0.6087614290087205 0.7933533402912353
  outer loop
    vertex 41.99999999999994 6.181980515339463 0.818019484660535
    vertex 57.00000000000001 5.249999999999999 0.10288568297002557
    vertex 57.00000000000001 6.181980515339463 0.818019484660535
  endloop
endfacet
facet normal 0.0 -0.38268343236508956 0.9238795325112868
  outer loop
    vertex 57.00000000000001 4.164685702961344 -0.3466662183008076
    vertex 41.99999999999994 5.249999999999999 0.10288568297002557
    vertex 41.99999999999994 4.164685702961344 -0.3466662183008076
  endloop
endfacet
facet normal 0.0 -0.38268343236508956 0.9238795325112868
  outer loop
    vertex 41.99999999999994 5.249999999999999 0.10288568297002557
    vertex 57.00000000000001 4.164685702961344 -0.3466662183008076
    vertex 57.00000000000001 5.249999999999999 0.10288568297002557
  endloop
endfacet
facet normal 0.0 -0.1305261922200512 0.9914448613738105
  outer loop
    vertex 57.00000000000001 2.9999999999999996 -0.4999999999999998
    vertex 41.99999999999994 4.164685702961344 -0.3466662183008076
    vertex 41.99999999999994 2.9999999999999996 -0.4999999999999998
  endloop
endfacet
facet normal 0.0 -0.1305261922200512 0.9914448613738105
  outer loop
    vertex 41.99999999999994 4.164685702961344 -0.3466662183008076
    vertex 57.00000000000001 2.9999999999999996 -0.4999999999999998
    vertex 57.00000000000001 4.164685702961344 -0.3466662183008076
  endloop
endfacet
facet normal 0.0 0.13052619222005182 0.9914448613738105
  outer loop
    vertex 57.00000000000001 1.835314297038657 -0.3466662183008069
    vertex 41.99999999999994 2.9999999999999996 -0.4999999999999998
    vertex 41.99999999999994 1.835314297038657 -0.3466662183008069
  endloop
endfacet
facet normal 0.0 0.13052619222005182 0.9914448613738105
  outer loop
    vertex 41.99999999999994 2.9999999999999996 -0.4999999999999998
    vertex 57.00000000000001 1.835314297038657 -0.3466662183008069
    vertex 57.00000000000001 2.9999999999999996 -0.4999999999999998
  endloop
endfacet
facet normal 0.0 0.3826834323650901 0.9238795325112867
  outer loop
    vertex 57.00000000000001 0.75 0.10288568297002698
    vertex 41.99999999999994 1.835314297038657 -0.3466662183008069
    vertex 41.99999999999994 0.75 0.10288568297002698
  endloop
endfacet
facet normal 0.0 0.3826834323650901 0.9238795325112867
  outer loop
    vertex 41.99999999999994 1.835314297038657 -0.3466662183008069
    vertex 57.00000000000001 0.75 0.10288568297002698
    vertex 57.00000000000001 1.835314297038657 -0.3466662183008069
  endloop
endfacet
facet normal 0.0 0.6087614290087209 0.7933533402912349
  outer loop
    vertex 57.00000000000001 -0.1819805153394625 0.8180194846605364
    vertex 41.99999999999994 0.75 0.10288568297002698
    vertex 41.99999999999994 -0.1819805153394625 0.8180194846605364
  endloop
endfacet
facet normal 0.0 0.6087614290087209 0.7933533402912349
  outer loop
    vertex 41.99999999999994 0.75 0.10288568297002698
    vertex 57.00000000000001 -0.1819805153394625 0.8180194846605364
    vertex 57.00000000000001 0.75 0.10288568297002698
  endloop
endfacet
facet normal 0.0 0.7933533402912352 0.6087614290087208
  outer loop
    vertex 41.99999999999994 -0.8971143170299726 1.7500000000000002
    vertex 57.00000000000001 -0.1819805153394625 0.8180194846605364
    vertex 41.99999999999994 -0.1819805153394625 0.8180194846605364
  endloop
endfacet
facet normal 0.0 0.7933533402912352 0.6087614290087208
  outer loop
    vertex 57.00000000000001 -0.1819805153394625 0.8180194846605364
    vertex 41.99999999999994 -0.8971143170299726 1.7500000000000002
    vertex 57.00000000000001 -0.8971143170299726 1.7500000000000002
  endloop
endfacet
facet normal 0.0 0.9238795325112868 0.3826834323650895
  outer loop
    vertex 41.99999999999994 -1.3466662183008058 2.835314297038657
    vertex 57.00000000000001 -0.8971143170299726 1.7500000000000002
    vertex 41.99999999999994 -0.8971143170299726 1.7500000000000002
  endloop
endfacet
facet normal 0.0 0.9238795325112868 0.3826834323650895
  outer loop
    vertex 57.00000000000001 -0.8971143170299726 1.7500000000000002
    vertex 41.99999999999994 -1.3466662183008058 2.835314297038657
    vertex 57.00000000000001 -1.3466662183008058 2.835314297038657
  endloop
endfacet
facet normal 0.0 0.3826834323650902 0.9238795325112865
  outer loop
    vertex 57.00000000000001 4.8117333157176505 10.761480784023474
    vertex 41.99999999999994 6.500000000000005 10.062177826491068
    vertex 41.99999999999994 4.8117333157176505 10.761480784023474
  endloop
endfacet
facet normal 0.0 0.3826834323650902 0.9238795325112865
  outer loop
    vertex 41.99999999999994 6.500000000000005 10.062177826491068
    vertex 57.00000000000001 4.8117333157176505 10.761480784023474
    vertex 57.00000000000001 6.500000000000005 10.062177826491068
  endloop
endfacet
facet normal 0.0 0.6087614290087204 0.7933533402912353
  outer loop
    vertex 57.00000000000001 6.500000000000005 10.062177826491068
    vertex 41.99999999999994 7.949747468305837 8.94974746830583
    vertex 41.99999999999994 6.500000000000005 10.062177826491068
  endloop
endfacet
facet normal 0.0 0.6087614290087204 0.7933533402912353
  outer loop
    vertex 41.99999999999994 7.949747468305837 8.94974746830583
    vertex 57.00000000000001 6.500000000000005 10.062177826491068
    vertex 57.00000000000001 7.949747468305837 8.94974746830583
  endloop
endfacet
facet normal 0.0 -0.13052619222005188 0.9914448613738105
  outer loop
    vertex 57.00000000000001 1.1882666842823584 10.761480784023478
    vertex 41.99999999999994 3.000000000000002 11.0
    vertex 41.99999999999994 1.1882666842823584 10.761480784023478
  endloop
endfacet
facet normal 0.0 -0.13052619222005188 0.9914448613738105
  outer loop
    vertex 41.99999999999994 3.000000000000002 11.0
    vertex 57.00000000000001 1.1882666842823584 10.761480784023478
    vertex 57.00000000000001 3.000000000000002 11.0
  endloop
endfacet
facet normal 0.0 0.9238795325112868 0.38268343236508956
  outer loop
    vertex 41.99999999999994 9.062177826491071 7.499999999999997
    vertex 57.00000000000001 9.76148078402348 5.811733315717642
    vertex 41.99999999999994 9.76148078402348 5.811733315717642
  endloop
endfacet
facet normal 0.0 0.9238795325112868 0.38268343236508956
  outer loop
    vertex 57.00000000000001 9.76148078402348 5.811733315717642
    vertex 41.99999999999994 9.062177826491071 7.499999999999997
    vertex 57.00000000000001 9.062177826491071 7.499999999999997
  endloop
endfacet
facet normal 0.0 -0.3826834323650889 0.9238795325112873
  outer loop
    vertex 57.00000000000001 -0.49999999999999417 10.062177826491073
    vertex 41.99999999999994 1.1882666842823584 10.761480784023478
    vertex 41.99999999999994 -0.49999999999999417 10.062177826491073
  endloop
endfacet
facet normal 0.0 -0.3826834323650889 0.9238795325112873
  outer loop
    vertex 41.99999999999994 1.1882666842823584 10.761480784023478
    vertex 57.00000000000001 -0.49999999999999417 10.062177826491073
    vertex 57.00000000000001 1.1882666842823584 10.761480784023478
  endloop
endfacet
facet normal 0.0 0.9914448613738105 0.13052619222005193
  outer loop
    vertex 41.99999999999994 9.76148078402348 5.811733315717642
    vertex 57.00000000000001 10.000000000000002 3.999999999999998
    vertex 41.99999999999994 10.000000000000002 3.999999999999998
  endloop
endfacet
facet normal 0.0 0.9914448613738105 0.13052619222005193
  outer loop
    vertex 57.00000000000001 10.000000000000002 3.999999999999998
    vertex 41.99999999999994 9.76148078402348 5.811733315717642
    vertex 57.00000000000001 9.76148078402348 5.811733315717642
  endloop
endfacet
facet normal 0.0 0.130526192220053 0.9914448613738103
  outer loop
    vertex 57.00000000000001 3.000000000000002 11.0
    vertex 41.99999999999994 4.8117333157176505 10.761480784023474
    vertex 41.99999999999994 3.000000000000002 11.0
  endloop
endfacet
facet normal 0.0 0.130526192220053 0.9914448613738103
  outer loop
    vertex 41.99999999999994 4.8117333157176505 10.761480784023474
    vertex 57.00000000000001 3.000000000000002 11.0
    vertex 57.00000000000001 4.8117333157176505 10.761480784023474
  endloop
endfacet
facet normal 0.0 0.7933533402912359 0.6087614290087199
  outer loop
    vertex 41.99999999999994 7.949747468305837 8.94974746830583
    vertex 57.00000000000001 9.062177826491071 7.499999999999997
    vertex 41.99999999999994 9.062177826491071 7.499999999999997
  endloop
endfacet
facet normal 0.0 0.7933533402912359 0.6087614290087199
  outer loop
    vertex 57.00000000000001 9.062177826491071 7.499999999999997
    vertex 41.99999999999994 7.949747468305837 8.94974746830583
    vertex 57.00000000000001 7.949747468305837 8.94974746830583
  endloop
endfacet
facet normal 0.0 -0.7933533402912349 0.608761429008721
  outer loop
    vertex 57.00000000000001 -1.9497474683058307 8.949747468305832
    vertex 41.99999999999994 -3.0621778264910677 7.5000000000000036
    vertex 57.00000000000001 -3.0621778264910677 7.5000000000000036
  endloop
endfacet
facet normal 0.0 -0.7933533402912349 0.608761429008721
  outer loop
    vertex 41.99999999999994 -3.0621778264910677 7.5000000000000036
    vertex 57.00000000000001 -1.9497474683058307 8.949747468305832
    vertex 41.99999999999994 -1.9497474683058307 8.949747468305832
  endloop
endfacet
facet normal 0.0 -0.6087614290087205 0.7933533402912353
  outer loop
    vertex 57.00000000000001 -1.9497474683058307 8.949747468305832
    vertex 41.99999999999994 -0.49999999999999417 10.062177826491073
    vertex 41.99999999999994 -1.9497474683058307 8.949747468305832
  endloop
endfacet
facet normal 0.0 -0.6087614290087205 0.7933533402912353
  outer loop
    vertex 41.99999999999994 -0.49999999999999417 10.062177826491073
    vertex 57.00000000000001 -1.9497474683058307 8.949747468305832
    vertex 57.00000000000001 -0.49999999999999417 10.062177826491073
  endloop
endfacet
facet normal 0.0 -0.9914448613738105 0.13052619222005213
  outer loop
    vertex 57.00000000000001 -3.761480784023475 5.81173331571765
    vertex 41.99999999999994 -3.999999999999999 3.999999999999999
    vertex 57.00000000000001 -3.999999999999999 3.999999999999999
  endloop
endfacet
facet normal 0.0 -0.9914448613738105 0.13052619222005213
  outer loop
    vertex 41.99999999999994 -3.999999999999999 3.999999999999999
    vertex 57.00000000000001 -3.761480784023475 5.81173331571765
    vertex 41.99999999999994 -3.761480784023475 5.81173331571765
  endloop
endfacet
facet normal 0.0 -0.9238795325112865 0.38268343236509045
  outer loop
    vertex 57.00000000000001 -3.0621778264910677 7.5000000000000036
    vertex 41.99999999999994 -3.761480784023475 5.81173331571765
    vertex 57.00000000000001 -3.761480784023475 5.81173331571765
  endloop
endfacet
facet normal 0.0 -0.9238795325112865 0.38268343236509045
  outer loop
    vertex 41.99999999999994 -3.761480784023475 5.81173331571765
    vertex 57.00000000000001 -3.0621778264910677 7.5000000000000036
    vertex 41.99999999999994 -3.0621778264910677 7.5000000000000036
  endloop
endfacet
facet normal 0.0 -0.1305261922200517 -0.9914448613738105
  outer loop
    vertex 57.00000000000001 3.000000000000001 -3.000000000000001
    vertex 41.99999999999994 1.1882666842823542 -2.7614807840234787
    vertex 41.99999999999994 3.000000000000001 -3.000000000000001
  endloop
endfacet
facet normal 0.0 -0.1305261922200517 -0.9914448613738105
  outer loop
    vertex 41.99999999999994 1.1882666842823542 -2.7614807840234787
    vertex 57.00000000000001 3.000000000000001 -3.000000000000001
    vertex 57.00000000000001 1.1882666842823542 -2.7614807840234787
  endloop
endfacet
facet normal 0.0 0.13052619222005177 -0.9914448613738105
  outer loop
    vertex 57.00000000000001 4.811733315717644 -2.7614807840234787
    vertex 41.99999999999994 3.000000000000001 -3.000000000000001
    vertex 41.99999999999994 4.811733315717644 -2.7614807840234787
  endloop
endfacet
facet normal 0.0 0.13052619222005177 -0.9914448613738105
  outer loop
    vertex 41.99999999999994 3.000000000000001 -3.000000000000001
    vertex 57.00000000000001 4.811733315717644 -2.7614807840234787
    vertex 57.00000000000001 3.000000000000001 -3.000000000000001
  endloop
endfacet
facet normal 1.0 0.0 0.0
  outer loop
    vertex 57.00000000000001 -3.761480784023477 2.188266684282354
    vertex 57.00000000000001 -3.761480784023475 5.81173331571765
    vertex 57.00000000000001 -3.999999999999999 3.999999999999999
  endloop
endfacet
facet normal 1.0 0.0 0.0
  outer loop
    vertex 57.00000000000001 -3.761480784023475 5.81173331571765
    vertex 57.00000000000001 -3.761480784023477 2.188266684282354
    vertex 57.00000000000001 -3.06217782649107 0.4999999999999998
  endloop
endfacet
facet normal 1.0 0.0 0.0
  outer loop
    vertex 57.00000000000001 -3.761480784023475 5.81173331571765
    vertex 57.00000000000001 -3.06217782649107 0.4999999999999998
    vertex 57.00000000000001 -3.0621778264910677 7.5000000000000036
  endloop
endfacet
facet normal 1.0 0.0 0.0
  outer loop
    vertex 57.00000000000001 -3.0621778264910677 7.5000000000000036
    vertex 57.00000000000001 -3.06217782649107 0.4999999999999998
    vertex 57.00000000000001 -1.9497474683058322 -0.9497474683058333
  endloop
endfacet
facet normal 1.0 0.0 0.0
  outer loop
    vertex 57.00000000000001 -3.0621778264910677 7.5000000000000036
    vertex 57.00000000000001 -1.9497474683058322 -0.9497474683058333
    vertex 57.00000000000001 -1.9497474683058307 8.949747468305832
  endloop
endfacet
facet normal 1.0 0.0 0.0
  outer loop
    vertex 57.00000000000001 -1.9497474683058307 8.949747468305832
    vertex 57.00000000000001 -1.9497474683058322 -0.9497474683058333
    vertex 57.00000000000001 -1.499999999999998 3.999999999999999
  endloop
endfacet
facet normal 1.0 0.0 0.0
  outer loop
    vertex 57.00000000000001 -1.499999999999998 3.999999999999999
    vertex 57.00000000000001 -1.9497474683058322 -0.9497474683058333
    vertex 57.00000000000001 -1.3466662183008058 2.835314297038657
  endloop
endfacet
facet normal 1.0 0.0 0.0
  outer loop
    vertex 57.00000000000001 -1.3466662183008058 2.835314297038657
    vertex 57.00000000000001 -1.9497474683058322 -0.9497474683058333
    vertex 57.00000000000001 -0.4999999999999998 -2.062177826491071
  endloop
endfacet
facet normal 1.0 0.0 0.0
  outer loop
    vertex 57.00000000000001 -1.3466662183008058 2.835314297038657
    vertex 57.00000000000001 -0.4999999999999998 -2.062177826491071
    vertex 57.00000000000001 -0.8971143170299726 1.7500000000000002
  endloop
endfacet
facet normal 1.0 0.0 0.0
  outer loop
    vertex 57.00000000000001 -0.8971143170299726 1.7500000000000002
    vertex 57.00000000000001 -0.4999999999999998 -2.062177826491071
    vertex 57.00000000000001 -0.1819805153394625 0.8180194846605364
  endloop
endfacet
facet normal 1.0 0.0 0.0
  outer loop
    vertex 57.00000000000001 -0.1819805153394625 0.8180194846605364
    vertex 57.00000000000001 -0.4999999999999998 -2.062177826491071
    vertex 57.00000000000001 1.1882666842823542 -2.7614807840234787
  endloop
endfacet
facet normal 1.0 0.0 0.0
  outer loop
    vertex 57.00000000000001 -0.1819805153394625 0.8180194846605364
    vertex 57.00000000000001 1.1882666842823542 -2.7614807840234787
    vertex 57.00000000000001 0.75 0.10288568297002698
  endloop
endfacet
facet normal 1.0 0.0 0.0
  outer loop
    vertex 57.00000000000001 0.75 0.10288568297002698
    vertex 57.00000000000001 1.1882666842823542 -2.7614807840234787
    vertex 57.00000000000001 1.835314297038657 -0.3466662183008069
  endloop
endfacet
facet normal 1.0 0.0 0.0
  outer loop
    vertex 57.00000000000001 1.835314297038657 -0.3466662183008069
    vertex 57.00000000000001 1.1882666842823542 -2.7614807840234787
    vertex 57.00000000000001 3.000000000000001 -3.000000000000001
  endloop
endfacet
facet normal 1.0 0.0 0.0
  outer loop
    vertex 57.00000000000001 1.835314297038657 -0.3466662183008069
    vertex 57.00000000000001 3.000000000000001 -3.000000000000001
    vertex 57.00000000000001 2.9999999999999996 -0.4999999999999998
  endloop
endfacet
facet normal 1.0 0.0 0.0
  outer loop
    vertex 57.00000000000001 2.9999999999999996 -0.4999999999999998
    vertex 57.00000000000001 3.000000000000001 -3.000000000000001
    vertex 57.00000000000001 4.164685702961344 -0.3466662183008076
  endloop
endfacet
facet normal 1.0 0.0 0.0
  outer loop
    vertex 57.00000000000001 4.164685702961344 -0.3466662183008076
    vertex 57.00000000000001 3.000000000000001 -3.000000000000001
    vertex 57.00000000000001 4.811733315717644 -2.7614807840234787
  endloop
endfacet
facet normal 1.0 0.0 0.0
  outer loop
    vertex 57.00000000000001 4.164685702961344 -0.3466662183008076
    vertex 57.00000000000001 4.811733315717644 -2.7614807840234787
    vertex 57.00000000000001 5.249999999999999 0.10288568297002557
  endloop
endfacet
facet normal 1.0 0.0 0.0
  outer loop
    vertex 57.00000000000001 5.249999999999999 0.10288568297002557
    vertex 57.00000000000001 4.811733315717644 -2.7614807840234787
    vertex 57.00000000000001 6.499999999999999 -2.0621778264910717
  endloop
endfacet
facet normal 1.0 0.0 0.0
  outer loop
    vertex 57.00000000000001 5.249999999999999 0.10288568297002557
    vertex 57.00000000000001 6.499999999999999 -2.0621778264910717
    vertex 57.00000000000001 6.181980515339463 0.818019484660535
  endloop
endfacet
facet normal 1.0 0.0 0.0
  outer loop
    vertex 57.00000000000001 6.181980515339463 0.818019484660535
    vertex 57.00000000000001 6.499999999999999 -2.0621778264910717
    vertex 57.00000000000001 6.897114317029974 1.7499999999999982
  endloop
endfacet
facet normal 1.0 0.0 0.0
  outer loop
    vertex 57.00000000000001 6.897114317029974 1.7499999999999982
    vertex 57.00000000000001 6.499999999999999 -2.0621778264910717
    vertex 57.00000000000001 7.949747468305834 -0.949747468305834
  endloop
endfacet
facet normal 1.0 0.0 0.0
  outer loop
    vertex 57.00000000000001 6.897114317029974 1.7499999999999982
    vertex 57.00000000000001 7.949747468305834 -0.949747468305834
    vertex 57.00000000000001 7.346666218300808 2.8353142970386545
  endloop
endfacet
facet normal 1.0 0.0 0.0
  outer loop
    vertex 57.00000000000001 7.346666218300808 2.8353142970386545
    vertex 57.00000000000001 7.949747468305834 -0.949747468305834
    vertex 57.00000000000001 7.5 3.999999999999998
  endloop
endfacet
facet normal 1.0 0.0 0.0
  outer loop
    vertex 57.00000000000001 -1.9497474683058307 8.949747468305832
    vertex 57.00000000000001 -1.3466662183008051 5.164685702961342
    vertex 57.00000000000001 -0.49999999999999417 10.062177826491073
  endloop
endfacet
facet normal 1.0 0.0 0.0
  outer loop
    vertex 57.00000000000001 -1.3466662183008051 5.164685702961342
    vertex 57.00000000000001 -1.9497474683058307 8.949747468305832
    vertex 57.00000000000001 -1.499999999999998 3.999999999999999
  endloop
endfacet
facet normal 1.0 0.0 0.0
  outer loop
    vertex 57.00000000000001 -0.49999999999999417 10.062177826491073
    vertex 57.00000000000001 -1.3466662183008051 5.164685702961342
    vertex 57.00000000000001 -0.8971143170299726 6.249999999999999
  endloop
endfacet
facet normal 1.0 0.0 0.0
  outer loop
    vertex 57.00000000000001 -0.49999999999999417 10.062177826491073
    vertex 57.00000000000001 -0.8971143170299726 6.249999999999999
    vertex 57.00000000000001 -0.1819805153394625 7.181980515339462
  endloop
endfacet
facet normal 1.0 0.0 0.0
  outer loop
    vertex 57.00000000000001 -0.49999999999999417 10.062177826491073
    vertex 57.00000000000001 -0.1819805153394625 7.181980515339462
    vertex 57.00000000000001 1.1882666842823584 10.761480784023478
  endloop
endfacet
facet normal 1.0 0.0 0.0
  outer loop
    vertex 57.00000000000001 1.1882666842823584 10.761480784023478
    vertex 57.00000000000001 -0.1819805153394625 7.181980515339462
    vertex 57.00000000000001 0.75 7.897114317029971
  endloop
endfacet
facet normal 1.0 0.0 0.0
  outer loop
    vertex 57.00000000000001 1.1882666842823584 10.761480784023478
    vertex 57.00000000000001 0.75 7.897114317029971
    vertex 57.00000000000001 1.8353142970386582 8.346666218300806
  endloop
endfacet
facet normal 1.0 0.0 0.0
  outer loop
    vertex 57.00000000000001 1.1882666842823584 10.761480784023478
    vertex 57.00000000000001 1.8353142970386582 8.346666218300806
    vertex 57.00000000000001 3.000000000000002 11.0
  endloop
endfacet
facet normal 1.0 0.0 0.0
  outer loop
    vertex 57.00000000000001 3.000000000000002 11.0
    vertex 57.00000000000001 1.8353142970386582 8.346666218300806
    vertex 57.00000000000001 3.000000000000001 8.499999999999998
  endloop
endfacet
facet normal 1.0 0.0 0.0
  outer loop
    vertex 57.00000000000001 3.000000000000002 11.0
    vertex 57.00000000000001 3.000000000000001 8.499999999999998
    vertex 57.00000000000001 4.164685702961342 8.346666218300806
  endloop
endfacet
facet normal 1.0 0.0 0.0
  outer loop
    vertex 57.00000000000001 3.000000000000002 11.0
    vertex 57.00000000000001 4.164685702961342 8.346666218300806
    vertex 57.00000000000001 4.8117333157176505 10.761480784023474
  endloop
endfacet
facet normal 1.0 0.0 0.0
  outer loop
    vertex 57.00000000000001 4.8117333157176505 10.761480784023474
    vertex 57.00000000000001 4.164685702961342 8.346666218300806
    vertex 57.00000000000001 5.250000000000001 7.897114317029971
  endloop
endfacet
facet normal 1.0 0.0 0.0
  outer loop
    vertex 57.00000000000001 4.8117333157176505 10.761480784023474
    vertex 57.00000000000001 5.250000000000001 7.897114317029971
    vertex 57.00000000000001 6.500000000000005 10.062177826491068
  endloop
endfacet
facet normal 1.0 0.0 0.0
  outer loop
    vertex 57.00000000000001 6.500000000000005 10.062177826491068
    vertex 57.00000000000001 5.250000000000001 7.897114317029971
    vertex 57.00000000000001 6.181980515339463 7.181980515339462
  endloop
endfacet
facet normal 1.0 0.0 0.0
  outer loop
    vertex 57.00000000000001 6.500000000000005 10.062177826491068
    vertex 57.00000000000001 6.181980515339463 7.181980515339462
    vertex 57.00000000000001 6.897114317029974 6.249999999999999
  endloop
endfacet
facet normal 1.0 0.0 0.0
  outer loop
    vertex 57.00000000000001 6.500000000000005 10.062177826491068
    vertex 57.00000000000001 6.897114317029974 6.249999999999999
    vertex 57.00000000000001 7.949747468305837 8.94974746830583
  endloop
endfacet
facet normal 1.0 0.0 0.0
  outer loop
    vertex 57.00000000000001 7.949747468305837 8.94974746830583
    vertex 57.00000000000001 6.897114317029974 6.249999999999999
    vertex 57.00000000000001 7.346666218300808 5.16468570296134
  endloop
endfacet
facet normal 1.0 0.0 0.0
  outer loop
    vertex 57.00000000000001 7.949747468305837 8.94974746830583
    vertex 57.00000000000001 7.346666218300808 5.16468570296134
    vertex 57.00000000000001 7.5 3.999999999999998
  endloop
endfacet
facet normal 1.0 0.0 0.0
  outer loop
    vertex 57.00000000000001 7.949747468305837 8.94974746830583
    vertex 57.00000000000001 7.5 3.999999999999998
    vertex 57.00000000000001 7.949747468305834 -0.949747468305834
  endloop
endfacet
facet normal 1.0 0.0 0.0
  outer loop
    vertex 57.00000000000001 7.949747468305837 8.94974746830583
    vertex 57.00000000000001 7.949747468305834 -0.949747468305834
    vertex 57.00000000000001 9.062177826491071 0.49999999999999695
  endloop
endfacet
facet normal 1.0 0.0 0.0
  outer loop
    vertex 57.00000000000001 7.949747468305837 8.94974746830583
    vertex 57.00000000000001 9.062177826491071 0.49999999999999695
    vertex 57.00000000000001 9.062177826491071 7.499999999999997
  endloop
endfacet
facet normal 1.0 0.0 0.0
  outer loop
    vertex 57.00000000000001 9.062177826491071 7.499999999999997
    vertex 57.00000000000001 9.062177826491071 0.49999999999999695
    vertex 57.00000000000001 9.76148078402348 2.188266684282352
  endloop
endfacet
facet normal 1.0 0.0 0.0
  outer loop
    vertex 57.00000000000001 9.062177826491071 7.499999999999997
    vertex 57.00000000000001 9.76148078402348 2.188266684282352
    vertex 57.00000000000001 9.76148078402348 5.811733315717642
  endloop
endfacet
facet normal 1.0 0.0 0.0
  outer loop
    vertex 57.00000000000001 9.76148078402348 5.811733315717642
    vertex 57.00000000000001 9.76148078402348 2.188266684282352
    vertex 57.00000000000001 10.000000000000002 3.999999999999998
  endloop
endfacet
facet normal 0.0 -0.38268343236509 -0.9238795325112867
  outer loop
    vertex 57.00000000000001 1.1882666842823542 -2.7614807840234787
    vertex 41.99999999999994 -0.4999999999999998 -2.062177826491071
    vertex 41.99999999999994 1.1882666842823542 -2.7614807840234787
  endloop
endfacet
facet normal 0.0 -0.38268343236509 -0.9238795325112867
  outer loop
    vertex 41.99999999999994 -0.4999999999999998 -2.062177826491071
    vertex 57.00000000000001 1.1882666842823542 -2.7614807840234787
    vertex 57.00000000000001 -0.4999999999999998 -2.062177826491071
  endloop
endfacet
facet normal -1.0 0.0 0.0
  outer loop
    vertex 41.99999999999994 -1.9497474683058307 8.949747468305832
    vertex 41.99999999999994 -1.3466662183008051 5.164685702961342
    vertex 41.99999999999994 -1.499999999999998 3.999999999999999
  endloop
endfacet
facet normal -1.0 0.0 0.0
  outer loop
    vertex 41.99999999999994 -1.3466662183008051 5.164685702961342
    vertex 41.99999999999994 -1.9497474683058307 8.949747468305832
    vertex 41.99999999999994 -0.49999999999999417 10.062177826491073
  endloop
endfacet
facet normal -1.0 0.0 0.0
  outer loop
    vertex 41.99999999999994 -1.3466662183008051 5.164685702961342
    vertex 41.99999999999994 -0.49999999999999417 10.062177826491073
    vertex 41.99999999999994 -0.8971143170299726 6.249999999999999
  endloop
endfacet
facet normal -1.0 0.0 0.0
  outer loop
    vertex 41.99999999999994 -0.8971143170299726 6.249999999999999
    vertex 41.99999999999994 -0.49999999999999417 10.062177826491073
    vertex 41.99999999999994 -0.1819805153394625 7.181980515339462
  endloop
endfacet
facet normal -1.0 0.0 0.0
  outer loop
    vertex 41.99999999999994 -0.1819805153394625 7.181980515339462
    vertex 41.99999999999994 -0.49999999999999417 10.062177826491073
    vertex 41.99999999999994 1.1882666842823584 10.761480784023478
  endloop
endfacet
facet normal -1.0 0.0 0.0
  outer loop
    vertex 41.99999999999994 -0.1819805153394625 7.181980515339462
    vertex 41.99999999999994 1.1882666842823584 10.761480784023478
    vertex 41.99999999999994 0.75 7.897114317029971
  endloop
endfacet
facet normal -1.0 0.0 0.0
  outer loop
    vertex 41.99999999999994 0.75 7.897114317029971
    vertex 41.99999999999994 1.1882666842823584 10.761480784023478
    vertex 41.99999999999994 1.8353142970386582 8.346666218300806
  endloop
endfacet
facet normal -1.0 0.0 0.0
  outer loop
    vertex 41.99999999999994 1.8353142970386582 8.346666218300806
    vertex 41.99999999999994 1.1882666842823584 10.761480784023478
    vertex 41.99999999999994 3.000000000000002 11.0
  endloop
endfacet
facet normal -1.0 0.0 0.0
  outer loop
    vertex 41.99999999999994 1.8353142970386582 8.346666218300806
    vertex 41.99999999999994 3.000000000000002 11.0
    vertex 41.99999999999994 3.000000000000001 8.499999999999998
  endloop
endfacet
facet normal -1.0 0.0 0.0
  outer loop
    vertex 41.99999999999994 3.000000000000001 8.499999999999998
    vertex 41.99999999999994 3.000000000000002 11.0
    vertex 41.99999999999994 4.164685702961342 8.346666218300806
  endloop
endfacet
facet normal -1.0 0.0 0.0
  outer loop
    vertex 41.99999999999994 4.164685702961342 8.346666218300806
    vertex 41.99999999999994 3.000000000000002 11.0
    vertex 41.99999999999994 4.8117333157176505 10.761480784023474
  endloop
endfacet
facet normal -1.0 0.0 0.0
  outer loop
    vertex 41.99999999999994 4.164685702961342 8.346666218300806
    vertex 41.99999999999994 4.8117333157176505 10.761480784023474
    vertex 41.99999999999994 5.250000000000001 7.897114317029971
  endloop
endfacet
facet normal -1.0 0.0 0.0
  outer loop
    vertex 41.99999999999994 5.250000000000001 7.897114317029971
    vertex 41.99999999999994 4.8117333157176505 10.761480784023474
    vertex 41.99999999999994 6.500000000000005 10.062177826491068
  endloop
endfacet
facet normal -1.0 0.0 0.0
  outer loop
    vertex 41.99999999999994 5.250000000000001 7.897114317029971
    vertex 41.99999999999994 6.500000000000005 10.062177826491068
    vertex 41.99999999999994 6.181980515339463 7.181980515339462
  endloop
endfacet
facet normal -1.0 0.0 0.0
  outer loop
    vertex 41.99999999999994 6.181980515339463 7.181980515339462
    vertex 41.99999999999994 6.500000000000005 10.062177826491068
    vertex 41.99999999999994 6.897114317029974 6.249999999999999
  endloop
endfacet
facet normal -1.0 0.0 0.0
  outer loop
    vertex 41.99999999999994 6.897114317029974 6.249999999999999
    vertex 41.99999999999994 6.500000000000005 10.062177826491068
    vertex 41.99999999999994 7.949747468305837 8.94974746830583
  endloop
endfacet
facet normal -1.0 0.0 0.0
  outer loop
    vertex 41.99999999999994 6.897114317029974 6.249999999999999
    vertex 41.99999999999994 7.949747468305837 8.94974746830583
    vertex 41.99999999999994 7.346666218300808 5.16468570296134
  endloop
endfacet
facet normal -1.0 0.0 0.0
  outer loop
    vertex 41.99999999999994 7.346666218300808 5.16468570296134
    vertex 41.99999999999994 7.949747468305837 8.94974746830583
    vertex 41.99999999999994 7.5 3.999999999999998
  endloop
endfacet
facet normal -1.0 0.0 0.0
  outer loop
    vertex 41.99999999999994 7.5 3.999999999999998
    vertex 41.99999999999994 7.949747468305837 8.94974746830583
    vertex 41.99999999999994 7.949747468305834 -0.949747468305834
  endloop
endfacet
facet normal -1.0 0.0 0.0
  outer loop
    vertex 41.99999999999994 7.949747468305834 -0.949747468305834
    vertex 41.99999999999994 7.949747468305837 8.94974746830583
    vertex 41.99999999999994 9.062177826491071 0.49999999999999695
  endloop
endfacet
facet normal -1.0 0.0 0.0
  outer loop
    vertex 41.99999999999994 9.062177826491071 0.49999999999999695
    vertex 41.99999999999994 7.949747468305837 8.94974746830583
    vertex 41.99999999999994 9.062177826491071 7.499999999999997
  endloop
endfacet
facet normal -1.0 0.0 0.0
  outer loop
    vertex 41.99999999999994 9.062177826491071 0.49999999999999695
    vertex 41.99999999999994 9.062177826491071 7.499999999999997
    vertex 41.99999999999994 9.76148078402348 5.811733315717642
  endloop
endfacet
facet normal -1.0 0.0 0.0
  outer loop
    vertex 41.99999999999994 9.062177826491071 0.49999999999999695
    vertex 41.99999999999994 9.76148078402348 5.811733315717642
    vertex 41.99999999999994 9.76148078402348 2.188266684282352
  endloop
endfacet
facet normal -1.0 0.0 0.0
  outer loop
    vertex 41.99999999999994 9.76148078402348 2.188266684282352
    vertex 41.99999999999994 9.76148078402348 5.811733315717642
    vertex 41.99999999999994 10.000000000000002 3.999999999999998
  endloop
endfacet
facet normal -1.0 0.0 0.0
  outer loop
    vertex 41.99999999999994 -3.761480784023475 5.81173331571765
    vertex 41.99999999999994 -3.761480784023477 2.188266684282354
    vertex 41.99999999999994 -3.999999999999999 3.999999999999999
  endloop
endfacet
facet normal -1.0 0.0 0.0
  outer loop
    vertex 41.99999999999994 -3.761480784023477 2.188266684282354
    vertex 41.99999999999994 -3.761480784023475 5.81173331571765
    vertex 41.99999999999994 -3.06217782649107 0.4999999999999998
  endloop
endfacet
facet normal -1.0 0.0 0.0
  outer loop
    vertex 41.99999999999994 -3.06217782649107 0.4999999999999998
    vertex 41.99999999999994 -3.761480784023475 5.81173331571765
    vertex 41.99999999999994 -3.0621778264910677 7.5000000000000036
  endloop
endfacet
facet normal -1.0 0.0 0.0
  outer loop
    vertex 41.99999999999994 -3.06217782649107 0.4999999999999998
    vertex 41.99999999999994 -3.0621778264910677 7.5000000000000036
    vertex 41.99999999999994 -1.9497474683058322 -0.9497474683058333
  endloop
endfacet
facet normal -1.0 0.0 0.0
  outer loop
    vertex 41.99999999999994 -1.9497474683058322 -0.9497474683058333
    vertex 41.99999999999994 -3.0621778264910677 7.5000000000000036
    vertex 41.99999999999994 -1.9497474683058307 8.949747468305832
  endloop
endfacet
facet normal -1.0 0.0 0.0
  outer loop
    vertex 41.99999999999994 -1.9497474683058322 -0.9497474683058333
    vertex 41.99999999999994 -1.9497474683058307 8.949747468305832
    vertex 41.99999999999994 -1.499999999999998 3.999999999999999
  endloop
endfacet
facet normal -1.0 0.0 0.0
  outer loop
    vertex 41.99999999999994 -1.9497474683058322 -0.9497474683058333
    vertex 41.99999999999994 -1.499999999999998 3.999999999999999
    vertex 41.99999999999994 -1.3466662183008058 2.835314297038657
  endloop
endfacet
facet normal -1.0 0.0 0.0
  outer loop
    vertex 41.99999999999994 -1.9497474683058322 -0.9497474683058333
    vertex 41.99999999999994 -1.3466662183008058 2.835314297038657
    vertex 41.99999999999994 -0.4999999999999998 -2.062177826491071
  endloop
endfacet
facet normal -1.0 0.0 0.0
  outer loop
    vertex 41.99999999999994 -0.4999999999999998 -2.062177826491071
    vertex 41.99999999999994 -1.3466662183008058 2.835314297038657
    vertex 41.99999999999994 -0.8971143170299726 1.7500000000000002
  endloop
endfacet
facet normal -1.0 0.0 0.0
  outer loop
    vertex 41.99999999999994 -0.4999999999999998 -2.062177826491071
    vertex 41.99999999999994 -0.8971143170299726 1.7500000000000002
    vertex 41.99999999999994 -0.1819805153394625 0.8180194846605364
  endloop
endfacet
facet normal -1.0 0.0 0.0
  outer loop
    vertex 41.99999999999994 -0.4999999999999998 -2.062177826491071
    vertex 41.99999999999994 -0.1819805153394625 0.8180194846605364
    vertex 41.99999999999994 1.1882666842823542 -2.7614807840234787
  endloop
endfacet
facet normal -1.0 0.0 0.0
  outer loop
    vertex 41.99999999999994 1.1882666842823542 -2.7614807840234787
    vertex 41.99999999999994 -0.1819805153394625 0.8180194846605364
    vertex 41.99999999999994 0.75 0.10288568297002698
  endloop
endfacet
facet normal -1.0 0.0 0.0
  outer loop
    vertex 41.99999999999994 1.1882666842823542 -2.7614807840234787
    vertex 41.99999999999994 0.75 0.10288568297002698
    vertex 41.99999999999994 1.835314297038657 -0.3466662183008069
  endloop
endfacet
facet normal -1.0 0.0 0.0
  outer loop
    vertex 41.99999999999994 1.1882666842823542 -2.7614807840234787
    vertex 41.99999999999994 1.835314297038657 -0.3466662183008069
    vertex 41.99999999999994 3.000000000000001 -3.000000000000001
  endloop
endfacet
facet normal -1.0 0.0 0.0
  outer loop
    vertex 41.99999999999994 3.000000000000001 -3.000000000000001
    vertex 41.99999999999994 1.835314297038657 -0.3466662183008069
    vertex 41.99999999999994 2.9999999999999996 -0.4999999999999998
  endloop
endfacet
facet normal -1.0 0.0 0.0
  outer loop
    vertex 41.99999999999994 3.000000000000001 -3.000000000000001
    vertex 41.99999999999994 2.9999999999999996 -0.4999999999999998
    vertex 41.99999999999994 4.164685702961344 -0.3466662183008076
  endloop
endfacet
facet normal -1.0 0.0 0.0
  outer loop
    vertex 41.99999999999994 3.000000000000001 -3.000000000000001
    vertex 41.99999999999994 4.164685702961344 -0.3466662183008076
    vertex 41.99999999999994 4.811733315717644 -2.7614807840234787
  endloop
endfacet
facet normal -1.0 0.0 0.0
  outer loop
    vertex 41.99999999999994 4.811733315717644 -2.7614807840234787
    vertex 41.99999999999994 4.164685702961344 -0.3466662183008076
    vertex 41.99999999999994 5.249999999999999 0.10288568297002557
  endloop
endfacet
facet normal -1.0 0.0 0.0
  outer loop
    vertex 41.99999999999994 4.811733315717644 -2.7614807840234787
    vertex 41.99999999999994 5.249999999999999 0.10288568297002557
    vertex 41.99999999999994 6.499999999999999 -2.0621778264910717
  endloop
endfacet
facet normal -1.0 0.0 0.0
  outer loop
    vertex 41.99999999999994 6.499999999999999 -2.0621778264910717
    vertex 41.99999999999994 5.249999999999999 0.10288568297002557
    vertex 41.99999999999994 6.181980515339463 0.818019484660535
  endloop
endfacet
facet normal -1.0 0.0 0.0
  outer loop
    vertex 41.99999999999994 6.499999999999999 -2.0621778264910717
    vertex 41.99999999999994 6.181980515339463 0.818019484660535
    vertex 41.99999999999994 6.897114317029974 1.7499999999999982
  endloop
endfacet
facet normal -1.0 0.0 0.0
  outer loop
    vertex 41.99999999999994 6.499999999999999 -2.0621778264910717
    vertex 41.99999999999994 6.897114317029974 1.7499999999999982
    vertex 41.99999999999994 7.949747468305834 -0.949747468305834
  endloop
endfacet
facet normal -1.0 0.0 0.0
  outer loop
    vertex 41.99999999999994 7.949747468305834 -0.949747468305834
    vertex 41.99999999999994 6.897114317029974 1.7499999999999982
    vertex 41.99999999999994 7.346666218300808 2.8353142970386545
  endloop
endfacet
facet normal -1.0 0.0 0.0
  outer loop
    vertex 41.99999999999994 7.949747468305834 -0.949747468305834
    vertex 41.99999999999994 7.346666218300808 2.8353142970386545
    vertex 41.99999999999994 7.5 3.999999999999998
  endloop
endfacet
facet normal 0.0 0.3826834323650897 -0.9238795325112868
  outer loop
    vertex 57.00000000000001 6.499999999999999 -2.0621778264910717
    vertex 41.99999999999994 4.811733315717644 -2.7614807840234787
    vertex 41.99999999999994 6.499999999999999 -2.0621778264910717
  endloop
endfacet
facet normal 0.0 0.3826834323650897 -0.9238795325112868
  outer loop
    vertex 41.99999999999994 4.811733315717644 -2.7614807840234787
    vertex 57.00000000000001 6.499999999999999 -2.0621778264910717
    vertex 57.00000000000001 4.811733315717644 -2.7614807840234787
  endloop
endfacet
facet normal 0.0 0.6087614290087201 -0.7933533402912357
  outer loop
    vertex 57.00000000000001 7.949747468305834 -0.949747468305834
    vertex 41.99999999999994 6.499999999999999 -2.0621778264910717
    vertex 41.99999999999994 7.949747468305834 -0.949747468305834
  endloop
endfacet
facet normal 0.0 0.6087614290087201 -0.7933533402912357
  outer loop
    vertex 41.99999999999994 6.499999999999999 -2.0621778264910717
    vertex 57.00000000000001 7.949747468305834 -0.949747468305834
    vertex 57.00000000000001 6.499999999999999 -2.0621778264910717
  endloop
endfacet
facet normal 0.0 0.7933533402912353 -0.6087614290087205
  outer loop
    vertex 41.99999999999994 9.062177826491071 0.49999999999999695
    vertex 57.00000000000001 7.949747468305834 -0.949747468305834
    vertex 41.99999999999994 7.949747468305834 -0.949747468305834
  endloop
endfacet
facet normal 0.0 0.7933533402912353 -0.6087614290087205
  outer loop
    vertex 57.00000000000001 7.949747468305834 -0.949747468305834
    vertex 41.99999999999994 9.062177826491071 0.49999999999999695
    vertex 57.00000000000001 9.062177826491071 0.49999999999999695
  endloop
endfacet
facet normal 0.0 0.9238795325112865 -0.3826834323650905
  outer loop
    vertex 41.99999999999994 9.76148078402348 2.188266684282352
    vertex 57.00000000000001 9.062177826491071 0.49999999999999695
    vertex 41.99999999999994 9.062177826491071 0.49999999999999695
  endloop
endfacet
facet normal 0.0 0.9238795325112865 -0.3826834323650905
  outer loop
    vertex 57.00000000000001 9.062177826491071 0.49999999999999695
    vertex 41.99999999999994 9.76148078402348 2.188266684282352
    vertex 57.00000000000001 9.76148078402348 2.188266684282352
  endloop
endfacet
facet normal 0.0 0.9914448613738105 -0.13052619222005168
  outer loop
    vertex 41.99999999999994 10.000000000000002 3.999999999999998
    vertex 57.00000000000001 9.76148078402348 2.188266684282352
    vertex 41.99999999999994 9.76148078402348 2.188266684282352
  endloop
endfacet
facet normal 0.0 0.9914448613738105 -0.13052619222005168
  outer loop
    vertex 57.00000000000001 9.76148078402348 2.188266684282352
    vertex 41.99999999999994 10.000000000000002 3.999999999999998
    vertex 57.00000000000001 10.000000000000002 3.999999999999998
  endloop
endfacet
endsolid Untitled-59836908
