solid Untitled-5983690f
facet normal 0.0 -0.7933533402912355 0.6087614290087202
  outer loop
    vertex 57.00000000000001 7.049916206369744e-16 6.604829000424104
    vertex 42.00000000000001 -0.4641016151377516 6.0
    vertex 57.00000000000001 -0.4641016151377516 6.0
  endloop
endfacet
facet normal 0.0 -0.7933533402912355 0.6087614290087202
  outer loop
    vertex 42.00000000000001 -0.4641016151377516 6.0
    vertex 57.00000000000001 7.049916206369744e-16 6.604829000424104
    vertex 42.00000000000001 7.049916206369744e-16 6.604829000424104
  endloop
endfacet
facet normal 0.0 -0.9238795325112864 0.3826834323650906
  outer loop
    vertex 57.00000000000001 -0.4641016151377516 6.0
    vertex 42.00000000000001 -0.8637033051562705 5.035276180410085
    vertex 57.00000000000001 -0.8637033051562705 5.035276180410085
  endloop
endfacet
facet normal 0.0 -0.9238795325112864 0.3826834323650906
  outer loop
    vertex 42.00000000000001 -0.8637033051562705 5.035276180410085
    vertex 57.00000000000001 -0.4641016151377516 6.0
    vertex 42.00000000000001 -0.4641016151377516 6.0
  endloop
endfacet
facet normal -1.0 3.493251700869394e-16 4.641478749374819e-16
  outer loop
    vertex 42.00000000000001 7.049916206369744e-16 6.604829000424104
    vertex 42.00000000000001 0.0 1.9999999999999998
    vertex 42.00000000000001 0.0 4.604829000424104
  endloop
endfacet
facet normal -1.0 3.493251700869394e-16 4.641478749374819e-16
  outer loop
    vertex 42.00000000000001 0.0 1.9999999999999998
    vertex 42.00000000000001 7.049916206369744e-16 6.604829000424104
    vertex 42.00000000000001 6.464101615137754 1.9999999999999978
  endloop
endfacet
facet normal -1.0 3.493251700869394e-16 4.641478749374819e-16
  outer loop
    vertex 42.00000000000001 6.464101615137754 1.9999999999999978
    vertex 42.00000000000001 7.049916206369744e-16 6.604829000424104
    vertex 42.00000000000001 0.17157287525381215 6.82842712474619
  endloop
endfacet
facet normal -1.0 3.493251700869394e-16 4.641478749374819e-16
  outer loop
    vertex 42.00000000000001 6.464101615137754 1.9999999999999978
    vertex 42.00000000000001 0.17157287525381215 6.82842712474619
    vertex 42.00000000000001 1.0000000000000042 7.464101615137755
  endloop
endfacet
facet normal -1.0 3.493251700869394e-16 4.641478749374819e-16
  outer loop
    vertex 42.00000000000001 6.464101615137754 1.9999999999999978
    vertex 42.00000000000001 1.0000000000000042 7.464101615137755
    vertex 42.00000000000001 1.9647238195899204 7.863703305156273
  endloop
endfacet
facet normal -1.0 3.493251700869394e-16 4.641478749374819e-16
  outer loop
    vertex 42.00000000000001 6.464101615137754 1.9999999999999978
    vertex 42.00000000000001 1.9647238195899204 7.863703305156273
    vertex 42.00000000000001 3.0000000000000013 7.999999999999999
  endloop
endfacet
facet normal -1.0 3.493251700869394e-16 4.641478749374819e-16
  outer loop
    vertex 42.00000000000001 6.464101615137754 1.9999999999999978
    vertex 42.00000000000001 3.0000000000000013 7.999999999999999
    vertex 42.00000000000001 4.0352761804100865 7.863703305156273
  endloop
endfacet
facet normal -1.0 3.493251700869394e-16 4.641478749374819e-16
  outer loop
    vertex 42.00000000000001 6.464101615137754 1.9999999999999978
    vertex 42.00000000000001 4.0352761804100865 7.863703305156273
    vertex 42.00000000000001 5.000000000000002 7.464101615137753
  endloop
endfacet
facet normal -1.0 3.493251700869394e-16 4.641478749374819e-16
  outer loop
    vertex 42.00000000000001 6.464101615137754 1.9999999999999978
    vertex 42.00000000000001 5.000000000000002 7.464101615137753
    vertex 42.00000000000001 5.828427124746191 6.828427124746187
  endloop
endfacet
facet normal -1.0 3.493251700869394e-16 4.641478749374819e-16
  outer loop
    vertex 42.00000000000001 6.464101615137754 1.9999999999999978
    vertex 42.00000000000001 5.828427124746191 6.828427124746187
    vertex 42.00000000000001 6.464101615137754 5.999999999999997
  endloop
endfacet
facet normal -1.0 3.493251700869394e-16 4.641478749374819e-16
  outer loop
    vertex 42.00000000000001 6.464101615137754 1.9999999999999978
    vertex 42.00000000000001 6.464101615137754 5.999999999999997
    vertex 42.00000000000001 6.863703305156275 5.03527618041008
  endloop
endfacet
facet normal -1.0 3.493251700869394e-16 4.641478749374819e-16
  outer loop
    vertex 42.00000000000001 6.464101615137754 1.9999999999999978
    vertex 42.00000000000001 6.863703305156275 5.03527618041008
    vertex 42.00000000000001 6.863703305156271 2.964723819589915
  endloop
endfacet
facet normal -1.0 3.493251700869394e-16 4.641478749374819e-16
  outer loop
    vertex 42.00000000000001 6.863703305156271 2.964723819589915
    vertex 42.00000000000001 6.863703305156275 5.03527618041008
    vertex 42.00000000000001 6.999999999999998 3.999999999999999
  endloop
endfacet
facet normal -1.0 0.0 0.0
  outer loop
    vertex 0.0 0.0 24.0
    vertex 0.0 -1.9999999999999998 0.0
    vertex 0.0 -1.9999999999999998 24.0
  endloop
endfacet
facet normal -1.0 0.0 0.0
  outer loop
    vertex 0.0 -1.9999999999999998 0.0
    vertex 0.0 0.0 24.0
    vertex 0.0 -0.9999999999999981 3.999999999999999
  endloop
endfacet
facet normal -1.0 0.0 0.0
  outer loop
    vertex 0.0 -0.9999999999999981 3.999999999999999
    vertex 0.0 0.0 24.0
    vertex 0.0 -0.8637033051562705 5.035276180410085
  endloop
endfacet
facet normal -1.0 0.0 0.0
  outer loop
    vertex 0.0 -0.8637033051562705 5.035276180410085
    vertex 0.0 0.0 24.0
    vertex 0.0 -0.4641016151377516 6.0
  endloop
endfacet
facet normal -1.0 0.0 0.0
  outer loop
    vertex 0.0 -0.4641016151377516 6.0
    vertex 0.0 0.0 24.0
    vertex 0.0 7.049916206369744e-16 6.604829000424104
  endloop
endfacet
facet normal -1.0 0.0 0.0
  outer loop
    vertex 0.0 -0.8637033051562711 3.035276180410086
    vertex 0.0 -0.8683475024126024 3.000000000000001
    vertex 0.0 -0.9999999999999981 3.999999999999999
  endloop
endfacet
facet normal -1.0 0.0 0.0
  outer loop
    vertex 0.0 -1.9999999999999998 0.0
    vertex 0.0 1.9647238195899175 0.13629669484372647
    vertex 0.0 3.0 -5.287437154777307e-16
  endloop
endfacet
facet normal -1.0 0.0 0.0
  outer loop
    vertex 0.0 1.9647238195899175 0.13629669484372647
    vertex 0.0 -1.9999999999999998 0.0
    vertex 0.0 1.0000000000000009 0.5358983848622453
  endloop
endfacet
facet normal -1.0 0.0 0.0
  outer loop
    vertex 0.0 1.0000000000000009 0.5358983848622453
    vertex 0.0 -1.9999999999999998 0.0
    vertex 0.0 0.1715728752538111 1.1715728752538095
  endloop
endfacet
facet normal -1.0 0.0 0.0
  outer loop
    vertex 0.0 0.1715728752538111 1.1715728752538095
    vertex 0.0 -1.9999999999999998 0.0
    vertex 0.0 -0.464101615137753 1.9999999999999998
  endloop
endfacet
facet normal -1.0 0.0 0.0
  outer loop
    vertex 0.0 -0.464101615137753 1.9999999999999998
    vertex 0.0 -1.9999999999999998 0.0
    vertex 0.0 -0.8637033051562711 2.9647238195899166
  endloop
endfacet
facet normal -1.0 0.0 0.0
  outer loop
    vertex 0.0 -0.8637033051562711 2.9647238195899166
    vertex 0.0 -1.9999999999999998 0.0
    vertex 0.0 -0.8683475024126024 3.000000000000001
  endloop
endfacet
facet normal -1.0 0.0 0.0
  outer loop
    vertex 0.0 -0.8683475024126024 3.000000000000001
    vertex 0.0 -1.9999999999999998 0.0
    vertex 0.0 -0.9999999999999981 3.999999999999999
  endloop
endfacet
facet normal -0.0 -0.38268343236509034 -0.9238795325112867
  outer loop
    vertex 57.00000000000001 1.9647238195899175 0.13629669484372647
    vertex 42.00000000000001 1.0000000000000009 0.5358983848622453
    vertex 42.00000000000001 1.9647238195899175 0.13629669484372647
  endloop
endfacet
facet normal -0.0 -0.38268343236509034 -0.9238795325112867
  outer loop
    vertex 42.00000000000001 1.0000000000000009 0.5358983848622453
    vertex 57.00000000000001 1.9647238195899175 0.13629669484372647
    vertex 57.00000000000001 1.0000000000000009 0.5358983848622453
  endloop
endfacet
facet normal -0.0 -0.6087614290087205 -0.7933533402912353
  outer loop
    vertex 57.00000000000001 1.0000000000000009 0.5358983848622453
    vertex 42.00000000000001 0.1715728752538111 1.1715728752538095
    vertex 42.00000000000001 1.0000000000000009 0.5358983848622453
  endloop
endfacet
facet normal -0.0 -0.6087614290087205 -0.7933533402912353
  outer loop
    vertex 42.00000000000001 0.1715728752538111 1.1715728752538095
    vertex 57.00000000000001 1.0000000000000009 0.5358983848622453
    vertex 57.00000000000001 0.1715728752538111 1.1715728752538095
  endloop
endfacet
facet normal -3.24625658810447e-19 0.1305261922200517 -0.9914448613738105
  outer loop
    vertex 57.00000000000001 4.035276180410084 0.13629669484372647
    vertex 42.00000000000001 3.0 -5.287437154777307e-16
    vertex 42.00000000000001 4.035276180410084 0.13629669484372647
  endloop
endfacet
facet normal -3.24625658810447e-19 0.1305261922200517 -0.9914448613738105
  outer loop
    vertex 42.00000000000001 3.0 -5.287437154777307e-16
    vertex 57.00000000000001 4.035276180410084 0.13629669484372647
    vertex 57.00000000000001 3.0 -5.287437154777307e-16
  endloop
endfacet
facet normal 0.0 -0.13052619222005182 -0.9914448613738105
  outer loop
    vertex 57.00000000000001 3.0 -5.287437154777307e-16
    vertex 42.00000000000001 1.9647238195899175 0.13629669484372647
    vertex 42.00000000000001 3.0 -5.287437154777307e-16
  endloop
endfacet
facet normal 0.0 -0.13052619222005182 -0.9914448613738105
  outer loop
    vertex 42.00000000000001 1.9647238195899175 0.13629669484372647
    vertex 57.00000000000001 3.0 -5.287437154777307e-16
    vertex 57.00000000000001 1.9647238195899175 0.13629669484372647
  endloop
endfacet
facet normal -1.0 2.1565238990535245e-16 -8.622086952255331e-16
  outer loop
    vertex 42.00000000000001 0.0 1.9999999999999998
    vertex 42.00000000000001 0.1715728752538111 1.1715728752538095
    vertex 42.00000000000001 -0.464101615137753 1.9999999999999998
  endloop
endfacet
facet normal -1.0 2.1565238990535245e-16 -8.622086952255331e-16
  outer loop
    vertex 42.00000000000001 0.1715728752538111 1.1715728752538095
    vertex 42.00000000000001 0.0 1.9999999999999998
    vertex 42.00000000000001 6.464101615137754 1.9999999999999978
  endloop
endfacet
facet normal -1.0 2.1565238990535245e-16 -8.622086952255331e-16
  outer loop
    vertex 42.00000000000001 0.1715728752538111 1.1715728752538095
    vertex 42.00000000000001 6.464101615137754 1.9999999999999978
    vertex 42.00000000000001 1.0000000000000009 0.5358983848622453
  endloop
endfacet
facet normal -1.0 2.1565238990535245e-16 -8.622086952255331e-16
  outer loop
    vertex 42.00000000000001 1.0000000000000009 0.5358983848622453
    vertex 42.00000000000001 6.464101615137754 1.9999999999999978
    vertex 42.00000000000001 1.9647238195899175 0.13629669484372647
  endloop
endfacet
facet normal -1.0 2.1565238990535245e-16 -8.622086952255331e-16
  outer loop
    vertex 42.00000000000001 1.9647238195899175 0.13629669484372647
    vertex 42.00000000000001 6.464101615137754 1.9999999999999978
    vertex 42.00000000000001 3.0 -5.287437154777307e-16
  endloop
endfacet
facet normal -1.0 2.1565238990535245e-16 -8.622086952255331e-16
  outer loop
    vertex 42.00000000000001 3.0 -5.287437154777307e-16
    vertex 42.00000000000001 6.464101615137754 1.9999999999999978
    vertex 42.00000000000001 4.035276180410084 0.13629669484372647
  endloop
endfacet
facet normal -1.0 2.1565238990535245e-16 -8.622086952255331e-16
  outer loop
    vertex 42.00000000000001 4.035276180410084 0.13629669484372647
    vertex 42.00000000000001 6.464101615137754 1.9999999999999978
    vertex 42.00000000000001 4.999999999999998 0.5358983848622446
  endloop
endfacet
facet normal -1.0 2.1565238990535245e-16 -8.622086952255331e-16
  outer loop
    vertex 42.00000000000001 4.999999999999998 0.5358983848622446
    vertex 42.00000000000001 6.464101615137754 1.9999999999999978
    vertex 42.00000000000001 5.828427124746191 1.171572875253809
  endloop
endfacet
facet normal 0.0 -0.7933533402912354 -0.6087614290087203
  outer loop
    vertex 57.00000000000001 -0.464101615137753 1.9999999999999998
    vertex 42.00000000000001 0.1715728752538111 1.1715728752538095
    vertex 57.00000000000001 0.1715728752538111 1.1715728752538095
  endloop
endfacet
facet normal 0.0 -0.7933533402912354 -0.6087614290087203
  outer loop
    vertex 42.00000000000001 0.1715728752538111 1.1715728752538095
    vertex 57.00000000000001 -0.464101615137753 1.9999999999999998
    vertex 42.00000000000001 -0.464101615137753 1.9999999999999998
  endloop
endfacet
facet normal 2.689444060793415e-33 0.7933533402912349 -0.6087614290087209
  outer loop
    vertex 42.00000000000001 6.464101615137754 1.9999999999999978
    vertex 57.00000000000001 5.828427124746191 1.171572875253809
    vertex 42.00000000000001 5.828427124746191 1.171572875253809
  endloop
endfacet
facet normal 2.689444060793415e-33 0.7933533402912349 -0.6087614290087209
  outer loop
    vertex 57.00000000000001 5.828427124746191 1.171572875253809
    vertex 42.00000000000001 6.464101615137754 1.9999999999999978
    vertex 57.00000000000001 6.464101615137754 1.9999999999999978
  endloop
endfacet
facet normal 0.0 0.6087614290087202 -0.7933533402912355
  outer loop
    vertex 57.00000000000001 5.828427124746191 1.171572875253809
    vertex 42.00000000000001 4.999999999999998 0.5358983848622446
    vertex 42.00000000000001 5.828427124746191 1.171572875253809
  endloop
endfacet
facet normal 0.0 0.6087614290087202 -0.7933533402912355
  outer loop
    vertex 42.00000000000001 4.999999999999998 0.5358983848622446
    vertex 57.00000000000001 5.828427124746191 1.171572875253809
    vertex 57.00000000000001 4.999999999999998 0.5358983848622446
  endloop
endfacet
facet normal 0.0 0.3826834323650898 -0.9238795325112867
  outer loop
    vertex 57.00000000000001 4.999999999999998 0.5358983848622446
    vertex 42.00000000000001 4.035276180410084 0.13629669484372647
    vertex 42.00000000000001 4.999999999999998 0.5358983848622446
  endloop
endfacet
facet normal 0.0 0.3826834323650898 -0.9238795325112867
  outer loop
    vertex 42.00000000000001 4.035276180410084 0.13629669484372647
    vertex 57.00000000000001 4.999999999999998 0.5358983848622446
    vertex 57.00000000000001 4.035276180410084 0.13629669484372647
  endloop
endfacet
facet normal -6.762620857988575e-33 0.9238795325112873 -0.38268343236508884
  outer loop
    vertex 42.00000000000001 6.863703305156271 2.964723819589915
    vertex 57.00000000000001 6.464101615137754 1.9999999999999978
    vertex 42.00000000000001 6.464101615137754 1.9999999999999978
  endloop
endfacet
facet normal -6.762620857988575e-33 0.9238795325112873 -0.38268343236508884
  outer loop
    vertex 57.00000000000001 6.464101615137754 1.9999999999999978
    vertex 42.00000000000001 6.863703305156271 2.964723819589915
    vertex 57.00000000000001 6.863703305156271 2.964723819589915
  endloop
endfacet
facet normal 0.0 0.9914448613738105 -0.13052619222005163
  outer loop
    vertex 42.00000000000001 6.999999999999998 3.999999999999999
    vertex 57.00000000000001 6.863703305156271 2.964723819589915
    vertex 42.00000000000001 6.863703305156271 2.964723819589915
  endloop
endfacet
facet normal 0.0 0.9914448613738105 -0.13052619222005163
  outer loop
    vertex 57.00000000000001 6.863703305156271 2.964723819589915
    vertex 42.00000000000001 6.999999999999998 3.999999999999999
    vertex 57.00000000000001 6.999999999999998 3.999999999999999
  endloop
endfacet
facet normal 1.0 0.0 0.0
  outer loop
    vertex 57.00000000000001 -0.8637033051562711 2.9647238195899166
    vertex 57.00000000000001 -0.8637033051562705 5.035276180410085
    vertex 57.00000000000001 -0.9999999999999981 3.999999999999999
  endloop
endfacet
facet normal 1.0 0.0 0.0
  outer loop
    vertex 57.00000000000001 -0.8637033051562705 5.035276180410085
    vertex 57.00000000000001 -0.8637033051562711 2.9647238195899166
    vertex 57.00000000000001 -0.464101615137753 1.9999999999999998
  endloop
endfacet
facet normal 1.0 0.0 0.0
  outer loop
    vertex 57.00000000000001 -0.8637033051562705 5.035276180410085
    vertex 57.00000000000001 -0.464101615137753 1.9999999999999998
    vertex 57.00000000000001 -0.4641016151377516 6.0
  endloop
endfacet
facet normal 1.0 0.0 0.0
  outer loop
    vertex 57.00000000000001 -0.4641016151377516 6.0
    vertex 57.00000000000001 -0.464101615137753 1.9999999999999998
    vertex 57.00000000000001 0.1715728752538111 1.1715728752538095
  endloop
endfacet
facet normal 1.0 0.0 0.0
  outer loop
    vertex 57.00000000000001 -0.4641016151377516 6.0
    vertex 57.00000000000001 0.1715728752538111 1.1715728752538095
    vertex 57.00000000000001 7.049916206369744e-16 6.604829000424104
  endloop
endfacet
facet normal 1.0 0.0 0.0
  outer loop
    vertex 57.00000000000001 7.049916206369744e-16 6.604829000424104
    vertex 57.00000000000001 0.1715728752538111 1.1715728752538095
    vertex 57.00000000000001 0.17157287525381215 6.82842712474619
  endloop
endfacet
facet normal 1.0 0.0 0.0
  outer loop
    vertex 57.00000000000001 0.17157287525381215 6.82842712474619
    vertex 57.00000000000001 0.1715728752538111 1.1715728752538095
    vertex 57.00000000000001 1.0000000000000009 0.5358983848622453
  endloop
endfacet
facet normal 1.0 0.0 0.0
  outer loop
    vertex 57.00000000000001 0.17157287525381215 6.82842712474619
    vertex 57.00000000000001 1.0000000000000009 0.5358983848622453
    vertex 57.00000000000001 1.0000000000000042 7.464101615137755
  endloop
endfacet
facet normal 1.0 0.0 0.0
  outer loop
    vertex 57.00000000000001 1.0000000000000042 7.464101615137755
    vertex 57.00000000000001 1.0000000000000009 0.5358983848622453
    vertex 57.00000000000001 1.9647238195899175 0.13629669484372647
  endloop
endfacet
facet normal 1.0 0.0 0.0
  outer loop
    vertex 57.00000000000001 1.0000000000000042 7.464101615137755
    vertex 57.00000000000001 1.9647238195899175 0.13629669484372647
    vertex 57.00000000000001 1.9647238195899204 7.863703305156273
  endloop
endfacet
facet normal 1.0 0.0 0.0
  outer loop
    vertex 57.00000000000001 1.9647238195899204 7.863703305156273
    vertex 57.00000000000001 1.9647238195899175 0.13629669484372647
    vertex 57.00000000000001 3.0 -5.287437154777307e-16
  endloop
endfacet
facet normal 1.0 0.0 0.0
  outer loop
    vertex 57.00000000000001 1.9647238195899204 7.863703305156273
    vertex 57.00000000000001 3.0 -5.287437154777307e-16
    vertex 57.00000000000001 3.0000000000000013 7.999999999999999
  endloop
endfacet
facet normal 1.0 0.0 0.0
  outer loop
    vertex 57.00000000000001 3.0000000000000013 7.999999999999999
    vertex 57.00000000000001 3.0 -5.287437154777307e-16
    vertex 57.00000000000001 4.035276180410084 0.13629669484372647
  endloop
endfacet
facet normal 1.0 0.0 0.0
  outer loop
    vertex 57.00000000000001 3.0000000000000013 7.999999999999999
    vertex 57.00000000000001 4.035276180410084 0.13629669484372647
    vertex 57.00000000000001 4.0352761804100865 7.863703305156273
  endloop
endfacet
facet normal 1.0 0.0 0.0
  outer loop
    vertex 57.00000000000001 4.0352761804100865 7.863703305156273
    vertex 57.00000000000001 4.035276180410084 0.13629669484372647
    vertex 57.00000000000001 4.999999999999998 0.5358983848622446
  endloop
endfacet
facet normal 1.0 0.0 0.0
  outer loop
    vertex 57.00000000000001 4.0352761804100865 7.863703305156273
    vertex 57.00000000000001 4.999999999999998 0.5358983848622446
    vertex 57.00000000000001 5.000000000000002 7.464101615137753
  endloop
endfacet
facet normal 1.0 0.0 0.0
  outer loop
    vertex 57.00000000000001 5.000000000000002 7.464101615137753
    vertex 57.00000000000001 4.999999999999998 0.5358983848622446
    vertex 57.00000000000001 5.828427124746191 1.171572875253809
  endloop
endfacet
facet normal 1.0 0.0 0.0
  outer loop
    vertex 57.00000000000001 5.000000000000002 7.464101615137753
    vertex 57.00000000000001 5.828427124746191 1.171572875253809
    vertex 57.00000000000001 5.828427124746191 6.828427124746187
  endloop
endfacet
facet normal 1.0 0.0 0.0
  outer loop
    vertex 57.00000000000001 5.828427124746191 6.828427124746187
    vertex 57.00000000000001 5.828427124746191 1.171572875253809
    vertex 57.00000000000001 6.464101615137754 1.9999999999999978
  endloop
endfacet
facet normal 1.0 0.0 0.0
  outer loop
    vertex 57.00000000000001 5.828427124746191 6.828427124746187
    vertex 57.00000000000001 6.464101615137754 1.9999999999999978
    vertex 57.00000000000001 6.464101615137754 5.999999999999997
  endloop
endfacet
facet normal 1.0 0.0 0.0
  outer loop
    vertex 57.00000000000001 6.464101615137754 5.999999999999997
    vertex 57.00000000000001 6.464101615137754 1.9999999999999978
    vertex 57.00000000000001 6.863703305156271 2.964723819589915
  endloop
endfacet
facet normal 1.0 0.0 0.0
  outer loop
    vertex 57.00000000000001 6.464101615137754 5.999999999999997
    vertex 57.00000000000001 6.863703305156271 2.964723819589915
    vertex 57.00000000000001 6.863703305156275 5.03527618041008
  endloop
endfacet
facet normal 1.0 0.0 0.0
  outer loop
    vertex 57.00000000000001 6.863703305156275 5.03527618041008
    vertex 57.00000000000001 6.863703305156271 2.964723819589915
    vertex 57.00000000000001 6.999999999999998 3.999999999999999
  endloop
endfacet
facet normal -1.0 0.0 0.0
  outer loop
    vertex 0.0 -0.8637033051562705 5.035276180410085
    vertex 0.0 -0.8637033051562711 3.035276180410086
    vertex 0.0 -0.9999999999999981 3.999999999999999
  endloop
endfacet
facet normal -1.0 0.0 0.0
  outer loop
    vertex 0.0 -0.8637033051562711 3.035276180410086
    vertex 0.0 -0.8637033051562705 5.035276180410085
    vertex 0.0 -0.46410161513775233 4.000000000000001
  endloop
endfacet
facet normal -1.0 0.0 0.0
  outer loop
    vertex 0.0 -0.46410161513775233 4.000000000000001
    vertex 0.0 -0.8637033051562705 5.035276180410085
    vertex 0.0 -0.4641016151377516 6.0
  endloop
endfacet
facet normal -1.0 0.0 0.0
  outer loop
    vertex 0.0 -0.46410161513775233 4.000000000000001
    vertex 0.0 -0.4641016151377516 6.0
    vertex 0.0 0.0 4.604829000424105
  endloop
endfacet
facet normal -1.0 0.0 0.0
  outer loop
    vertex 0.0 0.0 4.604829000424105
    vertex 0.0 -0.4641016151377516 6.0
    vertex 0.0 7.049916206369744e-16 6.604829000424104
  endloop
endfacet
facet normal 1.0 6.243242444974891e-15 -2.8169534355959153e-15
  outer loop
    vertex 42.00000000000001 -0.8637033051562711 3.035276180410086
    vertex 42.00000000000001 -0.8637033051562705 5.035276180410085
    vertex 42.00000000000001 -0.9999999999999981 3.999999999999999
  endloop
endfacet
facet normal 1.0 6.243242444974891e-15 -2.8169534355959153e-15
  outer loop
    vertex 42.00000000000001 -0.8637033051562705 5.035276180410085
    vertex 42.00000000000001 -0.8637033051562711 3.035276180410086
    vertex 42.00000000000001 -0.46410161513775233 4.000000000000001
  endloop
endfacet
facet normal 1.0 6.243242444974891e-15 -2.8169534355959153e-15
  outer loop
    vertex 42.00000000000001 -0.8637033051562705 5.035276180410085
    vertex 42.00000000000001 -0.46410161513775233 4.000000000000001
    vertex 42.00000000000001 -0.4641016151377516 6.0
  endloop
endfacet
facet normal 1.0 6.243242444974891e-15 -2.8169534355959153e-15
  outer loop
    vertex 42.00000000000001 -0.4641016151377516 6.0
    vertex 42.00000000000001 -0.46410161513775233 4.000000000000001
    vertex 42.00000000000001 0.0 4.604829000424104
  endloop
endfacet
facet normal 1.0 6.243242444974891e-15 -2.8169534355959153e-15
  outer loop
    vertex 42.00000000000001 -0.4641016151377516 6.0
    vertex 42.00000000000001 0.0 4.604829000424104
    vertex 42.00000000000001 7.049916206369744e-16 6.604829000424104
  endloop
endfacet
facet normal 0.0 1.0 0.0
  outer loop
    vertex 0.0 66.0 1.9999999999999998
    vertex 42.00000000000001 66.0 0.0
    vertex 0.0 66.0 0.0
  endloop
endfacet
facet normal 0.0 1.0 0.0
  outer loop
    vertex 42.00000000000001 66.0 0.0
    vertex 0.0 66.0 1.9999999999999998
    vertex 42.00000000000001 66.0 1.9999999999999998
  endloop
endfacet
facet normal -1.0 0.0 0.0
  outer loop
    vertex 0.0 4.035276180410084 0.13629669484372647
    vertex 0.0 66.0 0.0
    vertex 0.0 3.0 -5.287437154777307e-16
  endloop
endfacet
facet normal -1.0 0.0 0.0
  outer loop
    vertex 0.0 66.0 0.0
    vertex 0.0 4.035276180410084 0.13629669484372647
    vertex 0.0 4.999999999999998 0.5358983848622446
  endloop
endfacet
facet normal -1.0 0.0 0.0
  outer loop
    vertex 0.0 66.0 0.0
    vertex 0.0 4.999999999999998 0.5358983848622446
    vertex 0.0 5.828427124746191 1.171572875253809
  endloop
endfacet
facet normal -1.0 0.0 0.0
  outer loop
    vertex 0.0 66.0 0.0
    vertex 0.0 5.828427124746191 1.171572875253809
    vertex 0.0 6.464101615137754 1.9999999999999978
  endloop
endfacet
facet normal -1.0 0.0 0.0
  outer loop
    vertex 0.0 66.0 0.0
    vertex 0.0 6.464101615137754 1.9999999999999978
    vertex 0.0 66.0 1.9999999999999998
  endloop
endfacet
facet normal 8.224283635099683e-34 -1.0 -1.3251722192424334e-17
  outer loop
    vertex 42.00000000000001 -1.9999999999999998 24.0
    vertex 0.0 -1.9999999999999998 0.0
    vertex 42.00000000000001 -1.9999999999999998 0.0
  endloop
endfacet
facet normal 8.224283635099683e-34 -1.0 -1.3251722192424334e-17
  outer loop
    vertex 0.0 -1.9999999999999998 0.0
    vertex 42.00000000000001 -1.9999999999999998 24.0
    vertex 0.0 -1.9999999999999998 24.0
  endloop
endfacet
facet normal 1.0 0.0 0.0
  outer loop
    vertex 0.0 6.464101615137754 1.9999999999999978
    vertex 0.0 0.0 4.604829000424105
    vertex 0.0 0.0 1.9999999999999998
  endloop
endfacet
facet normal 1.0 0.0 0.0
  outer loop
    vertex 0.0 0.0 4.604829000424105
    vertex 0.0 6.464101615137754 1.9999999999999978
    vertex 0.0 7.049916206369744e-16 6.604829000424104
  endloop
endfacet
facet normal 1.0 0.0 0.0
  outer loop
    vertex 0.0 7.049916206369744e-16 6.604829000424104
    vertex 0.0 6.464101615137754 1.9999999999999978
    vertex 0.0 0.17157287525381215 6.82842712474619
  endloop
endfacet
facet normal 1.0 0.0 0.0
  outer loop
    vertex 0.0 0.17157287525381215 6.82842712474619
    vertex 0.0 6.464101615137754 1.9999999999999978
    vertex 0.0 1.0000000000000042 7.464101615137755
  endloop
endfacet
facet normal 1.0 0.0 0.0
  outer loop
    vertex 0.0 1.0000000000000042 7.464101615137755
    vertex 0.0 6.464101615137754 1.9999999999999978
    vertex 0.0 1.9647238195899204 7.863703305156273
  endloop
endfacet
facet normal 1.0 0.0 0.0
  outer loop
    vertex 0.0 1.9647238195899204 7.863703305156273
    vertex 0.0 6.464101615137754 1.9999999999999978
    vertex 0.0 3.0000000000000013 7.999999999999999
  endloop
endfacet
facet normal 1.0 0.0 0.0
  outer loop
    vertex 0.0 3.0000000000000013 7.999999999999999
    vertex 0.0 6.464101615137754 1.9999999999999978
    vertex 0.0 4.0352761804100865 7.863703305156273
  endloop
endfacet
facet normal 1.0 0.0 0.0
  outer loop
    vertex 0.0 4.0352761804100865 7.863703305156273
    vertex 0.0 6.464101615137754 1.9999999999999978
    vertex 0.0 5.000000000000002 7.464101615137753
  endloop
endfacet
facet normal 1.0 0.0 0.0
  outer loop
    vertex 0.0 5.000000000000002 7.464101615137753
    vertex 0.0 6.464101615137754 1.9999999999999978
    vertex 0.0 5.828427124746191 6.828427124746187
  endloop
endfacet
facet normal 1.0 0.0 0.0
  outer loop
    vertex 0.0 5.828427124746191 6.828427124746187
    vertex 0.0 6.464101615137754 1.9999999999999978
    vertex 0.0 6.464101615137754 5.999999999999997
  endloop
endfacet
facet normal 1.0 0.0 0.0
  outer loop
    vertex 0.0 6.464101615137754 5.999999999999997
    vertex 0.0 6.464101615137754 1.9999999999999978
    vertex 0.0 6.863703305156271 2.964723819589915
  endloop
endfacet
facet normal 1.0 0.0 0.0
  outer loop
    vertex 0.0 6.464101615137754 5.999999999999997
    vertex 0.0 6.863703305156271 2.964723819589915
    vertex 0.0 6.863703305156275 5.03527618041008
  endloop
endfacet
facet normal 1.0 0.0 0.0
  outer loop
    vertex 0.0 6.863703305156275 5.03527618041008
    vertex 0.0 6.863703305156271 2.964723819589915
    vertex 0.0 6.999999999999998 3.999999999999999
  endloop
endfacet
facet normal 5.245473367834489e-20 1.0 1.2966836929829206e-17
  outer loop
    vertex 0.0 0.0 4.604829000424105
    vertex 42.00000000000001 0.0 1.9999999999999998
    vertex 0.0 0.0 1.9999999999999998
  endloop
endfacet
facet normal 5.245473367834489e-20 1.0 1.2966836929829206e-17
  outer loop
    vertex 42.00000000000001 0.0 1.9999999999999998
    vertex 0.0 0.0 4.604829000424105
    vertex 42.00000000000001 0.0 4.604829000424104
  endloop
endfacet
facet normal 5.245473367834489e-20 1.0 1.2966836929829206e-17
  outer loop
    vertex 42.00000000000001 0.0 4.604829000424104
    vertex 0.0 0.0 4.604829000424105
    vertex 42.00000000000001 7.049916206369744e-16 6.604829000424104
  endloop
endfacet
facet normal 5.245473367834489e-20 1.0 1.2966836929829206e-17
  outer loop
    vertex 42.00000000000001 7.049916206369744e-16 6.604829000424104
    vertex 0.0 0.0 4.604829000424105
    vertex 0.0 7.049916206369744e-16 6.604829000424104
  endloop
endfacet
facet normal 5.245473367834489e-20 1.0 1.2966836929829206e-17
  outer loop
    vertex 42.00000000000001 7.049916206369744e-16 6.604829000424104
    vertex 0.0 7.049916206369744e-16 6.604829000424104
    vertex 0.0 0.0 24.0
  endloop
endfacet
facet normal 5.245473367834489e-20 1.0 1.2966836929829206e-17
  outer loop
    vertex 42.00000000000001 7.049916206369744e-16 6.604829000424104
    vertex 0.0 0.0 24.0
    vertex 42.00000000000001 0.0 24.0
  endloop
endfacet
facet normal 0.0 0.0 1.0
  outer loop
    vertex 42.00000000000001 -1.9999999999999998 24.0
    vertex 0.0 0.0 24.0
    vertex 0.0 -1.9999999999999998 24.0
  endloop
endfacet
facet normal 0.0 0.0 1.0
  outer loop
    vertex 0.0 0.0 24.0
    vertex 42.00000000000001 -1.9999999999999998 24.0
    vertex 42.00000000000001 0.0 24.0
  endloop
endfacet
facet normal -2.0981893471338496e-18 -1.0673205829144804e-17 1.0
  outer loop
    vertex 42.00000000000001 0.0 1.9999999999999998
    vertex 0.0 6.464101615137754 1.9999999999999978
    vertex 0.0 0.0 1.9999999999999998
  endloop
endfacet
facet normal -2.0981893471338496e-18 -1.0673205829144804e-17 1.0
  outer loop
    vertex 0.0 6.464101615137754 1.9999999999999978
    vertex 42.00000000000001 0.0 1.9999999999999998
    vertex 0.0 66.0 1.9999999999999998
  endloop
endfacet
facet normal -2.0981893471338496e-18 -1.0673205829144804e-17 1.0
  outer loop
    vertex 0.0 66.0 1.9999999999999998
    vertex 42.00000000000001 0.0 1.9999999999999998
    vertex 42.00000000000001 66.0 1.9999999999999998
  endloop
endfacet
facet normal -2.0981893471338496e-18 -1.0673205829144804e-17 1.0
  outer loop
    vertex 42.00000000000001 66.0 1.9999999999999998
    vertex 42.00000000000001 0.0 1.9999999999999998
    vertex 42.00000000000001 6.464101615137754 1.9999999999999978
  endloop
endfacet
facet normal 0.0 0.3826834323650904 0.9238795325112865
  outer loop
    vertex 0.0 4.0352761804100865 7.863703305156273
    vertex -15.0 5.000000000000002 7.464101615137753
    vertex -15.0 4.0352761804100865 7.863703305156273
  endloop
endfacet
facet normal 0.0 0.3826834323650904 0.9238795325112865
  outer loop
    vertex -15.0 5.000000000000002 7.464101615137753
    vertex 0.0 4.0352761804100865 7.863703305156273
    vertex 0.0 5.000000000000002 7.464101615137753
  endloop
endfacet
facet normal 0.0001296812619532623 -0.9912451319881103 -0.13203435724327361
  outer loop
    vertex 0.0 -0.8683475024126024 3.000000000000001
    vertex -14.999999999999998 -0.8637033051562711 2.9647238195899166
    vertex 0.0 -0.8637033051562711 2.9647238195899166
  endloop
endfacet
facet normal 0.0001296812619532623 -0.9912451319881103 -0.13203435724327361
  outer loop
    vertex -14.999999999999998 -0.8637033051562711 2.9647238195899166
    vertex 0.0 -0.8683475024126024 3.000000000000001
    vertex -14.999999999999998 -0.9999999999999981 3.999999999999999
  endloop
endfacet
facet normal 0.0001296812619532623 -0.9912451319881103 -0.13203435724327361
  outer loop
    vertex -14.999999999999998 -0.9999999999999981 3.999999999999999
    vertex 0.0 -0.8683475024126024 3.000000000000001
    vertex 0.0 -0.8637033051562711 3.035276180410086
  endloop
endfacet
facet normal 0.0001296812619532623 -0.9912451319881103 -0.13203435724327361
  outer loop
    vertex -14.999999999999998 -0.9999999999999981 3.999999999999999
    vertex 0.0 -0.8637033051562711 3.035276180410086
    vertex 0.0 -0.9999999999999981 3.999999999999999
  endloop
endfacet
facet normal 0.0 -0.9238795325112868 -0.38268343236508956
  outer loop
    vertex 0.0 -0.8637033051562711 2.9647238195899166
    vertex -14.999999999999998 -0.464101615137753 1.9999999999999998
    vertex 0.0 -0.464101615137753 1.9999999999999998
  endloop
endfacet
facet normal 0.0 -0.9238795325112868 -0.38268343236508956
  outer loop
    vertex -14.999999999999998 -0.464101615137753 1.9999999999999998
    vertex 0.0 -0.8637033051562711 2.9647238195899166
    vertex -14.999999999999998 -0.8637033051562711 2.9647238195899166
  endloop
endfacet
facet normal 0.0 -0.9914448613738104 0.13052619222005202
  outer loop
    vertex 0.0 -0.8637033051562705 5.035276180410085
    vertex -14.999999999999998 -0.9999999999999981 3.999999999999999
    vertex 0.0 -0.9999999999999981 3.999999999999999
  endloop
endfacet
facet normal 0.0 -0.9914448613738104 0.13052619222005202
  outer loop
    vertex -14.999999999999998 -0.9999999999999981 3.999999999999999
    vertex 0.0 -0.8637033051562705 5.035276180410085
    vertex -14.999999999999998 -0.8637033051562705 5.035276180410085
  endloop
endfacet
facet normal 1.0 0.0 0.0
  outer loop
    vertex 0.0 0.1715728752538111 1.1715728752538095
    vertex 0.0 0.0 1.9999999999999998
    vertex 0.0 -0.464101615137753 1.9999999999999998
  endloop
endfacet
facet normal 1.0 0.0 0.0
  outer loop
    vertex 0.0 0.0 1.9999999999999998
    vertex 0.0 0.1715728752538111 1.1715728752538095
    vertex 0.0 6.464101615137754 1.9999999999999978
  endloop
endfacet
facet normal 1.0 0.0 0.0
  outer loop
    vertex 0.0 6.464101615137754 1.9999999999999978
    vertex 0.0 0.1715728752538111 1.1715728752538095
    vertex 0.0 1.0000000000000009 0.5358983848622453
  endloop
endfacet
facet normal 1.0 0.0 0.0
  outer loop
    vertex 0.0 6.464101615137754 1.9999999999999978
    vertex 0.0 1.0000000000000009 0.5358983848622453
    vertex 0.0 1.9647238195899175 0.13629669484372647
  endloop
endfacet
facet normal 1.0 0.0 0.0
  outer loop
    vertex 0.0 6.464101615137754 1.9999999999999978
    vertex 0.0 1.9647238195899175 0.13629669484372647
    vertex 0.0 3.0 -5.287437154777307e-16
  endloop
endfacet
facet normal 1.0 0.0 0.0
  outer loop
    vertex 0.0 6.464101615137754 1.9999999999999978
    vertex 0.0 3.0 -5.287437154777307e-16
    vertex 0.0 4.035276180410084 0.13629669484372647
  endloop
endfacet
facet normal 1.0 0.0 0.0
  outer loop
    vertex 0.0 6.464101615137754 1.9999999999999978
    vertex 0.0 4.035276180410084 0.13629669484372647
    vertex 0.0 4.999999999999998 0.5358983848622446
  endloop
endfacet
facet normal 1.0 0.0 0.0
  outer loop
    vertex 0.0 6.464101615137754 1.9999999999999978
    vertex 0.0 4.999999999999998 0.5358983848622446
    vertex 0.0 5.828427124746191 1.171572875253809
  endloop
endfacet
facet normal 0.0 0.9238795325112867 0.3826834323650899
  outer loop
    vertex -15.0 6.464101615137754 5.999999999999997
    vertex 0.0 6.863703305156275 5.03527618041008
    vertex -15.0 6.863703305156275 5.03527618041008
  endloop
endfacet
facet normal 0.0 0.9238795325112867 0.3826834323650899
  outer loop
    vertex 0.0 6.863703305156275 5.03527618041008
    vertex -15.0 6.464101615137754 5.999999999999997
    vertex 0.0 6.464101615137754 5.999999999999997
  endloop
endfacet
facet normal 0.0 0.608761429008721 0.7933533402912349
  outer loop
    vertex 0.0 5.000000000000002 7.464101615137753
    vertex -15.0 5.828427124746191 6.828427124746187
    vertex -15.0 5.000000000000002 7.464101615137753
  endloop
endfacet
facet normal 0.0 0.608761429008721 0.7933533402912349
  outer loop
    vertex -15.0 5.828427124746191 6.828427124746187
    vertex 0.0 5.000000000000002 7.464101615137753
    vertex 0.0 5.828427124746191 6.828427124746187
  endloop
endfacet
facet normal 0.0 0.7933533402912359 0.6087614290087197
  outer loop
    vertex -15.0 5.828427124746191 6.828427124746187
    vertex 0.0 6.464101615137754 5.999999999999997
    vertex -15.0 6.464101615137754 5.999999999999997
  endloop
endfacet
facet normal 0.0 0.7933533402912359 0.6087614290087197
  outer loop
    vertex 0.0 6.464101615137754 5.999999999999997
    vertex -15.0 5.828427124746191 6.828427124746187
    vertex 0.0 5.828427124746191 6.828427124746187
  endloop
endfacet
facet normal 0.0 0.1305261922200522 0.9914448613738104
  outer loop
    vertex 0.0 3.0000000000000013 7.999999999999999
    vertex -15.0 4.0352761804100865 7.863703305156273
    vertex -15.0 3.0000000000000013 7.999999999999999
  endloop
endfacet
facet normal 0.0 0.1305261922200522 0.9914448613738104
  outer loop
    vertex -15.0 4.0352761804100865 7.863703305156273
    vertex 0.0 3.0000000000000013 7.999999999999999
    vertex 0.0 4.0352761804100865 7.863703305156273
  endloop
endfacet
facet normal 0.0 -0.13052619222005127 0.9914448613738106
  outer loop
    vertex 0.0 1.9647238195899204 7.863703305156273
    vertex -15.0 3.0000000000000013 7.999999999999999
    vertex -15.0 1.9647238195899204 7.863703305156273
  endloop
endfacet
facet normal 0.0 -0.13052619222005127 0.9914448613738106
  outer loop
    vertex -15.0 3.0000000000000013 7.999999999999999
    vertex 0.0 1.9647238195899204 7.863703305156273
    vertex 0.0 3.0000000000000013 7.999999999999999
  endloop
endfacet
facet normal 0.0 -0.3826834323650892 0.923879532511287
  outer loop
    vertex 0.0 1.0000000000000042 7.464101615137755
    vertex -15.0 1.9647238195899204 7.863703305156273
    vertex -15.0 1.0000000000000042 7.464101615137755
  endloop
endfacet
facet normal 0.0 -0.3826834323650892 0.923879532511287
  outer loop
    vertex -15.0 1.9647238195899204 7.863703305156273
    vertex 0.0 1.0000000000000042 7.464101615137755
    vertex 0.0 1.9647238195899204 7.863703305156273
  endloop
endfacet
facet normal 0.0 -0.6087614290087202 0.7933533402912355
  outer loop
    vertex 0.0 0.17157287525381215 6.82842712474619
    vertex -15.0 1.0000000000000042 7.464101615137755
    vertex -15.0 0.17157287525381215 6.82842712474619
  endloop
endfacet
facet normal 0.0 -0.6087614290087202 0.7933533402912355
  outer loop
    vertex -15.0 1.0000000000000042 7.464101615137755
    vertex 0.0 0.17157287525381215 6.82842712474619
    vertex 0.0 1.0000000000000042 7.464101615137755
  endloop
endfacet
facet normal 0.0 -0.7933533402912348 0.608761429008721
  outer loop
    vertex 0.0 0.17157287525381215 6.82842712474619
    vertex -15.0 7.049916206369744e-16 6.604829000424104
    vertex 0.0 7.049916206369744e-16 6.604829000424104
  endloop
endfacet
facet normal 0.0 -0.7933533402912348 0.608761429008721
  outer loop
    vertex -15.0 7.049916206369744e-16 6.604829000424104
    vertex 0.0 0.17157287525381215 6.82842712474619
    vertex -15.0 0.17157287525381215 6.82842712474619
  endloop
endfacet
facet normal 0.0 0.9914448613738105 0.1305261922200506
  outer loop
    vertex -15.0 6.863703305156275 5.03527618041008
    vertex 0.0 6.999999999999998 3.999999999999999
    vertex -15.0 6.999999999999998 3.999999999999999
  endloop
endfacet
facet normal 0.0 0.9914448613738105 0.1305261922200506
  outer loop
    vertex 0.0 6.999999999999998 3.999999999999999
    vertex -15.0 6.863703305156275 5.03527618041008
    vertex 0.0 6.863703305156275 5.03527618041008
  endloop
endfacet
facet normal 0.0 -0.9238795325112864 0.3826834323650906
  outer loop
    vertex 0.0 -0.4641016151377516 6.0
    vertex -14.999999999999998 -0.8637033051562705 5.035276180410085
    vertex 0.0 -0.8637033051562705 5.035276180410085
  endloop
endfacet
facet normal 0.0 -0.9238795325112864 0.3826834323650906
  outer loop
    vertex -14.999999999999998 -0.8637033051562705 5.035276180410085
    vertex 0.0 -0.4641016151377516 6.0
    vertex -14.999999999999998 -0.4641016151377516 6.0
  endloop
endfacet
facet normal 2.979211949924046e-19 -0.7933533402912355 0.6087614290087202
  outer loop
    vertex 0.0 7.049916206369744e-16 6.604829000424104
    vertex -14.999999999999998 -0.4641016151377516 6.0
    vertex 0.0 -0.4641016151377516 6.0
  endloop
endfacet
facet normal 2.979211949924046e-19 -0.7933533402912355 0.6087614290087202
  outer loop
    vertex -14.999999999999998 -0.4641016151377516 6.0
    vertex 0.0 7.049916206369744e-16 6.604829000424104
    vertex -15.0 7.049916206369744e-16 6.604829000424104
  endloop
endfacet
facet normal -4.921072030425491e-20 0.9914448613738105 -0.13052619222005166
  outer loop
    vertex -15.0 6.999999999999998 3.999999999999999
    vertex 0.0 6.863703305156271 2.964723819589915
    vertex -14.999999999999998 6.863703305156271 2.964723819589915
  endloop
endfacet
facet normal -4.921072030425491e-20 0.9914448613738105 -0.13052619222005166
  outer loop
    vertex 0.0 6.863703305156271 2.964723819589915
    vertex -15.0 6.999999999999998 3.999999999999999
    vertex 0.0 6.999999999999998 3.999999999999999
  endloop
endfacet
facet normal 0.0 0.9238795325112873 -0.3826834323650888
  outer loop
    vertex -14.999999999999998 6.863703305156271 2.964723819589915
    vertex 0.0 6.464101615137754 1.9999999999999978
    vertex -14.999999999999998 6.464101615137754 1.9999999999999978
  endloop
endfacet
facet normal 0.0 0.9238795325112873 -0.3826834323650888
  outer loop
    vertex 0.0 6.464101615137754 1.9999999999999978
    vertex -14.999999999999998 6.863703305156271 2.964723819589915
    vertex 0.0 6.863703305156271 2.964723819589915
  endloop
endfacet
facet normal 0.0 0.3826834323650898 -0.9238795325112867
  outer loop
    vertex 0.0 4.999999999999998 0.5358983848622446
    vertex -14.999999999999998 4.035276180410084 0.13629669484372647
    vertex -14.999999999999998 4.999999999999998 0.5358983848622446
  endloop
endfacet
facet normal 0.0 0.3826834323650898 -0.9238795325112867
  outer loop
    vertex -14.999999999999998 4.035276180410084 0.13629669484372647
    vertex 0.0 4.999999999999998 0.5358983848622446
    vertex 0.0 4.035276180410084 0.13629669484372647
  endloop
endfacet
facet normal 0.0 0.6087614290087202 -0.7933533402912355
  outer loop
    vertex 0.0 5.828427124746191 1.171572875253809
    vertex -14.999999999999998 4.999999999999998 0.5358983848622446
    vertex -14.999999999999998 5.828427124746191 1.171572875253809
  endloop
endfacet
facet normal 0.0 0.6087614290087202 -0.7933533402912355
  outer loop
    vertex -14.999999999999998 4.999999999999998 0.5358983848622446
    vertex 0.0 5.828427124746191 1.171572875253809
    vertex 0.0 4.999999999999998 0.5358983848622446
  endloop
endfacet
facet normal 0.0 0.7933533402912352 -0.6087614290087209
  outer loop
    vertex -14.999999999999998 6.464101615137754 1.9999999999999978
    vertex 0.0 5.828427124746191 1.171572875253809
    vertex -14.999999999999998 5.828427124746191 1.171572875253809
  endloop
endfacet
facet normal 0.0 0.7933533402912352 -0.6087614290087209
  outer loop
    vertex 0.0 5.828427124746191 1.171572875253809
    vertex -14.999999999999998 6.464101615137754 1.9999999999999978
    vertex 0.0 6.464101615137754 1.9999999999999978
  endloop
endfacet
facet normal 0.0 -0.7933533402912354 -0.6087614290087203
  outer loop
    vertex 0.0 -0.464101615137753 1.9999999999999998
    vertex -14.999999999999998 0.1715728752538111 1.1715728752538095
    vertex 0.0 0.1715728752538111 1.1715728752538095
  endloop
endfacet
facet normal 0.0 -0.7933533402912354 -0.6087614290087203
  outer loop
    vertex -14.999999999999998 0.1715728752538111 1.1715728752538095
    vertex 0.0 -0.464101615137753 1.9999999999999998
    vertex -14.999999999999998 -0.464101615137753 1.9999999999999998
  endloop
endfacet
facet normal -1.0 -1.5111224032919113e-16 -4.149175906866226e-16
  outer loop
    vertex -14.999999999999998 -0.8637033051562705 5.035276180410085
    vertex -14.999999999999998 -0.8637033051562711 2.9647238195899166
    vertex -14.999999999999998 -0.9999999999999981 3.999999999999999
  endloop
endfacet
facet normal -1.0 -1.5111224032919113e-16 -4.149175906866226e-16
  outer loop
    vertex -14.999999999999998 -0.8637033051562711 2.9647238195899166
    vertex -14.999999999999998 -0.8637033051562705 5.035276180410085
    vertex -14.999999999999998 -0.464101615137753 1.9999999999999998
  endloop
endfacet
facet normal -1.0 -1.5111224032919113e-16 -4.149175906866226e-16
  outer loop
    vertex -14.999999999999998 -0.464101615137753 1.9999999999999998
    vertex -14.999999999999998 -0.8637033051562705 5.035276180410085
    vertex -14.999999999999998 -0.4641016151377516 6.0
  endloop
endfacet
facet normal -1.0 -1.5111224032919113e-16 -4.149175906866226e-16
  outer loop
    vertex -14.999999999999998 -0.464101615137753 1.9999999999999998
    vertex -14.999999999999998 -0.4641016151377516 6.0
    vertex -14.999999999999998 0.1715728752538111 1.1715728752538095
  endloop
endfacet
facet normal -1.0 -1.5111224032919113e-16 -4.149175906866226e-16
  outer loop
    vertex -14.999999999999998 0.1715728752538111 1.1715728752538095
    vertex -14.999999999999998 -0.4641016151377516 6.0
    vertex -15.0 7.049916206369744e-16 6.604829000424104
  endloop
endfacet
facet normal -1.0 -1.5111224032919113e-16 -4.149175906866226e-16
  outer loop
    vertex -14.999999999999998 0.1715728752538111 1.1715728752538095
    vertex -15.0 7.049916206369744e-16 6.604829000424104
    vertex -15.0 0.17157287525381215 6.82842712474619
  endloop
endfacet
facet normal -1.0 -1.5111224032919113e-16 -4.149175906866226e-16
  outer loop
    vertex -14.999999999999998 0.1715728752538111 1.1715728752538095
    vertex -15.0 0.17157287525381215 6.82842712474619
    vertex -14.999999999999998 1.0000000000000009 0.5358983848622453
  endloop
endfacet
facet normal -1.0 -1.5111224032919113e-16 -4.149175906866226e-16
  outer loop
    vertex -14.999999999999998 1.0000000000000009 0.5358983848622453
    vertex -15.0 0.17157287525381215 6.82842712474619
    vertex -15.0 1.0000000000000042 7.464101615137755
  endloop
endfacet
facet normal -1.0 -1.5111224032919113e-16 -4.149175906866226e-16
  outer loop
    vertex -14.999999999999998 1.0000000000000009 0.5358983848622453
    vertex -15.0 1.0000000000000042 7.464101615137755
    vertex -14.999999999999998 1.9647238195899175 0.13629669484372647
  endloop
endfacet
facet normal -1.0 -1.5111224032919113e-16 -4.149175906866226e-16
  outer loop
    vertex -14.999999999999998 1.9647238195899175 0.13629669484372647
    vertex -15.0 1.0000000000000042 7.464101615137755
    vertex -15.0 1.9647238195899204 7.863703305156273
  endloop
endfacet
facet normal -1.0 -1.5111224032919113e-16 -4.149175906866226e-16
  outer loop
    vertex -14.999999999999998 1.9647238195899175 0.13629669484372647
    vertex -15.0 1.9647238195899204 7.863703305156273
    vertex -14.999999999999998 3.0 -5.287437154777307e-16
  endloop
endfacet
facet normal -1.0 -1.5111224032919113e-16 -4.149175906866226e-16
  outer loop
    vertex -14.999999999999998 3.0 -5.287437154777307e-16
    vertex -15.0 1.9647238195899204 7.863703305156273
    vertex -15.0 3.0000000000000013 7.999999999999999
  endloop
endfacet
facet normal -1.0 -1.5111224032919113e-16 -4.149175906866226e-16
  outer loop
    vertex -14.999999999999998 3.0 -5.287437154777307e-16
    vertex -15.0 3.0000000000000013 7.999999999999999
    vertex -14.999999999999998 4.035276180410084 0.13629669484372647
  endloop
endfacet
facet normal -1.0 -1.5111224032919113e-16 -4.149175906866226e-16
  outer loop
    vertex -14.999999999999998 4.035276180410084 0.13629669484372647
    vertex -15.0 3.0000000000000013 7.999999999999999
    vertex -15.0 4.0352761804100865 7.863703305156273
  endloop
endfacet
facet normal -1.0 -1.5111224032919113e-16 -4.149175906866226e-16
  outer loop
    vertex -14.999999999999998 4.035276180410084 0.13629669484372647
    vertex -15.0 4.0352761804100865 7.863703305156273
    vertex -14.999999999999998 4.999999999999998 0.5358983848622446
  endloop
endfacet
facet normal -1.0 -1.5111224032919113e-16 -4.149175906866226e-16
  outer loop
    vertex -14.999999999999998 4.999999999999998 0.5358983848622446
    vertex -15.0 4.0352761804100865 7.863703305156273
    vertex -15.0 5.000000000000002 7.464101615137753
  endloop
endfacet
facet normal -1.0 -1.5111224032919113e-16 -4.149175906866226e-16
  outer loop
    vertex -14.999999999999998 4.999999999999998 0.5358983848622446
    vertex -15.0 5.000000000000002 7.464101615137753
    vertex -14.999999999999998 5.828427124746191 1.171572875253809
  endloop
endfacet
facet normal -1.0 -1.5111224032919113e-16 -4.149175906866226e-16
  outer loop
    vertex -14.999999999999998 5.828427124746191 1.171572875253809
    vertex -15.0 5.000000000000002 7.464101615137753
    vertex -15.0 5.828427124746191 6.828427124746187
  endloop
endfacet
facet normal -1.0 -1.5111224032919113e-16 -4.149175906866226e-16
  outer loop
    vertex -14.999999999999998 5.828427124746191 1.171572875253809
    vertex -15.0 5.828427124746191 6.828427124746187
    vertex -15.0 6.464101615137754 5.999999999999997
  endloop
endfacet
facet normal -1.0 -1.5111224032919113e-16 -4.149175906866226e-16
  outer loop
    vertex -14.999999999999998 5.828427124746191 1.171572875253809
    vertex -15.0 6.464101615137754 5.999999999999997
    vertex -14.999999999999998 6.464101615137754 1.9999999999999978
  endloop
endfacet
facet normal -1.0 -1.5111224032919113e-16 -4.149175906866226e-16
  outer loop
    vertex -14.999999999999998 6.464101615137754 1.9999999999999978
    vertex -15.0 6.464101615137754 5.999999999999997
    vertex -15.0 6.863703305156275 5.03527618041008
  endloop
endfacet
facet normal -1.0 -1.5111224032919113e-16 -4.149175906866226e-16
  outer loop
    vertex -14.999999999999998 6.464101615137754 1.9999999999999978
    vertex -15.0 6.863703305156275 5.03527618041008
    vertex -14.999999999999998 6.863703305156271 2.964723819589915
  endloop
endfacet
facet normal -1.0 -1.5111224032919113e-16 -4.149175906866226e-16
  outer loop
    vertex -14.999999999999998 6.863703305156271 2.964723819589915
    vertex -15.0 6.863703305156275 5.03527618041008
    vertex -15.0 6.999999999999998 3.999999999999999
  endloop
endfacet
facet normal 0.0 0.1305261922200517 -0.9914448613738105
  outer loop
    vertex 0.0 4.035276180410084 0.13629669484372647
    vertex -14.999999999999998 3.0 -5.287437154777307e-16
    vertex -14.999999999999998 4.035276180410084 0.13629669484372647
  endloop
endfacet
facet normal 0.0 0.1305261922200517 -0.9914448613738105
  outer loop
    vertex -14.999999999999998 3.0 -5.287437154777307e-16
    vertex 0.0 4.035276180410084 0.13629669484372647
    vertex 0.0 3.0 -5.287437154777307e-16
  endloop
endfacet
facet normal 0.0 -0.1305261922200518 -0.9914448613738105
  outer loop
    vertex 0.0 3.0 -5.287437154777307e-16
    vertex -14.999999999999998 1.9647238195899175 0.13629669484372647
    vertex -14.999999999999998 3.0 -5.287437154777307e-16
  endloop
endfacet
facet normal 0.0 -0.1305261922200518 -0.9914448613738105
  outer loop
    vertex -14.999999999999998 1.9647238195899175 0.13629669484372647
    vertex 0.0 3.0 -5.287437154777307e-16
    vertex 0.0 1.9647238195899175 0.13629669484372647
  endloop
endfacet
facet normal -0.0 -0.3826834323650902 -0.9238795325112865
  outer loop
    vertex 0.0 1.9647238195899175 0.13629669484372647
    vertex -14.999999999999998 1.0000000000000009 0.5358983848622453
    vertex -14.999999999999998 1.9647238195899175 0.13629669484372647
  endloop
endfacet
facet normal -0.0 -0.3826834323650902 -0.9238795325112865
  outer loop
    vertex -14.999999999999998 1.0000000000000009 0.5358983848622453
    vertex 0.0 1.9647238195899175 0.13629669484372647
    vertex 0.0 1.0000000000000009 0.5358983848622453
  endloop
endfacet
facet normal -0.0 -0.6087614290087205 -0.7933533402912353
  outer loop
    vertex 0.0 1.0000000000000009 0.5358983848622453
    vertex -14.999999999999998 0.1715728752538111 1.1715728752538095
    vertex -14.999999999999998 1.0000000000000009 0.5358983848622453
  endloop
endfacet
facet normal -0.0 -0.6087614290087205 -0.7933533402912353
  outer loop
    vertex -14.999999999999998 0.1715728752538111 1.1715728752538095
    vertex 0.0 1.0000000000000009 0.5358983848622453
    vertex 0.0 0.1715728752538111 1.1715728752538095
  endloop
endfacet
facet normal 0.0 -0.13052619222005127 0.9914448613738106
  outer loop
    vertex 57.00000000000001 1.9647238195899204 7.863703305156273
    vertex 42.00000000000001 3.0000000000000013 7.999999999999999
    vertex 42.00000000000001 1.9647238195899204 7.863703305156273
  endloop
endfacet
facet normal 0.0 -0.13052619222005127 0.9914448613738106
  outer loop
    vertex 42.00000000000001 3.0000000000000013 7.999999999999999
    vertex 57.00000000000001 1.9647238195899204 7.863703305156273
    vertex 57.00000000000001 3.0000000000000013 7.999999999999999
  endloop
endfacet
facet normal 0.0 -0.6087614290087202 0.7933533402912355
  outer loop
    vertex 57.00000000000001 0.17157287525381215 6.82842712474619
    vertex 42.00000000000001 1.0000000000000042 7.464101615137755
    vertex 42.00000000000001 0.17157287525381215 6.82842712474619
  endloop
endfacet
facet normal 0.0 -0.6087614290087202 0.7933533402912355
  outer loop
    vertex 42.00000000000001 1.0000000000000042 7.464101615137755
    vertex 57.00000000000001 0.17157287525381215 6.82842712474619
    vertex 57.00000000000001 1.0000000000000042 7.464101615137755
  endloop
endfacet
facet normal 0.0 0.608761429008721 0.7933533402912349
  outer loop
    vertex 57.00000000000001 5.000000000000002 7.464101615137753
    vertex 42.00000000000001 5.828427124746191 6.828427124746187
    vertex 42.00000000000001 5.000000000000002 7.464101615137753
  endloop
endfacet
facet normal 0.0 0.608761429008721 0.7933533402912349
  outer loop
    vertex 42.00000000000001 5.828427124746191 6.828427124746187
    vertex 57.00000000000001 5.000000000000002 7.464101615137753
    vertex 57.00000000000001 5.828427124746191 6.828427124746187
  endloop
endfacet
facet normal 5.969543139487797e-35 3.675378084825187e-18 -1.0
  outer loop
    vertex 42.00000000000001 66.0 0.0
    vertex 0.0 3.0 -5.287437154777307e-16
    vertex 0.0 66.0 0.0
  endloop
endfacet
facet normal 5.969543139487797e-35 3.675378084825187e-18 -1.0
  outer loop
    vertex 0.0 3.0 -5.287437154777307e-16
    vertex 42.00000000000001 66.0 0.0
    vertex 0.0 -1.9999999999999998 0.0
  endloop
endfacet
facet normal 5.969543139487797e-35 3.675378084825187e-18 -1.0
  outer loop
    vertex 0.0 -1.9999999999999998 0.0
    vertex 42.00000000000001 66.0 0.0
    vertex 42.00000000000001 -1.9999999999999998 0.0
  endloop
endfacet
facet normal 5.969543139487797e-35 3.675378084825187e-18 -1.0
  outer loop
    vertex 42.00000000000001 -1.9999999999999998 0.0
    vertex 42.00000000000001 66.0 0.0
    vertex 42.00000000000001 3.0 -5.287437154777307e-16
  endloop
endfacet
facet normal 0.0 0.9238795325112867 0.3826834323650899
  outer loop
    vertex 42.00000000000001 6.464101615137754 5.999999999999997
    vertex 57.00000000000001 6.863703305156275 5.03527618041008
    vertex 42.00000000000001 6.863703305156275 5.03527618041008
  endloop
endfacet
facet normal 0.0 0.9238795325112867 0.3826834323650899
  outer loop
    vertex 57.00000000000001 6.863703305156275 5.03527618041008
    vertex 42.00000000000001 6.464101615137754 5.999999999999997
    vertex 57.00000000000001 6.464101615137754 5.999999999999997
  endloop
endfacet
facet normal 0.0 -0.9238795325112868 -0.3826834323650896
  outer loop
    vertex 57.00000000000001 -0.8637033051562711 2.9647238195899166
    vertex 42.00000000000001 -0.464101615137753 1.9999999999999998
    vertex 57.00000000000001 -0.464101615137753 1.9999999999999998
  endloop
endfacet
facet normal 0.0 -0.9238795325112868 -0.3826834323650896
  outer loop
    vertex 42.00000000000001 -0.464101615137753 1.9999999999999998
    vertex 57.00000000000001 -0.8637033051562711 2.9647238195899166
    vertex 42.00000000000001 -0.8637033051562711 2.9647238195899166
  endloop
endfacet
facet normal 0.0 -0.9914448613738104 0.13052619222005202
  outer loop
    vertex 57.00000000000001 -0.8637033051562705 5.035276180410085
    vertex 42.00000000000001 -0.9999999999999981 3.999999999999999
    vertex 57.00000000000001 -0.9999999999999981 3.999999999999999
  endloop
endfacet
facet normal 0.0 -0.9914448613738104 0.13052619222005202
  outer loop
    vertex 42.00000000000001 -0.9999999999999981 3.999999999999999
    vertex 57.00000000000001 -0.8637033051562705 5.035276180410085
    vertex 42.00000000000001 -0.8637033051562705 5.035276180410085
  endloop
endfacet
facet normal 0.0 0.3826834323650904 0.9238795325112865
  outer loop
    vertex 57.00000000000001 4.0352761804100865 7.863703305156273
    vertex 42.00000000000001 5.000000000000002 7.464101615137753
    vertex 42.00000000000001 4.0352761804100865 7.863703305156273
  endloop
endfacet
facet normal 0.0 0.3826834323650904 0.9238795325112865
  outer loop
    vertex 42.00000000000001 5.000000000000002 7.464101615137753
    vertex 57.00000000000001 4.0352761804100865 7.863703305156273
    vertex 57.00000000000001 5.000000000000002 7.464101615137753
  endloop
endfacet
facet normal -0.00012968126195326272 -0.9912451319881103 -0.13203435724327361
  outer loop
    vertex 57.00000000000001 -0.9999999999999981 3.999999999999999
    vertex 42.00000000000001 -0.8637033051562711 2.9647238195899166
    vertex 57.00000000000001 -0.8637033051562711 2.9647238195899166
  endloop
endfacet
facet normal -0.00012968126195326272 -0.9912451319881103 -0.13203435724327361
  outer loop
    vertex 42.00000000000001 -0.8637033051562711 2.9647238195899166
    vertex 57.00000000000001 -0.9999999999999981 3.999999999999999
    vertex 42.00000000000001 -0.8683475024126024 3.000000000000001
  endloop
endfacet
facet normal -0.00012968126195326272 -0.9912451319881103 -0.13203435724327361
  outer loop
    vertex 42.00000000000001 -0.8683475024126024 3.000000000000001
    vertex 57.00000000000001 -0.9999999999999981 3.999999999999999
    vertex 42.00000000000001 -0.8637033051562711 3.035276180410086
  endloop
endfacet
facet normal -0.00012968126195326272 -0.9912451319881103 -0.13203435724327361
  outer loop
    vertex 42.00000000000001 -0.8637033051562711 3.035276180410086
    vertex 57.00000000000001 -0.9999999999999981 3.999999999999999
    vertex 42.00000000000001 -0.9999999999999981 3.999999999999999
  endloop
endfacet
facet normal 0.0 -0.3826834323650892 0.923879532511287
  outer loop
    vertex 57.00000000000001 1.0000000000000042 7.464101615137755
    vertex 42.00000000000001 1.9647238195899204 7.863703305156273
    vertex 42.00000000000001 1.0000000000000042 7.464101615137755
  endloop
endfacet
facet normal 0.0 -0.3826834323650892 0.923879532511287
  outer loop
    vertex 42.00000000000001 1.9647238195899204 7.863703305156273
    vertex 57.00000000000001 1.0000000000000042 7.464101615137755
    vertex 57.00000000000001 1.9647238195899204 7.863703305156273
  endloop
endfacet
facet normal -1.0 3.5455009720807265e-16 -6.14409791961503e-16
  outer loop
    vertex 42.00000000000001 -0.8637033051562711 3.035276180410086
    vertex 42.00000000000001 -0.8637033051562711 2.9647238195899166
    vertex 42.00000000000001 -0.8683475024126024 3.000000000000001
  endloop
endfacet
facet normal -1.0 3.5455009720807265e-16 -6.14409791961503e-16
  outer loop
    vertex 42.00000000000001 -0.8637033051562711 2.9647238195899166
    vertex 42.00000000000001 -0.8637033051562711 3.035276180410086
    vertex 42.00000000000001 -0.46410161513775233 4.000000000000001
  endloop
endfacet
facet normal -1.0 3.5455009720807265e-16 -6.14409791961503e-16
  outer loop
    vertex 42.00000000000001 -0.8637033051562711 2.9647238195899166
    vertex 42.00000000000001 -0.46410161513775233 4.000000000000001
    vertex 42.00000000000001 -0.464101615137753 1.9999999999999998
  endloop
endfacet
facet normal -1.0 3.5455009720807265e-16 -6.14409791961503e-16
  outer loop
    vertex 42.00000000000001 -0.464101615137753 1.9999999999999998
    vertex 42.00000000000001 -0.46410161513775233 4.000000000000001
    vertex 42.00000000000001 0.0 1.9999999999999998
  endloop
endfacet
facet normal -1.0 3.5455009720807265e-16 -6.14409791961503e-16
  outer loop
    vertex 42.00000000000001 0.0 1.9999999999999998
    vertex 42.00000000000001 -0.46410161513775233 4.000000000000001
    vertex 42.00000000000001 0.0 4.604829000424104
  endloop
endfacet
facet normal 0.0 0.9914448613738107 0.1305261922200493
  outer loop
    vertex 42.00000000000001 6.863703305156275 5.03527618041008
    vertex 57.00000000000001 6.999999999999998 3.999999999999999
    vertex 42.00000000000001 6.999999999999998 3.999999999999999
  endloop
endfacet
facet normal 0.0 0.9914448613738107 0.1305261922200493
  outer loop
    vertex 57.00000000000001 6.999999999999998 3.999999999999999
    vertex 42.00000000000001 6.863703305156275 5.03527618041008
    vertex 57.00000000000001 6.863703305156275 5.03527618041008
  endloop
endfacet
facet normal 0.0 -0.7933533402912348 0.608761429008721
  outer loop
    vertex 57.00000000000001 0.17157287525381215 6.82842712474619
    vertex 42.00000000000001 7.049916206369744e-16 6.604829000424104
    vertex 57.00000000000001 7.049916206369744e-16 6.604829000424104
  endloop
endfacet
facet normal 0.0 -0.7933533402912348 0.608761429008721
  outer loop
    vertex 42.00000000000001 7.049916206369744e-16 6.604829000424104
    vertex 57.00000000000001 0.17157287525381215 6.82842712474619
    vertex 42.00000000000001 0.17157287525381215 6.82842712474619
  endloop
endfacet
facet normal 0.0 0.1305261922200522 0.9914448613738104
  outer loop
    vertex 57.00000000000001 3.0000000000000013 7.999999999999999
    vertex 42.00000000000001 4.0352761804100865 7.863703305156273
    vertex 42.00000000000001 3.0000000000000013 7.999999999999999
  endloop
endfacet
facet normal 0.0 0.1305261922200522 0.9914448613738104
  outer loop
    vertex 42.00000000000001 4.0352761804100865 7.863703305156273
    vertex 57.00000000000001 3.0000000000000013 7.999999999999999
    vertex 57.00000000000001 4.0352761804100865 7.863703305156273
  endloop
endfacet
facet normal 0.0 0.7933533402912359 0.6087614290087197
  outer loop
    vertex 42.00000000000001 5.828427124746191 6.828427124746187
    vertex 57.00000000000001 6.464101615137754 5.999999999999997
    vertex 42.00000000000001 6.464101615137754 5.999999999999997
  endloop
endfacet
facet normal 0.0 0.7933533402912359 0.6087614290087197
  outer loop
    vertex 57.00000000000001 6.464101615137754 5.999999999999997
    vertex 42.00000000000001 5.828427124746191 6.828427124746187
    vertex 57.00000000000001 5.828427124746191 6.828427124746187
  endloop
endfacet
facet normal 1.0 8.332177289694509e-17 -7.551486603558079e-16
  outer loop
    vertex 42.00000000000001 66.0 0.0
    vertex 42.00000000000001 4.035276180410084 0.13629669484372647
    vertex 42.00000000000001 3.0 -5.287437154777307e-16
  endloop
endfacet
facet normal 1.0 8.332177289694509e-17 -7.551486603558079e-16
  outer loop
    vertex 42.00000000000001 4.035276180410084 0.13629669484372647
    vertex 42.00000000000001 66.0 0.0
    vertex 42.00000000000001 4.999999999999998 0.5358983848622446
  endloop
endfacet
facet normal 1.0 8.332177289694509e-17 -7.551486603558079e-16
  outer loop
    vertex 42.00000000000001 4.999999999999998 0.5358983848622446
    vertex 42.00000000000001 66.0 0.0
    vertex 42.00000000000001 5.828427124746191 1.171572875253809
  endloop
endfacet
facet normal 1.0 8.332177289694509e-17 -7.551486603558079e-16
  outer loop
    vertex 42.00000000000001 5.828427124746191 1.171572875253809
    vertex 42.00000000000001 66.0 0.0
    vertex 42.00000000000001 6.464101615137754 1.9999999999999978
  endloop
endfacet
facet normal 1.0 8.332177289694509e-17 -7.551486603558079e-16
  outer loop
    vertex 42.00000000000001 6.464101615137754 1.9999999999999978
    vertex 42.00000000000001 66.0 0.0
    vertex 42.00000000000001 66.0 1.9999999999999998
  endloop
endfacet
facet normal 1.0 -9.680620801709844e-16 1.1122114557468246e-16
  outer loop
    vertex 42.00000000000001 -1.9999999999999998 0.0
    vertex 42.00000000000001 -0.9999999999999981 3.999999999999999
    vertex 42.00000000000001 -1.9999999999999998 24.0
  endloop
endfacet
facet normal 1.0 -9.680620801709844e-16 1.1122114557468246e-16
  outer loop
    vertex 42.00000000000001 -0.9999999999999981 3.999999999999999
    vertex 42.00000000000001 -1.9999999999999998 0.0
    vertex 42.00000000000001 -0.8683475024126024 3.000000000000001
  endloop
endfacet
facet normal 1.0 -9.680620801709844e-16 1.1122114557468246e-16
  outer loop
    vertex 42.00000000000001 -0.8683475024126024 3.000000000000001
    vertex 42.00000000000001 -1.9999999999999998 0.0
    vertex 42.00000000000001 -0.8637033051562711 2.9647238195899166
  endloop
endfacet
facet normal 1.0 -9.680620801709844e-16 1.1122114557468246e-16
  outer loop
    vertex 42.00000000000001 -0.8637033051562711 2.9647238195899166
    vertex 42.00000000000001 -1.9999999999999998 0.0
    vertex 42.00000000000001 -0.464101615137753 1.9999999999999998
  endloop
endfacet
facet normal 1.0 -9.680620801709844e-16 1.1122114557468246e-16
  outer loop
    vertex 42.00000000000001 -0.464101615137753 1.9999999999999998
    vertex 42.00000000000001 -1.9999999999999998 0.0
    vertex 42.00000000000001 0.1715728752538111 1.1715728752538095
  endloop
endfacet
facet normal 1.0 -9.680620801709844e-16 1.1122114557468246e-16
  outer loop
    vertex 42.00000000000001 0.1715728752538111 1.1715728752538095
    vertex 42.00000000000001 -1.9999999999999998 0.0
    vertex 42.00000000000001 1.0000000000000009 0.5358983848622453
  endloop
endfacet
facet normal 1.0 -9.680620801709844e-16 1.1122114557468246e-16
  outer loop
    vertex 42.00000000000001 1.0000000000000009 0.5358983848622453
    vertex 42.00000000000001 -1.9999999999999998 0.0
    vertex 42.00000000000001 1.9647238195899175 0.13629669484372647
  endloop
endfacet
facet normal 1.0 -9.680620801709844e-16 1.1122114557468246e-16
  outer loop
    vertex 42.00000000000001 1.9647238195899175 0.13629669484372647
    vertex 42.00000000000001 -1.9999999999999998 0.0
    vertex 42.00000000000001 3.0 -5.287437154777307e-16
  endloop
endfacet
facet normal 1.0 -9.680620801709844e-16 1.1122114557468246e-16
  outer loop
    vertex 42.00000000000001 -0.8637033051562711 3.035276180410086
    vertex 42.00000000000001 -0.9999999999999981 3.999999999999999
    vertex 42.00000000000001 -0.8683475024126024 3.000000000000001
  endloop
endfacet
facet normal 1.0 -9.680620801709844e-16 1.1122114557468246e-16
  outer loop
    vertex 42.00000000000001 -0.9999999999999981 3.999999999999999
    vertex 42.00000000000001 0.0 24.0
    vertex 42.00000000000001 -1.9999999999999998 24.0
  endloop
endfacet
facet normal 1.0 -9.680620801709844e-16 1.1122114557468246e-16
  outer loop
    vertex 42.00000000000001 0.0 24.0
    vertex 42.00000000000001 -0.9999999999999981 3.999999999999999
    vertex 42.00000000000001 -0.8637033051562705 5.035276180410085
  endloop
endfacet
facet normal 1.0 -9.680620801709844e-16 1.1122114557468246e-16
  outer loop
    vertex 42.00000000000001 0.0 24.0
    vertex 42.00000000000001 -0.8637033051562705 5.035276180410085
    vertex 42.00000000000001 -0.4641016151377516 6.0
  endloop
endfacet
facet normal 1.0 -9.680620801709844e-16 1.1122114557468246e-16
  outer loop
    vertex 42.00000000000001 0.0 24.0
    vertex 42.00000000000001 -0.4641016151377516 6.0
    vertex 42.00000000000001 7.049916206369744e-16 6.604829000424104
  endloop
endfacet
endsolid Untitled-5983690f
