solid banhxe01
facet normal 0.9238795325112867 -0.38268343236508967 -0.0
  outer loop
    vertex 17.38666487320323 -4.658742811845374 2.8199664825478975e-15
    vertex 15.588457268119896 -8.999999999999998 16.39999999999999
    vertex 15.588457268119896 -8.999999999999998 2.8199664825478975e-15
  endloop
endfacet
facet normal 0.9238795325112867 -0.38268343236508967 -0.0
  outer loop
    vertex 15.588457268119896 -8.999999999999998 16.39999999999999
    vertex 17.38666487320323 -4.658742811845374 2.8199664825478975e-15
    vertex 17.38666487320323 -4.658742811845374 16.39999999999999
  endloop
endfacet
facet normal 0.9914448613738105 -0.13052619222005177 -0.0
  outer loop
    vertex 18.0 0.0 2.8199664825478975e-15
    vertex 17.38666487320323 -4.658742811845374 16.39999999999999
    vertex 17.38666487320323 -4.658742811845374 2.8199664825478975e-15
  endloop
endfacet
facet normal 0.9914448613738105 -0.13052619222005177 -0.0
  outer loop
    vertex 17.38666487320323 -4.658742811845374 16.39999999999999
    vertex 18.0 0.0 2.8199664825478975e-15
    vertex 18.0 1.5636043483719322e-16 16.39999999999999
  endloop
endfacet
facet normal 0.9914448613738105 0.13052619222005193 -0.0
  outer loop
    vertex 17.386664873203227 4.658742811845388 2.8199664825478975e-15
    vertex 18.0 1.5636043483719322e-16 16.39999999999999
    vertex 18.0 0.0 2.8199664825478975e-15
  endloop
endfacet
facet normal 0.9914448613738105 0.13052619222005193 -0.0
  outer loop
    vertex 18.0 1.5636043483719322e-16 16.39999999999999
    vertex 17.386664873203227 4.658742811845388 2.8199664825478975e-15
    vertex 17.386664873203227 4.658742811845388 16.39999999999999
  endloop
endfacet
facet normal 0.9238795325112865 0.38268343236509056 -0.0
  outer loop
    vertex 15.58845726811989 9.000000000000009 2.8199664825478975e-15
    vertex 17.386664873203227 4.658742811845388 16.39999999999999
    vertex 17.386664873203227 4.658742811845388 2.8199664825478975e-15
  endloop
endfacet
facet normal 0.9238795325112865 0.38268343236509056 -0.0
  outer loop
    vertex 17.386664873203227 4.658742811845388 16.39999999999999
    vertex 15.58845726811989 9.000000000000009 2.8199664825478975e-15
    vertex 15.58845726811989 9.000000000000009 16.39999999999999
  endloop
endfacet
facet normal 0.7933533402912349 0.6087614290087209 -0.0
  outer loop
    vertex 12.727922061357853 12.727922061357859 2.8199664825478975e-15
    vertex 15.58845726811989 9.000000000000009 16.39999999999999
    vertex 15.58845726811989 9.000000000000009 2.8199664825478975e-15
  endloop
endfacet
facet normal 0.7933533402912349 0.6087614290087209 -0.0
  outer loop
    vertex 15.58845726811989 9.000000000000009 16.39999999999999
    vertex 12.727922061357853 12.727922061357859 2.8199664825478975e-15
    vertex 12.727922061357853 12.727922061357859 16.39999999999999
  endloop
endfacet
facet normal 0.6087614290087202 0.7933533402912357 -0.0
  outer loop
    vertex 8.999999999999988 15.588457268119901 16.39999999999999
    vertex 12.727922061357853 12.727922061357859 2.8199664825478975e-15
    vertex 8.999999999999988 15.588457268119901 2.8199664825478975e-15
  endloop
endfacet
facet normal 0.6087614290087202 0.7933533402912357 -0.0
  outer loop
    vertex 12.727922061357853 12.727922061357859 2.8199664825478975e-15
    vertex 8.999999999999988 15.588457268119901 16.39999999999999
    vertex 12.727922061357853 12.727922061357859 16.39999999999999
  endloop
endfacet
facet normal 0.3826834323650894 0.9238795325112868 -0.0
  outer loop
    vertex 4.658742811845365 17.386664873203234 16.39999999999999
    vertex 8.999999999999988 15.588457268119901 2.8199664825478975e-15
    vertex 4.658742811845365 17.386664873203234 2.8199664825478975e-15
  endloop
endfacet
facet normal 0.3826834323650894 0.9238795325112868 -0.0
  outer loop
    vertex 8.999999999999988 15.588457268119901 2.8199664825478975e-15
    vertex 4.658742811845365 17.386664873203234 16.39999999999999
    vertex 8.999999999999988 15.588457268119901 16.39999999999999
  endloop
endfacet
facet normal 0.3826834323650894 0.9238795325112868 -0.0
  outer loop
    vertex 8.999999999999988 15.588457268119901 16.39999999999999
    vertex 4.658742811845365 17.386664873203234 16.39999999999999
    vertex 6.829371405922677 16.487561070661567 16.39999999999999
  endloop
endfacet
facet normal 0.1305261922200513 0.9914448613738105 -0.0
  outer loop
    vertex -3.271838473140826e-15 18.0 16.39999999999999
    vertex 4.658742811845365 17.386664873203234 2.8199664825478975e-15
    vertex -3.3065463576978533e-15 18.0 2.8199664825478975e-15
  endloop
endfacet
facet normal 0.1305261922200513 0.9914448613738105 -0.0
  outer loop
    vertex 4.658742811845365 17.386664873203234 2.8199664825478975e-15
    vertex -3.271838473140826e-15 18.0 16.39999999999999
    vertex 4.658742811845365 17.386664873203234 16.39999999999999
  endloop
endfacet
facet normal 0.1305261922200513 0.9914448613738105 -0.0
  outer loop
    vertex 4.658742811845365 17.386664873203234 16.39999999999999
    vertex -3.271838473140826e-15 18.0 16.39999999999999
    vertex 2.329371405922681 17.693332436601615 16.39999999999999
  endloop
endfacet
facet normal -0.13052619222005205 0.9914448613738105 -0.0
  outer loop
    vertex -4.6587428118453875 17.386664873203227 16.39999999999999
    vertex -3.3065463576978533e-15 18.0 2.8199664825478975e-15
    vertex -4.6587428118453875 17.386664873203227 2.8199664825478975e-15
  endloop
endfacet
facet normal -0.13052619222005205 0.9914448613738105 -0.0
  outer loop
    vertex -3.3065463576978533e-15 18.0 2.8199664825478975e-15
    vertex -4.6587428118453875 17.386664873203227 16.39999999999999
    vertex -3.271838473140826e-15 18.0 16.39999999999999
  endloop
endfacet
facet normal -0.3826834323650905 0.9238795325112865 -0.0
  outer loop
    vertex -9.000000000000009 15.58845726811989 16.39999999999999
    vertex -4.6587428118453875 17.386664873203227 2.8199664825478975e-15
    vertex -9.000000000000009 15.58845726811989 2.8199664825478975e-15
  endloop
endfacet
facet normal -0.3826834323650905 0.9238795325112865 -0.0
  outer loop
    vertex -4.6587428118453875 17.386664873203227 2.8199664825478975e-15
    vertex -9.000000000000009 15.58845726811989 16.39999999999999
    vertex -4.6587428118453875 17.386664873203227 16.39999999999999
  endloop
endfacet
facet normal -0.6087614290087214 0.7933533402912347 -0.0
  outer loop
    vertex -12.727922061357862 12.727922061357848 16.39999999999999
    vertex -9.000000000000009 15.58845726811989 2.8199664825478975e-15
    vertex -12.727922061357862 12.727922061357848 2.8199664825478975e-15
  endloop
endfacet
facet normal -0.6087614290087214 0.7933533402912347 -0.0
  outer loop
    vertex -9.000000000000009 15.58845726811989 2.8199664825478975e-15
    vertex -12.727922061357862 12.727922061357848 16.39999999999999
    vertex -9.000000000000009 15.58845726811989 16.39999999999999
  endloop
endfacet
facet normal -0.7933533402912352 0.6087614290087205 0.0
  outer loop
    vertex -12.727922061357862 12.727922061357848 16.39999999999999
    vertex -15.5884572681199 8.999999999999995 2.8199664825478975e-15
    vertex -15.5884572681199 8.999999999999995 16.39999999999999
  endloop
endfacet
facet normal -0.7933533402912352 0.6087614290087205 0.0
  outer loop
    vertex -15.5884572681199 8.999999999999995 2.8199664825478975e-15
    vertex -12.727922061357862 12.727922061357848 16.39999999999999
    vertex -12.727922061357862 12.727922061357848 2.8199664825478975e-15
  endloop
endfacet
facet normal -0.9238795325112868 0.38268343236508956 0.0
  outer loop
    vertex -15.5884572681199 8.999999999999995 16.39999999999999
    vertex -17.386664873203234 4.658742811845367 2.8199664825478975e-15
    vertex -17.386664873203234 4.658742811845367 16.39999999999999
  endloop
endfacet
facet normal -0.9238795325112868 0.38268343236508956 0.0
  outer loop
    vertex -17.386664873203234 4.658742811845367 2.8199664825478975e-15
    vertex -15.5884572681199 8.999999999999995 16.39999999999999
    vertex -15.5884572681199 8.999999999999995 2.8199664825478975e-15
  endloop
endfacet
facet normal -0.9914448613738105 0.13052619222005127 0.0
  outer loop
    vertex -18.0 -2.0480038036280426e-15 16.39999999999999
    vertex -17.386664873203234 4.658742811845367 2.8199664825478975e-15
    vertex -18.0 -2.204364238465236e-15 2.8199664825478975e-15
  endloop
endfacet
facet normal -0.9914448613738105 0.13052619222005127 0.0
  outer loop
    vertex -17.386664873203234 4.658742811845367 2.8199664825478975e-15
    vertex -18.0 -2.0480038036280426e-15 16.39999999999999
    vertex -17.386664873203234 4.658742811845367 16.39999999999999
  endloop
endfacet
facet normal -0.9914448613738105 -0.13052619222005166 0.0
  outer loop
    vertex -18.0 -2.0480038036280426e-15 16.39999999999999
    vertex -17.38666487320323 -4.658742811845379 2.8199664825478975e-15
    vertex -17.38666487320323 -4.658742811845379 16.39999999999999
  endloop
endfacet
facet normal -0.9914448613738105 -0.13052619222005166 0.0
  outer loop
    vertex -17.38666487320323 -4.658742811845379 2.8199664825478975e-15
    vertex -18.0 -2.0480038036280426e-15 16.39999999999999
    vertex -18.0 -2.204364238465236e-15 2.8199664825478975e-15
  endloop
endfacet
facet normal -0.9238795325112867 -0.38268343236509006 0.0
  outer loop
    vertex -17.38666487320323 -4.658742811845379 16.39999999999999
    vertex -15.588457268119894 -9.000000000000005 2.8199664825478975e-15
    vertex -15.588457268119894 -9.000000000000005 16.39999999999999
  endloop
endfacet
facet normal -0.9238795325112867 -0.38268343236509006 0.0
  outer loop
    vertex -15.588457268119894 -9.000000000000005 2.8199664825478975e-15
    vertex -17.38666487320323 -4.658742811845379 16.39999999999999
    vertex -17.38666487320323 -4.658742811845379 2.8199664825478975e-15
  endloop
endfacet
facet normal -0.7933533402912349 -0.6087614290087209 0.0
  outer loop
    vertex -15.588457268119894 -9.000000000000005 16.39999999999999
    vertex -12.727922061357857 -12.727922061357857 2.8199664825478975e-15
    vertex -12.727922061357857 -12.727922061357857 16.39999999999999
  endloop
endfacet
facet normal -0.7933533402912349 -0.6087614290087209 0.0
  outer loop
    vertex -12.727922061357857 -12.727922061357857 2.8199664825478975e-15
    vertex -15.588457268119894 -9.000000000000005 16.39999999999999
    vertex -15.588457268119894 -9.000000000000005 2.8199664825478975e-15
  endloop
endfacet
facet normal -0.6087614290087202 -0.7933533402912355 0.0
  outer loop
    vertex -8.999999999999996 -15.588457268119896 16.39999999999999
    vertex -12.727922061357857 -12.727922061357857 2.8199664825478975e-15
    vertex -8.999999999999996 -15.588457268119896 2.8199664825478975e-15
  endloop
endfacet
facet normal -0.6087614290087202 -0.7933533402912355 0.0
  outer loop
    vertex -12.727922061357857 -12.727922061357857 2.8199664825478975e-15
    vertex -8.999999999999996 -15.588457268119896 16.39999999999999
    vertex -12.727922061357857 -12.727922061357857 16.39999999999999
  endloop
endfacet
facet normal -0.3826834323650897 -0.9238795325112867 0.0
  outer loop
    vertex -4.6587428118453715 -17.38666487320323 16.39999999999999
    vertex -8.999999999999996 -15.588457268119896 2.8199664825478975e-15
    vertex -4.6587428118453715 -17.38666487320323 2.8199664825478975e-15
  endloop
endfacet
facet normal -0.3826834323650897 -0.9238795325112867 0.0
  outer loop
    vertex -8.999999999999996 -15.588457268119896 2.8199664825478975e-15
    vertex -4.6587428118453715 -17.38666487320323 16.39999999999999
    vertex -8.999999999999996 -15.588457268119896 16.39999999999999
  endloop
endfacet
facet normal -0.13052619222005177 -0.9914448613738105 0.0
  outer loop
    vertex 1.1368900037896456e-15 -18.0 16.39999999999999
    vertex -4.6587428118453715 -17.38666487320323 2.8199664825478975e-15
    vertex 1.102182119232618e-15 -18.0 2.8199664825478975e-15
  endloop
endfacet
facet normal -0.13052619222005177 -0.9914448613738105 0.0
  outer loop
    vertex -4.6587428118453715 -17.38666487320323 2.8199664825478975e-15
    vertex 1.1368900037896456e-15 -18.0 16.39999999999999
    vertex -4.6587428118453715 -17.38666487320323 16.39999999999999
  endloop
endfacet
facet normal 0.13052619222005163 -0.9914448613738105 0.0
  outer loop
    vertex 4.658742811845378 -17.38666487320323 16.39999999999999
    vertex 1.102182119232618e-15 -18.0 2.8199664825478975e-15
    vertex 4.658742811845378 -17.38666487320323 2.8199664825478975e-15
  endloop
endfacet
facet normal 0.13052619222005163 -0.9914448613738105 0.0
  outer loop
    vertex 1.102182119232618e-15 -18.0 2.8199664825478975e-15
    vertex 4.658742811845378 -17.38666487320323 16.39999999999999
    vertex 1.1368900037896456e-15 -18.0 16.39999999999999
  endloop
endfacet
facet normal 0.3826834323650897 -0.9238795325112867 0.0
  outer loop
    vertex 9.000000000000002 -15.588457268119896 16.39999999999999
    vertex 4.658742811845378 -17.38666487320323 2.8199664825478975e-15
    vertex 9.000000000000002 -15.588457268119896 2.8199664825478975e-15
  endloop
endfacet
facet normal 0.3826834323650897 -0.9238795325112867 0.0
  outer loop
    vertex 4.658742811845378 -17.38666487320323 2.8199664825478975e-15
    vertex 9.000000000000002 -15.588457268119896 16.39999999999999
    vertex 4.658742811845378 -17.38666487320323 16.39999999999999
  endloop
endfacet
facet normal 0.6087614290087209 -0.7933533402912352 0.0
  outer loop
    vertex 12.727922061357857 -12.727922061357857 16.39999999999999
    vertex 9.000000000000002 -15.588457268119896 2.8199664825478975e-15
    vertex 12.727922061357857 -12.727922061357857 2.8199664825478975e-15
  endloop
endfacet
facet normal 0.6087614290087209 -0.7933533402912352 0.0
  outer loop
    vertex 9.000000000000002 -15.588457268119896 2.8199664825478975e-15
    vertex 12.727922061357857 -12.727922061357857 16.39999999999999
    vertex 9.000000000000002 -15.588457268119896 16.39999999999999
  endloop
endfacet
facet normal 0.7933533402912352 -0.6087614290087205 -0.0
  outer loop
    vertex 15.588457268119896 -8.999999999999998 2.8199664825478975e-15
    vertex 12.727922061357857 -12.727922061357857 16.39999999999999
    vertex 12.727922061357857 -12.727922061357857 2.8199664825478975e-15
  endloop
endfacet
facet normal 0.7933533402912352 -0.6087614290087205 -0.0
  outer loop
    vertex 12.727922061357857 -12.727922061357857 16.39999999999999
    vertex 15.588457268119896 -8.999999999999998 2.8199664825478975e-15
    vertex 15.588457268119896 -8.999999999999998 16.39999999999999
  endloop
endfacet
facet normal -0.13052619222005135 0.9914448613738105 -0.0
  outer loop
    vertex 1.4446911258309764e-15 -15.524779298930211 16.400000000000002
    vertex 4.018108553576502 -14.995785272274588 1.4000000000000004
    vertex 1.4099832412739487e-15 -15.524779298930211 1.4000000000000004
  endloop
endfacet
facet normal -0.13052619222005135 0.9914448613738105 -0.0
  outer loop
    vertex 4.018108553576502 -14.995785272274588 1.4000000000000004
    vertex 1.4446911258309764e-15 -15.524779298930211 16.400000000000002
    vertex 4.018108553576502 -14.995785272274588 16.400000000000002
  endloop
endfacet
facet normal -0.38268343236508967 0.9238795325112868 -0.0
  outer loop
    vertex 4.018108553576502 -14.995785272274588 16.400000000000002
    vertex 7.762389649465107 -13.444853261020333 1.4000000000000004
    vertex 4.018108553576502 -14.995785272274588 1.4000000000000004
  endloop
endfacet
facet normal -0.38268343236508967 0.9238795325112868 -0.0
  outer loop
    vertex 7.762389649465107 -13.444853261020333 1.4000000000000004
    vertex 4.018108553576502 -14.995785272274588 16.400000000000002
    vertex 7.762389649465107 -13.444853261020333 16.400000000000002
  endloop
endfacet
facet normal -0.6087614290087208 0.7933533402912352 -0.0
  outer loop
    vertex 7.762389649465107 -13.444853261020333 16.400000000000002
    vertex 10.977676718698088 -10.977676718698088 1.4000000000000004
    vertex 7.762389649465107 -13.444853261020333 1.4000000000000004
  endloop
endfacet
facet normal -0.6087614290087208 0.7933533402912352 -0.0
  outer loop
    vertex 10.977676718698088 -10.977676718698088 1.4000000000000004
    vertex 7.762389649465107 -13.444853261020333 16.400000000000002
    vertex 10.977676718698088 -10.977676718698088 16.400000000000002
  endloop
endfacet
facet normal -0.7933533402912355 0.6087614290087202 0.0
  outer loop
    vertex 13.444853261020338 -7.762389649465096 16.400000000000002
    vertex 10.977676718698088 -10.977676718698088 1.4000000000000004
    vertex 10.977676718698088 -10.977676718698088 16.400000000000002
  endloop
endfacet
facet normal -0.7933533402912355 0.6087614290087202 0.0
  outer loop
    vertex 10.977676718698088 -10.977676718698088 1.4000000000000004
    vertex 13.444853261020338 -7.762389649465096 16.400000000000002
    vertex 13.444853261020338 -7.762389649465096 1.4000000000000004
  endloop
endfacet
facet normal -0.9238795325112871 0.382683432365089 0.0
  outer loop
    vertex 14.99578527227459 -4.018108553576491 16.400000000000002
    vertex 13.444853261020338 -7.762389649465096 1.4000000000000004
    vertex 13.444853261020338 -7.762389649465096 16.400000000000002
  endloop
endfacet
facet normal -0.9238795325112871 0.382683432365089 0.0
  outer loop
    vertex 13.444853261020338 -7.762389649465096 1.4000000000000004
    vertex 14.99578527227459 -4.018108553576491 16.400000000000002
    vertex 14.99578527227459 -4.018108553576491 1.4000000000000004
  endloop
endfacet
facet normal -0.9914448613738105 0.13052619222005082 0.0
  outer loop
    vertex 15.524779298930211 4.386310158659039e-15 16.400000000000002
    vertex 14.99578527227459 -4.018108553576491 1.4000000000000004
    vertex 14.99578527227459 -4.018108553576491 16.400000000000002
  endloop
endfacet
facet normal -0.9914448613738105 0.13052619222005082 0.0
  outer loop
    vertex 14.99578527227459 -4.018108553576491 1.4000000000000004
    vertex 15.524779298930211 4.386310158659039e-15 16.400000000000002
    vertex 15.524779298930211 4.229949723821846e-15 1.4000000000000004
  endloop
endfacet
facet normal -0.9914448613738105 -0.13052619222005188 0.0
  outer loop
    vertex 15.524779298930211 4.386310158659039e-15 16.400000000000002
    vertex 14.995785272274585 4.018108553576509 1.4000000000000004
    vertex 15.524779298930211 4.229949723821846e-15 1.4000000000000004
  endloop
endfacet
facet normal -0.9914448613738105 -0.13052619222005188 0.0
  outer loop
    vertex 14.995785272274585 4.018108553576509 1.4000000000000004
    vertex 15.524779298930211 4.386310158659039e-15 16.400000000000002
    vertex 14.995785272274585 4.018108553576509 16.400000000000002
  endloop
endfacet
facet normal -0.9238795325112865 -0.3826834323650905 0.0
  outer loop
    vertex 13.444853261020327 7.762389649465112 16.400000000000002
    vertex 14.995785272274585 4.018108553576509 1.4000000000000004
    vertex 14.995785272274585 4.018108553576509 16.400000000000002
  endloop
endfacet
facet normal -0.9238795325112865 -0.3826834323650905 0.0
  outer loop
    vertex 14.995785272274585 4.018108553576509 1.4000000000000004
    vertex 13.444853261020327 7.762389649465112 16.400000000000002
    vertex 13.444853261020327 7.762389649465112 1.4000000000000004
  endloop
endfacet
facet normal -0.7933533402912355 -0.6087614290087204 0.0
  outer loop
    vertex 10.977676718698088 10.97767671869809 16.400000000000002
    vertex 13.444853261020327 7.762389649465112 1.4000000000000004
    vertex 13.444853261020327 7.762389649465112 16.400000000000002
  endloop
endfacet
facet normal -0.7933533402912355 -0.6087614290087204 0.0
  outer loop
    vertex 13.444853261020327 7.762389649465112 1.4000000000000004
    vertex 10.977676718698088 10.97767671869809 16.400000000000002
    vertex 10.977676718698088 10.97767671869809 1.4000000000000004
  endloop
endfacet
facet normal -0.6087614290087204 -0.7933533402912354 0.0
  outer loop
    vertex 10.977676718698088 10.97767671869809 16.400000000000002
    vertex 7.7623896494650975 13.444853261020338 1.4000000000000004
    vertex 10.977676718698088 10.97767671869809 1.4000000000000004
  endloop
endfacet
facet normal -0.6087614290087204 -0.7933533402912354 0.0
  outer loop
    vertex 7.7623896494650975 13.444853261020338 1.4000000000000004
    vertex 10.977676718698088 10.97767671869809 16.400000000000002
    vertex 7.7623896494650975 13.444853261020338 16.400000000000002
  endloop
endfacet
facet normal -0.382683432365089 -0.9238795325112871 0.0
  outer loop
    vertex 7.7623896494650975 13.444853261020338 16.400000000000002
    vertex 4.018108553576491 14.99578527227459 1.4000000000000004
    vertex 7.7623896494650975 13.444853261020338 1.4000000000000004
  endloop
endfacet
facet normal -0.382683432365089 -0.9238795325112871 0.0
  outer loop
    vertex 4.018108553576491 14.99578527227459 1.4000000000000004
    vertex 7.7623896494650975 13.444853261020338 16.400000000000002
    vertex 4.018108553576491 14.99578527227459 16.400000000000002
  endloop
endfacet
facet normal -0.13052619222005074 -0.9914448613738105 0.0
  outer loop
    vertex -7.015208321812716e-15 15.524779298930211 16.400000000000002
    vertex -7.049916206369744e-15 15.524779298930211 1.4000000000000004
    vertex 2.329371405922681 15.218111735531828 16.399999999999995
  endloop
endfacet
facet normal -0.13052619222005074 -0.9914448613738105 0.0
  outer loop
    vertex 4.018108553576491 14.99578527227459 16.400000000000002
    vertex -7.049916206369744e-15 15.524779298930211 1.4000000000000004
    vertex 4.018108553576491 14.99578527227459 1.4000000000000004
  endloop
endfacet
facet normal -0.13052619222005074 -0.9914448613738105 0.0
  outer loop
    vertex -7.049916206369744e-15 15.524779298930211 1.4000000000000004
    vertex 4.018108553576491 14.99578527227459 16.400000000000002
    vertex 2.329371405922681 15.218111735531828 16.399999999999995
  endloop
endfacet
facet normal 0.13052619222005146 -0.9914448613738105 0.0
  outer loop
    vertex -7.015208321812716e-15 15.524779298930211 16.400000000000002
    vertex -4.018108553576504 14.995785272274588 1.4000000000000004
    vertex -7.049916206369744e-15 15.524779298930211 1.4000000000000004
  endloop
endfacet
facet normal 0.13052619222005146 -0.9914448613738105 0.0
  outer loop
    vertex -4.018108553576504 14.995785272274588 1.4000000000000004
    vertex -7.015208321812716e-15 15.524779298930211 16.400000000000002
    vertex -4.018108553576504 14.995785272274588 16.400000000000002
  endloop
endfacet
facet normal 0.3826834323650908 -0.9238795325112865 0.0
  outer loop
    vertex -4.018108553576504 14.995785272274588 16.400000000000002
    vertex -7.762389649465112 13.444853261020327 1.4000000000000004
    vertex -4.018108553576504 14.995785272274588 1.4000000000000004
  endloop
endfacet
facet normal 0.3826834323650908 -0.9238795325112865 0.0
  outer loop
    vertex -7.762389649465112 13.444853261020327 1.4000000000000004
    vertex -4.018108553576504 14.995785272274588 16.400000000000002
    vertex -7.762389649465112 13.444853261020327 16.400000000000002
  endloop
endfacet
facet normal 0.6087614290087204 -0.7933533402912355 0.0
  outer loop
    vertex -7.762389649465112 13.444853261020327 16.400000000000002
    vertex -10.97767671869809 10.977676718698088 1.4000000000000004
    vertex -7.762389649465112 13.444853261020327 1.4000000000000004
  endloop
endfacet
facet normal 0.6087614290087204 -0.7933533402912355 0.0
  outer loop
    vertex -10.97767671869809 10.977676718698088 1.4000000000000004
    vertex -7.762389649465112 13.444853261020327 16.400000000000002
    vertex -10.97767671869809 10.977676718698088 16.400000000000002
  endloop
endfacet
facet normal 0.7933533402912356 -0.6087614290087203 -0.0
  outer loop
    vertex -10.97767671869809 10.977676718698088 1.4000000000000004
    vertex -13.444853261020333 7.762389649465103 16.400000000000002
    vertex -13.444853261020333 7.762389649465103 1.4000000000000004
  endloop
endfacet
facet normal 0.7933533402912356 -0.6087614290087203 -0.0
  outer loop
    vertex -13.444853261020333 7.762389649465103 16.400000000000002
    vertex -10.97767671869809 10.977676718698088 1.4000000000000004
    vertex -10.97767671869809 10.977676718698088 16.400000000000002
  endloop
endfacet
facet normal 0.9238795325112871 -0.3826834323650893 -0.0
  outer loop
    vertex -13.444853261020333 7.762389649465103 1.4000000000000004
    vertex -14.995785272274588 4.018108553576493 16.400000000000002
    vertex -14.995785272274588 4.018108553576493 1.4000000000000004
  endloop
endfacet
facet normal 0.9238795325112871 -0.3826834323650893 -0.0
  outer loop
    vertex -14.995785272274588 4.018108553576493 16.400000000000002
    vertex -13.444853261020333 7.762389649465103 1.4000000000000004
    vertex -13.444853261020333 7.762389649465103 16.400000000000002
  endloop
endfacet
facet normal 0.9914448613738105 -0.13052619222005155 -0.0
  outer loop
    vertex -14.995785272274588 4.018108553576493 1.4000000000000004
    vertex -15.524779298930211 -1.2536228064367555e-15 16.400000000000002
    vertex -15.524779298930211 -1.4099832412739487e-15 1.4000000000000004
  endloop
endfacet
facet normal 0.9914448613738105 -0.13052619222005155 -0.0
  outer loop
    vertex -15.524779298930211 -1.2536228064367555e-15 16.400000000000002
    vertex -14.995785272274588 4.018108553576493 1.4000000000000004
    vertex -14.995785272274588 4.018108553576493 16.400000000000002
  endloop
endfacet
facet normal 0.9914448613738105 0.13052619222005135 -0.0
  outer loop
    vertex -15.524779298930211 -1.4099832412739487e-15 1.4000000000000004
    vertex -14.995785272274588 -4.018108553576503 16.400000000000002
    vertex -14.995785272274588 -4.018108553576503 1.4000000000000004
  endloop
endfacet
facet normal 0.9914448613738105 0.13052619222005135 -0.0
  outer loop
    vertex -14.995785272274588 -4.018108553576503 16.400000000000002
    vertex -15.524779298930211 -1.4099832412739487e-15 1.4000000000000004
    vertex -15.524779298930211 -1.2536228064367555e-15 16.400000000000002
  endloop
endfacet
facet normal 0.9238795325112867 0.38268343236509017 -0.0
  outer loop
    vertex -13.826164778506953 -6.841822212459835 1.4000000000000004
    vertex -13.44485326102033 -7.762389649465109 16.400000000000002
    vertex -13.44485326102033 -7.762389649465109 1.4000000000000004
  endloop
endfacet
facet normal 0.9238795325112867 0.38268343236509017 -0.0
  outer loop
    vertex -13.44485326102033 -7.762389649465109 16.400000000000002
    vertex -13.826164778506953 -6.841822212459835 1.4000000000000004
    vertex -14.995785272274588 -4.018108553576503 16.400000000000002
  endloop
endfacet
facet normal 0.9238795325112867 0.38268343236509017 -0.0
  outer loop
    vertex -14.995785272274588 -4.018108553576503 16.400000000000002
    vertex -13.826164778506953 -6.841822212459835 1.4000000000000004
    vertex -14.995785272274588 -4.018108553576503 1.4000000000000004
  endloop
endfacet
facet normal 0.7933533402912353 0.6087614290087204 -0.0
  outer loop
    vertex -13.44485326102033 -7.762389649465109 1.4000000000000004
    vertex -10.977676718698088 -10.977676718698088 16.400000000000002
    vertex -10.977676718698088 -10.977676718698088 1.4000000000000004
  endloop
endfacet
facet normal 0.7933533402912353 0.6087614290087204 -0.0
  outer loop
    vertex -10.977676718698088 -10.977676718698088 16.400000000000002
    vertex -13.44485326102033 -7.762389649465109 1.4000000000000004
    vertex -13.44485326102033 -7.762389649465109 16.400000000000002
  endloop
endfacet
facet normal 0.6087614290087203 0.7933533402912356 -0.0
  outer loop
    vertex -10.977676718698088 -10.977676718698088 16.400000000000002
    vertex -7.762389649465103 -13.444853261020333 1.4000000000000004
    vertex -10.977676718698088 -10.977676718698088 1.4000000000000004
  endloop
endfacet
facet normal 0.6087614290087203 0.7933533402912356 -0.0
  outer loop
    vertex -7.762389649465103 -13.444853261020333 1.4000000000000004
    vertex -10.977676718698088 -10.977676718698088 16.400000000000002
    vertex -7.762389649465103 -13.444853261020333 16.400000000000002
  endloop
endfacet
facet normal 0.38268343236508967 0.9238795325112867 -0.0
  outer loop
    vertex -7.762389649465103 -13.444853261020333 16.400000000000002
    vertex -4.018108553576498 -14.995785272274588 1.4000000000000004
    vertex -7.762389649465103 -13.444853261020333 1.4000000000000004
  endloop
endfacet
facet normal 0.38268343236508967 0.9238795325112867 -0.0
  outer loop
    vertex -4.018108553576498 -14.995785272274588 1.4000000000000004
    vertex -7.762389649465103 -13.444853261020333 16.400000000000002
    vertex -4.018108553576498 -14.995785272274588 16.400000000000002
  endloop
endfacet
facet normal 0.13052619222005138 0.9914448613738105 -0.0
  outer loop
    vertex -4.018108553576498 -14.995785272274588 16.400000000000002
    vertex 1.4099832412739487e-15 -15.524779298930211 1.4000000000000004
    vertex -4.018108553576498 -14.995785272274588 1.4000000000000004
  endloop
endfacet
facet normal 0.13052619222005138 0.9914448613738105 -0.0
  outer loop
    vertex 1.4099832412739487e-15 -15.524779298930211 1.4000000000000004
    vertex -4.018108553576498 -14.995785272274588 16.400000000000002
    vertex 1.4446911258309764e-15 -15.524779298930211 16.400000000000002
  endloop
endfacet
facet normal 2.9112274447229226e-33 -8.29695582215515e-33 1.0
  outer loop
    vertex 1.4099832412739487e-15 -15.524779298930211 1.4000000000000004
    vertex -1.9999999999999996 -2.4492935982947074e-16 1.400000000000006
    vertex -4.018108553576498 -14.995785272274588 1.4000000000000004
  endloop
endfacet
facet normal 2.9112274447229226e-33 -8.29695582215515e-33 1.0
  outer loop
    vertex -1.9999999999999996 -2.4492935982947074e-16 1.400000000000006
    vertex 1.4099832412739487e-15 -15.524779298930211 1.4000000000000004
    vertex -1.931851652578136 -0.5176380902050417 1.400000000000006
  endloop
endfacet
facet normal 2.9112274447229226e-33 -8.29695582215515e-33 1.0
  outer loop
    vertex -1.931851652578136 -0.5176380902050417 1.400000000000006
    vertex 1.4099832412739487e-15 -15.524779298930211 1.4000000000000004
    vertex -1.732050807568877 -0.9999999999999999 1.400000000000006
  endloop
endfacet
facet normal 2.9112274447229226e-33 -8.29695582215515e-33 1.0
  outer loop
    vertex -1.732050807568877 -0.9999999999999999 1.400000000000006
    vertex 1.4099832412739487e-15 -15.524779298930211 1.4000000000000004
    vertex -1.4142135623730947 -1.4142135623730951 1.400000000000006
  endloop
endfacet
facet normal 2.9112274447229226e-33 -8.29695582215515e-33 1.0
  outer loop
    vertex -1.4142135623730947 -1.4142135623730951 1.400000000000006
    vertex 1.4099832412739487e-15 -15.524779298930211 1.4000000000000004
    vertex -0.9999999999999998 -1.732050807568877 1.400000000000006
  endloop
endfacet
facet normal 2.9112274447229226e-33 -8.29695582215515e-33 1.0
  outer loop
    vertex -0.9999999999999998 -1.732050807568877 1.400000000000006
    vertex 1.4099832412739487e-15 -15.524779298930211 1.4000000000000004
    vertex -0.5176380902050416 -1.9318516525781364 1.400000000000006
  endloop
endfacet
facet normal 2.9112274447229226e-33 -8.29695582215515e-33 1.0
  outer loop
    vertex -0.5176380902050416 -1.9318516525781364 1.400000000000006
    vertex 1.4099832412739487e-15 -15.524779298930211 1.4000000000000004
    vertex 1.224646799147355e-16 -1.9999999999999998 1.400000000000006
  endloop
endfacet
facet normal 2.9112274447229226e-33 -8.29695582215515e-33 1.0
  outer loop
    vertex 1.224646799147355e-16 -1.9999999999999998 1.400000000000006
    vertex 1.4099832412739487e-15 -15.524779298930211 1.4000000000000004
    vertex 0.5176380902050414 -1.9318516525781364 1.400000000000006
  endloop
endfacet
facet normal 2.9112274447229226e-33 -8.29695582215515e-33 1.0
  outer loop
    vertex 0.5176380902050414 -1.9318516525781364 1.400000000000006
    vertex 1.4099832412739487e-15 -15.524779298930211 1.4000000000000004
    vertex 4.018108553576502 -14.995785272274588 1.4000000000000004
  endloop
endfacet
facet normal 2.9112274447229226e-33 -8.29695582215515e-33 1.0
  outer loop
    vertex 0.5176380902050414 -1.9318516525781364 1.400000000000006
    vertex 4.018108553576502 -14.995785272274588 1.4000000000000004
    vertex 0.9999999999999994 -1.7320508075688772 1.400000000000006
  endloop
endfacet
facet normal 2.9112274447229226e-33 -8.29695582215515e-33 1.0
  outer loop
    vertex 0.9999999999999994 -1.7320508075688772 1.400000000000006
    vertex 4.018108553576502 -14.995785272274588 1.4000000000000004
    vertex 1.414213562373095 -1.414213562373095 1.400000000000006
  endloop
endfacet
facet normal 2.9112274447229226e-33 -8.29695582215515e-33 1.0
  outer loop
    vertex 1.414213562373095 -1.414213562373095 1.400000000000006
    vertex 4.018108553576502 -14.995785272274588 1.4000000000000004
    vertex 1.7320508075688765 -1.0000000000000004 1.400000000000006
  endloop
endfacet
facet normal 2.9112274447229226e-33 -8.29695582215515e-33 1.0
  outer loop
    vertex 1.7320508075688765 -1.0000000000000004 1.400000000000006
    vertex 4.018108553576502 -14.995785272274588 1.4000000000000004
    vertex 1.931851652578136 -0.5176380902050417 1.400000000000006
  endloop
endfacet
facet normal 2.9112274447229226e-33 -8.29695582215515e-33 1.0
  outer loop
    vertex 1.931851652578136 -0.5176380902050417 1.400000000000006
    vertex 4.018108553576502 -14.995785272274588 1.4000000000000004
    vertex 1.9999999999999996 1.1740468940984588e-31 1.400000000000006
  endloop
endfacet
facet normal 2.9112274447229226e-33 -8.29695582215515e-33 1.0
  outer loop
    vertex 1.9999999999999996 1.1740468940984588e-31 1.400000000000006
    vertex 4.018108553576502 -14.995785272274588 1.4000000000000004
    vertex 4.018108553576491 14.99578527227459 1.4000000000000004
  endloop
endfacet
facet normal 2.9112274447229226e-33 -8.29695582215515e-33 1.0
  outer loop
    vertex 4.018108553576491 14.99578527227459 1.4000000000000004
    vertex 4.018108553576502 -14.995785272274588 1.4000000000000004
    vertex 7.7623896494650975 13.444853261020338 1.4000000000000004
  endloop
endfacet
facet normal 2.9112274447229226e-33 -8.29695582215515e-33 1.0
  outer loop
    vertex 7.7623896494650975 13.444853261020338 1.4000000000000004
    vertex 4.018108553576502 -14.995785272274588 1.4000000000000004
    vertex 7.762389649465107 -13.444853261020333 1.4000000000000004
  endloop
endfacet
facet normal 2.9112274447229226e-33 -8.29695582215515e-33 1.0
  outer loop
    vertex 7.7623896494650975 13.444853261020338 1.4000000000000004
    vertex 7.762389649465107 -13.444853261020333 1.4000000000000004
    vertex 10.977676718698088 10.97767671869809 1.4000000000000004
  endloop
endfacet
facet normal 2.9112274447229226e-33 -8.29695582215515e-33 1.0
  outer loop
    vertex 10.977676718698088 10.97767671869809 1.4000000000000004
    vertex 7.762389649465107 -13.444853261020333 1.4000000000000004
    vertex 10.977676718698088 -10.977676718698088 1.4000000000000004
  endloop
endfacet
facet normal 2.9112274447229226e-33 -8.29695582215515e-33 1.0
  outer loop
    vertex 10.977676718698088 10.97767671869809 1.4000000000000004
    vertex 10.977676718698088 -10.977676718698088 1.4000000000000004
    vertex 13.444853261020327 7.762389649465112 1.4000000000000004
  endloop
endfacet
facet normal 2.9112274447229226e-33 -8.29695582215515e-33 1.0
  outer loop
    vertex 13.444853261020327 7.762389649465112 1.4000000000000004
    vertex 10.977676718698088 -10.977676718698088 1.4000000000000004
    vertex 13.444853261020338 -7.762389649465096 1.4000000000000004
  endloop
endfacet
facet normal 2.9112274447229226e-33 -8.29695582215515e-33 1.0
  outer loop
    vertex 13.444853261020327 7.762389649465112 1.4000000000000004
    vertex 13.444853261020338 -7.762389649465096 1.4000000000000004
    vertex 14.995785272274585 4.018108553576509 1.4000000000000004
  endloop
endfacet
facet normal 2.9112274447229226e-33 -8.29695582215515e-33 1.0
  outer loop
    vertex 14.995785272274585 4.018108553576509 1.4000000000000004
    vertex 13.444853261020338 -7.762389649465096 1.4000000000000004
    vertex 14.99578527227459 -4.018108553576491 1.4000000000000004
  endloop
endfacet
facet normal 2.9112274447229226e-33 -8.29695582215515e-33 1.0
  outer loop
    vertex 14.995785272274585 4.018108553576509 1.4000000000000004
    vertex 14.99578527227459 -4.018108553576491 1.4000000000000004
    vertex 15.524779298930211 4.229949723821846e-15 1.4000000000000004
  endloop
endfacet
facet normal 2.9112274447229226e-33 -8.29695582215515e-33 1.0
  outer loop
    vertex -14.995785272274588 -4.018108553576503 1.4000000000000004
    vertex -14.995785272274588 4.018108553576493 1.4000000000000004
    vertex -15.524779298930211 -1.4099832412739487e-15 1.4000000000000004
  endloop
endfacet
facet normal 2.9112274447229226e-33 -8.29695582215515e-33 1.0
  outer loop
    vertex -14.995785272274588 4.018108553576493 1.4000000000000004
    vertex -14.995785272274588 -4.018108553576503 1.4000000000000004
    vertex -13.826164778506953 -6.841822212459835 1.4000000000000004
  endloop
endfacet
facet normal 2.9112274447229226e-33 -8.29695582215515e-33 1.0
  outer loop
    vertex -14.995785272274588 4.018108553576493 1.4000000000000004
    vertex -13.826164778506953 -6.841822212459835 1.4000000000000004
    vertex -13.444853261020333 7.762389649465103 1.4000000000000004
  endloop
endfacet
facet normal 2.9112274447229226e-33 -8.29695582215515e-33 1.0
  outer loop
    vertex -13.444853261020333 7.762389649465103 1.4000000000000004
    vertex -13.826164778506953 -6.841822212459835 1.4000000000000004
    vertex -13.44485326102033 -7.762389649465109 1.4000000000000004
  endloop
endfacet
facet normal 2.9112274447229226e-33 -8.29695582215515e-33 1.0
  outer loop
    vertex -13.444853261020333 7.762389649465103 1.4000000000000004
    vertex -13.44485326102033 -7.762389649465109 1.4000000000000004
    vertex -10.97767671869809 10.977676718698088 1.4000000000000004
  endloop
endfacet
facet normal 2.9112274447229226e-33 -8.29695582215515e-33 1.0
  outer loop
    vertex -10.97767671869809 10.977676718698088 1.4000000000000004
    vertex -13.44485326102033 -7.762389649465109 1.4000000000000004
    vertex -10.977676718698088 -10.977676718698088 1.4000000000000004
  endloop
endfacet
facet normal 2.9112274447229226e-33 -8.29695582215515e-33 1.0
  outer loop
    vertex -10.97767671869809 10.977676718698088 1.4000000000000004
    vertex -10.977676718698088 -10.977676718698088 1.4000000000000004
    vertex -7.762389649465112 13.444853261020327 1.4000000000000004
  endloop
endfacet
facet normal 2.9112274447229226e-33 -8.29695582215515e-33 1.0
  outer loop
    vertex -7.762389649465112 13.444853261020327 1.4000000000000004
    vertex -10.977676718698088 -10.977676718698088 1.4000000000000004
    vertex -7.762389649465103 -13.444853261020333 1.4000000000000004
  endloop
endfacet
facet normal 2.9112274447229226e-33 -8.29695582215515e-33 1.0
  outer loop
    vertex -7.762389649465112 13.444853261020327 1.4000000000000004
    vertex -7.762389649465103 -13.444853261020333 1.4000000000000004
    vertex -4.018108553576504 14.995785272274588 1.4000000000000004
  endloop
endfacet
facet normal 2.9112274447229226e-33 -8.29695582215515e-33 1.0
  outer loop
    vertex -4.018108553576504 14.995785272274588 1.4000000000000004
    vertex -7.762389649465103 -13.444853261020333 1.4000000000000004
    vertex -4.018108553576498 -14.995785272274588 1.4000000000000004
  endloop
endfacet
facet normal 2.9112274447229226e-33 -8.29695582215515e-33 1.0
  outer loop
    vertex -4.018108553576504 14.995785272274588 1.4000000000000004
    vertex -4.018108553576498 -14.995785272274588 1.4000000000000004
    vertex -7.049916206369744e-15 15.524779298930211 1.4000000000000004
  endloop
endfacet
facet normal 2.9112274447229226e-33 -8.29695582215515e-33 1.0
  outer loop
    vertex -7.049916206369744e-15 15.524779298930211 1.4000000000000004
    vertex -4.018108553576498 -14.995785272274588 1.4000000000000004
    vertex -1.9999999999999996 -2.4492935982947074e-16 1.400000000000006
  endloop
endfacet
facet normal 2.9112274447229226e-33 -8.29695582215515e-33 1.0
  outer loop
    vertex -7.049916206369744e-15 15.524779298930211 1.4000000000000004
    vertex -1.9999999999999996 -2.4492935982947074e-16 1.400000000000006
    vertex -1.9318516525781357 0.5176380902050428 1.400000000000006
  endloop
endfacet
facet normal 2.9112274447229226e-33 -8.29695582215515e-33 1.0
  outer loop
    vertex -7.049916206369744e-15 15.524779298930211 1.4000000000000004
    vertex -1.9318516525781357 0.5176380902050428 1.400000000000006
    vertex -1.7320508075688763 1.0000000000000007 1.400000000000006
  endloop
endfacet
facet normal 2.9112274447229226e-33 -8.29695582215515e-33 1.0
  outer loop
    vertex -7.049916206369744e-15 15.524779298930211 1.4000000000000004
    vertex -1.7320508075688763 1.0000000000000007 1.400000000000006
    vertex -1.4142135623730945 1.4142135623730951 1.400000000000006
  endloop
endfacet
facet normal 2.9112274447229226e-33 -8.29695582215515e-33 1.0
  outer loop
    vertex -7.049916206369744e-15 15.524779298930211 1.4000000000000004
    vertex -1.4142135623730945 1.4142135623730951 1.400000000000006
    vertex -0.9999999999999986 1.732050807568878 1.400000000000006
  endloop
endfacet
facet normal 2.9112274447229226e-33 -8.29695582215515e-33 1.0
  outer loop
    vertex -7.049916206369744e-15 15.524779298930211 1.4000000000000004
    vertex -0.9999999999999986 1.732050807568878 1.400000000000006
    vertex -0.5176380902050407 1.9318516525781366 1.400000000000006
  endloop
endfacet
facet normal 2.9112274447229226e-33 -8.29695582215515e-33 1.0
  outer loop
    vertex -7.049916206369744e-15 15.524779298930211 1.4000000000000004
    vertex -0.5176380902050407 1.9318516525781366 1.400000000000006
    vertex 1.2246467991473507e-16 1.9999999999999998 1.400000000000006
  endloop
endfacet
facet normal 2.9112274447229226e-33 -8.29695582215515e-33 1.0
  outer loop
    vertex -7.049916206369744e-15 15.524779298930211 1.4000000000000004
    vertex 1.2246467991473507e-16 1.9999999999999998 1.400000000000006
    vertex 4.018108553576491 14.99578527227459 1.4000000000000004
  endloop
endfacet
facet normal 2.9112274447229226e-33 -8.29695582215515e-33 1.0
  outer loop
    vertex 4.018108553576491 14.99578527227459 1.4000000000000004
    vertex 1.2246467991473507e-16 1.9999999999999998 1.400000000000006
    vertex 0.5176380902050426 1.931851652578136 1.400000000000006
  endloop
endfacet
facet normal 2.9112274447229226e-33 -8.29695582215515e-33 1.0
  outer loop
    vertex 4.018108553576491 14.99578527227459 1.4000000000000004
    vertex 0.5176380902050426 1.931851652578136 1.400000000000006
    vertex 1.0000000000000004 1.7320508075688765 1.400000000000006
  endloop
endfacet
facet normal 2.9112274447229226e-33 -8.29695582215515e-33 1.0
  outer loop
    vertex 4.018108553576491 14.99578527227459 1.4000000000000004
    vertex 1.0000000000000004 1.7320508075688765 1.400000000000006
    vertex 1.4142135623730954 1.4142135623730943 1.400000000000006
  endloop
endfacet
facet normal 2.9112274447229226e-33 -8.29695582215515e-33 1.0
  outer loop
    vertex 4.018108553576491 14.99578527227459 1.4000000000000004
    vertex 1.4142135623730954 1.4142135623730943 1.400000000000006
    vertex 1.7320508075688772 0.9999999999999996 1.400000000000006
  endloop
endfacet
facet normal 2.9112274447229226e-33 -8.29695582215515e-33 1.0
  outer loop
    vertex 4.018108553576491 14.99578527227459 1.4000000000000004
    vertex 1.7320508075688772 0.9999999999999996 1.400000000000006
    vertex 1.9318516525781364 0.5176380902050409 1.400000000000006
  endloop
endfacet
facet normal 2.9112274447229226e-33 -8.29695582215515e-33 1.0
  outer loop
    vertex 4.018108553576491 14.99578527227459 1.4000000000000004
    vertex 1.9318516525781364 0.5176380902050409 1.400000000000006
    vertex 1.9999999999999996 1.1740468940984588e-31 1.400000000000006
  endloop
endfacet
facet normal 4.6869617315283924e-18 1.5864878642854974e-17 -1.0
  outer loop
    vertex -17.386664873203234 4.658742811845367 2.8199664825478975e-15
    vertex -17.38666487320323 -4.658742811845379 2.8199664825478975e-15
    vertex -18.0 -2.204364238465236e-15 2.8199664825478975e-15
  endloop
endfacet
facet normal 4.6869617315283924e-18 1.5864878642854974e-17 -1.0
  outer loop
    vertex -17.38666487320323 -4.658742811845379 2.8199664825478975e-15
    vertex -17.386664873203234 4.658742811845367 2.8199664825478975e-15
    vertex -15.5884572681199 8.999999999999995 2.8199664825478975e-15
  endloop
endfacet
facet normal 4.6869617315283924e-18 1.5864878642854974e-17 -1.0
  outer loop
    vertex -17.38666487320323 -4.658742811845379 2.8199664825478975e-15
    vertex -15.5884572681199 8.999999999999995 2.8199664825478975e-15
    vertex -15.588457268119894 -9.000000000000005 2.8199664825478975e-15
  endloop
endfacet
facet normal 4.6869617315283924e-18 1.5864878642854974e-17 -1.0
  outer loop
    vertex -15.588457268119894 -9.000000000000005 2.8199664825478975e-15
    vertex -15.5884572681199 8.999999999999995 2.8199664825478975e-15
    vertex -12.727922061357862 12.727922061357848 2.8199664825478975e-15
  endloop
endfacet
facet normal 4.6869617315283924e-18 1.5864878642854974e-17 -1.0
  outer loop
    vertex -15.588457268119894 -9.000000000000005 2.8199664825478975e-15
    vertex -12.727922061357862 12.727922061357848 2.8199664825478975e-15
    vertex -12.727922061357857 -12.727922061357857 2.8199664825478975e-15
  endloop
endfacet
facet normal 4.6869617315283924e-18 1.5864878642854974e-17 -1.0
  outer loop
    vertex -12.727922061357857 -12.727922061357857 2.8199664825478975e-15
    vertex -12.727922061357862 12.727922061357848 2.8199664825478975e-15
    vertex -9.000000000000009 15.58845726811989 2.8199664825478975e-15
  endloop
endfacet
facet normal 4.6869617315283924e-18 1.5864878642854974e-17 -1.0
  outer loop
    vertex -12.727922061357857 -12.727922061357857 2.8199664825478975e-15
    vertex -9.000000000000009 15.58845726811989 2.8199664825478975e-15
    vertex -8.999999999999996 -15.588457268119896 2.8199664825478975e-15
  endloop
endfacet
facet normal 4.6869617315283924e-18 1.5864878642854974e-17 -1.0
  outer loop
    vertex -8.999999999999996 -15.588457268119896 2.8199664825478975e-15
    vertex -9.000000000000009 15.58845726811989 2.8199664825478975e-15
    vertex -4.6587428118453875 17.386664873203227 2.8199664825478975e-15
  endloop
endfacet
facet normal 4.6869617315283924e-18 1.5864878642854974e-17 -1.0
  outer loop
    vertex -8.999999999999996 -15.588457268119896 2.8199664825478975e-15
    vertex -4.6587428118453875 17.386664873203227 2.8199664825478975e-15
    vertex -4.6587428118453715 -17.38666487320323 2.8199664825478975e-15
  endloop
endfacet
facet normal 4.6869617315283924e-18 1.5864878642854974e-17 -1.0
  outer loop
    vertex -4.6587428118453715 -17.38666487320323 2.8199664825478975e-15
    vertex -4.6587428118453875 17.386664873203227 2.8199664825478975e-15
    vertex -3.3065463576978533e-15 18.0 2.8199664825478975e-15
  endloop
endfacet
facet normal 4.6869617315283924e-18 1.5864878642854974e-17 -1.0
  outer loop
    vertex -4.6587428118453715 -17.38666487320323 2.8199664825478975e-15
    vertex -3.3065463576978533e-15 18.0 2.8199664825478975e-15
    vertex -1.9999999999999996 -2.4492935982947074e-16 0.0
  endloop
endfacet
facet normal 4.6869617315283924e-18 1.5864878642854974e-17 -1.0
  outer loop
    vertex -1.9999999999999996 -2.4492935982947074e-16 0.0
    vertex -3.3065463576978533e-15 18.0 2.8199664825478975e-15
    vertex -1.9318516525781357 0.5176380902050428 0.0
  endloop
endfacet
facet normal 4.6869617315283924e-18 1.5864878642854974e-17 -1.0
  outer loop
    vertex -1.9318516525781357 0.5176380902050428 0.0
    vertex -3.3065463576978533e-15 18.0 2.8199664825478975e-15
    vertex -1.7320508075688763 1.0000000000000007 0.0
  endloop
endfacet
facet normal 4.6869617315283924e-18 1.5864878642854974e-17 -1.0
  outer loop
    vertex -1.7320508075688763 1.0000000000000007 0.0
    vertex -3.3065463576978533e-15 18.0 2.8199664825478975e-15
    vertex -1.4142135623730945 1.4142135623730951 0.0
  endloop
endfacet
facet normal 4.6869617315283924e-18 1.5864878642854974e-17 -1.0
  outer loop
    vertex -1.4142135623730945 1.4142135623730951 0.0
    vertex -3.3065463576978533e-15 18.0 2.8199664825478975e-15
    vertex -0.9999999999999986 1.732050807568878 0.0
  endloop
endfacet
facet normal 4.6869617315283924e-18 1.5864878642854974e-17 -1.0
  outer loop
    vertex -0.9999999999999986 1.732050807568878 0.0
    vertex -3.3065463576978533e-15 18.0 2.8199664825478975e-15
    vertex -0.5176380902050407 1.9318516525781366 0.0
  endloop
endfacet
facet normal 4.6869617315283924e-18 1.5864878642854974e-17 -1.0
  outer loop
    vertex -0.5176380902050407 1.9318516525781366 0.0
    vertex -3.3065463576978533e-15 18.0 2.8199664825478975e-15
    vertex 1.2246467991473507e-16 1.9999999999999998 0.0
  endloop
endfacet
facet normal 4.6869617315283924e-18 1.5864878642854974e-17 -1.0
  outer loop
    vertex 1.2246467991473507e-16 1.9999999999999998 0.0
    vertex -3.3065463576978533e-15 18.0 2.8199664825478975e-15
    vertex 4.658742811845365 17.386664873203234 2.8199664825478975e-15
  endloop
endfacet
facet normal 4.6869617315283924e-18 1.5864878642854974e-17 -1.0
  outer loop
    vertex 1.2246467991473507e-16 1.9999999999999998 0.0
    vertex 4.658742811845365 17.386664873203234 2.8199664825478975e-15
    vertex 0.5176380902050426 1.931851652578136 0.0
  endloop
endfacet
facet normal 4.6869617315283924e-18 1.5864878642854974e-17 -1.0
  outer loop
    vertex 0.5176380902050426 1.931851652578136 0.0
    vertex 4.658742811845365 17.386664873203234 2.8199664825478975e-15
    vertex 1.0000000000000004 1.7320508075688765 0.0
  endloop
endfacet
facet normal 4.6869617315283924e-18 1.5864878642854974e-17 -1.0
  outer loop
    vertex 1.0000000000000004 1.7320508075688765 0.0
    vertex 4.658742811845365 17.386664873203234 2.8199664825478975e-15
    vertex 1.4142135623730954 1.4142135623730943 0.0
  endloop
endfacet
facet normal 4.6869617315283924e-18 1.5864878642854974e-17 -1.0
  outer loop
    vertex 1.4142135623730954 1.4142135623730943 0.0
    vertex 4.658742811845365 17.386664873203234 2.8199664825478975e-15
    vertex 1.7320508075688772 0.9999999999999996 0.0
  endloop
endfacet
facet normal 4.6869617315283924e-18 1.5864878642854974e-17 -1.0
  outer loop
    vertex 1.7320508075688772 0.9999999999999996 0.0
    vertex 4.658742811845365 17.386664873203234 2.8199664825478975e-15
    vertex 1.9318516525781364 0.5176380902050409 0.0
  endloop
endfacet
facet normal 4.6869617315283924e-18 1.5864878642854974e-17 -1.0
  outer loop
    vertex 1.9318516525781364 0.5176380902050409 0.0
    vertex 4.658742811845365 17.386664873203234 2.8199664825478975e-15
    vertex 1.9999999999999996 1.1740468940984588e-31 0.0
  endloop
endfacet
facet normal 4.6869617315283924e-18 1.5864878642854974e-17 -1.0
  outer loop
    vertex -1.9999999999999996 -2.4492935982947074e-16 0.0
    vertex 1.102182119232618e-15 -18.0 2.8199664825478975e-15
    vertex -4.6587428118453715 -17.38666487320323 2.8199664825478975e-15
  endloop
endfacet
facet normal 4.6869617315283924e-18 1.5864878642854974e-17 -1.0
  outer loop
    vertex 1.102182119232618e-15 -18.0 2.8199664825478975e-15
    vertex -1.9999999999999996 -2.4492935982947074e-16 0.0
    vertex -1.931851652578136 -0.5176380902050417 0.0
  endloop
endfacet
facet normal 4.6869617315283924e-18 1.5864878642854974e-17 -1.0
  outer loop
    vertex 1.102182119232618e-15 -18.0 2.8199664825478975e-15
    vertex -1.931851652578136 -0.5176380902050417 0.0
    vertex -1.732050807568877 -0.9999999999999999 0.0
  endloop
endfacet
facet normal 4.6869617315283924e-18 1.5864878642854974e-17 -1.0
  outer loop
    vertex 1.102182119232618e-15 -18.0 2.8199664825478975e-15
    vertex -1.732050807568877 -0.9999999999999999 0.0
    vertex -1.4142135623730947 -1.4142135623730951 0.0
  endloop
endfacet
facet normal 4.6869617315283924e-18 1.5864878642854974e-17 -1.0
  outer loop
    vertex 1.102182119232618e-15 -18.0 2.8199664825478975e-15
    vertex -1.4142135623730947 -1.4142135623730951 0.0
    vertex -0.9999999999999998 -1.732050807568877 0.0
  endloop
endfacet
facet normal 4.6869617315283924e-18 1.5864878642854974e-17 -1.0
  outer loop
    vertex 1.102182119232618e-15 -18.0 2.8199664825478975e-15
    vertex -0.9999999999999998 -1.732050807568877 0.0
    vertex -0.5176380902050416 -1.9318516525781364 0.0
  endloop
endfacet
facet normal 4.6869617315283924e-18 1.5864878642854974e-17 -1.0
  outer loop
    vertex 1.102182119232618e-15 -18.0 2.8199664825478975e-15
    vertex -0.5176380902050416 -1.9318516525781364 0.0
    vertex 1.224646799147355e-16 -1.9999999999999998 0.0
  endloop
endfacet
facet normal 4.6869617315283924e-18 1.5864878642854974e-17 -1.0
  outer loop
    vertex 1.102182119232618e-15 -18.0 2.8199664825478975e-15
    vertex 1.224646799147355e-16 -1.9999999999999998 0.0
    vertex 0.5176380902050414 -1.9318516525781364 0.0
  endloop
endfacet
facet normal 4.6869617315283924e-18 1.5864878642854974e-17 -1.0
  outer loop
    vertex 1.102182119232618e-15 -18.0 2.8199664825478975e-15
    vertex 0.5176380902050414 -1.9318516525781364 0.0
    vertex 4.658742811845378 -17.38666487320323 2.8199664825478975e-15
  endloop
endfacet
facet normal 4.6869617315283924e-18 1.5864878642854974e-17 -1.0
  outer loop
    vertex 4.658742811845378 -17.38666487320323 2.8199664825478975e-15
    vertex 0.5176380902050414 -1.9318516525781364 0.0
    vertex 0.9999999999999994 -1.7320508075688772 0.0
  endloop
endfacet
facet normal 4.6869617315283924e-18 1.5864878642854974e-17 -1.0
  outer loop
    vertex 4.658742811845378 -17.38666487320323 2.8199664825478975e-15
    vertex 0.9999999999999994 -1.7320508075688772 0.0
    vertex 1.414213562373095 -1.414213562373095 0.0
  endloop
endfacet
facet normal 4.6869617315283924e-18 1.5864878642854974e-17 -1.0
  outer loop
    vertex 4.658742811845378 -17.38666487320323 2.8199664825478975e-15
    vertex 1.414213562373095 -1.414213562373095 0.0
    vertex 1.7320508075688765 -1.0000000000000004 0.0
  endloop
endfacet
facet normal 4.6869617315283924e-18 1.5864878642854974e-17 -1.0
  outer loop
    vertex 4.658742811845378 -17.38666487320323 2.8199664825478975e-15
    vertex 1.7320508075688765 -1.0000000000000004 0.0
    vertex 1.931851652578136 -0.5176380902050417 0.0
  endloop
endfacet
facet normal 4.6869617315283924e-18 1.5864878642854974e-17 -1.0
  outer loop
    vertex 4.658742811845378 -17.38666487320323 2.8199664825478975e-15
    vertex 1.931851652578136 -0.5176380902050417 0.0
    vertex 1.9999999999999996 1.1740468940984588e-31 0.0
  endloop
endfacet
facet normal 4.6869617315283924e-18 1.5864878642854974e-17 -1.0
  outer loop
    vertex 4.658742811845378 -17.38666487320323 2.8199664825478975e-15
    vertex 1.9999999999999996 1.1740468940984588e-31 0.0
    vertex 4.658742811845365 17.386664873203234 2.8199664825478975e-15
  endloop
endfacet
facet normal 4.6869617315283924e-18 1.5864878642854974e-17 -1.0
  outer loop
    vertex 4.658742811845378 -17.38666487320323 2.8199664825478975e-15
    vertex 4.658742811845365 17.386664873203234 2.8199664825478975e-15
    vertex 8.999999999999988 15.588457268119901 2.8199664825478975e-15
  endloop
endfacet
facet normal 4.6869617315283924e-18 1.5864878642854974e-17 -1.0
  outer loop
    vertex 4.658742811845378 -17.38666487320323 2.8199664825478975e-15
    vertex 8.999999999999988 15.588457268119901 2.8199664825478975e-15
    vertex 9.000000000000002 -15.588457268119896 2.8199664825478975e-15
  endloop
endfacet
facet normal 4.6869617315283924e-18 1.5864878642854974e-17 -1.0
  outer loop
    vertex 9.000000000000002 -15.588457268119896 2.8199664825478975e-15
    vertex 8.999999999999988 15.588457268119901 2.8199664825478975e-15
    vertex 12.727922061357853 12.727922061357859 2.8199664825478975e-15
  endloop
endfacet
facet normal 4.6869617315283924e-18 1.5864878642854974e-17 -1.0
  outer loop
    vertex 9.000000000000002 -15.588457268119896 2.8199664825478975e-15
    vertex 12.727922061357853 12.727922061357859 2.8199664825478975e-15
    vertex 12.727922061357857 -12.727922061357857 2.8199664825478975e-15
  endloop
endfacet
facet normal 4.6869617315283924e-18 1.5864878642854974e-17 -1.0
  outer loop
    vertex 12.727922061357857 -12.727922061357857 2.8199664825478975e-15
    vertex 12.727922061357853 12.727922061357859 2.8199664825478975e-15
    vertex 15.58845726811989 9.000000000000009 2.8199664825478975e-15
  endloop
endfacet
facet normal 4.6869617315283924e-18 1.5864878642854974e-17 -1.0
  outer loop
    vertex 12.727922061357857 -12.727922061357857 2.8199664825478975e-15
    vertex 15.58845726811989 9.000000000000009 2.8199664825478975e-15
    vertex 15.588457268119896 -8.999999999999998 2.8199664825478975e-15
  endloop
endfacet
facet normal 4.6869617315283924e-18 1.5864878642854974e-17 -1.0
  outer loop
    vertex 15.588457268119896 -8.999999999999998 2.8199664825478975e-15
    vertex 15.58845726811989 9.000000000000009 2.8199664825478975e-15
    vertex 17.386664873203227 4.658742811845388 2.8199664825478975e-15
  endloop
endfacet
facet normal 4.6869617315283924e-18 1.5864878642854974e-17 -1.0
  outer loop
    vertex 15.588457268119896 -8.999999999999998 2.8199664825478975e-15
    vertex 17.386664873203227 4.658742811845388 2.8199664825478975e-15
    vertex 17.38666487320323 -4.658742811845374 2.8199664825478975e-15
  endloop
endfacet
facet normal 4.6869617315283924e-18 1.5864878642854974e-17 -1.0
  outer loop
    vertex 17.38666487320323 -4.658742811845374 2.8199664825478975e-15
    vertex 17.386664873203227 4.658742811845388 2.8199664825478975e-15
    vertex 18.0 0.0 2.8199664825478975e-15
  endloop
endfacet
facet normal 6.94157691140554e-18 3.127208696743866e-17 1.0
  outer loop
    vertex -15.588457268119894 -9.000000000000005 16.39999999999999
    vertex -14.995785272274588 -4.018108553576503 16.400000000000002
    vertex -15.524779298930211 -1.2536228064367555e-15 16.400000000000002
  endloop
endfacet
facet normal 6.94157691140554e-18 3.127208696743866e-17 1.0
  outer loop
    vertex -14.995785272274588 -4.018108553576503 16.400000000000002
    vertex -15.588457268119894 -9.000000000000005 16.39999999999999
    vertex -12.727922061357857 -12.727922061357857 16.39999999999999
  endloop
endfacet
facet normal 6.94157691140554e-18 3.127208696743866e-17 1.0
  outer loop
    vertex -14.995785272274588 -4.018108553576503 16.400000000000002
    vertex -12.727922061357857 -12.727922061357857 16.39999999999999
    vertex -13.44485326102033 -7.762389649465109 16.400000000000002
  endloop
endfacet
facet normal 6.94157691140554e-18 3.127208696743866e-17 1.0
  outer loop
    vertex -13.44485326102033 -7.762389649465109 16.400000000000002
    vertex -12.727922061357857 -12.727922061357857 16.39999999999999
    vertex -10.977676718698088 -10.977676718698088 16.400000000000002
  endloop
endfacet
facet normal 6.94157691140554e-18 3.127208696743866e-17 1.0
  outer loop
    vertex -10.977676718698088 -10.977676718698088 16.400000000000002
    vertex -12.727922061357857 -12.727922061357857 16.39999999999999
    vertex -8.999999999999996 -15.588457268119896 16.39999999999999
  endloop
endfacet
facet normal 6.94157691140554e-18 3.127208696743866e-17 1.0
  outer loop
    vertex -10.977676718698088 -10.977676718698088 16.400000000000002
    vertex -8.999999999999996 -15.588457268119896 16.39999999999999
    vertex -7.762389649465103 -13.444853261020333 16.400000000000002
  endloop
endfacet
facet normal 6.94157691140554e-18 3.127208696743866e-17 1.0
  outer loop
    vertex -7.762389649465103 -13.444853261020333 16.400000000000002
    vertex -8.999999999999996 -15.588457268119896 16.39999999999999
    vertex -4.6587428118453715 -17.38666487320323 16.39999999999999
  endloop
endfacet
facet normal 6.94157691140554e-18 3.127208696743866e-17 1.0
  outer loop
    vertex -7.762389649465103 -13.444853261020333 16.400000000000002
    vertex -4.6587428118453715 -17.38666487320323 16.39999999999999
    vertex -4.018108553576498 -14.995785272274588 16.400000000000002
  endloop
endfacet
facet normal 6.94157691140554e-18 3.127208696743866e-17 1.0
  outer loop
    vertex -4.018108553576498 -14.995785272274588 16.400000000000002
    vertex -4.6587428118453715 -17.38666487320323 16.39999999999999
    vertex 1.1368900037896456e-15 -18.0 16.39999999999999
  endloop
endfacet
facet normal 6.94157691140554e-18 3.127208696743866e-17 1.0
  outer loop
    vertex -4.018108553576498 -14.995785272274588 16.400000000000002
    vertex 1.1368900037896456e-15 -18.0 16.39999999999999
    vertex 1.4446911258309764e-15 -15.524779298930211 16.400000000000002
  endloop
endfacet
facet normal 6.94157691140554e-18 3.127208696743866e-17 1.0
  outer loop
    vertex 1.4446911258309764e-15 -15.524779298930211 16.400000000000002
    vertex 1.1368900037896456e-15 -18.0 16.39999999999999
    vertex 4.658742811845378 -17.38666487320323 16.39999999999999
  endloop
endfacet
facet normal 6.94157691140554e-18 3.127208696743866e-17 1.0
  outer loop
    vertex 1.4446911258309764e-15 -15.524779298930211 16.400000000000002
    vertex 4.658742811845378 -17.38666487320323 16.39999999999999
    vertex 4.018108553576502 -14.995785272274588 16.400000000000002
  endloop
endfacet
facet normal 6.94157691140554e-18 3.127208696743866e-17 1.0
  outer loop
    vertex 4.018108553576502 -14.995785272274588 16.400000000000002
    vertex 4.658742811845378 -17.38666487320323 16.39999999999999
    vertex 7.762389649465107 -13.444853261020333 16.400000000000002
  endloop
endfacet
facet normal 6.94157691140554e-18 3.127208696743866e-17 1.0
  outer loop
    vertex 7.762389649465107 -13.444853261020333 16.400000000000002
    vertex 4.658742811845378 -17.38666487320323 16.39999999999999
    vertex 9.000000000000002 -15.588457268119896 16.39999999999999
  endloop
endfacet
facet normal 6.94157691140554e-18 3.127208696743866e-17 1.0
  outer loop
    vertex 7.762389649465107 -13.444853261020333 16.400000000000002
    vertex 9.000000000000002 -15.588457268119896 16.39999999999999
    vertex 10.977676718698088 -10.977676718698088 16.400000000000002
  endloop
endfacet
facet normal 6.94157691140554e-18 3.127208696743866e-17 1.0
  outer loop
    vertex 10.977676718698088 -10.977676718698088 16.400000000000002
    vertex 9.000000000000002 -15.588457268119896 16.39999999999999
    vertex 12.727922061357857 -12.727922061357857 16.39999999999999
  endloop
endfacet
facet normal 6.94157691140554e-18 3.127208696743866e-17 1.0
  outer loop
    vertex 10.977676718698088 -10.977676718698088 16.400000000000002
    vertex 12.727922061357857 -12.727922061357857 16.39999999999999
    vertex 13.444853261020338 -7.762389649465096 16.400000000000002
  endloop
endfacet
facet normal 6.94157691140554e-18 3.127208696743866e-17 1.0
  outer loop
    vertex 13.444853261020338 -7.762389649465096 16.400000000000002
    vertex 12.727922061357857 -12.727922061357857 16.39999999999999
    vertex 15.588457268119896 -8.999999999999998 16.39999999999999
  endloop
endfacet
facet normal 6.94157691140554e-18 3.127208696743866e-17 1.0
  outer loop
    vertex 13.444853261020338 -7.762389649465096 16.400000000000002
    vertex 15.588457268119896 -8.999999999999998 16.39999999999999
    vertex 14.99578527227459 -4.018108553576491 16.400000000000002
  endloop
endfacet
facet normal 6.94157691140554e-18 3.127208696743866e-17 1.0
  outer loop
    vertex 14.99578527227459 -4.018108553576491 16.400000000000002
    vertex 15.588457268119896 -8.999999999999998 16.39999999999999
    vertex 15.524779298930211 4.386310158659039e-15 16.400000000000002
  endloop
endfacet
facet normal 6.94157691140554e-18 3.127208696743866e-17 1.0
  outer loop
    vertex 15.524779298930211 4.386310158659039e-15 16.400000000000002
    vertex 15.588457268119896 -8.999999999999998 16.39999999999999
    vertex 15.58845726811989 9.000000000000009 16.39999999999999
  endloop
endfacet
facet normal 6.94157691140554e-18 3.127208696743866e-17 1.0
  outer loop
    vertex 15.58845726811989 9.000000000000009 16.39999999999999
    vertex 15.588457268119896 -8.999999999999998 16.39999999999999
    vertex 17.386664873203227 4.658742811845388 16.39999999999999
  endloop
endfacet
facet normal 6.94157691140554e-18 3.127208696743866e-17 1.0
  outer loop
    vertex 17.386664873203227 4.658742811845388 16.39999999999999
    vertex 15.588457268119896 -8.999999999999998 16.39999999999999
    vertex 17.38666487320323 -4.658742811845374 16.39999999999999
  endloop
endfacet
facet normal 6.94157691140554e-18 3.127208696743866e-17 1.0
  outer loop
    vertex 17.386664873203227 4.658742811845388 16.39999999999999
    vertex 17.38666487320323 -4.658742811845374 16.39999999999999
    vertex 18.0 1.5636043483719322e-16 16.39999999999999
  endloop
endfacet
facet normal 6.94157691140554e-18 3.127208696743866e-17 1.0
  outer loop
    vertex -17.38666487320323 -4.658742811845379 16.39999999999999
    vertex -17.386664873203234 4.658742811845367 16.39999999999999
    vertex -18.0 -2.0480038036280426e-15 16.39999999999999
  endloop
endfacet
facet normal 6.94157691140554e-18 3.127208696743866e-17 1.0
  outer loop
    vertex -17.386664873203234 4.658742811845367 16.39999999999999
    vertex -17.38666487320323 -4.658742811845379 16.39999999999999
    vertex -15.5884572681199 8.999999999999995 16.39999999999999
  endloop
endfacet
facet normal 6.94157691140554e-18 3.127208696743866e-17 1.0
  outer loop
    vertex -15.5884572681199 8.999999999999995 16.39999999999999
    vertex -17.38666487320323 -4.658742811845379 16.39999999999999
    vertex -15.588457268119894 -9.000000000000005 16.39999999999999
  endloop
endfacet
facet normal 6.94157691140554e-18 3.127208696743866e-17 1.0
  outer loop
    vertex -15.5884572681199 8.999999999999995 16.39999999999999
    vertex -15.588457268119894 -9.000000000000005 16.39999999999999
    vertex -15.524779298930211 -1.2536228064367555e-15 16.400000000000002
  endloop
endfacet
facet normal 6.94157691140554e-18 3.127208696743866e-17 1.0
  outer loop
    vertex -15.5884572681199 8.999999999999995 16.39999999999999
    vertex -15.524779298930211 -1.2536228064367555e-15 16.400000000000002
    vertex -14.995785272274588 4.018108553576493 16.400000000000002
  endloop
endfacet
facet normal 6.94157691140554e-18 3.127208696743866e-17 1.0
  outer loop
    vertex -15.5884572681199 8.999999999999995 16.39999999999999
    vertex -14.995785272274588 4.018108553576493 16.400000000000002
    vertex -12.727922061357862 12.727922061357848 16.39999999999999
  endloop
endfacet
facet normal 6.94157691140554e-18 3.127208696743866e-17 1.0
  outer loop
    vertex -12.727922061357862 12.727922061357848 16.39999999999999
    vertex -14.995785272274588 4.018108553576493 16.400000000000002
    vertex -13.444853261020333 7.762389649465103 16.400000000000002
  endloop
endfacet
facet normal 6.94157691140554e-18 3.127208696743866e-17 1.0
  outer loop
    vertex -12.727922061357862 12.727922061357848 16.39999999999999
    vertex -13.444853261020333 7.762389649465103 16.400000000000002
    vertex -10.97767671869809 10.977676718698088 16.400000000000002
  endloop
endfacet
facet normal 6.94157691140554e-18 3.127208696743866e-17 1.0
  outer loop
    vertex -12.727922061357862 12.727922061357848 16.39999999999999
    vertex -10.97767671869809 10.977676718698088 16.400000000000002
    vertex -9.000000000000009 15.58845726811989 16.39999999999999
  endloop
endfacet
facet normal 6.94157691140554e-18 3.127208696743866e-17 1.0
  outer loop
    vertex -9.000000000000009 15.58845726811989 16.39999999999999
    vertex -10.97767671869809 10.977676718698088 16.400000000000002
    vertex -7.762389649465112 13.444853261020327 16.400000000000002
  endloop
endfacet
facet normal 6.94157691140554e-18 3.127208696743866e-17 1.0
  outer loop
    vertex -9.000000000000009 15.58845726811989 16.39999999999999
    vertex -7.762389649465112 13.444853261020327 16.400000000000002
    vertex -4.6587428118453875 17.386664873203227 16.39999999999999
  endloop
endfacet
facet normal 6.94157691140554e-18 3.127208696743866e-17 1.0
  outer loop
    vertex -4.6587428118453875 17.386664873203227 16.39999999999999
    vertex -7.762389649465112 13.444853261020327 16.400000000000002
    vertex -4.018108553576504 14.995785272274588 16.400000000000002
  endloop
endfacet
facet normal 6.94157691140554e-18 3.127208696743866e-17 1.0
  outer loop
    vertex -4.6587428118453875 17.386664873203227 16.39999999999999
    vertex -4.018108553576504 14.995785272274588 16.400000000000002
    vertex -3.271838473140826e-15 18.0 16.39999999999999
  endloop
endfacet
facet normal 6.94157691140554e-18 3.127208696743866e-17 1.0
  outer loop
    vertex -3.271838473140826e-15 18.0 16.39999999999999
    vertex -4.018108553576504 14.995785272274588 16.400000000000002
    vertex -7.015208321812716e-15 15.524779298930211 16.400000000000002
  endloop
endfacet
facet normal 6.94157691140554e-18 3.127208696743866e-17 1.0
  outer loop
    vertex -3.271838473140826e-15 18.0 16.39999999999999
    vertex -7.015208321812716e-15 15.524779298930211 16.400000000000002
    vertex 2.329371405922681 15.218111735531828 16.399999999999995
  endloop
endfacet
facet normal 6.94157691140554e-18 3.127208696743866e-17 1.0
  outer loop
    vertex -3.271838473140826e-15 18.0 16.39999999999999
    vertex 2.329371405922681 15.218111735531828 16.399999999999995
    vertex 2.329371405922681 17.693332436601615 16.39999999999999
  endloop
endfacet
facet normal 6.94157691140554e-18 3.127208696743866e-17 1.0
  outer loop
    vertex 2.329371405922681 17.693332436601615 16.39999999999999
    vertex 2.329371405922681 15.218111735531828 16.399999999999995
    vertex 4.018108553576491 14.99578527227459 16.400000000000002
  endloop
endfacet
facet normal 6.94157691140554e-18 3.127208696743866e-17 1.0
  outer loop
    vertex 2.329371405922681 17.693332436601615 16.39999999999999
    vertex 4.018108553576491 14.99578527227459 16.400000000000002
    vertex 4.658742811845365 17.386664873203234 16.39999999999999
  endloop
endfacet
facet normal 6.94157691140554e-18 3.127208696743866e-17 1.0
  outer loop
    vertex 4.658742811845365 17.386664873203234 16.39999999999999
    vertex 4.018108553576491 14.99578527227459 16.400000000000002
    vertex 7.7623896494650975 13.444853261020338 16.400000000000002
  endloop
endfacet
facet normal 6.94157691140554e-18 3.127208696743866e-17 1.0
  outer loop
    vertex 4.658742811845365 17.386664873203234 16.39999999999999
    vertex 7.7623896494650975 13.444853261020338 16.400000000000002
    vertex 6.829371405922677 16.487561070661567 16.39999999999999
  endloop
endfacet
facet normal 6.94157691140554e-18 3.127208696743866e-17 1.0
  outer loop
    vertex 6.829371405922677 16.487561070661567 16.39999999999999
    vertex 7.7623896494650975 13.444853261020338 16.400000000000002
    vertex 8.999999999999988 15.588457268119901 16.39999999999999
  endloop
endfacet
facet normal 6.94157691140554e-18 3.127208696743866e-17 1.0
  outer loop
    vertex 8.999999999999988 15.588457268119901 16.39999999999999
    vertex 7.7623896494650975 13.444853261020338 16.400000000000002
    vertex 10.977676718698088 10.97767671869809 16.400000000000002
  endloop
endfacet
facet normal 6.94157691140554e-18 3.127208696743866e-17 1.0
  outer loop
    vertex 8.999999999999988 15.588457268119901 16.39999999999999
    vertex 10.977676718698088 10.97767671869809 16.400000000000002
    vertex 12.727922061357853 12.727922061357859 16.39999999999999
  endloop
endfacet
facet normal 6.94157691140554e-18 3.127208696743866e-17 1.0
  outer loop
    vertex 12.727922061357853 12.727922061357859 16.39999999999999
    vertex 10.977676718698088 10.97767671869809 16.400000000000002
    vertex 13.444853261020327 7.762389649465112 16.400000000000002
  endloop
endfacet
facet normal 6.94157691140554e-18 3.127208696743866e-17 1.0
  outer loop
    vertex 12.727922061357853 12.727922061357859 16.39999999999999
    vertex 13.444853261020327 7.762389649465112 16.400000000000002
    vertex 15.58845726811989 9.000000000000009 16.39999999999999
  endloop
endfacet
facet normal 6.94157691140554e-18 3.127208696743866e-17 1.0
  outer loop
    vertex 15.58845726811989 9.000000000000009 16.39999999999999
    vertex 13.444853261020327 7.762389649465112 16.400000000000002
    vertex 14.995785272274585 4.018108553576509 16.400000000000002
  endloop
endfacet
facet normal 6.94157691140554e-18 3.127208696743866e-17 1.0
  outer loop
    vertex 15.58845726811989 9.000000000000009 16.39999999999999
    vertex 14.995785272274585 4.018108553576509 16.400000000000002
    vertex 15.524779298930211 4.386310158659039e-15 16.400000000000002
  endloop
endfacet
facet normal -0.7933533402912354 0.6087614290087207 -0.0
  outer loop
    vertex 1.7320508075688765 -1.0000000000000004 1.400000000000006
    vertex 1.414213562373095 -1.414213562373095 0.0
    vertex 1.414213562373095 -1.414213562373095 1.400000000000006
  endloop
endfacet
facet normal -0.7933533402912354 0.6087614290087207 -0.0
  outer loop
    vertex 1.414213562373095 -1.414213562373095 0.0
    vertex 1.7320508075688765 -1.0000000000000004 1.400000000000006
    vertex 1.7320508075688765 -1.0000000000000004 0.0
  endloop
endfacet
facet normal -0.3826834323650898 0.9238795325112868 -0.0
  outer loop
    vertex 0.5176380902050414 -1.9318516525781364 1.400000000000006
    vertex 0.9999999999999994 -1.7320508075688772 0.0
    vertex 0.5176380902050414 -1.9318516525781364 0.0
  endloop
endfacet
facet normal -0.3826834323650898 0.9238795325112868 -0.0
  outer loop
    vertex 0.9999999999999994 -1.7320508075688772 0.0
    vertex 0.5176380902050414 -1.9318516525781364 1.400000000000006
    vertex 0.9999999999999994 -1.7320508075688772 1.400000000000006
  endloop
endfacet
facet normal -0.6087614290087204 0.7933533402912354 -0.0
  outer loop
    vertex 0.9999999999999994 -1.7320508075688772 1.400000000000006
    vertex 1.414213562373095 -1.414213562373095 0.0
    vertex 0.9999999999999994 -1.7320508075688772 0.0
  endloop
endfacet
facet normal -0.6087614290087204 0.7933533402912354 -0.0
  outer loop
    vertex 1.414213562373095 -1.414213562373095 0.0
    vertex 0.9999999999999994 -1.7320508075688772 1.400000000000006
    vertex 1.414213562373095 -1.414213562373095 1.400000000000006
  endloop
endfacet
facet normal -0.9238795325112867 0.38268343236508984 -0.0
  outer loop
    vertex 1.931851652578136 -0.5176380902050417 1.400000000000006
    vertex 1.7320508075688765 -1.0000000000000004 0.0
    vertex 1.7320508075688765 -1.0000000000000004 1.400000000000006
  endloop
endfacet
facet normal -0.9238795325112867 0.38268343236508984 -0.0
  outer loop
    vertex 1.7320508075688765 -1.0000000000000004 0.0
    vertex 1.931851652578136 -0.5176380902050417 1.400000000000006
    vertex 1.931851652578136 -0.5176380902050417 0.0
  endloop
endfacet
facet normal -0.1305261922200518 0.9914448613738104 -0.0
  outer loop
    vertex 1.224646799147355e-16 -1.9999999999999998 1.400000000000006
    vertex 0.5176380902050414 -1.9318516525781364 0.0
    vertex 1.224646799147355e-16 -1.9999999999999998 0.0
  endloop
endfacet
facet normal -0.1305261922200518 0.9914448613738104 -0.0
  outer loop
    vertex 0.5176380902050414 -1.9318516525781364 0.0
    vertex 1.224646799147355e-16 -1.9999999999999998 1.400000000000006
    vertex 0.5176380902050414 -1.9318516525781364 1.400000000000006
  endloop
endfacet
facet normal 0.1305261922200517 0.9914448613738105 0.0
  outer loop
    vertex -0.5176380902050416 -1.9318516525781364 1.400000000000006
    vertex 1.224646799147355e-16 -1.9999999999999998 0.0
    vertex -0.5176380902050416 -1.9318516525781364 0.0
  endloop
endfacet
facet normal 0.1305261922200517 0.9914448613738105 0.0
  outer loop
    vertex 1.224646799147355e-16 -1.9999999999999998 0.0
    vertex -0.5176380902050416 -1.9318516525781364 1.400000000000006
    vertex 1.224646799147355e-16 -1.9999999999999998 1.400000000000006
  endloop
endfacet
facet normal 0.3826834323650903 0.9238795325112867 0.0
  outer loop
    vertex -0.9999999999999998 -1.732050807568877 1.400000000000006
    vertex -0.5176380902050416 -1.9318516525781364 0.0
    vertex -0.9999999999999998 -1.732050807568877 0.0
  endloop
endfacet
facet normal 0.3826834323650903 0.9238795325112867 0.0
  outer loop
    vertex -0.5176380902050416 -1.9318516525781364 0.0
    vertex -0.9999999999999998 -1.732050807568877 1.400000000000006
    vertex -0.5176380902050416 -1.9318516525781364 1.400000000000006
  endloop
endfacet
facet normal 0.6087614290087203 0.7933533402912356 0.0
  outer loop
    vertex -1.4142135623730947 -1.4142135623730951 1.400000000000006
    vertex -0.9999999999999998 -1.732050807568877 0.0
    vertex -1.4142135623730947 -1.4142135623730951 0.0
  endloop
endfacet
facet normal 0.6087614290087203 0.7933533402912356 0.0
  outer loop
    vertex -0.9999999999999998 -1.732050807568877 0.0
    vertex -1.4142135623730947 -1.4142135623730951 1.400000000000006
    vertex -0.9999999999999998 -1.732050807568877 1.400000000000006
  endloop
endfacet
facet normal 0.7933533402912353 0.6087614290087205 0.0
  outer loop
    vertex -1.732050807568877 -0.9999999999999999 0.0
    vertex -1.4142135623730947 -1.4142135623730951 1.400000000000006
    vertex -1.4142135623730947 -1.4142135623730951 0.0
  endloop
endfacet
facet normal 0.7933533402912353 0.6087614290087205 0.0
  outer loop
    vertex -1.4142135623730947 -1.4142135623730951 1.400000000000006
    vertex -1.732050807568877 -0.9999999999999999 0.0
    vertex -1.732050807568877 -0.9999999999999999 1.400000000000006
  endloop
endfacet
facet normal 0.9238795325112868 0.3826834323650896 0.0
  outer loop
    vertex -1.931851652578136 -0.5176380902050417 0.0
    vertex -1.732050807568877 -0.9999999999999999 1.400000000000006
    vertex -1.732050807568877 -0.9999999999999999 0.0
  endloop
endfacet
facet normal 0.9238795325112868 0.3826834323650896 0.0
  outer loop
    vertex -1.732050807568877 -0.9999999999999999 1.400000000000006
    vertex -1.931851652578136 -0.5176380902050417 0.0
    vertex -1.931851652578136 -0.5176380902050417 1.400000000000006
  endloop
endfacet
facet normal 0.9914448613738104 0.13052619222005174 0.0
  outer loop
    vertex -1.9999999999999996 -2.4492935982947074e-16 0.0
    vertex -1.931851652578136 -0.5176380902050417 1.400000000000006
    vertex -1.931851652578136 -0.5176380902050417 0.0
  endloop
endfacet
facet normal 0.9914448613738104 0.13052619222005174 0.0
  outer loop
    vertex -1.931851652578136 -0.5176380902050417 1.400000000000006
    vertex -1.9999999999999996 -2.4492935982947074e-16 0.0
    vertex -1.9999999999999996 -2.4492935982947074e-16 1.400000000000006
  endloop
endfacet
facet normal 0.9914448613738104 -0.13052619222005202 -0.0
  outer loop
    vertex -1.9318516525781357 0.5176380902050428 0.0
    vertex -1.9999999999999996 -2.4492935982947074e-16 1.400000000000006
    vertex -1.9999999999999996 -2.4492935982947074e-16 0.0
  endloop
endfacet
facet normal 0.9914448613738104 -0.13052619222005202 -0.0
  outer loop
    vertex -1.9999999999999996 -2.4492935982947074e-16 1.400000000000006
    vertex -1.9318516525781357 0.5176380902050428 0.0
    vertex -1.9318516525781357 0.5176380902050428 1.400000000000006
  endloop
endfacet
facet normal 0.9238795325112865 -0.38268343236509045 -0.0
  outer loop
    vertex -1.7320508075688763 1.0000000000000007 0.0
    vertex -1.9318516525781357 0.5176380902050428 1.400000000000006
    vertex -1.9318516525781357 0.5176380902050428 0.0
  endloop
endfacet
facet normal 0.9238795325112865 -0.38268343236509045 -0.0
  outer loop
    vertex -1.9318516525781357 0.5176380902050428 1.400000000000006
    vertex -1.7320508075688763 1.0000000000000007 0.0
    vertex -1.7320508075688763 1.0000000000000007 1.400000000000006
  endloop
endfacet
facet normal 0.7933533402912354 -0.6087614290087207 -0.0
  outer loop
    vertex -1.4142135623730945 1.4142135623730951 0.0
    vertex -1.7320508075688763 1.0000000000000007 1.400000000000006
    vertex -1.7320508075688763 1.0000000000000007 0.0
  endloop
endfacet
facet normal 0.7933533402912354 -0.6087614290087207 -0.0
  outer loop
    vertex -1.7320508075688763 1.0000000000000007 1.400000000000006
    vertex -1.4142135623730945 1.4142135623730951 0.0
    vertex -1.4142135623730945 1.4142135623730951 1.400000000000006
  endloop
endfacet
facet normal 0.6087614290087207 -0.7933533402912354 -0.0
  outer loop
    vertex -0.9999999999999986 1.732050807568878 1.400000000000006
    vertex -1.4142135623730945 1.4142135623730951 0.0
    vertex -0.9999999999999986 1.732050807568878 0.0
  endloop
endfacet
facet normal 0.6087614290087207 -0.7933533402912354 -0.0
  outer loop
    vertex -1.4142135623730945 1.4142135623730951 0.0
    vertex -0.9999999999999986 1.732050807568878 1.400000000000006
    vertex -1.4142135623730945 1.4142135623730951 1.400000000000006
  endloop
endfacet
facet normal 0.3826834323650893 -0.923879532511287 -0.0
  outer loop
    vertex -0.5176380902050407 1.9318516525781366 1.400000000000006
    vertex -0.9999999999999986 1.732050807568878 0.0
    vertex -0.5176380902050407 1.9318516525781366 0.0
  endloop
endfacet
facet normal 0.3826834323650893 -0.923879532511287 -0.0
  outer loop
    vertex -0.9999999999999986 1.732050807568878 0.0
    vertex -0.5176380902050407 1.9318516525781366 1.400000000000006
    vertex -0.9999999999999986 1.732050807568878 1.400000000000006
  endloop
endfacet
facet normal 0.13052619222005127 -0.9914448613738106 -0.0
  outer loop
    vertex 1.2246467991473507e-16 1.9999999999999998 1.400000000000006
    vertex -0.5176380902050407 1.9318516525781366 0.0
    vertex 1.2246467991473507e-16 1.9999999999999998 0.0
  endloop
endfacet
facet normal 0.13052619222005127 -0.9914448613738106 -0.0
  outer loop
    vertex -0.5176380902050407 1.9318516525781366 0.0
    vertex 1.2246467991473507e-16 1.9999999999999998 1.400000000000006
    vertex -0.5176380902050407 1.9318516525781366 1.400000000000006
  endloop
endfacet
facet normal -0.13052619222005216 -0.9914448613738104 -0.0
  outer loop
    vertex 0.5176380902050426 1.931851652578136 1.400000000000006
    vertex 1.2246467991473507e-16 1.9999999999999998 0.0
    vertex 0.5176380902050426 1.931851652578136 0.0
  endloop
endfacet
facet normal -0.13052619222005216 -0.9914448613738104 -0.0
  outer loop
    vertex 1.2246467991473507e-16 1.9999999999999998 0.0
    vertex 0.5176380902050426 1.931851652578136 1.400000000000006
    vertex 1.2246467991473507e-16 1.9999999999999998 1.400000000000006
  endloop
endfacet
facet normal -0.38268343236509045 -0.9238795325112865 -0.0
  outer loop
    vertex 1.0000000000000004 1.7320508075688765 1.400000000000006
    vertex 0.5176380902050426 1.931851652578136 0.0
    vertex 1.0000000000000004 1.7320508075688765 0.0
  endloop
endfacet
facet normal -0.38268343236509045 -0.9238795325112865 -0.0
  outer loop
    vertex 0.5176380902050426 1.931851652578136 0.0
    vertex 1.0000000000000004 1.7320508075688765 1.400000000000006
    vertex 0.5176380902050426 1.931851652578136 1.400000000000006
  endloop
endfacet
facet normal -0.6087614290087208 -0.7933533402912352 -0.0
  outer loop
    vertex 1.4142135623730954 1.4142135623730943 1.400000000000006
    vertex 1.0000000000000004 1.7320508075688765 0.0
    vertex 1.4142135623730954 1.4142135623730943 0.0
  endloop
endfacet
facet normal -0.6087614290087208 -0.7933533402912352 -0.0
  outer loop
    vertex 1.0000000000000004 1.7320508075688765 0.0
    vertex 1.4142135623730954 1.4142135623730943 1.400000000000006
    vertex 1.0000000000000004 1.7320508075688765 1.400000000000006
  endloop
endfacet
facet normal -0.7933533402912354 -0.6087614290087205 -0.0
  outer loop
    vertex 1.4142135623730954 1.4142135623730943 1.400000000000006
    vertex 1.7320508075688772 0.9999999999999996 0.0
    vertex 1.7320508075688772 0.9999999999999996 1.400000000000006
  endloop
endfacet
facet normal -0.7933533402912354 -0.6087614290087205 -0.0
  outer loop
    vertex 1.7320508075688772 0.9999999999999996 0.0
    vertex 1.4142135623730954 1.4142135623730943 1.400000000000006
    vertex 1.4142135623730954 1.4142135623730943 0.0
  endloop
endfacet
facet normal -0.923879532511287 -0.38268343236508934 -0.0
  outer loop
    vertex 1.7320508075688772 0.9999999999999996 1.400000000000006
    vertex 1.9318516525781364 0.5176380902050409 0.0
    vertex 1.9318516525781364 0.5176380902050409 1.400000000000006
  endloop
endfacet
facet normal -0.923879532511287 -0.38268343236508934 -0.0
  outer loop
    vertex 1.9318516525781364 0.5176380902050409 0.0
    vertex 1.7320508075688772 0.9999999999999996 1.400000000000006
    vertex 1.7320508075688772 0.9999999999999996 0.0
  endloop
endfacet
facet normal -0.9914448613738106 -0.13052619222005124 -0.0
  outer loop
    vertex 1.9318516525781364 0.5176380902050409 1.400000000000006
    vertex 1.9999999999999996 1.1740468940984588e-31 0.0
    vertex 1.9999999999999996 1.1740468940984588e-31 1.400000000000006
  endloop
endfacet
facet normal -0.9914448613738106 -0.13052619222005124 -0.0
  outer loop
    vertex 1.9999999999999996 1.1740468940984588e-31 0.0
    vertex 1.9318516525781364 0.5176380902050409 1.400000000000006
    vertex 1.9318516525781364 0.5176380902050409 0.0
  endloop
endfacet
facet normal -0.9914448613738104 0.13052619222005168 -0.0
  outer loop
    vertex 1.9999999999999996 1.1740468940984588e-31 1.400000000000006
    vertex 1.931851652578136 -0.5176380902050417 0.0
    vertex 1.931851652578136 -0.5176380902050417 1.400000000000006
  endloop
endfacet
facet normal -0.9914448613738104 0.13052619222005168 -0.0
  outer loop
    vertex 1.931851652578136 -0.5176380902050417 0.0
    vertex 1.9999999999999996 1.1740468940984588e-31 1.400000000000006
    vertex 1.9999999999999996 1.1740468940984588e-31 0.0
  endloop
endfacet
endsolid banhxe01
