solid Untitled-5981f1eb
facet normal 0.5773502720563387 0.5773502720568358 0.5773502634557031
  outer loop
    vertex 11.500000264080718 -2.0000000000000004 -11.500000797925805
    vertex 11.500000264082441 -2.9796919220892448e-08 -13.500000797925807
    vertex 9.500000264080718 0.0 -11.500000797927528
  endloop
endfacet
facet normal 0.7071068114734974 5.267400964783643e-09 0.7071067508995964
  outer loop
    vertex 11.500000264082441 22.999999970203035 -13.500001140590403
    vertex 9.500000264080718 0.0 -11.500000797927528
    vertex 11.500000264082441 -2.9796919220892448e-08 -13.500000797925807
  endloop
endfacet
facet normal 0.7071068114734974 5.267400964783643e-09 0.7071067508995964
  outer loop
    vertex 9.500000264080718 0.0 -11.500000797927528
    vertex 11.500000264082441 22.999999970203035 -13.500001140590403
    vertex 9.500000264080718 22.99999999998817 -11.500000797927523
  endloop
endfacet
facet normal 0.7071067811865478 0.7071067811865472 6.091719538661858e-13
  outer loop
    vertex 9.500000264080718 0.0 -11.500000797927528
    vertex 11.50000026406952 -2.0000000000000004 1.499999202074186
    vertex 11.500000264080718 -2.0000000000000004 -11.500000797925805
  endloop
endfacet
facet normal 0.7071067811865478 0.7071067811865472 6.091719538661858e-13
  outer loop
    vertex 11.50000026406952 -2.0000000000000004 1.499999202074186
    vertex 9.500000264080718 0.0 -11.500000797927528
    vertex 9.500000264069522 0.0 1.4999992020724628
  endloop
endfacet
facet normal 3.3433334472016865e-08 -0.9999999999999996 2.5468863256469815e-09
  outer loop
    vertex 6.999999967382518 30.999999887869436 -23.100000642438797
    vertex -0.49999973594219166 30.99999967966349 15.099998814193825
    vertex -0.49999975510428657 30.999999551536735 -23.1000011113118
  endloop
endfacet
facet normal 3.3433334472016865e-08 -0.9999999999999996 2.5468863256469815e-09
  outer loop
    vertex -0.49999973594219166 30.99999967966349 15.099998814193825
    vertex 6.999999967382518 30.999999887869436 -23.100000642438797
    vertex 9.50000024614977 30.999999896254696 -20.60000057673205
  endloop
endfacet
facet normal 3.3433334472016865e-08 -0.9999999999999996 2.5468863256469815e-09
  outer loop
    vertex -0.49999973594219166 30.99999967966349 15.099998814193825
    vertex 9.50000024614977 30.999999896254696 -20.60000057673205
    vertex 9.500000264057807 31.00000000000965 15.099999202041968
  endloop
endfacet
facet normal 1.0 -1.5124649228045018e-16 -7.1781152873460765e-09
  outer loop
    vertex 11.500000092180885 -9.500000072579276 -22.1000010235099
    vertex 11.500000264080718 -2.0000000000000004 -11.500000797925805
    vertex 11.500000312105335 -9.500000000000002 15.099999205056434
  endloop
endfacet
facet normal 1.0 -1.5124649228045018e-16 -7.1781152873460765e-09
  outer loop
    vertex 11.500000264080718 -2.0000000000000004 -11.500000797925805
    vertex 11.500000092180885 -9.500000072579276 -22.1000010235099
    vertex 11.500000264082441 -2.9796919220892448e-08 -13.500000797925807
  endloop
endfacet
facet normal 1.0 -1.5124649228045018e-16 -7.1781152873460765e-09
  outer loop
    vertex 11.500000264082441 -2.9796919220892448e-08 -13.500000797925807
    vertex 11.500000092180885 -9.500000072579276 -22.1000010235099
    vertex 11.500000092180883 32.49999999823059 -22.100001114285778
  endloop
endfacet
facet normal 1.0 -1.5124649228045018e-16 -7.1781152873460765e-09
  outer loop
    vertex 11.500000312105335 -9.500000000000002 15.099999205056434
    vertex 11.500000264080718 -2.0000000000000004 -11.500000797925805
    vertex 11.500000439189195 -9.499999992846918 16.59999920505643
  endloop
endfacet
facet normal 1.0 -1.5124649228045018e-16 -7.1781152873460765e-09
  outer loop
    vertex 11.500000264082441 -2.9796919220892448e-08 -13.500000797925807
    vertex 11.500000092180883 32.49999999823059 -22.100001114285778
    vertex 11.500000264082441 22.999999970203035 -13.500001140590403
  endloop
endfacet
facet normal 1.0 -1.5124649228045018e-16 -7.1781152873460765e-09
  outer loop
    vertex 11.500000264082441 22.999999970203035 -13.500001140590403
    vertex 11.500000092180883 32.49999999823059 -22.100001114285778
    vertex 11.500000264080718 24.999999999988173 -11.500000797927616
  endloop
endfacet
facet normal 1.0 -1.5124649228045018e-16 -7.1781152873460765e-09
  outer loop
    vertex 11.500000264080718 24.999999999988173 -11.500000797927616
    vertex 11.500000092180883 32.49999999823059 -22.100001114285778
    vertex 11.50000026406952 25.0 1.4999992020723754
  endloop
endfacet
facet normal 1.0 -1.5124649228045018e-16 -7.1781152873460765e-09
  outer loop
    vertex 11.500000439189195 -9.499999992846918 16.59999920505643
    vertex 11.500000264067797 2.255973186038318e-12 3.4999992020741892
    vertex 11.500000439189199 32.500000081874035 16.599998812711995
  endloop
endfacet
facet normal 1.0 -1.5124649228045018e-16 -7.1781152873460765e-09
  outer loop
    vertex 11.500000264067797 2.255973186038318e-12 3.4999992020741892
    vertex 11.500000439189195 -9.499999992846918 16.59999920505643
    vertex 11.50000026406952 -2.0000000000000004 1.499999202074186
  endloop
endfacet
facet normal 1.0 -1.5124649228045018e-16 -7.1781152873460765e-09
  outer loop
    vertex 11.50000026406952 -2.0000000000000004 1.499999202074186
    vertex 11.500000439189195 -9.499999992846918 16.59999920505643
    vertex 11.500000264080718 -2.0000000000000004 -11.500000797925805
  endloop
endfacet
facet normal 1.0 -1.5124649228045018e-16 -7.1781152873460765e-09
  outer loop
    vertex 11.500000439189199 32.500000081874035 16.599998812711995
    vertex 11.500000264067797 2.255973186038318e-12 3.4999992020741892
    vertex 11.500000264067797 23.00000000000225 3.4999992020482456
  endloop
endfacet
facet normal 1.0 -1.5124649228045018e-16 -7.1781152873460765e-09
  outer loop
    vertex 11.500000439189199 32.500000081874035 16.599998812711995
    vertex 11.500000264067797 23.00000000000225 3.4999992020482456
    vertex 11.50000026406952 25.0 1.4999992020723754
  endloop
endfacet
facet normal 1.0 -1.5124649228045018e-16 -7.1781152873460765e-09
  outer loop
    vertex 11.500000439189199 32.500000081874035 16.599998812711995
    vertex 11.50000026406952 25.0 1.4999992020723754
    vertex 11.500000092180883 32.49999999823059 -22.100001114285778
  endloop
endfacet
facet normal -1.0 2.6883254059566237e-16 7.178115301651795e-09
  outer loop
    vertex -0.5000006228160268 -9.499999992846918 16.600000052280528
    vertex -0.5000007498998854 -8.000000053386144 15.100000050788372
    vertex -0.5000008651570419 -8.000000128126748 -23.099999876209413
  endloop
endfacet
facet normal -1.0 2.6883254059566237e-16 7.178115301651795e-09
  outer loop
    vertex -0.5000007498998854 -8.000000053386144 15.100000050788372
    vertex -0.5000006228160268 -9.499999992846918 16.600000052280528
    vertex -0.5000006228160154 32.500000081874035 16.600000052280553
  endloop
endfacet
facet normal -1.0 2.6883254059566237e-16 7.178115301651795e-09
  outer loop
    vertex -0.5000007498998854 -8.000000053386144 15.100000050788372
    vertex -0.5000006228160154 32.500000081874035 16.600000052280553
    vertex -0.49999973594219166 30.99999967966349 15.099998814193825
  endloop
endfacet
facet normal -1.0 2.6883254059566237e-16 7.178115301651795e-09
  outer loop
    vertex -0.49999973594219166 30.99999967966349 15.099998814193825
    vertex -0.5000006228160154 32.500000081874035 16.600000052280553
    vertex -0.5000009922408893 32.49999999282726 -24.59999987471722
  endloop
endfacet
facet normal -1.0 2.6883254059566237e-16 7.178115301651795e-09
  outer loop
    vertex -0.5000009922409006 -9.500000081893686 -24.59999987471725
    vertex -0.5000008651570419 -8.000000128126748 -23.099999876209413
    vertex -0.5000009922408893 32.49999999282726 -24.59999987471722
  endloop
endfacet
facet normal -1.0 2.6883254059566237e-16 7.178115301651795e-09
  outer loop
    vertex -0.5000008651570419 -8.000000128126748 -23.099999876209413
    vertex -0.5000009922409006 -9.500000081893686 -24.59999987471725
    vertex -0.5000007498998854 -9.500000000000002 15.100000052280532
  endloop
endfacet
facet normal -1.0 2.6883254059566237e-16 7.178115301651795e-09
  outer loop
    vertex -0.5000008651570419 -8.000000128126748 -23.099999876209413
    vertex -0.5000007498998854 -9.500000000000002 15.100000052280532
    vertex -0.5000006228160268 -9.499999992846918 16.600000052280528
  endloop
endfacet
facet normal -1.0 2.6883254059566237e-16 7.178115301651795e-09
  outer loop
    vertex -0.5000009922408893 32.49999999282726 -24.59999987471722
    vertex -0.5000008651570419 -8.000000128126748 -23.099999876209413
    vertex -0.49999975510428657 30.999999551536735 -23.1000011113118
  endloop
endfacet
facet normal -1.0 2.6883254059566237e-16 7.178115301651795e-09
  outer loop
    vertex -0.5000009922408893 32.49999999282726 -24.59999987471722
    vertex -0.49999975510428657 30.999999551536735 -23.1000011113118
    vertex -0.49999973594219166 30.99999967966349 15.099998814193825
  endloop
endfacet
facet normal -2.3043493422575484e-08 -1.5854140420354638e-08 -0.9999999999999998
  outer loop
    vertex -0.49999973594219166 30.99999967966349 15.099998814193825
    vertex 9.500000264057805 -8.0 15.099999202070395
    vertex -0.5000007498998854 -8.000000053386144 15.100000050788372
  endloop
endfacet
facet normal -2.3043493422575484e-08 -1.5854140420354638e-08 -0.9999999999999998
  outer loop
    vertex 9.500000264057805 -8.0 15.099999202070395
    vertex -0.49999973594219166 30.99999967966349 15.099998814193825
    vertex 9.500000264057807 31.00000000000965 15.099999202041968
  endloop
endfacet
facet normal -8.694968640149394e-08 -4.670766808922019e-09 -0.9999999999999962
  outer loop
    vertex -0.5000009922408893 32.49999999282726 -24.59999987471722
    vertex 9.00000006976434 -9.500000077982602 -24.600000765266472
    vertex -0.5000009922409006 -9.500000081893686 -24.59999987471725
  endloop
endfacet
facet normal -8.694968640149394e-08 -4.670766808922019e-09 -0.9999999999999962
  outer loop
    vertex 9.00000006976434 -9.500000077982602 -24.600000765266472
    vertex -0.5000009922408893 32.49999999282726 -24.59999987471722
    vertex 9.000000069764338 32.49999999282726 -24.600000856042353
  endloop
endfacet
facet normal 1.268282356816595e-10 -1.0 1.982365692922013e-09
  outer loop
    vertex 11.500000092180885 -9.500000072579276 -22.1000010235099
    vertex -0.5000009922409006 -9.500000081893686 -24.59999987471725
    vertex 9.00000006976434 -9.500000077982602 -24.600000765266472
  endloop
endfacet
facet normal 1.268282356816595e-10 -1.0 1.982365692922013e-09
  outer loop
    vertex -0.5000009922409006 -9.500000081893686 -24.59999987471725
    vertex 11.500000092180885 -9.500000072579276 -22.1000010235099
    vertex -0.5000007498998854 -9.500000000000002 15.100000052280532
  endloop
endfacet
facet normal 1.268282356816595e-10 -1.0 1.982365692922013e-09
  outer loop
    vertex -0.5000007498998854 -9.500000000000002 15.100000052280532
    vertex 11.500000092180885 -9.500000072579276 -22.1000010235099
    vertex 11.500000312105335 -9.500000000000002 15.099999205056434
  endloop
endfacet
facet normal -3.236148980926938e-16 1.0 -2.1613293447522543e-09
  outer loop
    vertex -0.5000009922408893 32.49999999282726 -24.59999987471722
    vertex 11.500000092180883 32.49999999823059 -22.100001114285778
    vertex 9.000000069764338 32.49999999282726 -24.600000856042353
  endloop
endfacet
facet normal -3.236148980926938e-16 1.0 -2.1613293447522543e-09
  outer loop
    vertex 11.500000092180883 32.49999999823059 -22.100001114285778
    vertex -0.5000009922408893 32.49999999282726 -24.59999987471722
    vertex -0.5000006228160154 32.500000081874035 16.600000052280553
  endloop
endfacet
facet normal -3.236148980926938e-16 1.0 -2.1613293447522543e-09
  outer loop
    vertex 11.500000092180883 32.49999999823059 -22.100001114285778
    vertex -0.5000006228160154 32.500000081874035 16.600000052280553
    vertex 11.500000439189199 32.500000081874035 16.599998812711995
  endloop
endfacet
facet normal 8.694968616649675e-08 4.67076680892202e-09 0.9999999999999962
  outer loop
    vertex 11.500000439189195 -9.499999992846918 16.59999920505643
    vertex -0.5000006228160154 32.500000081874035 16.600000052280553
    vertex -0.5000006228160268 -9.499999992846918 16.600000052280528
  endloop
endfacet
facet normal 8.694968616649675e-08 4.67076680892202e-09 0.9999999999999962
  outer loop
    vertex -0.5000006228160154 32.500000081874035 16.600000052280553
    vertex 11.500000439189195 -9.499999992846918 16.59999920505643
    vertex 11.500000439189199 32.500000081874035 16.599998812711995
  endloop
endfacet
facet normal 3.366812653881281e-16 -1.0 4.768721240111502e-09
  outer loop
    vertex 11.500000439189195 -9.499999992846918 16.59999920505643
    vertex -0.5000007498998854 -9.500000000000002 15.100000052280532
    vertex 11.500000312105335 -9.500000000000002 15.099999205056434
  endloop
endfacet
facet normal 3.366812653881281e-16 -1.0 4.768721240111502e-09
  outer loop
    vertex -0.5000007498998854 -9.500000000000002 15.100000052280532
    vertex 11.500000439189195 -9.499999992846918 16.59999920505643
    vertex -0.5000006228160268 -9.499999992846918 16.600000052280528
  endloop
endfacet
facet normal -2.351475342661865e-09 1.0 -2.697624593137075e-09
  outer loop
    vertex -0.5000008651570419 -8.000000128126748 -23.099999876209413
    vertex 9.500000246149776 -8.00000011974149 -20.60000044592202
    vertex 6.999999967382523 -8.000000128126748 -23.100000511628767
  endloop
endfacet
facet normal -2.351475342661865e-09 1.0 -2.697624593137075e-09
  outer loop
    vertex 9.500000246149776 -8.00000011974149 -20.60000044592202
    vertex -0.5000008651570419 -8.000000128126748 -23.099999876209413
    vertex -0.5000007498998854 -8.000000053386144 15.100000050788372
  endloop
endfacet
facet normal -2.351475342661865e-09 1.0 -2.697624593137075e-09
  outer loop
    vertex 9.500000246149776 -8.00000011974149 -20.60000044592202
    vertex -0.5000007498998854 -8.000000053386144 15.100000050788372
    vertex 9.500000264057805 -8.0 15.099999202070395
  endloop
endfacet
facet normal 0.7071067414952307 -1.5282915045215377e-09 -0.7071068208778623
  outer loop
    vertex 11.500000092180883 32.49999999823059 -22.100001114285778
    vertex 9.00000006976434 -9.500000077982602 -24.600000765266472
    vertex 9.000000069764338 32.49999999282726 -24.600000856042353
  endloop
endfacet
facet normal 0.7071067414952307 -1.5282915045215377e-09 -0.7071068208778623
  outer loop
    vertex 9.00000006976434 -9.500000077982602 -24.600000765266472
    vertex 11.500000092180883 32.49999999823059 -22.100001114285778
    vertex 11.500000092180885 -9.500000072579276 -22.1000010235099
  endloop
endfacet
facet normal -0.707106751055243 2.371709222365081e-09 0.7071068113178508
  outer loop
    vertex 6.999999967382523 -8.000000128126748 -23.100000511628767
    vertex 9.50000024614977 30.999999896254696 -20.60000057673205
    vertex 6.999999967382518 30.999999887869436 -23.100000642438797
  endloop
endfacet
facet normal -0.707106751055243 2.371709222365081e-09 0.7071068113178508
  outer loop
    vertex 9.50000024614977 30.999999896254696 -20.60000057673205
    vertex 6.999999967382523 -8.000000128126748 -23.100000511628767
    vertex 9.500000246149776 -8.00000011974149 -20.60000044592202
  endloop
endfacet
facet normal 1.1103094583925633e-08 1.7511697525539932e-08 0.9999999999999998
  outer loop
    vertex 6.999999967382523 -8.000000128126748 -23.100000511628767
    vertex -0.49999975510428657 30.999999551536735 -23.1000011113118
    vertex -0.5000008651570419 -8.000000128126748 -23.099999876209413
  endloop
endfacet
facet normal 1.1103094583925633e-08 1.7511697525539932e-08 0.9999999999999998
  outer loop
    vertex -0.49999975510428657 30.999999551536735 -23.1000011113118
    vertex 6.999999967382523 -8.000000128126748 -23.100000511628767
    vertex 6.999999967382518 30.999999887869436 -23.100000642438797
  endloop
endfacet
facet normal 0.707106781187157 -7.976288787011696e-13 -0.7071067811859382
  outer loop
    vertex 9.500000264069522 22.999999999999993 1.4999992020465178
    vertex 11.500000264067797 2.255973186038318e-12 3.4999992020741892
    vertex 9.500000264069522 0.0 1.4999992020724628
  endloop
endfacet
facet normal 0.707106781187157 -7.976288787011696e-13 -0.7071067811859382
  outer loop
    vertex 11.500000264067797 2.255973186038318e-12 3.4999992020741892
    vertex 9.500000264069522 22.999999999999993 1.4999992020465178
    vertex 11.500000264067797 23.00000000000225 3.4999992020482456
  endloop
endfacet
facet normal 0.5773502992961392 -0.5773502992961115 0.577350208976622
  outer loop
    vertex 11.500000264080718 24.999999999988173 -11.500000797927616
    vertex 9.500000264080718 22.99999999998817 -11.500000797927523
    vertex 11.500000264082441 22.999999970203035 -13.500001140590403
  endloop
endfacet
facet normal 0.7071067811865486 -0.7071067811865466 1.2523215516525665e-12
  outer loop
    vertex 11.500000264080718 24.999999999988173 -11.500000797927616
    vertex 9.500000264069522 22.999999999999993 1.4999992020465178
    vertex 9.500000264080718 22.99999999998817 -11.500000797927523
  endloop
endfacet
facet normal 0.7071067811865486 -0.7071067811865466 1.2523215516525665e-12
  outer loop
    vertex 9.500000264069522 22.999999999999993 1.4999992020465178
    vertex 11.500000264080718 24.999999999988173 -11.500000797927616
    vertex 11.50000026406952 25.0 1.4999992020723754
  endloop
endfacet
facet normal 0.5773502691926637 -0.5773502691851968 -0.577350269191017
  outer loop
    vertex 11.50000026406952 25.0 1.4999992020723754
    vertex 11.500000264067797 23.00000000000225 3.4999992020482456
    vertex 9.500000264069522 22.999999999999993 1.4999992020465178
  endloop
endfacet
facet normal 0.5773502691899064 0.5773502691894085 -0.5773502691895624
  outer loop
    vertex 11.500000264067797 2.255973186038318e-12 3.4999992020741892
    vertex 11.50000026406952 -2.0000000000000004 1.499999202074186
    vertex 9.500000264069522 0.0 1.4999992020724628
  endloop
endfacet
facet normal -1.0 9.321225311012068e-17 5.016254363518258e-10
  outer loop
    vertex 9.500000264057807 31.00000000000965 15.099999202041968
    vertex 9.500000264069522 0.0 1.4999992020724628
    vertex 9.500000264057805 -8.0 15.099999202070395
  endloop
endfacet
facet normal -1.0 9.321225311012068e-17 5.016254363518258e-10
  outer loop
    vertex 9.500000264069522 0.0 1.4999992020724628
    vertex 9.500000264057807 31.00000000000965 15.099999202041968
    vertex 9.500000264069522 22.999999999999993 1.4999992020465178
  endloop
endfacet
facet normal -1.0 9.321225311012068e-17 5.016254363518258e-10
  outer loop
    vertex 9.500000264069522 22.999999999999993 1.4999992020465178
    vertex 9.500000264057807 31.00000000000965 15.099999202041968
    vertex 9.50000024614977 30.999999896254696 -20.60000057673205
  endloop
endfacet
facet normal -1.0 9.321225311012068e-17 5.016254363518258e-10
  outer loop
    vertex 9.500000246149776 -8.00000011974149 -20.60000044592202
    vertex 9.500000264080718 0.0 -11.500000797927528
    vertex 9.50000024614977 30.999999896254696 -20.60000057673205
  endloop
endfacet
facet normal -1.0 9.321225311012068e-17 5.016254363518258e-10
  outer loop
    vertex 9.500000264080718 0.0 -11.500000797927528
    vertex 9.500000246149776 -8.00000011974149 -20.60000044592202
    vertex 9.500000264057805 -8.0 15.099999202070395
  endloop
endfacet
facet normal -1.0 9.321225311012068e-17 5.016254363518258e-10
  outer loop
    vertex 9.500000264080718 0.0 -11.500000797927528
    vertex 9.500000264057805 -8.0 15.099999202070395
    vertex 9.500000264069522 0.0 1.4999992020724628
  endloop
endfacet
facet normal -1.0 9.321225311012068e-17 5.016254363518258e-10
  outer loop
    vertex 9.50000024614977 30.999999896254696 -20.60000057673205
    vertex 9.500000264080718 0.0 -11.500000797927528
    vertex 9.500000264080718 22.99999999998817 -11.500000797927523
  endloop
endfacet
facet normal -1.0 9.321225311012068e-17 5.016254363518258e-10
  outer loop
    vertex 9.50000024614977 30.999999896254696 -20.60000057673205
    vertex 9.500000264080718 22.99999999998817 -11.500000797927523
    vertex 9.500000264069522 22.999999999999993 1.4999992020465178
  endloop
endfacet
endsolid Untitled-5981f1eb
