solid Untitled-59825f98
facet normal -9.372671437708526e-14 1.0 -6.795774330091736e-13
  outer loop
    vertex -34.50000099225468 -8.500000077472448 -23.599999870210628
    vertex -21.721483121366898 -8.500000077471405 -10.499999906749641
    vertex -21.721483121382526 -8.500000077471405 -23.599999870225247
  endloop
endfacet
facet normal -9.372671437708526e-14 1.0 -6.795774330091736e-13
  outer loop
    vertex -21.721483121366898 -8.500000077471405 -10.499999906749641
    vertex -34.50000099225468 -8.500000077472448 -23.599999870210628
    vertex -34.500000992239045 -8.500000077472448 -10.499999906735033
  endloop
endfacet
facet normal -9.372671437708526e-14 1.0 -6.795774330091736e-13
  outer loop
    vertex -21.721483121366898 -8.500000077471405 -10.499999906749641
    vertex -34.500000992239045 -8.500000077472448 -10.499999906735033
    vertex -28.00000099223743 -8.50000007744521 -10.499999906731556
  endloop
endfacet
facet normal 2.3387682024798166e-11 -1.0 -3.251148097230115e-28
  outer loop
    vertex -21.508300992207147 31.500000086599123 15.600000056779427
    vertex -34.50000099220717 31.500000086295277 -23.599999870210635
    vertex -21.508300992207147 31.500000086599123 -23.599999870218394
  endloop
endfacet
facet normal 2.3387682024798166e-11 -1.0 -3.251148097230115e-28
  outer loop
    vertex -34.50000099220717 31.500000086295277 -23.599999870210635
    vertex -21.508300992207147 31.500000086599123 15.600000056779427
    vertex -34.50000099220717 31.500000086295277 15.600000056787184
  endloop
endfacet
facet normal -6.295421658935749e-16 -1.0 6.295421658935765e-16
  outer loop
    vertex -34.27851886311987 -9.50000007749577 -2.317676113568647
    vertex -34.50000099224092 -9.500000077495766 2.5000000932649713
    vertex -34.50000099224092 -9.50000007749577 -3.9999999067350296
  endloop
endfacet
facet normal -6.295421658935749e-16 -1.0 6.295421658935765e-16
  outer loop
    vertex -34.50000099224092 -9.500000077495766 2.5000000932649713
    vertex -34.27851886311987 -9.50000007749577 -2.317676113568647
    vertex -33.62916611683977 -9.50000007749577 -0.7499999067350342
  endloop
endfacet
facet normal -6.295421658935749e-16 -1.0 6.295421658935765e-16
  outer loop
    vertex -34.50000099224092 -9.500000077495766 2.5000000932649713
    vertex -33.62916611683977 -9.50000007749577 -0.7499999067350342
    vertex -32.596195069953474 -9.50000007749577 0.596194170977528
  endloop
endfacet
facet normal -6.295421658935749e-16 -1.0 6.295421658935765e-16
  outer loop
    vertex -34.50000099224092 -9.500000077495766 2.5000000932649713
    vertex -32.596195069953474 -9.50000007749577 0.596194170977528
    vertex -31.250000992240924 -9.50000007749577 1.6291652178638207
  endloop
endfacet
facet normal -6.295421658935749e-16 -1.0 6.295421658935765e-16
  outer loop
    vertex -34.50000099224092 -9.500000077495766 2.5000000932649713
    vertex -31.250000992240924 -9.50000007749577 1.6291652178638207
    vertex -29.68232478540729 -9.50000007749577 2.2785179641439117
  endloop
endfacet
facet normal -6.295421658935749e-16 -1.0 6.295421658935765e-16
  outer loop
    vertex -34.50000099224092 -9.500000077495766 2.5000000932649713
    vertex -29.68232478540729 -9.50000007749577 2.2785179641439117
    vertex -28.000000992240906 -9.50000007749577 2.5000000932649713
  endloop
endfacet
facet normal 0.9999977389043708 6.316335953553106e-05 -0.002125604981188872
  outer loop
    vertex -21.500203431159242 -8.500000077284662 15.600000056770437
    vertex -21.50000099212377 -9.500000077474695 16.60000005667522
    vertex -21.500000992125145 -9.500000077474695 15.60000005667522
  endloop
endfacet
facet normal 0.9999977389043708 6.316335953553106e-05 -0.002125604981188872
  outer loop
    vertex -21.50000099212377 -9.500000077474695 16.60000005667522
    vertex -21.500203431159242 -8.500000077284662 15.600000056770437
    vertex -21.500000992109303 32.500000086293056 16.60000005667522
  endloop
endfacet
facet normal 0.9999977389043708 6.316335953553106e-05 -0.002125604981188872
  outer loop
    vertex -21.500000992109303 32.500000086293056 16.60000005667522
    vertex -21.500203431159242 -8.500000077284662 15.600000056770437
    vertex -21.508300992207147 31.500000086599123 15.600000056779427
  endloop
endfacet
facet normal 0.9999977389043708 6.316335953553106e-05 -0.002125604981188872
  outer loop
    vertex -21.500000992109303 32.500000086293056 16.60000005667522
    vertex -21.508300992207147 31.500000086599123 15.600000056779427
    vertex -21.500000992125145 32.500000086293056 15.60000005667522
  endloop
endfacet
facet normal -9.430440843850286e-13 1.1224495982622242e-13 -1.0
  outer loop
    vertex -34.50000099220717 31.500000086295277 15.600000056787184
    vertex -21.500203431159242 -8.500000077284662 15.600000056770437
    vertex -34.50000099224029 -8.500000077495766 15.600000056787188
  endloop
endfacet
facet normal -9.430440843850286e-13 1.1224495982622242e-13 -1.0
  outer loop
    vertex -21.500203431159242 -8.500000077284662 15.600000056770437
    vertex -34.50000099220717 31.500000086295277 15.600000056787184
    vertex -21.508300992207147 31.500000086599123 15.600000056779427
  endloop
endfacet
facet normal 0.9999655567780247 -0.00829971430923881 2.6388085220371086e-12
  outer loop
    vertex -21.500000991918302 32.50000008628761 -23.599999869898635
    vertex -21.508300992207147 31.500000086599123 15.600000056779427
    vertex -21.508300992207147 31.500000086599123 -23.599999870218394
  endloop
endfacet
facet normal 0.9999655567780247 -0.00829971430923881 2.6388085220371086e-12
  outer loop
    vertex -21.508300992207147 31.500000086599123 15.600000056779427
    vertex -21.500000991918302 32.50000008628761 -23.599999869898635
    vertex -21.500000992125145 32.500000086293056 15.60000005667522
  endloop
endfacet
facet normal 1.0 -8.968621364383438e-13 -1.690414345892977e-13
  outer loop
    vertex -34.50000099220717 31.500000086295277 -23.599999870210635
    vertex -34.500000992239045 -8.500000077472448 -10.499999906735033
    vertex -34.50000099225468 -8.500000077472448 -23.599999870210628
  endloop
endfacet
facet normal 1.0 -8.968621364383438e-13 -1.690414345892977e-13
  outer loop
    vertex -34.500000992239045 -8.500000077472448 -10.499999906735033
    vertex -34.50000099220717 31.500000086295277 -23.599999870210635
    vertex -34.50000099224108 0.3634866701208563 -11.499999906735031
  endloop
endfacet
facet normal 1.0 -8.968621364383438e-13 -1.690414345892977e-13
  outer loop
    vertex -34.500000992239045 -8.500000077472448 -10.499999906735033
    vertex -34.50000099224108 0.3634866701208563 -11.499999906735031
    vertex -34.50000099224092 -8.500000077284655 -3.999999906735026
  endloop
endfacet
facet normal 1.0 -8.968621364383438e-13 -1.690414345892977e-13
  outer loop
    vertex -34.50000099224108 0.3634866701208563 -11.499999906735031
    vertex -34.50000099220717 31.500000086295277 -23.599999870210635
    vertex -34.50000099224108 10.363486670120857 -11.499999906735031
  endloop
endfacet
facet normal 1.0 -8.968621364383438e-13 -1.690414345892977e-13
  outer loop
    vertex -34.50000099224108 10.363486670120857 -11.499999906735031
    vertex -34.50000099220717 31.500000086295277 -23.599999870210635
    vertex -34.50000099224092 10.363486670120857 -10.499999906735033
  endloop
endfacet
facet normal 1.0 -8.968621364383438e-13 -1.690414345892977e-13
  outer loop
    vertex -34.50000099224092 10.363486670120857 -10.499999906735033
    vertex -34.50000099220717 31.500000086295277 -23.599999870210635
    vertex -34.500000992217025 17.499999922504227 -0.8217204981872687
  endloop
endfacet
facet normal 1.0 -8.968621364383438e-13 -1.690414345892977e-13
  outer loop
    vertex -34.500000992217025 17.499999922504227 -0.8217204981872687
    vertex -34.50000099220717 31.500000086295277 -23.599999870210635
    vertex -34.50000099221616 18.499999922504227 -0.8217204981872687
  endloop
endfacet
facet normal 1.0 -8.968621364383438e-13 -1.690414345892977e-13
  outer loop
    vertex -34.50000099221616 18.499999922504227 -0.8217204981872687
    vertex -34.50000099220717 31.500000086295277 -23.599999870210635
    vertex -34.50000099221616 18.499999922504227 5.178279501812732
  endloop
endfacet
facet normal 1.0 -8.968621364383438e-13 -1.690414345892977e-13
  outer loop
    vertex -34.50000099224092 -8.500000077284655 -3.999999906735026
    vertex -34.50000099224029 -8.500000077495766 15.600000056787188
    vertex -34.50000099224029 -8.500000077495766 2.5000000932649713
  endloop
endfacet
facet normal 1.0 -8.968621364383438e-13 -1.690414345892977e-13
  outer loop
    vertex -34.50000099224029 -8.500000077495766 15.600000056787188
    vertex -34.50000099224092 -8.500000077284655 -3.999999906735026
    vertex -34.50000099220717 31.500000086295277 15.600000056787184
  endloop
endfacet
facet normal 1.0 -8.968621364383438e-13 -1.690414345892977e-13
  outer loop
    vertex -34.50000099220717 31.500000086295277 15.600000056787184
    vertex -34.50000099224092 -8.500000077284655 -3.999999906735026
    vertex -34.500000992217025 17.499999922504227 5.178279501812732
  endloop
endfacet
facet normal 1.0 -8.968621364383438e-13 -1.690414345892977e-13
  outer loop
    vertex -34.500000992217025 17.499999922504227 5.178279501812732
    vertex -34.50000099224092 -8.500000077284655 -3.999999906735026
    vertex -34.50000099224092 0.3634866701208563 -10.499999906735033
  endloop
endfacet
facet normal 1.0 -8.968621364383438e-13 -1.690414345892977e-13
  outer loop
    vertex -34.50000099224092 0.3634866701208563 -10.499999906735033
    vertex -34.50000099224092 -8.500000077284655 -3.999999906735026
    vertex -34.50000099224108 0.3634866701208563 -11.499999906735031
  endloop
endfacet
facet normal 1.0 -8.968621364383438e-13 -1.690414345892977e-13
  outer loop
    vertex -34.500000992217025 17.499999922504227 5.178279501812732
    vertex -34.50000099224092 0.3634866701208563 -10.499999906735033
    vertex -34.50000099224092 10.363486670120857 -10.499999906735033
  endloop
endfacet
facet normal 1.0 -8.968621364383438e-13 -1.690414345892977e-13
  outer loop
    vertex -34.500000992217025 17.499999922504227 5.178279501812732
    vertex -34.50000099224092 10.363486670120857 -10.499999906735033
    vertex -34.500000992217025 17.499999922504227 -0.8217204981872687
  endloop
endfacet
facet normal 1.0 -8.968621364383438e-13 -1.690414345892977e-13
  outer loop
    vertex -34.50000099220717 31.500000086295277 15.600000056787184
    vertex -34.500000992217025 17.499999922504227 5.178279501812732
    vertex -34.50000099221616 18.499999922504227 5.178279501812732
  endloop
endfacet
facet normal 1.0 -8.968621364383438e-13 -1.690414345892977e-13
  outer loop
    vertex -34.50000099220717 31.500000086295277 15.600000056787184
    vertex -34.50000099221616 18.499999922504227 5.178279501812732
    vertex -34.50000099220717 31.500000086295277 -23.599999870210635
  endloop
endfacet
facet normal 1.0 8.177902799389329e-14 -1.1434856486305e-12
  outer loop
    vertex -21.721483121382526 -8.500000077471405 -23.599999870225247
    vertex -21.721483121367466 -9.500000077471405 -10.499999906749641
    vertex -21.721483121381794 -9.500000077471405 -23.599999870225254
  endloop
endfacet
facet normal 1.0 8.177902799389329e-14 -1.1434856486305e-12
  outer loop
    vertex -21.721483121367466 -9.500000077471405 -10.499999906749641
    vertex -21.721483121382526 -8.500000077471405 -23.599999870225247
    vertex -21.721483121366898 -8.500000077471405 -10.499999906749641
  endloop
endfacet
facet normal 2.604144163014054e-12 -1.7356893700134965e-12 1.0
  outer loop
    vertex -21.721483121367466 -9.500000077471405 -10.499999906749641
    vertex -28.00000099223743 -8.50000007744521 -10.499999906731556
    vertex -28.000000992240906 -9.50000007749577 -10.499999906735027
  endloop
endfacet
facet normal 2.604144163014054e-12 -1.7356893700134965e-12 1.0
  outer loop
    vertex -28.00000099223743 -8.50000007744521 -10.499999906731556
    vertex -21.721483121367466 -9.500000077471405 -10.499999906749641
    vertex -21.721483121366898 -8.500000077471405 -10.499999906749641
  endloop
endfacet
facet normal 0.999999994847454 0.00010121951621049509 -7.726680695943081e-06
  outer loop
    vertex -21.50020343115988 -9.500000077284662 2.500000093248226
    vertex -21.500203431159242 -8.500000077284662 15.600000056770437
    vertex -21.500000992125145 -9.500000077474695 15.60000005667522
  endloop
endfacet
facet normal 0.999999994847454 0.00010121951621049509 -7.726680695943081e-06
  outer loop
    vertex -21.500203431159242 -8.500000077284662 15.600000056770437
    vertex -21.50020343115988 -9.500000077284662 2.500000093248226
    vertex -21.500203431159242 -8.500000077284662 2.500000093248226
  endloop
endfacet
facet normal 1.0 -2.876365811591616e-13 2.438186404947033e-13
  outer loop
    vertex -34.50000099223962 -9.500000077472448 -10.499999906735033
    vertex -34.50000099224092 -8.500000077284655 -3.999999906735026
    vertex -34.50000099224092 -9.50000007749577 -3.9999999067350296
  endloop
endfacet
facet normal 1.0 -2.876365811591616e-13 2.438186404947033e-13
  outer loop
    vertex -34.50000099224092 -8.500000077284655 -3.999999906735026
    vertex -34.50000099223962 -9.500000077472448 -10.499999906735033
    vertex -34.500000992239045 -8.500000077472448 -10.499999906735033
  endloop
endfacet
facet normal -2.6767989534292253e-13 -1.7356893700076898e-12 1.0
  outer loop
    vertex -28.000000992240906 -9.50000007749577 -10.499999906735027
    vertex -34.500000992239045 -8.500000077472448 -10.499999906735033
    vertex -34.50000099223962 -9.500000077472448 -10.499999906735033
  endloop
endfacet
facet normal -2.6767989534292253e-13 -1.7356893700076898e-12 1.0
  outer loop
    vertex -34.500000992239045 -8.500000077472448 -10.499999906735033
    vertex -28.000000992240906 -9.50000007749577 -10.499999906735027
    vertex -28.00000099223743 -8.50000007744521 -10.499999906731556
  endloop
endfacet
facet normal -1.6239072016685927e-11 1.0 2.6859403799835737e-12
  outer loop
    vertex -34.50000099224029 -8.500000077495766 15.600000056787188
    vertex -28.000000992240906 -8.500000077284655 2.5000000932649744
    vertex -34.50000099224029 -8.500000077495766 2.5000000932649713
  endloop
endfacet
facet normal -1.6239072016685927e-11 1.0 2.6859403799835737e-12
  outer loop
    vertex -28.000000992240906 -8.500000077284655 2.5000000932649744
    vertex -34.50000099224029 -8.500000077495766 15.600000056787188
    vertex -21.500203431159242 -8.500000077284662 15.600000056770437
  endloop
endfacet
facet normal -1.6239072016685927e-11 1.0 2.6859403799835737e-12
  outer loop
    vertex -21.500203431159242 -8.500000077284662 15.600000056770437
    vertex -21.500203431159242 -8.500000077284662 2.500000093248226
    vertex -28.000000992240906 -8.500000077284655 2.5000000932649744
  endloop
endfacet
facet normal -2.5764721204224635e-12 1.5862311472498419e-15 -1.0
  outer loop
    vertex -21.500203431159242 -8.500000077284662 2.500000093248226
    vertex -28.000000992240906 -9.50000007749577 2.5000000932649713
    vertex -28.000000992240906 -8.500000077284655 2.5000000932649744
  endloop
endfacet
facet normal -2.5764721204224635e-12 1.5862311472498419e-15 -1.0
  outer loop
    vertex -28.000000992240906 -9.50000007749577 2.5000000932649713
    vertex -21.500203431159242 -8.500000077284662 2.500000093248226
    vertex -21.50020343115988 -9.500000077284662 2.500000093248226
  endloop
endfacet
facet normal -4.254604993286689e-12 1.5690767157627119e-12 1.0
  outer loop
    vertex -21.721483121382526 -8.500000077471405 -23.599999870225247
    vertex -34.50000099220717 31.500000086295277 -23.599999870210635
    vertex -34.50000099225468 -8.500000077472448 -23.599999870210628
  endloop
endfacet
facet normal -4.254604993286689e-12 1.5690767157627119e-12 1.0
  outer loop
    vertex -34.50000099220717 31.500000086295277 -23.599999870210635
    vertex -21.721483121382526 -8.500000077471405 -23.599999870225247
    vertex -21.508300992207147 31.500000086599123 -23.599999870218394
  endloop
endfacet
facet normal -4.254604993286689e-12 1.5690767157627119e-12 1.0
  outer loop
    vertex -21.508300992207147 31.500000086599123 -23.599999870218394
    vertex -21.721483121382526 -8.500000077471405 -23.599999870225247
    vertex -21.721483121381794 -9.500000077471405 -23.599999870225254
  endloop
endfacet
facet normal -4.254604993286689e-12 1.5690767157627119e-12 1.0
  outer loop
    vertex -21.508300992207147 31.500000086599123 -23.599999870218394
    vertex -21.721483121381794 -9.500000077471405 -23.599999870225254
    vertex -21.500000991918302 -9.500000077480115 -23.599999869898635
  endloop
endfacet
facet normal 0.9999971104848839 5.449754562266718e-05 0.002403341819288658
  outer loop
    vertex -21.500000991869538 32.50000008628761 -24.599999869898635
    vertex -21.500000991918302 -9.500000077480115 -23.599999869898635
    vertex -21.500000991919062 -9.500000077480115 -24.599999869898635
  endloop
endfacet
facet normal 0.9999971104848839 5.449754562266718e-05 0.002403341819288658
  outer loop
    vertex -21.500000991918302 -9.500000077480115 -23.599999869898635
    vertex -21.500000991869538 32.50000008628761 -24.599999869898635
    vertex -21.508300992207147 31.500000086599123 -23.599999870218394
  endloop
endfacet
facet normal 0.9999971104848839 5.449754562266718e-05 0.002403341819288658
  outer loop
    vertex -21.508300992207147 31.500000086599123 -23.599999870218394
    vertex -21.500000991869538 32.50000008628761 -24.599999869898635
    vertex -21.500000991918302 32.50000008628761 -23.599999869898635
  endloop
endfacet
facet normal -1.5227819005758593e-13 0.0 -1.0
  outer loop
    vertex -28.000000992241052 10.363486670120857 -11.499999906736022
    vertex -34.50000099224108 0.3634866701208563 -11.499999906735031
    vertex -34.50000099224108 10.363486670120857 -11.499999906735031
  endloop
endfacet
facet normal -1.5227819005758593e-13 0.0 -1.0
  outer loop
    vertex -34.50000099224108 0.3634866701208563 -11.499999906735031
    vertex -28.000000992241052 10.363486670120857 -11.499999906736022
    vertex -28.000000992241052 0.3634866701208563 -11.499999906736022
  endloop
endfacet
facet normal -0.0 1.0 -0.0
  outer loop
    vertex -34.50000099224108 10.363486670120857 -11.499999906735031
    vertex -28.000000992240896 10.363486670120857 -10.499999906736022
    vertex -28.000000992241052 10.363486670120857 -11.499999906736022
  endloop
endfacet
facet normal -0.0 1.0 -0.0
  outer loop
    vertex -28.000000992240896 10.363486670120857 -10.499999906736022
    vertex -34.50000099224108 10.363486670120857 -11.499999906735031
    vertex -34.50000099224092 10.363486670120857 -10.499999906735033
  endloop
endfacet
facet normal 0.0 -1.0 0.0
  outer loop
    vertex -28.000000992240896 0.3634866701208563 -10.499999906736022
    vertex -34.50000099224108 0.3634866701208563 -11.499999906735031
    vertex -28.000000992241052 0.3634866701208563 -11.499999906736022
  endloop
endfacet
facet normal 0.0 -1.0 0.0
  outer loop
    vertex -34.50000099224108 0.3634866701208563 -11.499999906735031
    vertex -28.000000992240896 0.3634866701208563 -10.499999906736022
    vertex -34.50000099224092 0.3634866701208563 -10.499999906735033
  endloop
endfacet
facet normal 1.5227819005758593e-13 -0.0 1.0
  outer loop
    vertex -28.000000992240896 0.3634866701208563 -10.499999906736022
    vertex -34.50000099224092 10.363486670120857 -10.499999906735033
    vertex -34.50000099224092 0.3634866701208563 -10.499999906735033
  endloop
endfacet
facet normal 1.5227819005758593e-13 -0.0 1.0
  outer loop
    vertex -34.50000099224092 10.363486670120857 -10.499999906735033
    vertex -28.000000992240896 0.3634866701208563 -10.499999906736022
    vertex -28.000000992240896 10.363486670120857 -10.499999906736022
  endloop
endfacet
facet normal -3.4710856553489338e-12 -1.0 -3.4710856553490416e-12
  outer loop
    vertex -34.50000099223962 -9.500000077472448 -10.499999906735033
    vertex -34.27851886311987 -9.50000007749577 -5.682323699901419
    vertex -34.50000099224092 -9.50000007749577 -3.9999999067350296
  endloop
endfacet
facet normal -3.4710856553489338e-12 -1.0 -3.4710856553490416e-12
  outer loop
    vertex -34.27851886311987 -9.50000007749577 -5.682323699901419
    vertex -34.50000099223962 -9.500000077472448 -10.499999906735033
    vertex -33.62916611683977 -9.50000007749577 -7.249999906735032
  endloop
endfacet
facet normal -3.4710856553489338e-12 -1.0 -3.4710856553490416e-12
  outer loop
    vertex -33.62916611683977 -9.50000007749577 -7.249999906735032
    vertex -34.50000099223962 -9.500000077472448 -10.499999906735033
    vertex -32.59619506995347 -9.50000007749577 -8.59619398444759
  endloop
endfacet
facet normal -3.4710856553489338e-12 -1.0 -3.4710856553490416e-12
  outer loop
    vertex -32.59619506995347 -9.50000007749577 -8.59619398444759
    vertex -34.50000099223962 -9.500000077472448 -10.499999906735033
    vertex -31.250000992240913 -9.50000007749577 -9.629165031333882
  endloop
endfacet
facet normal -3.4710856553489338e-12 -1.0 -3.4710856553490416e-12
  outer loop
    vertex -31.250000992240913 -9.50000007749577 -9.629165031333882
    vertex -34.50000099223962 -9.500000077472448 -10.499999906735033
    vertex -29.68232478540729 -9.50000007749577 -10.278517777613972
  endloop
endfacet
facet normal -3.4710856553489338e-12 -1.0 -3.4710856553490416e-12
  outer loop
    vertex -29.68232478540729 -9.50000007749577 -10.278517777613972
    vertex -34.50000099223962 -9.500000077472448 -10.499999906735033
    vertex -28.000000992240906 -9.50000007749577 -10.499999906735027
  endloop
endfacet
facet normal 1.0 -0.0 -1.5791812302268233e-13
  outer loop
    vertex -28.000000992241052 10.363486670120857 -11.499999906736022
    vertex -28.000000992240896 0.3634866701208563 -10.499999906736022
    vertex -28.000000992241052 0.3634866701208563 -11.499999906736022
  endloop
endfacet
facet normal 1.0 -0.0 -1.5791812302268233e-13
  outer loop
    vertex -28.000000992240896 0.3634866701208563 -10.499999906736022
    vertex -28.000000992241052 10.363486670120857 -11.499999906736022
    vertex -28.000000992240896 10.363486670120857 -10.499999906736022
  endloop
endfacet
facet normal 2.223120576463337e-11 6.714203263411921e-17 -1.0
  outer loop
    vertex -35.50000099220518 32.50000008629604 -24.59999987020987
    vertex -21.500000991919062 -9.500000077480115 -24.599999869898635
    vertex -35.5000009922547 -9.500000077471686 -24.599999870209874
  endloop
endfacet
facet normal 2.223120576463337e-11 6.714203263411921e-17 -1.0
  outer loop
    vertex -21.500000991919062 -9.500000077480115 -24.599999869898635
    vertex -35.50000099220518 32.50000008629604 -24.59999987020987
    vertex -21.500000991869538 32.50000008628761 -24.599999869898635
  endloop
endfacet
facet normal 4.0748515672488623e-13 1.0 -8.87312308993925e-14
  outer loop
    vertex -35.50000099219132 32.50000008629604 16.60000005678794
    vertex -21.500000991869538 32.50000008628761 -24.599999869898635
    vertex -35.50000099220518 32.50000008629604 -24.59999987020987
  endloop
endfacet
facet normal 4.0748515672488623e-13 1.0 -8.87312308993925e-14
  outer loop
    vertex -21.500000991869538 32.50000008628761 -24.599999869898635
    vertex -35.50000099219132 32.50000008629604 16.60000005678794
    vertex -21.500000991918302 32.50000008628761 -23.599999869898635
  endloop
endfacet
facet normal 4.0748515672488623e-13 1.0 -8.87312308993925e-14
  outer loop
    vertex -21.500000991918302 32.50000008628761 -23.599999869898635
    vertex -35.50000099219132 32.50000008629604 16.60000005678794
    vertex -21.500000992125145 32.500000086293056 15.60000005667522
  endloop
endfacet
facet normal 4.0748515672488623e-13 1.0 -8.87312308993925e-14
  outer loop
    vertex -21.500000992125145 32.500000086293056 15.60000005667522
    vertex -35.50000099219132 32.50000008629604 16.60000005678794
    vertex -21.500000992109303 32.500000086293056 16.60000005667522
  endloop
endfacet
facet normal -1.0 7.617937996721713e-13 7.61801626368235e-13
  outer loop
    vertex -35.50000099219132 32.50000008629604 16.60000005678794
    vertex -35.5000009922547 -9.500000077471686 -24.599999870209874
    vertex -35.50000099220579 -9.500000077471686 16.60000005678794
  endloop
endfacet
facet normal -1.0 7.617937996721713e-13 7.61801626368235e-13
  outer loop
    vertex -35.5000009922547 -9.500000077471686 -24.599999870209874
    vertex -35.50000099219132 32.50000008629604 16.60000005678794
    vertex -35.50000099220518 32.50000008629604 -24.59999987020987
  endloop
endfacet
facet normal 8.05140715998173e-12 -2.773760207224774e-24 1.0
  outer loop
    vertex -21.50000099212377 -9.500000077474695 16.60000005667522
    vertex -35.50000099219132 32.50000008629604 16.60000005678794
    vertex -35.50000099220579 -9.500000077471686 16.60000005678794
  endloop
endfacet
facet normal 8.05140715998173e-12 -2.773760207224774e-24 1.0
  outer loop
    vertex -35.50000099219132 32.50000008629604 16.60000005678794
    vertex -21.50000099212377 -9.500000077474695 16.60000005667522
    vertex -21.500000992109303 32.500000086293056 16.60000005667522
  endloop
endfacet
facet normal 2.67557801669402e-12 -1.0 5.380861257290057e-13
  outer loop
    vertex -21.500000991918302 -9.500000077480115 -23.599999869898635
    vertex -21.721483121381794 -9.500000077471405 -23.599999870225254
    vertex -21.500000991919062 -9.500000077480115 -24.599999869898635
  endloop
endfacet
facet normal 2.67557801669402e-12 -1.0 5.380861257290057e-13
  outer loop
    vertex -28.000000992240906 -9.50000007749577 -10.499999906735027
    vertex -34.50000099223962 -9.500000077472448 -10.499999906735033
    vertex -21.721483121367466 -9.500000077471405 -10.499999906749641
  endloop
endfacet
facet normal 2.67557801669402e-12 -1.0 5.380861257290057e-13
  outer loop
    vertex -21.500000992125145 -9.500000077474695 15.60000005667522
    vertex -28.000000992240906 -9.50000007749577 2.5000000932649713
    vertex -21.50020343115988 -9.500000077284662 2.500000093248226
  endloop
endfacet
facet normal 2.67557801669402e-12 -1.0 5.380861257290057e-13
  outer loop
    vertex -28.000000992240906 -9.50000007749577 2.5000000932649713
    vertex -21.500000992125145 -9.500000077474695 15.60000005667522
    vertex -34.50000099224092 -9.500000077495766 2.5000000932649713
  endloop
endfacet
facet normal 2.67557801669402e-12 -1.0 5.380861257290057e-13
  outer loop
    vertex -35.5000009922547 -9.500000077471686 -24.599999870209874
    vertex -34.50000099223962 -9.500000077472448 -10.499999906735033
    vertex -35.50000099220579 -9.500000077471686 16.60000005678794
  endloop
endfacet
facet normal 2.67557801669402e-12 -1.0 5.380861257290057e-13
  outer loop
    vertex -34.50000099223962 -9.500000077472448 -10.499999906735033
    vertex -35.5000009922547 -9.500000077471686 -24.599999870209874
    vertex -21.500000991919062 -9.500000077480115 -24.599999869898635
  endloop
endfacet
facet normal 2.67557801669402e-12 -1.0 5.380861257290057e-13
  outer loop
    vertex -34.50000099223962 -9.500000077472448 -10.499999906735033
    vertex -21.500000991919062 -9.500000077480115 -24.599999869898635
    vertex -21.721483121381794 -9.500000077471405 -23.599999870225254
  endloop
endfacet
facet normal 2.67557801669402e-12 -1.0 5.380861257290057e-13
  outer loop
    vertex -34.50000099223962 -9.500000077472448 -10.499999906735033
    vertex -21.721483121381794 -9.500000077471405 -23.599999870225254
    vertex -21.721483121367466 -9.500000077471405 -10.499999906749641
  endloop
endfacet
facet normal 2.67557801669402e-12 -1.0 5.380861257290057e-13
  outer loop
    vertex -35.50000099220579 -9.500000077471686 16.60000005678794
    vertex -34.50000099223962 -9.500000077472448 -10.499999906735033
    vertex -34.50000099224092 -9.50000007749577 -3.9999999067350296
  endloop
endfacet
facet normal 2.67557801669402e-12 -1.0 5.380861257290057e-13
  outer loop
    vertex -35.50000099220579 -9.500000077471686 16.60000005678794
    vertex -34.50000099224092 -9.50000007749577 -3.9999999067350296
    vertex -34.50000099224092 -9.500000077495766 2.5000000932649713
  endloop
endfacet
facet normal 2.67557801669402e-12 -1.0 5.380861257290057e-13
  outer loop
    vertex -35.50000099220579 -9.500000077471686 16.60000005678794
    vertex -34.50000099224092 -9.500000077495766 2.5000000932649713
    vertex -21.500000992125145 -9.500000077474695 15.60000005667522
  endloop
endfacet
facet normal 2.67557801669402e-12 -1.0 5.380861257290057e-13
  outer loop
    vertex -35.50000099220579 -9.500000077471686 16.60000005678794
    vertex -21.500000992125145 -9.500000077474695 15.60000005667522
    vertex -21.50000099212377 -9.500000077474695 16.60000005667522
  endloop
endfacet
facet normal 0.9238795325112852 7.762745796095746e-16 -0.3826834323650941
  outer loop
    vertex -34.27851886311987 -8.500000077284655 -2.317676113568644
    vertex -33.62916611683977 -9.50000007749577 -0.7499999067350342
    vertex -34.27851886311987 -9.50000007749577 -2.317676113568647
  endloop
endfacet
facet normal 0.9238795325112852 7.762745796095746e-16 -0.3826834323650941
  outer loop
    vertex -33.62916611683977 -9.50000007749577 -0.7499999067350342
    vertex -34.27851886311987 -8.500000077284655 -2.317676113568644
    vertex -33.62916611683977 -8.500000077284655 -0.7499999067350335
  endloop
endfacet
facet normal 0.1305261922200512 -3.8951565746574525e-12 0.9914448613738105
  outer loop
    vertex -28.000000992240906 -9.50000007749577 -10.499999906735027
    vertex -29.682324785403814 -8.50000007744521 -10.278517777610501
    vertex -29.68232478540729 -9.50000007749577 -10.278517777613972
  endloop
endfacet
facet normal 0.1305261922200512 -3.8951565746574525e-12 0.9914448613738105
  outer loop
    vertex -29.682324785403814 -8.50000007744521 -10.278517777610501
    vertex -28.000000992240906 -9.50000007749577 -10.499999906735027
    vertex -28.00000099223743 -8.50000007744521 -10.499999906731556
  endloop
endfacet
facet normal 0.9914448613736616 -1.9433857357852532e-12 0.1305261922211818
  outer loop
    vertex -34.27851886311641 -8.50000007744521 -5.682323699897948
    vertex -34.50000099224092 -9.50000007749577 -3.9999999067350296
    vertex -34.27851886311987 -9.50000007749577 -5.682323699901419
  endloop
endfacet
facet normal 0.9914448613736616 -1.9433857357852532e-12 0.1305261922211818
  outer loop
    vertex -34.50000099224092 -9.50000007749577 -3.9999999067350296
    vertex -34.27851886311641 -8.50000007744521 -5.682323699897948
    vertex -34.50000099224092 -8.500000077284655 -3.999999906735026
  endloop
endfacet
facet normal 2.440355609639627e-16 1.5862311464331158e-15 -1.0
  outer loop
    vertex -34.50000099224029 -8.500000077495766 2.5000000932649713
    vertex -28.000000992240906 -9.50000007749577 2.5000000932649713
    vertex -34.50000099224092 -9.500000077495766 2.5000000932649713
  endloop
endfacet
facet normal 2.440355609639627e-16 1.5862311464331158e-15 -1.0
  outer loop
    vertex -28.000000992240906 -9.50000007749577 2.5000000932649713
    vertex -34.50000099224029 -8.500000077495766 2.5000000932649713
    vertex -28.000000992240906 -8.500000077284655 2.5000000932649744
  endloop
endfacet
facet normal 0.7933533402912358 5.109825627383432e-16 -0.6087614290087199
  outer loop
    vertex -33.62916611683977 -8.500000077284655 -0.7499999067350335
    vertex -32.596195069953474 -9.50000007749577 0.596194170977528
    vertex -33.62916611683977 -9.50000007749577 -0.7499999067350342
  endloop
endfacet
facet normal 0.7933533402912358 5.109825627383432e-16 -0.6087614290087199
  outer loop
    vertex -32.596195069953474 -9.50000007749577 0.596194170977528
    vertex -33.62916611683977 -8.500000077284655 -0.7499999067350335
    vertex -32.596195069953474 -8.500000077284655 0.5961941709775288
  endloop
endfacet
facet normal 0.6087614290087227 1.5815729219950752e-15 -0.7933533402912336
  outer loop
    vertex -31.250000992240924 -8.500000077284655 1.6291652178638238
    vertex -32.596195069953474 -9.50000007749577 0.596194170977528
    vertex -32.596195069953474 -8.500000077284655 0.5961941709775288
  endloop
endfacet
facet normal 0.6087614290087227 1.5815729219950752e-15 -0.7933533402912336
  outer loop
    vertex -32.596195069953474 -9.50000007749577 0.596194170977528
    vertex -31.250000992240924 -8.500000077284655 1.6291652178638238
    vertex -31.250000992240924 -9.50000007749577 1.6291652178638207
  endloop
endfacet
facet normal 0.9914448613738112 4.3824463920904477e-16 -0.13052619222004705
  outer loop
    vertex -34.50000099224092 -8.500000077284655 -3.999999906735026
    vertex -34.27851886311987 -9.50000007749577 -2.317676113568647
    vertex -34.50000099224092 -9.50000007749577 -3.9999999067350296
  endloop
endfacet
facet normal 0.9914448613738112 4.3824463920904477e-16 -0.13052619222004705
  outer loop
    vertex -34.27851886311987 -9.50000007749577 -2.317676113568647
    vertex -34.50000099224092 -8.500000077284655 -3.999999906735026
    vertex -34.27851886311987 -8.500000077284655 -2.317676113568644
  endloop
endfacet
facet normal -7.972867112592888e-12 1.0 -2.308969960121213e-11
  outer loop
    vertex -34.500000992239045 -8.500000077472448 -10.499999906735033
    vertex -29.682324785403814 -8.50000007744521 -10.278517777610501
    vertex -28.00000099223743 -8.50000007744521 -10.499999906731556
  endloop
endfacet
facet normal -7.972867112592888e-12 1.0 -2.308969960121213e-11
  outer loop
    vertex -29.682324785403814 -8.50000007744521 -10.278517777610501
    vertex -34.500000992239045 -8.500000077472448 -10.499999906735033
    vertex -31.25000099223744 -8.50000007744521 -9.62916503133041
  endloop
endfacet
facet normal -7.972867112592888e-12 1.0 -2.308969960121213e-11
  outer loop
    vertex -31.25000099223744 -8.50000007744521 -9.62916503133041
    vertex -34.500000992239045 -8.500000077472448 -10.499999906735033
    vertex -32.59619506995001 -8.50000007744521 -8.596193984444119
  endloop
endfacet
facet normal -7.972867112592888e-12 1.0 -2.308969960121213e-11
  outer loop
    vertex -32.59619506995001 -8.50000007744521 -8.596193984444119
    vertex -34.500000992239045 -8.500000077472448 -10.499999906735033
    vertex -33.62916611683631 -8.50000007744521 -7.249999906731561
  endloop
endfacet
facet normal -7.972867112592888e-12 1.0 -2.308969960121213e-11
  outer loop
    vertex -33.62916611683631 -8.50000007744521 -7.249999906731561
    vertex -34.500000992239045 -8.500000077472448 -10.499999906735033
    vertex -34.27851886311641 -8.50000007744521 -5.682323699897948
  endloop
endfacet
facet normal -7.972867112592888e-12 1.0 -2.308969960121213e-11
  outer loop
    vertex -34.27851886311641 -8.50000007744521 -5.682323699897948
    vertex -34.500000992239045 -8.500000077472448 -10.499999906735033
    vertex -34.50000099224092 -8.500000077284655 -3.999999906735026
  endloop
endfacet
facet normal 1.0 -8.5726981069456e-13 -0.0
  outer loop
    vertex -28.00000099224005 18.4999999224986 -0.8217204981872687
    vertex -28.000000992240906 17.4999999224986 5.178279501812732
    vertex -28.000000992240906 17.4999999224986 -0.8217204981872687
  endloop
endfacet
facet normal 1.0 -8.5726981069456e-13 -0.0
  outer loop
    vertex -28.000000992240906 17.4999999224986 5.178279501812732
    vertex -28.00000099224005 18.4999999224986 -0.8217204981872687
    vertex -28.00000099224005 18.4999999224986 5.178279501812732
  endloop
endfacet
facet normal 0.38268343236508595 5.049521868572921e-15 -0.9238795325112884
  outer loop
    vertex -29.6823247854073 -8.500000077284655 2.278517964143915
    vertex -31.250000992240924 -9.50000007749577 1.6291652178638207
    vertex -31.250000992240924 -8.500000077284655 1.6291652178638238
  endloop
endfacet
facet normal 0.38268343236508595 5.049521868572921e-15 -0.9238795325112884
  outer loop
    vertex -31.250000992240924 -9.50000007749577 1.6291652178638207
    vertex -29.6823247854073 -8.500000077284655 2.278517964143915
    vertex -29.68232478540729 -9.50000007749577 2.2785179641439117
  endloop
endfacet
facet normal 0.7933533402912318 -4.860584453497941e-12 0.6087614290087253
  outer loop
    vertex -32.59619506995001 -8.50000007744521 -8.596193984444119
    vertex -33.62916611683977 -9.50000007749577 -7.249999906735032
    vertex -32.59619506995347 -9.50000007749577 -8.59619398444759
  endloop
endfacet
facet normal 0.7933533402912318 -4.860584453497941e-12 0.6087614290087253
  outer loop
    vertex -33.62916611683977 -9.50000007749577 -7.249999906735032
    vertex -32.59619506995001 -8.50000007744521 -8.596193984444119
    vertex -33.62916611683631 -8.50000007744521 -7.249999906731561
  endloop
endfacet
facet normal 1.0 -3.1583624597868665e-13 -4.85901917044157e-14
  outer loop
    vertex -34.50000099224092 -8.500000077284655 -3.999999906735026
    vertex -34.50000099224092 -9.500000077495766 2.5000000932649713
    vertex -34.50000099224092 -9.50000007749577 -3.9999999067350296
  endloop
endfacet
facet normal 1.0 -3.1583624597868665e-13 -4.85901917044157e-14
  outer loop
    vertex -34.50000099224092 -9.500000077495766 2.5000000932649713
    vertex -34.50000099224092 -8.500000077284655 -3.999999906735026
    vertex -34.50000099224029 -8.500000077495766 2.5000000932649713
  endloop
endfacet
facet normal 0.13052619222005327 3.894961426366642e-15 -0.9914448613738103
  outer loop
    vertex -28.000000992240906 -8.500000077284655 2.5000000932649744
    vertex -29.68232478540729 -9.50000007749577 2.2785179641439117
    vertex -29.6823247854073 -8.500000077284655 2.278517964143915
  endloop
endfacet
facet normal 0.13052619222005327 3.894961426366642e-15 -0.9914448613738103
  outer loop
    vertex -29.68232478540729 -9.50000007749577 2.2785179641439117
    vertex -28.000000992240906 -8.500000077284655 2.5000000932649744
    vertex -28.000000992240906 -9.50000007749577 2.5000000932649713
  endloop
endfacet
facet normal 0.9238795325112852 -4.527647474354828e-12 0.3826834323650936
  outer loop
    vertex -33.62916611683631 -8.50000007744521 -7.249999906731561
    vertex -34.27851886311987 -9.50000007749577 -5.682323699901419
    vertex -33.62916611683977 -9.50000007749577 -7.249999906735032
  endloop
endfacet
facet normal 0.9238795325112852 -4.527647474354828e-12 0.3826834323650936
  outer loop
    vertex -34.27851886311987 -9.50000007749577 -5.682323699901419
    vertex -33.62916611683631 -8.50000007744521 -7.249999906731561
    vertex -34.27851886311641 -8.50000007744521 -5.682323699897948
  endloop
endfacet
facet normal 0.6087614290087202 -4.865497850818559e-12 0.7933533402912357
  outer loop
    vertex -31.250000992240913 -9.50000007749577 -9.629165031333882
    vertex -32.59619506995001 -8.50000007744521 -8.596193984444119
    vertex -32.59619506995347 -9.50000007749577 -8.59619398444759
  endloop
endfacet
facet normal 0.6087614290087202 -4.865497850818559e-12 0.7933533402912357
  outer loop
    vertex -32.59619506995001 -8.50000007744521 -8.596193984444119
    vertex -31.250000992240913 -9.50000007749577 -9.629165031333882
    vertex -31.25000099223744 -8.50000007744521 -9.62916503133041
  endloop
endfacet
facet normal 0.3826834323650872 -4.536671528250367e-12 0.9238795325112881
  outer loop
    vertex -29.68232478540729 -9.50000007749577 -10.278517777613972
    vertex -31.25000099223744 -8.50000007744521 -9.62916503133041
    vertex -31.250000992240913 -9.50000007749577 -9.629165031333882
  endloop
endfacet
facet normal 0.3826834323650872 -4.536671528250367e-12 0.9238795325112881
  outer loop
    vertex -31.25000099223744 -8.50000007744521 -9.62916503133041
    vertex -29.68232478540729 -9.50000007749577 -10.278517777613972
    vertex -29.682324785403814 -8.50000007744521 -10.278517777610501
  endloop
endfacet
facet normal -3.141961011019558e-11 1.0 3.1419610110196065e-11
  outer loop
    vertex -34.50000099224029 -8.500000077495766 2.5000000932649713
    vertex -34.27851886311987 -8.500000077284655 -2.317676113568644
    vertex -34.50000099224092 -8.500000077284655 -3.999999906735026
  endloop
endfacet
facet normal -3.141961011019558e-11 1.0 3.1419610110196065e-11
  outer loop
    vertex -34.27851886311987 -8.500000077284655 -2.317676113568644
    vertex -34.50000099224029 -8.500000077495766 2.5000000932649713
    vertex -33.62916611683977 -8.500000077284655 -0.7499999067350335
  endloop
endfacet
facet normal -3.141961011019558e-11 1.0 3.1419610110196065e-11
  outer loop
    vertex -33.62916611683977 -8.500000077284655 -0.7499999067350335
    vertex -34.50000099224029 -8.500000077495766 2.5000000932649713
    vertex -32.596195069953474 -8.500000077284655 0.5961941709775288
  endloop
endfacet
facet normal -3.141961011019558e-11 1.0 3.1419610110196065e-11
  outer loop
    vertex -32.596195069953474 -8.500000077284655 0.5961941709775288
    vertex -34.50000099224029 -8.500000077495766 2.5000000932649713
    vertex -31.250000992240924 -8.500000077284655 1.6291652178638238
  endloop
endfacet
facet normal -3.141961011019558e-11 1.0 3.1419610110196065e-11
  outer loop
    vertex -31.250000992240924 -8.500000077284655 1.6291652178638238
    vertex -34.50000099224029 -8.500000077495766 2.5000000932649713
    vertex -29.6823247854073 -8.500000077284655 2.278517964143915
  endloop
endfacet
facet normal -3.141961011019558e-11 1.0 3.1419610110196065e-11
  outer loop
    vertex -29.6823247854073 -8.500000077284655 2.278517964143915
    vertex -34.50000099224029 -8.500000077495766 2.5000000932649713
    vertex -28.000000992240906 -8.500000077284655 2.5000000932649744
  endloop
endfacet
facet normal -0.0 -0.0 1.0
  outer loop
    vertex -28.000000992240906 17.4999999224986 5.178279501812732
    vertex -34.50000099221616 18.499999922504227 5.178279501812732
    vertex -34.500000992217025 17.499999922504227 5.178279501812732
  endloop
endfacet
facet normal -0.0 -0.0 1.0
  outer loop
    vertex -34.50000099221616 18.499999922504227 5.178279501812732
    vertex -28.000000992240906 17.4999999224986 5.178279501812732
    vertex -28.00000099224005 18.4999999224986 5.178279501812732
  endloop
endfacet
facet normal -8.659466306440435e-13 -1.0 0.0
  outer loop
    vertex -28.000000992240906 17.4999999224986 5.178279501812732
    vertex -34.500000992217025 17.499999922504227 -0.8217204981872687
    vertex -28.000000992240906 17.4999999224986 -0.8217204981872687
  endloop
endfacet
facet normal -8.659466306440435e-13 -1.0 0.0
  outer loop
    vertex -34.500000992217025 17.499999922504227 -0.8217204981872687
    vertex -28.000000992240906 17.4999999224986 5.178279501812732
    vertex -34.500000992217025 17.499999922504227 5.178279501812732
  endloop
endfacet
facet normal 0.0 0.0 -1.0
  outer loop
    vertex -34.50000099221616 18.499999922504227 -0.8217204981872687
    vertex -28.000000992240906 17.4999999224986 -0.8217204981872687
    vertex -34.500000992217025 17.499999922504227 -0.8217204981872687
  endloop
endfacet
facet normal 0.0 0.0 -1.0
  outer loop
    vertex -28.000000992240906 17.4999999224986 -0.8217204981872687
    vertex -34.50000099221616 18.499999922504227 -0.8217204981872687
    vertex -28.00000099224005 18.4999999224986 -0.8217204981872687
  endloop
endfacet
facet normal 8.659466306440449e-13 1.0 -0.0
  outer loop
    vertex -34.50000099221616 18.499999922504227 5.178279501812732
    vertex -28.00000099224005 18.4999999224986 -0.8217204981872687
    vertex -34.50000099221616 18.499999922504227 -0.8217204981872687
  endloop
endfacet
facet normal 8.659466306440449e-13 1.0 -0.0
  outer loop
    vertex -28.00000099224005 18.4999999224986 -0.8217204981872687
    vertex -34.50000099221616 18.499999922504227 5.178279501812732
    vertex -28.00000099224005 18.4999999224986 5.178279501812732
  endloop
endfacet
endsolid Untitled-59825f98
