solid beta 2
facet normal -2.820977485877653e-16 -0.9603815148472581 -0.278688618245679
  outer loop
    vertex 6.151867327500604 45.246554043015585 29.204801696628213
    vertex -29.848132672499393 46.21611744169445 25.86361477832069
    vertex 6.151867327500604 46.21611744169445 25.86361477832069
  endloop
endfacet
facet normal -2.820977485877653e-16 -0.9603815148472581 -0.278688618245679
  outer loop
    vertex -29.848132672499393 46.21611744169445 25.86361477832069
    vertex 6.151867327500604 45.246554043015585 29.204801696628213
    vertex -29.848132672499393 45.246554043015585 29.204801696628213
  endloop
endfacet
facet normal -4.207296599313252e-16 -0.891244731795061 -0.4535226874672865
  outer loop
    vertex 6.151867327500604 43.66873934427853 32.30546033368846
    vertex -29.848132672499393 45.246554043015585 29.204801696628213
    vertex 6.151867327500604 45.246554043015585 29.204801696628213
  endloop
endfacet
facet normal -4.207296599313252e-16 -0.891244731795061 -0.4535226874672865
  outer loop
    vertex -29.848132672499393 45.246554043015585 29.204801696628213
    vertex 6.151867327500604 43.66873934427853 32.30546033368846
    vertex -29.848132672499386 43.66873934427853 32.30546033368846
  endloop
endfacet
facet normal -5.444901045540885e-16 -0.7906052579861909 -0.6123261598564842
  outer loop
    vertex 6.151867327500615 41.5384441194945 35.05599218451102
    vertex -29.848132672499386 43.66873934427853 32.30546033368846
    vertex 6.151867327500604 43.66873934427853 32.30546033368846
  endloop
endfacet
facet normal -5.444901045540885e-16 -0.7906052579861909 -0.6123261598564842
  outer loop
    vertex -29.848132672499386 43.66873934427853 32.30546033368846
    vertex 6.151867327500615 41.5384441194945 35.05599218451102
    vertex -29.848132672499382 41.5384441194945 35.05599218451102
  endloop
endfacet
facet normal -6.490045410133151e-16 -0.6620203814563724 -0.749485833446076
  outer loop
    vertex 6.151867327500615 41.5384441194945 35.05599218451102
    vertex -29.848132672499375 38.930967587040506 37.359174621885174
    vertex -29.848132672499382 41.5384441194945 35.05599218451102
  endloop
endfacet
facet normal -6.490045410133151e-16 -0.6620203814563724 -0.749485833446076
  outer loop
    vertex -29.848132672499375 38.930967587040506 37.359174621885174
    vertex 6.151867327500615 41.5384441194945 35.05599218451102
    vertex 6.151867327500615 38.930967587040506 37.359174621885174
  endloop
endfacet
facet normal -1.334945714180231e-16 -0.9955718398825631 -0.09400378520489665
  outer loop
    vertex 6.151867327500604 46.21611744169445 25.86361477832069
    vertex -29.8481326724994 46.54315853165956 22.400000000000006
    vertex 6.151867327500592 46.54315853165956 22.400000000000002
  endloop
endfacet
facet normal -1.334945714180231e-16 -0.9955718398825631 -0.09400378520489665
  outer loop
    vertex -29.8481326724994 46.54315853165956 22.400000000000006
    vertex 6.151867327500604 46.21611744169445 25.86361477832069
    vertex -29.848132672499393 46.21611744169445 25.86361477832069
  endloop
endfacet
facet normal 1.9827217880408806e-17 -0.9955718398825631 0.09400378520489665
  outer loop
    vertex 6.151867327500592 46.54315853165956 22.400000000000002
    vertex -29.848132672499403 46.21611744169445 18.936385221679316
    vertex 6.151867327500592 46.21611744169445 18.936385221679313
  endloop
endfacet
facet normal 1.9827217880408806e-17 -0.9955718398825631 0.09400378520489665
  outer loop
    vertex -29.848132672499403 46.21611744169445 18.936385221679316
    vertex 6.151867327500592 46.54315853165956 22.400000000000002
    vertex -29.8481326724994 46.54315853165956 22.400000000000006
  endloop
endfacet
facet normal 1.7244817755127424e-16 -0.9603815148472583 0.2786886182456786
  outer loop
    vertex 6.151867327500592 46.21611744169445 18.936385221679313
    vertex -29.848132672499403 45.246554043015585 15.59519830337179
    vertex 6.151867327500592 45.246554043015585 15.595198303371786
  endloop
endfacet
facet normal 1.7244817755127424e-16 -0.9603815148472583 0.2786886182456786
  outer loop
    vertex -29.848132672499403 45.246554043015585 15.59519830337179
    vertex 6.151867327500592 46.21611744169445 18.936385221679313
    vertex -29.848132672499403 46.21611744169445 18.936385221679316
  endloop
endfacet
facet normal 3.1897363795561802e-16 -0.8912447317950608 0.45352268746728663
  outer loop
    vertex 6.151867327500592 45.246554043015585 15.595198303371786
    vertex -29.84813267249941 43.66873934427853 12.494539666311544
    vertex 6.151867327500581 43.66873934427853 12.494539666311532
  endloop
endfacet
facet normal 3.1897363795561802e-16 -0.8912447317950608 0.45352268746728663
  outer loop
    vertex -29.84813267249941 43.66873934427853 12.494539666311544
    vertex 6.151867327500592 45.246554043015585 15.595198303371786
    vertex -29.848132672499403 45.246554043015585 15.59519830337179
  endloop
endfacet
facet normal 4.542243861315834e-16 -0.7906052579861922 0.6123261598564824
  outer loop
    vertex 6.151867327500581 43.66873934427853 12.494539666311532
    vertex -29.84813267249941 41.5384441194945 9.744007815488978
    vertex 6.151867327500581 41.5384441194945 9.744007815488965
  endloop
endfacet
facet normal 4.542243861315834e-16 -0.7906052579861922 0.6123261598564824
  outer loop
    vertex -29.84813267249941 41.5384441194945 9.744007815488978
    vertex 6.151867327500581 43.66873934427853 12.494539666311532
    vertex -29.84813267249941 43.66873934427853 12.494539666311544
  endloop
endfacet
facet normal 5.734197346401416e-16 -0.6620203814563722 0.7494858334460761
  outer loop
    vertex 6.151867327500581 38.93096758704051 7.440825378114813
    vertex -29.84813267249941 41.5384441194945 9.744007815488978
    vertex -29.84813267249941 38.93096758704051 7.440825378114825
  endloop
endfacet
facet normal 5.734197346401416e-16 -0.6620203814563722 0.7494858334460761
  outer loop
    vertex -29.84813267249941 41.5384441194945 9.744007815488978
    vertex 6.151867327500581 38.93096758704051 7.440825378114813
    vertex 6.151867327500581 41.5384441194945 9.744007815488965
  endloop
endfacet
facet normal 4.3824874732251276e-16 -0.5100351721025619 0.860153546303397
  outer loop
    vertex 6.151867327500581 35.93847581974341 5.666402590336726
    vertex -29.84813267249941 38.93096758704051 7.440825378114825
    vertex -29.84813267249941 35.93847581974341 5.66640259033675
  endloop
endfacet
facet normal 4.3824874732251276e-16 -0.5100351721025619 0.860153546303397
  outer loop
    vertex -29.84813267249941 38.93096758704051 7.440825378114825
    vertex 6.151867327500581 35.93847581974341 5.666402590336726
    vertex 6.151867327500581 38.93096758704051 7.440825378114813
  endloop
endfacet
facet normal 1.0 8.546712702095408e-16 -1.13546320488909e-15
  outer loop
    vertex -29.84813267249941 35.93847581974341 5.66640259033675
    vertex -29.848132672499375 38.930967587040506 37.359174621885174
    vertex -29.84813267249937 35.9384758197434 39.133597409663246
  endloop
endfacet
facet normal 1.0 8.546712702095408e-16 -1.13546320488909e-15
  outer loop
    vertex -29.848132672499375 38.930967587040506 37.359174621885174
    vertex -29.84813267249941 35.93847581974341 5.66640259033675
    vertex -29.84813267249941 38.93096758704051 7.440825378114825
  endloop
endfacet
facet normal 1.0 8.546712702095408e-16 -1.13546320488909e-15
  outer loop
    vertex -29.848132672499375 38.930967587040506 37.359174621885174
    vertex -29.84813267249941 38.93096758704051 7.440825378114825
    vertex -29.848132672499382 41.5384441194945 35.05599218451102
  endloop
endfacet
facet normal 1.0 8.546712702095408e-16 -1.13546320488909e-15
  outer loop
    vertex -29.848132672499382 41.5384441194945 35.05599218451102
    vertex -29.84813267249941 38.93096758704051 7.440825378114825
    vertex -29.84813267249941 41.5384441194945 9.744007815488978
  endloop
endfacet
facet normal 1.0 8.546712702095408e-16 -1.13546320488909e-15
  outer loop
    vertex -29.848132672499382 41.5384441194945 35.05599218451102
    vertex -29.84813267249941 41.5384441194945 9.744007815488978
    vertex -29.84813267249941 43.66873934427853 12.494539666311544
  endloop
endfacet
facet normal 1.0 8.546712702095408e-16 -1.13546320488909e-15
  outer loop
    vertex -29.848132672499382 41.5384441194945 35.05599218451102
    vertex -29.84813267249941 43.66873934427853 12.494539666311544
    vertex -29.848132672499386 43.66873934427853 32.30546033368846
  endloop
endfacet
facet normal 1.0 8.546712702095408e-16 -1.13546320488909e-15
  outer loop
    vertex -29.848132672499386 43.66873934427853 32.30546033368846
    vertex -29.84813267249941 43.66873934427853 12.494539666311544
    vertex -29.848132672499403 45.246554043015585 15.59519830337179
  endloop
endfacet
facet normal 1.0 8.546712702095408e-16 -1.13546320488909e-15
  outer loop
    vertex -29.848132672499386 43.66873934427853 32.30546033368846
    vertex -29.848132672499403 45.246554043015585 15.59519830337179
    vertex -29.848132672499393 45.246554043015585 29.204801696628213
  endloop
endfacet
facet normal 1.0 8.546712702095408e-16 -1.13546320488909e-15
  outer loop
    vertex -29.848132672499393 45.246554043015585 29.204801696628213
    vertex -29.848132672499403 45.246554043015585 15.59519830337179
    vertex -29.848132672499403 46.21611744169445 18.936385221679316
  endloop
endfacet
facet normal 1.0 8.546712702095408e-16 -1.13546320488909e-15
  outer loop
    vertex -29.848132672499393 45.246554043015585 29.204801696628213
    vertex -29.848132672499403 46.21611744169445 18.936385221679316
    vertex -29.848132672499393 46.21611744169445 25.86361477832069
  endloop
endfacet
facet normal 1.0 8.546712702095408e-16 -1.13546320488909e-15
  outer loop
    vertex -29.848132672499393 46.21611744169445 25.86361477832069
    vertex -29.848132672499403 46.21611744169445 18.936385221679316
    vertex -29.8481326724994 46.54315853165956 22.400000000000006
  endloop
endfacet
facet normal -1.8092207901009559e-16 0.4636530022495434 -0.8860168697632034
  outer loop
    vertex 8.151867327500605 39.63859846537506 4.736275743595186
    vertex -31.848132672499393 35.9384758197434 2.799999999999992
    vertex -31.848132672499393 39.63859846537506 4.736275743595188
  endloop
endfacet
facet normal -1.8092207901009559e-16 0.4636530022495434 -0.8860168697632034
  outer loop
    vertex -31.848132672499393 35.9384758197434 2.799999999999992
    vertex 8.151867327500605 39.63859846537506 4.736275743595186
    vertex 6.151867327500604 35.9384758197434 2.7999999999999665
  endloop
endfacet
facet normal -1.8092207901009559e-16 0.4636530022495434 -0.8860168697632034
  outer loop
    vertex 6.151867327500604 35.9384758197434 2.7999999999999665
    vertex 8.151867327500605 39.63859846537506 4.736275743595186
    vertex 8.151867327500605 35.9384758197434 2.799999999999989
  endloop
endfacet
facet normal -5.49467054771401e-17 0.4636530022495398 0.8860168697632053
  outer loop
    vertex 6.151867327500626 35.9384758197434 42.00000000000001
    vertex -31.84813267249937 39.63859846537507 40.06372425640482
    vertex -31.84813267249937 35.9384758197434 42.00000000000001
  endloop
endfacet
facet normal -5.49467054771401e-17 0.4636530022495398 0.8860168697632053
  outer loop
    vertex -31.84813267249937 39.63859846537507 40.06372425640482
    vertex 6.151867327500626 35.9384758197434 42.00000000000001
    vertex 8.151867327500629 39.63859846537507 40.063724256404825
  endloop
endfacet
facet normal -5.49467054771401e-17 0.4636530022495398 0.8860168697632053
  outer loop
    vertex 8.151867327500629 39.63859846537507 40.063724256404825
    vertex 6.151867327500626 35.9384758197434 42.00000000000001
    vertex 8.151867327500629 35.9384758197434 42.00000000000001
  endloop
endfacet
facet normal -2.1444250058597792e-17 0.7694619532976505 -0.6386926509890061
  outer loop
    vertex -31.84813267249939 42.885697023887566 7.362379758910919
    vertex 8.15186732750061 45.55296129635513 10.57575378768028
    vertex 8.15186732750061 42.885697023887566 7.362379758910917
  endloop
endfacet
facet normal -2.1444250058597792e-17 0.7694619532976505 -0.6386926509890061
  outer loop
    vertex 8.15186732750061 45.55296129635513 10.57575378768028
    vertex -31.84813267249939 42.885697023887566 7.362379758910919
    vertex -31.84813267249939 45.55296129635513 10.575753787680283
  endloop
endfacet
facet normal 2.0994371908152886e-16 0.995106352644507 0.09880964996672205
  outer loop
    vertex -31.84813267249938 48.75803667703578 26.555694632784945
    vertex 8.151867327500616 49.17067873377959 22.399999999999995
    vertex -31.848132672499382 49.1706787337796 22.399999999999995
  endloop
endfacet
facet normal 2.0994371908152886e-16 0.995106352644507 0.09880964996672205
  outer loop
    vertex 8.151867327500616 49.17067873377959 22.399999999999995
    vertex -31.84813267249938 48.75803667703578 26.555694632784945
    vertex 8.151867327500623 48.758036677035776 26.555694632784945
  endloop
endfacet
facet normal 6.155718530083144e-17 0.8800372335097907 0.47490469321373785
  outer loop
    vertex -31.84813267249938 45.55296129635513 34.22424621231971
    vertex 8.151867327500623 47.53622557703021 30.54909531188722
    vertex -31.84813267249938 47.53622557703021 30.54909531188722
  endloop
endfacet
facet normal 6.155718530083144e-17 0.8800372335097907 0.47490469321373785
  outer loop
    vertex 8.151867327500623 47.53622557703021 30.54909531188722
    vertex -31.84813267249938 45.55296129635513 34.22424621231971
    vertex 8.151867327500623 45.55296129635513 34.22424621231971
  endloop
endfacet
facet normal -4.32119846653812e-17 0.769461953297652 0.6386926509890043
  outer loop
    vertex -31.84813267249937 42.88569702388757 37.43762024108908
    vertex 8.151867327500623 45.55296129635513 34.22424621231971
    vertex -31.84813267249938 45.55296129635513 34.22424621231971
  endloop
endfacet
facet normal -4.32119846653812e-17 0.769461953297652 0.6386926509890043
  outer loop
    vertex 8.151867327500623 45.55296129635513 34.22424621231971
    vertex -31.84813267249937 42.88569702388757 37.43762024108908
    vertex 8.151867327500629 42.88569702388757 37.437620241089085
  endloop
endfacet
facet normal -1.0877498805988872e-16 0.6288365770982212 0.7775374970401062
  outer loop
    vertex 8.151867327500629 39.63859846537507 40.063724256404825
    vertex -31.84813267249937 42.88569702388757 37.43762024108908
    vertex -31.84813267249937 39.63859846537507 40.06372425640482
  endloop
endfacet
facet normal -1.0877498805988872e-16 0.6288365770982212 0.7775374970401062
  outer loop
    vertex -31.84813267249937 42.88569702388757 37.43762024108908
    vertex 8.151867327500629 39.63859846537507 40.063724256404825
    vertex 8.151867327500629 42.88569702388757 37.437620241089085
  endloop
endfacet
facet normal 1.4703191915848595e-16 0.8800372335097914 -0.4749046932137362
  outer loop
    vertex -31.84813267249939 45.55296129635513 10.575753787680283
    vertex 8.15186732750061 47.536225577030194 14.250904688112774
    vertex 8.15186732750061 45.55296129635513 10.57575378768028
  endloop
endfacet
facet normal 1.4703191915848595e-16 0.8800372335097914 -0.4749046932137362
  outer loop
    vertex 8.15186732750061 47.536225577030194 14.250904688112774
    vertex -31.84813267249939 45.55296129635513 10.575753787680283
    vertex -31.84813267249939 47.53622557703021 14.250904688112769
  endloop
endfacet
facet normal 1.0 -8.260843979288916e-17 -5.8642093699504905e-16
  outer loop
    vertex 8.151867327500605 39.63859846537506 4.736275743595186
    vertex 8.151867327500629 35.9384758197434 42.00000000000001
    vertex 8.151867327500605 35.9384758197434 2.799999999999989
  endloop
endfacet
facet normal 1.0 -8.260843979288916e-17 -5.8642093699504905e-16
  outer loop
    vertex 8.151867327500629 35.9384758197434 42.00000000000001
    vertex 8.151867327500605 39.63859846537506 4.736275743595186
    vertex 8.151867327500629 39.63859846537507 40.063724256404825
  endloop
endfacet
facet normal 1.0 -8.260843979288916e-17 -5.8642093699504905e-16
  outer loop
    vertex 8.151867327500629 39.63859846537507 40.063724256404825
    vertex 8.151867327500605 39.63859846537506 4.736275743595186
    vertex 8.15186732750061 42.885697023887566 7.362379758910917
  endloop
endfacet
facet normal 1.0 -8.260843979288916e-17 -5.8642093699504905e-16
  outer loop
    vertex 8.151867327500629 39.63859846537507 40.063724256404825
    vertex 8.15186732750061 42.885697023887566 7.362379758910917
    vertex 8.151867327500629 42.88569702388757 37.437620241089085
  endloop
endfacet
facet normal 1.0 -8.260843979288916e-17 -5.8642093699504905e-16
  outer loop
    vertex 8.151867327500629 42.88569702388757 37.437620241089085
    vertex 8.15186732750061 42.885697023887566 7.362379758910917
    vertex 8.15186732750061 45.55296129635513 10.57575378768028
  endloop
endfacet
facet normal 1.0 -8.260843979288916e-17 -5.8642093699504905e-16
  outer loop
    vertex 8.151867327500629 42.88569702388757 37.437620241089085
    vertex 8.15186732750061 45.55296129635513 10.57575378768028
    vertex 8.151867327500623 45.55296129635513 34.22424621231971
  endloop
endfacet
facet normal 1.0 -8.260843979288916e-17 -5.8642093699504905e-16
  outer loop
    vertex 8.151867327500623 45.55296129635513 34.22424621231971
    vertex 8.15186732750061 45.55296129635513 10.57575378768028
    vertex 8.15186732750061 47.536225577030194 14.250904688112774
  endloop
endfacet
facet normal 1.0 -8.260843979288916e-17 -5.8642093699504905e-16
  outer loop
    vertex 8.151867327500623 45.55296129635513 34.22424621231971
    vertex 8.15186732750061 47.536225577030194 14.250904688112774
    vertex 8.151867327500623 47.53622557703021 30.54909531188722
  endloop
endfacet
facet normal 1.0 -8.260843979288916e-17 -5.8642093699504905e-16
  outer loop
    vertex 8.151867327500623 47.53622557703021 30.54909531188722
    vertex 8.15186732750061 47.536225577030194 14.250904688112774
    vertex 8.151867327500616 48.75803667703577 18.24430536721505
  endloop
endfacet
facet normal 1.0 -8.260843979288916e-17 -5.8642093699504905e-16
  outer loop
    vertex 8.151867327500623 47.53622557703021 30.54909531188722
    vertex 8.151867327500616 48.75803667703577 18.24430536721505
    vertex 8.151867327500623 48.758036677035776 26.555694632784945
  endloop
endfacet
facet normal 1.0 -8.260843979288916e-17 -5.8642093699504905e-16
  outer loop
    vertex 8.151867327500623 48.758036677035776 26.555694632784945
    vertex 8.151867327500616 48.75803667703577 18.24430536721505
    vertex 8.151867327500616 49.17067873377959 22.399999999999995
  endloop
endfacet
facet normal 1.3511321704400616e-16 0.9562440784457924 0.29257009833090797
  outer loop
    vertex -31.84813267249938 47.53622557703021 30.54909531188722
    vertex 8.151867327500623 48.758036677035776 26.555694632784945
    vertex -31.84813267249938 48.75803667703578 26.555694632784945
  endloop
endfacet
facet normal 1.3511321704400616e-16 0.9562440784457924 0.29257009833090797
  outer loop
    vertex 8.151867327500623 48.758036677035776 26.555694632784945
    vertex -31.84813267249938 47.53622557703021 30.54909531188722
    vertex 8.151867327500623 47.53622557703021 30.54909531188722
  endloop
endfacet
facet normal 3.508146664810158e-16 0.995106352644507 -0.09880964996672345
  outer loop
    vertex -31.848132672499382 49.1706787337796 22.399999999999995
    vertex 8.151867327500616 48.75803667703577 18.24430536721505
    vertex -31.848132672499382 48.75803667703578 18.24430536721505
  endloop
endfacet
facet normal 3.508146664810158e-16 0.995106352644507 -0.09880964996672345
  outer loop
    vertex 8.151867327500616 48.75803667703577 18.24430536721505
    vertex -31.848132672499382 49.1706787337796 22.399999999999995
    vertex 8.151867327500616 49.17067873377959 22.399999999999995
  endloop
endfacet
facet normal -2.879277432894574e-17 0.6288365770982202 -0.7775374970401069
  outer loop
    vertex -31.84813267249939 42.885697023887566 7.362379758910919
    vertex 8.151867327500605 39.63859846537506 4.736275743595186
    vertex -31.848132672499393 39.63859846537506 4.736275743595188
  endloop
endfacet
facet normal -2.879277432894574e-17 0.6288365770982202 -0.7775374970401069
  outer loop
    vertex 8.151867327500605 39.63859846537506 4.736275743595186
    vertex -31.84813267249939 42.885697023887566 7.362379758910919
    vertex 8.15186732750061 42.885697023887566 7.362379758910917
  endloop
endfacet
facet normal 3.5632091468275473e-16 0.9562440784457924 -0.2925700983309087
  outer loop
    vertex -31.848132672499382 48.75803667703578 18.24430536721505
    vertex 8.15186732750061 47.536225577030194 14.250904688112774
    vertex -31.84813267249939 47.53622557703021 14.250904688112769
  endloop
endfacet
facet normal 3.5632091468275473e-16 0.9562440784457924 -0.2925700983309087
  outer loop
    vertex 8.15186732750061 47.536225577030194 14.250904688112774
    vertex -31.848132672499382 48.75803667703578 18.24430536721505
    vertex 8.151867327500616 48.75803667703577 18.24430536721505
  endloop
endfacet
facet normal -1.0 2.2598644401433975e-16 7.59491443153123e-16
  outer loop
    vertex 6.151867327500615 38.930967587040506 37.359174621885174
    vertex 6.151867327500581 35.93847581974341 5.666402590336726
    vertex 6.151867327500626 35.9384758197434 39.133597409663246
  endloop
endfacet
facet normal -1.0 2.2598644401433975e-16 7.59491443153123e-16
  outer loop
    vertex 6.151867327500581 35.93847581974341 5.666402590336726
    vertex 6.151867327500615 38.930967587040506 37.359174621885174
    vertex 6.151867327500581 38.93096758704051 7.440825378114813
  endloop
endfacet
facet normal -1.0 2.2598644401433975e-16 7.59491443153123e-16
  outer loop
    vertex 6.151867327500581 38.93096758704051 7.440825378114813
    vertex 6.151867327500615 38.930967587040506 37.359174621885174
    vertex 6.151867327500615 41.5384441194945 35.05599218451102
  endloop
endfacet
facet normal -1.0 2.2598644401433975e-16 7.59491443153123e-16
  outer loop
    vertex 6.151867327500581 38.93096758704051 7.440825378114813
    vertex 6.151867327500615 41.5384441194945 35.05599218451102
    vertex 6.151867327500581 41.5384441194945 9.744007815488965
  endloop
endfacet
facet normal -1.0 2.2598644401433975e-16 7.59491443153123e-16
  outer loop
    vertex 6.151867327500581 41.5384441194945 9.744007815488965
    vertex 6.151867327500615 41.5384441194945 35.05599218451102
    vertex 6.151867327500604 43.66873934427853 32.30546033368846
  endloop
endfacet
facet normal -1.0 2.2598644401433975e-16 7.59491443153123e-16
  outer loop
    vertex 6.151867327500581 41.5384441194945 9.744007815488965
    vertex 6.151867327500604 43.66873934427853 32.30546033368846
    vertex 6.151867327500581 43.66873934427853 12.494539666311532
  endloop
endfacet
facet normal -1.0 2.2598644401433975e-16 7.59491443153123e-16
  outer loop
    vertex 6.151867327500581 43.66873934427853 12.494539666311532
    vertex 6.151867327500604 43.66873934427853 32.30546033368846
    vertex 6.151867327500604 45.246554043015585 29.204801696628213
  endloop
endfacet
facet normal -1.0 2.2598644401433975e-16 7.59491443153123e-16
  outer loop
    vertex 6.151867327500581 43.66873934427853 12.494539666311532
    vertex 6.151867327500604 45.246554043015585 29.204801696628213
    vertex 6.151867327500592 45.246554043015585 15.595198303371786
  endloop
endfacet
facet normal -1.0 2.2598644401433975e-16 7.59491443153123e-16
  outer loop
    vertex 6.151867327500592 45.246554043015585 15.595198303371786
    vertex 6.151867327500604 45.246554043015585 29.204801696628213
    vertex 6.151867327500604 46.21611744169445 25.86361477832069
  endloop
endfacet
facet normal -1.0 2.2598644401433975e-16 7.59491443153123e-16
  outer loop
    vertex 6.151867327500592 45.246554043015585 15.595198303371786
    vertex 6.151867327500604 46.21611744169445 25.86361477832069
    vertex 6.151867327500592 46.21611744169445 18.936385221679313
  endloop
endfacet
facet normal -1.0 2.2598644401433975e-16 7.59491443153123e-16
  outer loop
    vertex 6.151867327500592 46.21611744169445 18.936385221679313
    vertex 6.151867327500604 46.21611744169445 25.86361477832069
    vertex 6.151867327500592 46.54315853165956 22.400000000000002
  endloop
endfacet
facet normal 0.0 -1.0 0.0
  outer loop
    vertex 8.151867327500605 35.9384758197434 2.799999999999989
    vertex -31.848132672499393 35.9384758197434 2.799999999999992
    vertex 6.151867327500604 35.9384758197434 2.7999999999999665
  endloop
endfacet
facet normal 0.0 -1.0 0.0
  outer loop
    vertex -31.848132672499393 35.9384758197434 2.799999999999992
    vertex 8.151867327500605 35.9384758197434 2.799999999999989
    vertex 6.151867327500581 35.93847581974341 5.666402590336726
  endloop
endfacet
facet normal 0.0 -1.0 0.0
  outer loop
    vertex 6.151867327500581 35.93847581974341 5.666402590336726
    vertex 8.151867327500605 35.9384758197434 2.799999999999989
    vertex 8.151867327500629 35.9384758197434 42.00000000000001
  endloop
endfacet
facet normal 0.0 -1.0 0.0
  outer loop
    vertex 6.151867327500581 35.93847581974341 5.666402590336726
    vertex 8.151867327500629 35.9384758197434 42.00000000000001
    vertex 6.151867327500626 35.9384758197434 39.133597409663246
  endloop
endfacet
facet normal 0.0 -1.0 0.0
  outer loop
    vertex 6.151867327500626 35.9384758197434 39.133597409663246
    vertex 8.151867327500629 35.9384758197434 42.00000000000001
    vertex -29.84813267249937 35.9384758197434 39.133597409663246
  endloop
endfacet
facet normal 0.0 -1.0 0.0
  outer loop
    vertex -31.848132672499393 35.9384758197434 2.799999999999992
    vertex -29.84813267249941 35.93847581974341 5.66640259033675
    vertex -31.84813267249937 35.9384758197434 42.00000000000001
  endloop
endfacet
facet normal 0.0 -1.0 0.0
  outer loop
    vertex -29.84813267249941 35.93847581974341 5.66640259033675
    vertex -31.848132672499393 35.9384758197434 2.799999999999992
    vertex 6.151867327500581 35.93847581974341 5.666402590336726
  endloop
endfacet
facet normal 0.0 -1.0 0.0
  outer loop
    vertex -31.84813267249937 35.9384758197434 42.00000000000001
    vertex -29.84813267249941 35.93847581974341 5.66640259033675
    vertex -29.84813267249937 35.9384758197434 39.133597409663246
  endloop
endfacet
facet normal 0.0 -1.0 0.0
  outer loop
    vertex -31.84813267249937 35.9384758197434 42.00000000000001
    vertex -29.84813267249937 35.9384758197434 39.133597409663246
    vertex 8.151867327500629 35.9384758197434 42.00000000000001
  endloop
endfacet
facet normal 0.0 -1.0 0.0
  outer loop
    vertex -31.84813267249937 35.9384758197434 42.00000000000001
    vertex 8.151867327500629 35.9384758197434 42.00000000000001
    vertex 6.151867327500626 35.9384758197434 42.00000000000001
  endloop
endfacet
facet normal -1.6571736481500087e-18 -0.5100351721025607 -0.8601535463033977
  outer loop
    vertex 6.151867327500615 38.930967587040506 37.359174621885174
    vertex -29.84813267249937 35.9384758197434 39.133597409663246
    vertex -29.848132672499375 38.930967587040506 37.359174621885174
  endloop
endfacet
facet normal -1.6571736481500087e-18 -0.5100351721025607 -0.8601535463033977
  outer loop
    vertex -29.84813267249937 35.9384758197434 39.133597409663246
    vertex 6.151867327500615 38.930967587040506 37.359174621885174
    vertex 6.151867327500626 35.9384758197434 39.133597409663246
  endloop
endfacet
facet normal -1.0 8.260843979288907e-17 5.864209369950491e-16
  outer loop
    vertex -31.84813267249937 39.63859846537507 40.06372425640482
    vertex -31.848132672499393 35.9384758197434 2.799999999999992
    vertex -31.84813267249937 35.9384758197434 42.00000000000001
  endloop
endfacet
facet normal -1.0 8.260843979288907e-17 5.864209369950491e-16
  outer loop
    vertex -31.848132672499393 35.9384758197434 2.799999999999992
    vertex -31.84813267249937 39.63859846537507 40.06372425640482
    vertex -31.848132672499393 39.63859846537506 4.736275743595188
  endloop
endfacet
facet normal -1.0 8.260843979288907e-17 5.864209369950491e-16
  outer loop
    vertex -31.848132672499393 39.63859846537506 4.736275743595188
    vertex -31.84813267249937 39.63859846537507 40.06372425640482
    vertex -31.84813267249939 42.885697023887566 7.362379758910919
  endloop
endfacet
facet normal -1.0 8.260843979288907e-17 5.864209369950491e-16
  outer loop
    vertex -31.84813267249939 42.885697023887566 7.362379758910919
    vertex -31.84813267249937 39.63859846537507 40.06372425640482
    vertex -31.84813267249937 42.88569702388757 37.43762024108908
  endloop
endfacet
facet normal -1.0 8.260843979288907e-17 5.864209369950491e-16
  outer loop
    vertex -31.84813267249939 42.885697023887566 7.362379758910919
    vertex -31.84813267249937 42.88569702388757 37.43762024108908
    vertex -31.84813267249939 45.55296129635513 10.575753787680283
  endloop
endfacet
facet normal -1.0 8.260843979288907e-17 5.864209369950491e-16
  outer loop
    vertex -31.84813267249939 45.55296129635513 10.575753787680283
    vertex -31.84813267249937 42.88569702388757 37.43762024108908
    vertex -31.84813267249938 45.55296129635513 34.22424621231971
  endloop
endfacet
facet normal -1.0 8.260843979288907e-17 5.864209369950491e-16
  outer loop
    vertex -31.84813267249939 45.55296129635513 10.575753787680283
    vertex -31.84813267249938 45.55296129635513 34.22424621231971
    vertex -31.84813267249938 47.53622557703021 30.54909531188722
  endloop
endfacet
facet normal -1.0 8.260843979288907e-17 5.864209369950491e-16
  outer loop
    vertex -31.84813267249939 45.55296129635513 10.575753787680283
    vertex -31.84813267249938 47.53622557703021 30.54909531188722
    vertex -31.84813267249939 47.53622557703021 14.250904688112769
  endloop
endfacet
facet normal -1.0 8.260843979288907e-17 5.864209369950491e-16
  outer loop
    vertex -31.84813267249939 47.53622557703021 14.250904688112769
    vertex -31.84813267249938 47.53622557703021 30.54909531188722
    vertex -31.848132672499382 48.75803667703578 18.24430536721505
  endloop
endfacet
facet normal -1.0 8.260843979288907e-17 5.864209369950491e-16
  outer loop
    vertex -31.848132672499382 48.75803667703578 18.24430536721505
    vertex -31.84813267249938 47.53622557703021 30.54909531188722
    vertex -31.84813267249938 48.75803667703578 26.555694632784945
  endloop
endfacet
facet normal -1.0 8.260843979288907e-17 5.864209369950491e-16
  outer loop
    vertex -31.848132672499382 48.75803667703578 18.24430536721505
    vertex -31.84813267249938 48.75803667703578 26.555694632784945
    vertex -31.848132672499382 49.1706787337796 22.399999999999995
  endloop
endfacet
endsolid beta 2
