solid Untitled-5982602c
facet normal 5.3174758397534437e-20 -1.0 1.779089989457767e-11
  outer loop
    vertex 17.087799018220164 22.000000045436764 -18.59999987322281
    vertex 16.087799007759102 22.00000004533002 -24.599999870233937
    vertex 17.087799007759102 22.00000004533002 -24.59999987322281
  endloop
endfacet
facet normal 5.3174758397534437e-20 -1.0 1.779089989457767e-11
  outer loop
    vertex 16.087799007759102 22.00000004533002 -24.599999870233937
    vertex 17.087799018220164 22.000000045436764 -18.59999987322281
    vertex 16.087799018220164 22.000000045436764 -18.599999870233933
  endloop
endfacet
facet normal -1.4100231223552878e-15 1.0 -1.779089989457521e-11
  outer loop
    vertex 16.087799007759102 0.9999999612472009 -24.599999870233937
    vertex 17.087799018220164 0.9999999613539479 -18.599999872475593
    vertex 17.087799007759102 0.9999999612472024 -24.599999872475593
  endloop
endfacet
facet normal -1.4100231223552878e-15 1.0 -1.779089989457521e-11
  outer loop
    vertex 17.087799018220164 0.9999999613539479 -18.599999872475593
    vertex 16.087799007759102 0.9999999612472009 -24.599999870233937
    vertex 16.087799018220164 0.9999999613539464 -18.599999870233933
  endloop
endfacet
facet normal -1.7435100770531625e-09 -1.779089989457767e-11 -1.0
  outer loop
    vertex 17.087799018220164 22.000000045436764 -18.59999987322281
    vertex 16.087799018220164 0.9999999613539464 -18.599999870233933
    vertex 16.087799018220164 22.000000045436764 -18.599999870233933
  endloop
endfacet
facet normal -1.7435100770531625e-09 -1.779089989457767e-11 -1.0
  outer loop
    vertex 16.087799018220164 0.9999999613539464 -18.599999870233933
    vertex 17.087799018220164 22.000000045436764 -18.59999987322281
    vertex 17.087799018220164 0.9999999613539479 -18.599999872475593
  endloop
endfacet
facet normal 4.483311720820465e-09 -3.9434450263271733e-17 1.0
  outer loop
    vertex 17.087799007759102 -9.500000081893686 16.600000052280553
    vertex 16.087799377183984 32.500000086271946 16.600000056763864
    vertex 16.087799007759102 -9.50000007749577 16.600000056763864
  endloop
endfacet
facet normal 4.483311720820465e-09 -3.9434450263271733e-17 1.0
  outer loop
    vertex 16.087799377183984 32.500000086271946 16.600000056763864
    vertex 17.087799007759102 -9.500000081893686 16.600000052280553
    vertex 17.087799377183988 32.500000081874035 16.600000052280553
  endloop
endfacet
facet normal -2.1989576934716347e-09 -1.0 5.337275965066146e-11
  outer loop
    vertex 17.087799007759102 -9.500000081893686 16.600000052280553
    vertex 16.087799007759102 -9.500000081893686 -24.599999870233937
    vertex 17.087799007759102 -9.500000081893686 -24.59999987471725
  endloop
endfacet
facet normal -2.1989576934716347e-09 -1.0 5.337275965066146e-11
  outer loop
    vertex 16.087799007759102 -9.500000081893686 -24.599999870233937
    vertex 17.087799007759102 -9.500000081893686 16.600000052280553
    vertex 16.087799007759102 -9.50000007749577 16.600000056763864
  endloop
endfacet
facet normal 4.397915282149406e-09 1.0 -3.9434450263271746e-17
  outer loop
    vertex 16.087799007759102 32.500000086271946 -24.599999870233937
    vertex 17.087799377183988 32.500000081874035 16.600000052280553
    vertex 17.087799007759102 32.500000081874035 -24.59999987471725
  endloop
endfacet
facet normal 4.397915282149406e-09 1.0 -3.9434450263271746e-17
  outer loop
    vertex 17.087799377183988 32.500000081874035 16.600000052280553
    vertex 16.087799007759102 32.500000086271946 -24.599999870233937
    vertex 16.087799377183984 32.500000086271946 16.600000056763864
  endloop
endfacet
facet normal -3.736093223839439e-09 -7.116373388726735e-11 -1.0
  outer loop
    vertex 17.087799007759102 32.500000081874035 -24.59999987471725
    vertex 16.087799007759102 22.00000004533002 -24.599999870233937
    vertex 16.087799007759102 32.500000086271946 -24.599999870233937
  endloop
endfacet
facet normal -3.736093223839439e-09 -7.116373388726735e-11 -1.0
  outer loop
    vertex 16.087799007759102 22.00000004533002 -24.599999870233937
    vertex 17.087799007759102 32.500000081874035 -24.59999987471725
    vertex 17.087799007759102 22.00000004533002 -24.59999987322281
  endloop
endfacet
facet normal 1.0 -3.9092580173136644e-09 -4.48331170838706e-09
  outer loop
    vertex 17.087799007759102 32.500000081874035 -24.59999987471725
    vertex 17.087799018220164 22.000000045436764 -18.59999987322281
    vertex 17.087799007759102 22.00000004533002 -24.59999987322281
  endloop
endfacet
facet normal 1.0 -3.9092580173136644e-09 -4.48331170838706e-09
  outer loop
    vertex 17.087799007759102 0.9999999612472024 -24.599999872475593
    vertex 17.087799007759102 -9.500000081893686 16.600000052280553
    vertex 17.087799007759102 -9.500000081893686 -24.59999987471725
  endloop
endfacet
facet normal 1.0 -3.9092580173136644e-09 -4.48331170838706e-09
  outer loop
    vertex 17.087799007759102 -9.500000081893686 16.600000052280553
    vertex 17.087799007759102 0.9999999612472024 -24.599999872475593
    vertex 17.087799018220164 0.9999999613539479 -18.599999872475593
  endloop
endfacet
facet normal 1.0 -3.9092580173136644e-09 -4.48331170838706e-09
  outer loop
    vertex 17.087799007759102 -9.500000081893686 16.600000052280553
    vertex 17.087799018220164 0.9999999613539479 -18.599999872475593
    vertex 17.087799377183988 32.500000081874035 16.600000052280553
  endloop
endfacet
facet normal 1.0 -3.9092580173136644e-09 -4.48331170838706e-09
  outer loop
    vertex 17.087799377183988 32.500000081874035 16.600000052280553
    vertex 17.087799018220164 0.9999999613539479 -18.599999872475593
    vertex 17.087799018220164 22.000000045436764 -18.59999987322281
  endloop
endfacet
facet normal 1.0 -3.9092580173136644e-09 -4.48331170838706e-09
  outer loop
    vertex 17.087799377183988 32.500000081874035 16.600000052280553
    vertex 17.087799018220164 22.000000045436764 -18.59999987322281
    vertex 17.087799007759102 32.500000081874035 -24.59999987471725
  endloop
endfacet
facet normal -1.0 3.909258016932075e-09 4.483311707861691e-09
  outer loop
    vertex 16.087799007759102 -9.50000007749577 16.600000056763864
    vertex 16.087799007759102 0.9999999612472009 -24.599999870233937
    vertex 16.087799007759102 -9.500000081893686 -24.599999870233937
  endloop
endfacet
facet normal -1.0 3.909258016932075e-09 4.483311707861691e-09
  outer loop
    vertex 16.087799007759102 0.9999999612472009 -24.599999870233937
    vertex 16.087799007759102 -9.50000007749577 16.600000056763864
    vertex 16.087799018220164 0.9999999613539464 -18.599999870233933
  endloop
endfacet
facet normal -1.0 3.909258016932075e-09 4.483311707861691e-09
  outer loop
    vertex 16.087799018220164 0.9999999613539464 -18.599999870233933
    vertex 16.087799007759102 -9.50000007749577 16.600000056763864
    vertex 16.087799377183984 32.500000086271946 16.600000056763864
  endloop
endfacet
facet normal -1.0 3.909258016932075e-09 4.483311707861691e-09
  outer loop
    vertex 16.087799018220164 0.9999999613539464 -18.599999870233933
    vertex 16.087799377183984 32.500000086271946 16.600000056763864
    vertex 16.087799018220164 22.000000045436764 -18.599999870233933
  endloop
endfacet
facet normal -1.0 3.909258016932075e-09 4.483311707861691e-09
  outer loop
    vertex 16.087799018220164 22.000000045436764 -18.599999870233933
    vertex 16.087799007759102 32.500000086271946 -24.599999870233937
    vertex 16.087799007759102 22.00000004533002 -24.599999870233937
  endloop
endfacet
facet normal -1.0 3.909258016932075e-09 4.483311707861691e-09
  outer loop
    vertex 16.087799007759102 32.500000086271946 -24.599999870233937
    vertex 16.087799018220164 22.000000045436764 -18.599999870233933
    vertex 16.087799377183984 32.500000086271946 16.600000056763864
  endloop
endfacet
facet normal -3.36248432430963e-09 1.0674553366648707e-10 -1.0
  outer loop
    vertex 17.087799007759102 0.9999999612472024 -24.599999872475593
    vertex 16.087799007759102 -9.500000081893686 -24.599999870233937
    vertex 16.087799007759102 0.9999999612472009 -24.599999870233937
  endloop
endfacet
facet normal -3.36248432430963e-09 1.0674553366648707e-10 -1.0
  outer loop
    vertex 16.087799007759102 -9.500000081893686 -24.599999870233937
    vertex 17.087799007759102 0.9999999612472024 -24.599999872475593
    vertex 17.087799007759102 -9.500000081893686 -24.59999987471725
  endloop
endfacet
endsolid Untitled-5982602c
