solid Untitled
facet normal -1.0 0.0 0.0
  outer loop
    vertex -84.40486252424809 18.635572256934978 28.000000000000004
    vertex -84.40486252424809 -11.364427743065024 -1.5
    vertex -84.40486252424809 -11.364427743065024 28.000000000000004
  endloop
endfacet
facet normal -1.0 0.0 0.0
  outer loop
    vertex -84.40486252424809 -11.364427743065024 -1.5
    vertex -84.40486252424809 18.635572256934978 28.000000000000004
    vertex -84.40486252424809 18.635572256934978 -1.5
  endloop
endfacet
facet normal -0.0 -1.0 -0.0
  outer loop
    vertex -21.404862524248095 -11.364427743065024 28.000000000000004
    vertex -84.40486252424809 -11.364427743065024 -1.5
    vertex -21.404862524248095 -11.364427743065024 -1.5
  endloop
endfacet
facet normal -0.0 -1.0 -0.0
  outer loop
    vertex -84.40486252424809 -11.364427743065024 -1.5
    vertex -21.404862524248095 -11.364427743065024 28.000000000000004
    vertex -84.40486252424809 -11.364427743065024 28.000000000000004
  endloop
endfacet
facet normal 1.0 0.0 0.0
  outer loop
    vertex -21.404862524248095 18.635572256934978 -1.5
    vertex -21.404862524248095 -11.364427743065024 28.000000000000004
    vertex -21.404862524248095 -11.364427743065024 -1.5
  endloop
endfacet
facet normal 1.0 0.0 0.0
  outer loop
    vertex -21.404862524248095 -11.364427743065024 28.000000000000004
    vertex -21.404862524248095 18.635572256934978 -1.5
    vertex -21.404862524248095 18.635572256934978 28.000000000000004
  endloop
endfacet
facet normal 0.0 1.0 0.0
  outer loop
    vertex -84.40486252424809 18.635572256934978 28.000000000000004
    vertex -21.404862524248095 18.635572256934978 -1.5
    vertex -84.40486252424809 18.635572256934978 -1.5
  endloop
endfacet
facet normal 0.0 1.0 0.0
  outer loop
    vertex -21.404862524248095 18.635572256934978 -1.5
    vertex -84.40486252424809 18.635572256934978 28.000000000000004
    vertex -21.404862524248095 18.635572256934978 28.000000000000004
  endloop
endfacet
facet normal 0.0 0.0 -1.0
  outer loop
    vertex -21.404862524248095 18.635572256934978 -1.5
    vertex -84.40486252424809 -11.364427743065024 -1.5
    vertex -84.40486252424809 18.635572256934978 -1.5
  endloop
endfacet
facet normal 0.0 0.0 -1.0
  outer loop
    vertex -84.40486252424809 -11.364427743065024 -1.5
    vertex -21.404862524248095 18.635572256934978 -1.5
    vertex -21.404862524248095 -11.364427743065024 -1.5
  endloop
endfacet
facet normal 0.0 0.0 1.0
  outer loop
    vertex -22.90486252424809 -9.864427743065024 0.0
    vertex -82.90486252424809 17.135572256934978 0.0
    vertex -82.90486252424809 -9.864427743065024 0.0
  endloop
endfacet
facet normal 0.0 0.0 1.0
  outer loop
    vertex -82.90486252424809 17.135572256934978 0.0
    vertex -22.90486252424809 -9.864427743065024 0.0
    vertex -22.90486252424809 17.135572256934978 0.0
  endloop
endfacet
facet normal 0.0 0.0 1.0
  outer loop
    vertex -84.40486252424809 -11.364427743065024 28.000000000000004
    vertex -82.90486252424809 -9.864427743065024 28.000000000000004
    vertex -84.40486252424809 18.635572256934978 28.000000000000004
  endloop
endfacet
facet normal 0.0 0.0 1.0
  outer loop
    vertex -82.90486252424809 -9.864427743065024 28.000000000000004
    vertex -84.40486252424809 -11.364427743065024 28.000000000000004
    vertex -21.404862524248095 -11.364427743065024 28.000000000000004
  endloop
endfacet
facet normal 0.0 0.0 1.0
  outer loop
    vertex -82.90486252424809 -9.864427743065024 28.000000000000004
    vertex -21.404862524248095 -11.364427743065024 28.000000000000004
    vertex -22.90486252424809 -9.864427743065024 28.000000000000004
  endloop
endfacet
facet normal 0.0 0.0 1.0
  outer loop
    vertex -22.90486252424809 -9.864427743065024 28.000000000000004
    vertex -21.404862524248095 -11.364427743065024 28.000000000000004
    vertex -22.90486252424809 17.135572256934978 28.000000000000004
  endloop
endfacet
facet normal 0.0 0.0 1.0
  outer loop
    vertex -84.40486252424809 18.635572256934978 28.000000000000004
    vertex -82.90486252424809 17.135572256934978 28.000000000000004
    vertex -21.404862524248095 18.635572256934978 28.000000000000004
  endloop
endfacet
facet normal 0.0 0.0 1.0
  outer loop
    vertex -82.90486252424809 17.135572256934978 28.000000000000004
    vertex -84.40486252424809 18.635572256934978 28.000000000000004
    vertex -82.90486252424809 -9.864427743065024 28.000000000000004
  endloop
endfacet
facet normal 0.0 0.0 1.0
  outer loop
    vertex -21.404862524248095 18.635572256934978 28.000000000000004
    vertex -82.90486252424809 17.135572256934978 28.000000000000004
    vertex -22.90486252424809 17.135572256934978 28.000000000000004
  endloop
endfacet
facet normal 0.0 0.0 1.0
  outer loop
    vertex -21.404862524248095 18.635572256934978 28.000000000000004
    vertex -22.90486252424809 17.135572256934978 28.000000000000004
    vertex -21.404862524248095 -11.364427743065024 28.000000000000004
  endloop
endfacet
facet normal 1.0 0.0 0.0
  outer loop
    vertex -82.90486252424809 17.135572256934978 0.0
    vertex -82.90486252424809 -9.864427743065024 28.000000000000004
    vertex -82.90486252424809 -9.864427743065024 0.0
  endloop
endfacet
facet normal 1.0 0.0 0.0
  outer loop
    vertex -82.90486252424809 -9.864427743065024 28.000000000000004
    vertex -82.90486252424809 17.135572256934978 0.0
    vertex -82.90486252424809 17.135572256934978 28.000000000000004
  endloop
endfacet
facet normal 0.0 -1.0 0.0
  outer loop
    vertex -22.90486252424809 17.135572256934978 28.000000000000004
    vertex -82.90486252424809 17.135572256934978 0.0
    vertex -22.90486252424809 17.135572256934978 0.0
  endloop
endfacet
facet normal 0.0 -1.0 0.0
  outer loop
    vertex -82.90486252424809 17.135572256934978 0.0
    vertex -22.90486252424809 17.135572256934978 28.000000000000004
    vertex -82.90486252424809 17.135572256934978 28.000000000000004
  endloop
endfacet
facet normal -1.0 -0.0 -0.0
  outer loop
    vertex -22.90486252424809 17.135572256934978 28.000000000000004
    vertex -22.90486252424809 -9.864427743065024 0.0
    vertex -22.90486252424809 -9.864427743065024 28.000000000000004
  endloop
endfacet
facet normal -1.0 -0.0 -0.0
  outer loop
    vertex -22.90486252424809 -9.864427743065024 0.0
    vertex -22.90486252424809 17.135572256934978 28.000000000000004
    vertex -22.90486252424809 17.135572256934978 0.0
  endloop
endfacet
facet normal 0.0 1.0 0.0
  outer loop
    vertex -82.90486252424809 -9.864427743065024 28.000000000000004
    vertex -22.90486252424809 -9.864427743065024 0.0
    vertex -82.90486252424809 -9.864427743065024 0.0
  endloop
endfacet
facet normal 0.0 1.0 0.0
  outer loop
    vertex -22.90486252424809 -9.864427743065024 0.0
    vertex -82.90486252424809 -9.864427743065024 28.000000000000004
    vertex -22.90486252424809 -9.864427743065024 28.000000000000004
  endloop
endfacet
endsolid Untitled
