solid Untitled
facet normal -1.0 0.0 0.0
  outer loop
    vertex -84.40486252424809 18.635572256934978 29.500000000000004
    vertex -84.40486252424809 -11.364427743065024 28.000000000000004
    vertex -84.40486252424809 -11.364427743065024 29.500000000000004
  endloop
endfacet
facet normal -1.0 0.0 0.0
  outer loop
    vertex -84.40486252424809 -11.364427743065024 28.000000000000004
    vertex -84.40486252424809 18.635572256934978 29.500000000000004
    vertex -84.40486252424809 18.635572256934978 28.000000000000004
  endloop
endfacet
facet normal -0.0 -1.0 -0.0
  outer loop
    vertex -21.404862524248095 -11.364427743065024 29.500000000000004
    vertex -84.40486252424809 -11.364427743065024 28.000000000000004
    vertex -21.404862524248095 -11.364427743065024 28.000000000000004
  endloop
endfacet
facet normal -0.0 -1.0 -0.0
  outer loop
    vertex -84.40486252424809 -11.364427743065024 28.000000000000004
    vertex -21.404862524248095 -11.364427743065024 29.500000000000004
    vertex -84.40486252424809 -11.364427743065024 29.500000000000004
  endloop
endfacet
facet normal 0.0 0.0 -1.0
  outer loop
    vertex -21.404862524248095 18.635572256934978 28.000000000000004
    vertex -84.40486252424809 -11.364427743065024 28.000000000000004
    vertex -84.40486252424809 18.635572256934978 28.000000000000004
  endloop
endfacet
facet normal 0.0 0.0 -1.0
  outer loop
    vertex -84.40486252424809 -11.364427743065024 28.000000000000004
    vertex -21.404862524248095 18.635572256934978 28.000000000000004
    vertex -21.404862524248095 -11.364427743065024 28.000000000000004
  endloop
endfacet
facet normal 1.0 0.0 0.0
  outer loop
    vertex -21.404862524248095 18.635572256934978 28.000000000000004
    vertex -21.404862524248095 -11.364427743065024 29.500000000000004
    vertex -21.404862524248095 -11.364427743065024 28.000000000000004
  endloop
endfacet
facet normal 1.0 0.0 0.0
  outer loop
    vertex -21.404862524248095 -11.364427743065024 29.500000000000004
    vertex -21.404862524248095 18.635572256934978 28.000000000000004
    vertex -21.404862524248095 18.635572256934978 29.500000000000004
  endloop
endfacet
facet normal -0.0 1.0 0.0
  outer loop
    vertex -84.40486252424809 18.635572256934978 29.500000000000004
    vertex -21.404862524248095 18.635572256934978 28.000000000000004
    vertex -84.40486252424809 18.635572256934978 28.000000000000004
  endloop
endfacet
facet normal -0.0 1.0 0.0
  outer loop
    vertex -21.404862524248095 18.635572256934978 28.000000000000004
    vertex -84.40486252424809 18.635572256934978 29.500000000000004
    vertex -21.404862524248095 18.635572256934978 29.500000000000004
  endloop
endfacet
facet normal -0.0 -0.0 1.0
  outer loop
    vertex -21.404862524248095 -11.364427743065024 29.500000000000004
    vertex -84.40486252424809 18.635572256934978 29.500000000000004
    vertex -84.40486252424809 -11.364427743065024 29.500000000000004
  endloop
endfacet
facet normal -0.0 -0.0 1.0
  outer loop
    vertex -84.40486252424809 18.635572256934978 29.500000000000004
    vertex -21.404862524248095 -11.364427743065024 29.500000000000004
    vertex -21.404862524248095 18.635572256934978 29.500000000000004
  endloop
endfacet
endsolid Untitled
