solid Untitled-59828d2f
facet normal 0.0 0.0 -1.0
  outer loop
    vertex -2.8977774788672046 0.7764571353075631 0.0
    vertex -2.897777478867205 -0.7764571353075611 0.0
    vertex -3.0 3.67394039744206e-16 0.0
  endloop
endfacet
facet normal 0.0 0.0 -1.0
  outer loop
    vertex -2.897777478867205 -0.7764571353075611 0.0
    vertex -2.8977774788672046 0.7764571353075631 0.0
    vertex -2.598076211353316 -1.4999999999999991 0.0
  endloop
endfacet
facet normal 0.0 0.0 -1.0
  outer loop
    vertex -2.598076211353316 -1.4999999999999991 0.0
    vertex -2.8977774788672046 0.7764571353075631 0.0
    vertex -2.5980762113533156 1.500000000000001 0.0
  endloop
endfacet
facet normal 0.0 0.0 -1.0
  outer loop
    vertex -2.598076211353316 -1.4999999999999991 0.0
    vertex -2.5980762113533156 1.500000000000001 0.0
    vertex -2.1213203435596437 -2.1213203435596415 0.0
  endloop
endfacet
facet normal 0.0 0.0 -1.0
  outer loop
    vertex -2.1213203435596437 -2.1213203435596415 0.0
    vertex -2.5980762113533156 1.500000000000001 0.0
    vertex -2.1213203435596424 2.121320343559643 0.0
  endloop
endfacet
facet normal 0.0 0.0 -1.0
  outer loop
    vertex -2.1213203435596437 -2.1213203435596415 0.0
    vertex -2.1213203435596424 2.121320343559643 0.0
    vertex -1.5000000000000013 -2.5980762113533156 0.0
  endloop
endfacet
facet normal 0.0 0.0 -1.0
  outer loop
    vertex -1.5000000000000013 -2.5980762113533156 0.0
    vertex -2.1213203435596424 2.121320343559643 0.0
    vertex -1.4999999999999991 2.598076211353316 0.0
  endloop
endfacet
facet normal 0.0 0.0 -1.0
  outer loop
    vertex -1.5000000000000013 -2.5980762113533156 0.0
    vertex -1.4999999999999991 2.598076211353316 0.0
    vertex -0.7764571353075645 -2.8977774788672046 0.0
  endloop
endfacet
facet normal 0.0 0.0 -1.0
  outer loop
    vertex -0.7764571353075645 -2.8977774788672046 0.0
    vertex -1.4999999999999991 2.598076211353316 0.0
    vertex -0.7764571353075619 2.897777478867205 0.0
  endloop
endfacet
facet normal 0.0 0.0 -1.0
  outer loop
    vertex -0.7764571353075645 -2.8977774788672046 0.0
    vertex -0.7764571353075619 2.897777478867205 0.0
    vertex -5.510910596163089e-16 -3.0 0.0
  endloop
endfacet
facet normal 0.0 0.0 -1.0
  outer loop
    vertex -5.510910596163089e-16 -3.0 0.0
    vertex -0.7764571353075619 2.897777478867205 0.0
    vertex 1.8369701987210297e-16 3.0 0.0
  endloop
endfacet
facet normal 0.0 0.0 -1.0
  outer loop
    vertex -5.510910596163089e-16 -3.0 0.0
    vertex 1.8369701987210297e-16 3.0 0.0
    vertex 0.7764571353075608 -2.897777478867205 0.0
  endloop
endfacet
facet normal 0.0 0.0 -1.0
  outer loop
    vertex 0.7764571353075608 -2.897777478867205 0.0
    vertex 1.8369701987210297e-16 3.0 0.0
    vertex 0.7764571353075629 2.897777478867205 0.0
  endloop
endfacet
facet normal 0.0 0.0 -1.0
  outer loop
    vertex 0.7764571353075608 -2.897777478867205 0.0
    vertex 0.7764571353075629 2.897777478867205 0.0
    vertex 1.499999999999998 -2.5980762113533173 0.0
  endloop
endfacet
facet normal 0.0 0.0 -1.0
  outer loop
    vertex 1.499999999999998 -2.5980762113533173 0.0
    vertex 0.7764571353075629 2.897777478867205 0.0
    vertex 1.5000000000000002 2.5980762113533156 0.0
  endloop
endfacet
facet normal 0.0 0.0 -1.0
  outer loop
    vertex 1.499999999999998 -2.5980762113533173 0.0
    vertex 1.5000000000000002 2.5980762113533156 0.0
    vertex 2.121320343559642 -2.1213203435596433 0.0
  endloop
endfacet
facet normal 0.0 0.0 -1.0
  outer loop
    vertex 2.121320343559642 -2.1213203435596433 0.0
    vertex 1.5000000000000002 2.5980762113533156 0.0
    vertex 2.1213203435596424 2.1213203435596424 0.0
  endloop
endfacet
facet normal 0.0 0.0 -1.0
  outer loop
    vertex 2.121320343559642 -2.1213203435596433 0.0
    vertex 2.1213203435596424 2.1213203435596424 0.0
    vertex 2.598076211353315 -1.5000000000000016 0.0
  endloop
endfacet
facet normal 0.0 0.0 -1.0
  outer loop
    vertex 2.598076211353315 -1.5000000000000016 0.0
    vertex 2.1213203435596424 2.1213203435596424 0.0
    vertex 2.5980762113533156 1.5 0.0
  endloop
endfacet
facet normal 0.0 0.0 -1.0
  outer loop
    vertex 2.598076211353315 -1.5000000000000016 0.0
    vertex 2.5980762113533156 1.5 0.0
    vertex 2.897777478867204 -0.7764571353075648 0.0
  endloop
endfacet
facet normal 0.0 0.0 -1.0
  outer loop
    vertex 2.897777478867204 -0.7764571353075648 0.0
    vertex 2.5980762113533156 1.5 0.0
    vertex 2.897777478867205 0.7764571353075622 0.0
  endloop
endfacet
facet normal 0.0 0.0 -1.0
  outer loop
    vertex 2.897777478867204 -0.7764571353075648 0.0
    vertex 2.897777478867205 0.7764571353075622 0.0
    vertex 3.0 0.0 0.0
  endloop
endfacet
facet normal 0.793353340291235 -0.608761429008721 0.0
  outer loop
    vertex 2.598076211353315 -1.5000000000000016 0.0
    vertex 2.121320343559642 -2.1213203435596433 6.0
    vertex 2.121320343559642 -2.1213203435596433 0.0
  endloop
endfacet
facet normal 0.793353340291235 -0.608761429008721 0.0
  outer loop
    vertex 2.121320343559642 -2.1213203435596433 6.0
    vertex 2.598076211353315 -1.5000000000000016 0.0
    vertex 2.598076211353315 -1.5000000000000016 6.0
  endloop
endfacet
facet normal 0.9914448613738104 -0.13052619222005177 0.0
  outer loop
    vertex 3.0 0.0 0.0
    vertex 2.897777478867204 -0.7764571353075648 6.0
    vertex 2.897777478867204 -0.7764571353075648 0.0
  endloop
endfacet
facet normal 0.9914448613738104 -0.13052619222005177 0.0
  outer loop
    vertex 2.897777478867204 -0.7764571353075648 6.0
    vertex 3.0 0.0 0.0
    vertex 3.0 0.0 6.0
  endloop
endfacet
facet normal 0.9238795325112865 -0.38268343236509045 0.0
  outer loop
    vertex 2.897777478867204 -0.7764571353075648 0.0
    vertex 2.598076211353315 -1.5000000000000016 6.0
    vertex 2.598076211353315 -1.5000000000000016 0.0
  endloop
endfacet
facet normal 0.9238795325112865 -0.38268343236509045 0.0
  outer loop
    vertex 2.598076211353315 -1.5000000000000016 6.0
    vertex 2.897777478867204 -0.7764571353075648 0.0
    vertex 2.897777478867204 -0.7764571353075648 6.0
  endloop
endfacet
facet normal 0.6087614290087202 -0.7933533402912355 0.0
  outer loop
    vertex 2.121320343559642 -2.1213203435596433 6.0
    vertex 1.499999999999998 -2.5980762113533173 0.0
    vertex 2.121320343559642 -2.1213203435596433 0.0
  endloop
endfacet
facet normal 0.6087614290087202 -0.7933533402912355 0.0
  outer loop
    vertex 1.499999999999998 -2.5980762113533173 0.0
    vertex 2.121320343559642 -2.1213203435596433 6.0
    vertex 1.499999999999998 -2.5980762113533173 6.0
  endloop
endfacet
facet normal 0.6087614290087207 0.7933533402912352 0.0
  outer loop
    vertex 1.5000000000000002 2.5980762113533156 6.0
    vertex 2.1213203435596424 2.1213203435596424 0.0
    vertex 1.5000000000000002 2.5980762113533156 0.0
  endloop
endfacet
facet normal 0.6087614290087207 0.7933533402912352 0.0
  outer loop
    vertex 2.1213203435596424 2.1213203435596424 0.0
    vertex 1.5000000000000002 2.5980762113533156 6.0
    vertex 2.1213203435596424 2.1213203435596424 6.0
  endloop
endfacet
facet normal 0.3826834323650902 0.9238795325112867 0.0
  outer loop
    vertex 0.7764571353075629 2.897777478867205 6.0
    vertex 1.5000000000000002 2.5980762113533156 0.0
    vertex 0.7764571353075629 2.897777478867205 0.0
  endloop
endfacet
facet normal 0.3826834323650902 0.9238795325112867 0.0
  outer loop
    vertex 1.5000000000000002 2.5980762113533156 0.0
    vertex 0.7764571353075629 2.897777478867205 6.0
    vertex 1.5000000000000002 2.5980762113533156 6.0
  endloop
endfacet
facet normal 0.7933533402912353 0.6087614290087204 0.0
  outer loop
    vertex 2.1213203435596424 2.1213203435596424 0.0
    vertex 2.5980762113533156 1.5 6.0
    vertex 2.5980762113533156 1.5 0.0
  endloop
endfacet
facet normal 0.7933533402912353 0.6087614290087204 0.0
  outer loop
    vertex 2.5980762113533156 1.5 6.0
    vertex 2.1213203435596424 2.1213203435596424 0.0
    vertex 2.1213203435596424 2.1213203435596424 6.0
  endloop
endfacet
facet normal 0.9238795325112867 0.38268343236509006 0.0
  outer loop
    vertex 2.5980762113533156 1.5 0.0
    vertex 2.897777478867205 0.7764571353075622 6.0
    vertex 2.897777478867205 0.7764571353075622 0.0
  endloop
endfacet
facet normal 0.9238795325112867 0.38268343236509006 0.0
  outer loop
    vertex 2.897777478867205 0.7764571353075622 6.0
    vertex 2.5980762113533156 1.5 0.0
    vertex 2.5980762113533156 1.5 6.0
  endloop
endfacet
facet normal 0.9914448613738104 0.1305261922200513 0.0
  outer loop
    vertex 2.897777478867205 0.7764571353075622 0.0
    vertex 3.0 0.0 6.0
    vertex 3.0 0.0 0.0
  endloop
endfacet
facet normal 0.9914448613738104 0.1305261922200513 0.0
  outer loop
    vertex 3.0 0.0 6.0
    vertex 2.897777478867205 0.7764571353075622 0.0
    vertex 2.897777478867205 0.7764571353075622 6.0
  endloop
endfacet
facet normal 0.13052619222005168 0.9914448613738105 0.0
  outer loop
    vertex 1.8369701987210297e-16 3.0 6.0
    vertex 0.7764571353075629 2.897777478867205 0.0
    vertex 1.8369701987210297e-16 3.0 0.0
  endloop
endfacet
facet normal 0.13052619222005168 0.9914448613738105 0.0
  outer loop
    vertex 0.7764571353075629 2.897777478867205 0.0
    vertex 1.8369701987210297e-16 3.0 6.0
    vertex 0.7764571353075629 2.897777478867205 6.0
  endloop
endfacet
facet normal -0.13052619222005135 0.9914448613738105 0.0
  outer loop
    vertex -0.7764571353075619 2.897777478867205 6.0
    vertex 1.8369701987210297e-16 3.0 0.0
    vertex -0.7764571353075619 2.897777478867205 0.0
  endloop
endfacet
facet normal -0.13052619222005135 0.9914448613738105 0.0
  outer loop
    vertex 1.8369701987210297e-16 3.0 0.0
    vertex -0.7764571353075619 2.897777478867205 6.0
    vertex 1.8369701987210297e-16 3.0 6.0
  endloop
endfacet
facet normal -0.3826834323650902 0.9238795325112866 0.0
  outer loop
    vertex -1.4999999999999991 2.598076211353316 6.0
    vertex -0.7764571353075619 2.897777478867205 0.0
    vertex -1.4999999999999991 2.598076211353316 0.0
  endloop
endfacet
facet normal -0.3826834323650902 0.9238795325112866 0.0
  outer loop
    vertex -0.7764571353075619 2.897777478867205 0.0
    vertex -1.4999999999999991 2.598076211353316 6.0
    vertex -0.7764571353075619 2.897777478867205 6.0
  endloop
endfacet
facet normal -0.6087614290087202 0.7933533402912356 0.0
  outer loop
    vertex -2.1213203435596424 2.121320343559643 6.0
    vertex -1.4999999999999991 2.598076211353316 0.0
    vertex -2.1213203435596424 2.121320343559643 0.0
  endloop
endfacet
facet normal -0.6087614290087202 0.7933533402912356 0.0
  outer loop
    vertex -1.4999999999999991 2.598076211353316 0.0
    vertex -2.1213203435596424 2.121320343559643 6.0
    vertex -1.4999999999999991 2.598076211353316 6.0
  endloop
endfacet
facet normal -0.793353340291235 0.608761429008721 0.0
  outer loop
    vertex -2.1213203435596424 2.121320343559643 6.0
    vertex -2.5980762113533156 1.500000000000001 0.0
    vertex -2.5980762113533156 1.500000000000001 6.0
  endloop
endfacet
facet normal -0.793353340291235 0.608761429008721 0.0
  outer loop
    vertex -2.5980762113533156 1.500000000000001 0.0
    vertex -2.1213203435596424 2.121320343559643 6.0
    vertex -2.1213203435596424 2.121320343559643 0.0
  endloop
endfacet
facet normal -0.9238795325112867 0.3826834323650899 0.0
  outer loop
    vertex -2.5980762113533156 1.500000000000001 6.0
    vertex -2.8977774788672046 0.7764571353075631 0.0
    vertex -2.8977774788672046 0.7764571353075631 6.0
  endloop
endfacet
facet normal -0.9238795325112867 0.3826834323650899 0.0
  outer loop
    vertex -2.8977774788672046 0.7764571353075631 0.0
    vertex -2.5980762113533156 1.500000000000001 6.0
    vertex -2.5980762113533156 1.500000000000001 0.0
  endloop
endfacet
facet normal -0.9914448613738104 0.13052619222005166 0.0
  outer loop
    vertex -2.8977774788672046 0.7764571353075631 6.0
    vertex -3.0 3.67394039744206e-16 0.0
    vertex -3.0 3.67394039744206e-16 6.0
  endloop
endfacet
facet normal -0.9914448613738104 0.13052619222005166 0.0
  outer loop
    vertex -3.0 3.67394039744206e-16 0.0
    vertex -2.8977774788672046 0.7764571353075631 6.0
    vertex -2.8977774788672046 0.7764571353075631 0.0
  endloop
endfacet
facet normal -0.9914448613738106 -0.13052619222005146 -0.0
  outer loop
    vertex -3.0 3.67394039744206e-16 6.0
    vertex -2.897777478867205 -0.7764571353075611 0.0
    vertex -2.897777478867205 -0.7764571353075611 6.0
  endloop
endfacet
facet normal -0.9914448613738106 -0.13052619222005146 -0.0
  outer loop
    vertex -2.897777478867205 -0.7764571353075611 0.0
    vertex -3.0 3.67394039744206e-16 6.0
    vertex -3.0 3.67394039744206e-16 0.0
  endloop
endfacet
facet normal -0.9238795325112868 -0.38268343236508945 -0.0
  outer loop
    vertex -2.897777478867205 -0.7764571353075611 6.0
    vertex -2.598076211353316 -1.4999999999999991 0.0
    vertex -2.598076211353316 -1.4999999999999991 6.0
  endloop
endfacet
facet normal -0.9238795325112868 -0.38268343236508945 -0.0
  outer loop
    vertex -2.598076211353316 -1.4999999999999991 0.0
    vertex -2.897777478867205 -0.7764571353075611 6.0
    vertex -2.897777478867205 -0.7764571353075611 0.0
  endloop
endfacet
facet normal -0.7933533402912357 -0.6087614290087201 -0.0
  outer loop
    vertex -2.598076211353316 -1.4999999999999991 6.0
    vertex -2.1213203435596437 -2.1213203435596415 0.0
    vertex -2.1213203435596437 -2.1213203435596415 6.0
  endloop
endfacet
facet normal -0.7933533402912357 -0.6087614290087201 -0.0
  outer loop
    vertex -2.1213203435596437 -2.1213203435596415 0.0
    vertex -2.598076211353316 -1.4999999999999991 6.0
    vertex -2.598076211353316 -1.4999999999999991 0.0
  endloop
endfacet
facet normal -0.6087614290087212 -0.7933533402912347 -0.0
  outer loop
    vertex -1.5000000000000013 -2.5980762113533156 6.0
    vertex -2.1213203435596437 -2.1213203435596415 0.0
    vertex -1.5000000000000013 -2.5980762113533156 0.0
  endloop
endfacet
facet normal -0.6087614290087212 -0.7933533402912347 -0.0
  outer loop
    vertex -2.1213203435596437 -2.1213203435596415 0.0
    vertex -1.5000000000000013 -2.5980762113533156 6.0
    vertex -2.1213203435596437 -2.1213203435596415 6.0
  endloop
endfacet
facet normal -0.38268343236509045 -0.9238795325112866 -0.0
  outer loop
    vertex -0.7764571353075645 -2.8977774788672046 6.0
    vertex -1.5000000000000013 -2.5980762113533156 0.0
    vertex -0.7764571353075645 -2.8977774788672046 0.0
  endloop
endfacet
facet normal -0.38268343236509045 -0.9238795325112866 -0.0
  outer loop
    vertex -1.5000000000000013 -2.5980762113533156 0.0
    vertex -0.7764571353075645 -2.8977774788672046 6.0
    vertex -1.5000000000000013 -2.5980762113533156 6.0
  endloop
endfacet
facet normal -0.1305261922200519 -0.9914448613738104 -0.0
  outer loop
    vertex -5.510910596163089e-16 -3.0 6.0
    vertex -0.7764571353075645 -2.8977774788672046 0.0
    vertex -5.510910596163089e-16 -3.0 0.0
  endloop
endfacet
facet normal -0.1305261922200519 -0.9914448613738104 -0.0
  outer loop
    vertex -0.7764571353075645 -2.8977774788672046 0.0
    vertex -5.510910596163089e-16 -3.0 6.0
    vertex -0.7764571353075645 -2.8977774788672046 6.0
  endloop
endfacet
facet normal 0.13052619222005146 -0.9914448613738105 0.0
  outer loop
    vertex 0.7764571353075608 -2.897777478867205 6.0
    vertex -5.510910596163089e-16 -3.0 0.0
    vertex 0.7764571353075608 -2.897777478867205 0.0
  endloop
endfacet
facet normal 0.13052619222005146 -0.9914448613738105 0.0
  outer loop
    vertex -5.510910596163089e-16 -3.0 0.0
    vertex 0.7764571353075608 -2.897777478867205 6.0
    vertex -5.510910596163089e-16 -3.0 6.0
  endloop
endfacet
facet normal 0.3826834323650891 -0.9238795325112871 0.0
  outer loop
    vertex 1.499999999999998 -2.5980762113533173 6.0
    vertex 0.7764571353075608 -2.897777478867205 0.0
    vertex 1.499999999999998 -2.5980762113533173 0.0
  endloop
endfacet
facet normal 0.3826834323650891 -0.9238795325112871 0.0
  outer loop
    vertex 0.7764571353075608 -2.897777478867205 0.0
    vertex 1.499999999999998 -2.5980762113533173 6.0
    vertex 0.7764571353075608 -2.897777478867205 6.0
  endloop
endfacet
facet normal -0.0 -0.0 1.0
  outer loop
    vertex -2.897777478867205 -0.7764571353075611 6.0
    vertex -2.8977774788672046 0.7764571353075631 6.0
    vertex -3.0 3.67394039744206e-16 6.0
  endloop
endfacet
facet normal -0.0 -0.0 1.0
  outer loop
    vertex -2.8977774788672046 0.7764571353075631 6.0
    vertex -2.897777478867205 -0.7764571353075611 6.0
    vertex -2.598076211353316 -1.4999999999999991 6.0
  endloop
endfacet
facet normal -0.0 -0.0 1.0
  outer loop
    vertex -2.8977774788672046 0.7764571353075631 6.0
    vertex -2.598076211353316 -1.4999999999999991 6.0
    vertex -2.5980762113533156 1.500000000000001 6.0
  endloop
endfacet
facet normal -0.0 -0.0 1.0
  outer loop
    vertex -2.5980762113533156 1.500000000000001 6.0
    vertex -2.598076211353316 -1.4999999999999991 6.0
    vertex -2.1213203435596437 -2.1213203435596415 6.0
  endloop
endfacet
facet normal -0.0 -0.0 1.0
  outer loop
    vertex -2.5980762113533156 1.500000000000001 6.0
    vertex -2.1213203435596437 -2.1213203435596415 6.0
    vertex -2.1213203435596424 2.121320343559643 6.0
  endloop
endfacet
facet normal -0.0 -0.0 1.0
  outer loop
    vertex -2.1213203435596424 2.121320343559643 6.0
    vertex -2.1213203435596437 -2.1213203435596415 6.0
    vertex -1.5000000000000013 -2.5980762113533156 6.0
  endloop
endfacet
facet normal -0.0 -0.0 1.0
  outer loop
    vertex -2.1213203435596424 2.121320343559643 6.0
    vertex -1.5000000000000013 -2.5980762113533156 6.0
    vertex -1.4999999999999991 2.598076211353316 6.0
  endloop
endfacet
facet normal -0.0 -0.0 1.0
  outer loop
    vertex -1.4999999999999991 2.598076211353316 6.0
    vertex -1.5000000000000013 -2.5980762113533156 6.0
    vertex -0.7764571353075645 -2.8977774788672046 6.0
  endloop
endfacet
facet normal -0.0 -0.0 1.0
  outer loop
    vertex -1.4999999999999991 2.598076211353316 6.0
    vertex -0.7764571353075645 -2.8977774788672046 6.0
    vertex -0.7764571353075619 2.897777478867205 6.0
  endloop
endfacet
facet normal -0.0 -0.0 1.0
  outer loop
    vertex -0.7764571353075619 2.897777478867205 6.0
    vertex -0.7764571353075645 -2.8977774788672046 6.0
    vertex -5.510910596163089e-16 -3.0 6.0
  endloop
endfacet
facet normal -0.0 -0.0 1.0
  outer loop
    vertex -0.7764571353075619 2.897777478867205 6.0
    vertex -5.510910596163089e-16 -3.0 6.0
    vertex 1.8369701987210297e-16 3.0 6.0
  endloop
endfacet
facet normal -0.0 -0.0 1.0
  outer loop
    vertex 1.8369701987210297e-16 3.0 6.0
    vertex -5.510910596163089e-16 -3.0 6.0
    vertex 0.7764571353075608 -2.897777478867205 6.0
  endloop
endfacet
facet normal -0.0 -0.0 1.0
  outer loop
    vertex 1.8369701987210297e-16 3.0 6.0
    vertex 0.7764571353075608 -2.897777478867205 6.0
    vertex 0.7764571353075629 2.897777478867205 6.0
  endloop
endfacet
facet normal -0.0 -0.0 1.0
  outer loop
    vertex 0.7764571353075629 2.897777478867205 6.0
    vertex 0.7764571353075608 -2.897777478867205 6.0
    vertex 1.499999999999998 -2.5980762113533173 6.0
  endloop
endfacet
facet normal -0.0 -0.0 1.0
  outer loop
    vertex 0.7764571353075629 2.897777478867205 6.0
    vertex 1.499999999999998 -2.5980762113533173 6.0
    vertex 1.5000000000000002 2.5980762113533156 6.0
  endloop
endfacet
facet normal -0.0 -0.0 1.0
  outer loop
    vertex 1.5000000000000002 2.5980762113533156 6.0
    vertex 1.499999999999998 -2.5980762113533173 6.0
    vertex 2.121320343559642 -2.1213203435596433 6.0
  endloop
endfacet
facet normal -0.0 -0.0 1.0
  outer loop
    vertex 1.5000000000000002 2.5980762113533156 6.0
    vertex 2.121320343559642 -2.1213203435596433 6.0
    vertex 2.1213203435596424 2.1213203435596424 6.0
  endloop
endfacet
facet normal -0.0 -0.0 1.0
  outer loop
    vertex 2.1213203435596424 2.1213203435596424 6.0
    vertex 2.121320343559642 -2.1213203435596433 6.0
    vertex 2.598076211353315 -1.5000000000000016 6.0
  endloop
endfacet
facet normal -0.0 -0.0 1.0
  outer loop
    vertex 2.1213203435596424 2.1213203435596424 6.0
    vertex 2.598076211353315 -1.5000000000000016 6.0
    vertex 2.5980762113533156 1.5 6.0
  endloop
endfacet
facet normal -0.0 -0.0 1.0
  outer loop
    vertex 2.5980762113533156 1.5 6.0
    vertex 2.598076211353315 -1.5000000000000016 6.0
    vertex 2.897777478867204 -0.7764571353075648 6.0
  endloop
endfacet
facet normal -0.0 -0.0 1.0
  outer loop
    vertex 2.5980762113533156 1.5 6.0
    vertex 2.897777478867204 -0.7764571353075648 6.0
    vertex 2.897777478867205 0.7764571353075622 6.0
  endloop
endfacet
facet normal -0.0 -0.0 1.0
  outer loop
    vertex 2.897777478867205 0.7764571353075622 6.0
    vertex 2.897777478867204 -0.7764571353075648 6.0
    vertex 3.0 0.0 6.0
  endloop
endfacet
endsolid Untitled-59828d2f
